<svg width="336" height="299" viewBox="0 0 336 299" fill="none" xmlns="http://www.w3.org/2000/svg">
<g clip-path="url(#clip0)">
<path d="M288.757 247.054C283.088 263.683 275.797 280.276 266.456 296.069C266.249 296.425 266.039 296.774 265.828 297.128L242.704 289.802C242.837 289.467 242.983 289.092 243.139 288.682C252.466 264.527 308.737 117.357 306.211 88.3406C306.483 90.7157 315.286 169.319 288.757 247.054Z" fill="#E6E6E6"/>
<path d="M270.918 297.483C270.604 297.804 270.281 298.124 269.956 298.436L252.609 292.94C252.844 292.656 253.117 292.321 253.431 291.942C258.569 285.659 273.843 266.847 288.757 247.054C304.786 225.783 320.402 203.382 322.59 194.177C322.151 196.27 308.463 259.988 270.918 297.483Z" fill="#E6E6E6"/>
<path d="M279.589 52.4381C279.582 52.4381 279.576 52.44 279.57 52.4402V15.2014C279.57 11.1698 277.97 7.30322 275.124 4.4524C272.277 1.60158 268.416 0 264.39 0H147.973C143.947 0 140.086 1.60158 137.239 4.4524C134.392 7.30322 132.793 11.1698 132.793 15.2014V34.292C132.472 34.2989 132.166 34.4315 131.941 34.6614C131.716 34.8914 131.59 35.2004 131.589 35.5224V44.9781C131.59 45.3 131.716 45.6091 131.941 45.839C132.166 46.0689 132.472 46.2015 132.793 46.2083V56.1141H132.731C132.57 56.1141 132.409 56.146 132.26 56.2079C132.111 56.2699 131.975 56.3607 131.861 56.4752C131.746 56.5897 131.656 56.7257 131.594 56.8753C131.532 57.0249 131.5 57.1852 131.5 57.3471V75.6322C131.5 75.7942 131.532 75.9545 131.594 76.1041C131.656 76.2537 131.746 76.3896 131.861 76.5041C131.975 76.6186 132.111 76.7095 132.26 76.7714C132.409 76.8334 132.57 76.8653 132.731 76.8653H132.793V84.1275H132.774C132.612 84.1275 132.452 84.1594 132.303 84.2214C132.153 84.2833 132.017 84.3742 131.903 84.4887C131.789 84.6032 131.698 84.7391 131.636 84.8887C131.574 85.0383 131.543 85.1987 131.543 85.3606V103.825C131.543 103.986 131.574 104.147 131.636 104.296C131.698 104.446 131.789 104.582 131.903 104.696C132.017 104.811 132.153 104.902 132.303 104.964C132.452 105.026 132.612 105.058 132.774 105.058H132.793V283.534C132.793 287.565 134.392 291.432 137.239 294.283C140.086 297.133 143.947 298.735 147.973 298.735H264.39C268.416 298.735 272.277 297.133 275.124 294.283C277.97 291.432 279.57 287.565 279.57 283.534V88.6489C279.576 88.6489 279.582 88.6508 279.589 88.6508C279.877 88.6508 280.162 88.594 280.428 88.4837C280.694 88.3734 280.936 88.2116 281.139 88.0077C281.343 87.8039 281.504 87.5618 281.614 87.2954C281.725 87.029 281.781 86.7435 281.781 86.4552V54.6339C281.781 54.0516 281.55 53.4931 281.139 53.0813C280.728 52.6695 280.17 52.4382 279.589 52.4381Z" fill="#3F3D56"/>
<path d="M270.507 19.4565V279.274C270.506 282.37 269.277 285.338 267.091 287.527C264.904 289.715 261.94 290.945 258.849 290.945H153.515C150.424 290.945 147.459 289.715 145.273 287.527C143.087 285.338 141.858 282.37 141.857 279.274V19.4565C141.857 16.3602 143.085 13.3906 145.271 11.2012C147.458 9.01175 150.423 7.78174 153.515 7.78174H169.277V9.83046C169.278 12.3797 170.29 14.8242 172.09 16.6268C173.89 18.4294 176.331 19.4426 178.876 19.4437H232.466C235.009 19.4381 237.445 18.4228 239.24 16.6205C241.036 14.8183 242.044 12.3764 242.044 9.83046V7.80303H258.849C261.937 7.80303 264.899 9.03012 267.085 11.215C269.27 13.3998 270.501 16.3639 270.507 19.4565Z" fill="white"/>
<path d="M99.699 145.788C99.0761 145.547 98.4078 145.445 97.7414 145.49C97.075 145.535 96.4265 145.726 95.8416 146.049C95.2568 146.372 94.7499 146.82 94.3565 147.36C93.9631 147.901 93.6929 148.521 93.5648 149.178L56.0288 169.617L62.6285 177.056L97.4874 154.652C98.603 154.795 99.732 154.522 100.66 153.887C101.589 153.251 102.252 152.297 102.525 151.204C102.797 150.111 102.66 148.957 102.139 147.958C101.619 146.96 100.75 146.188 99.699 145.788H99.699Z" fill="#FFB8B8"/>
<path d="M90.1259 292.849L94.8031 289.819L85.3599 270.311L78.4565 274.782L90.1259 292.849Z" fill="#FFB8B8"/>
<path d="M106.633 288.326L91.9327 297.848L88.259 292.16L97.4919 286.179C98.9419 285.24 100.705 284.916 102.394 285.279C104.082 285.641 105.558 286.661 106.495 288.113L106.633 288.326L106.633 288.326Z" fill="#2F2E41"/>
<path d="M37.6455 293.554H43.2159L45.8669 272.037H37.6455V293.554Z" fill="#FFB8B8"/>
<path d="M53.959 298.734H36.4518V291.96H47.4478C48.3028 291.96 49.1495 292.129 49.9395 292.456C50.7295 292.784 51.4473 293.264 52.0519 293.87C52.6565 294.475 53.1361 295.194 53.4633 295.985C53.7906 296.776 53.959 297.624 53.959 298.481V298.734Z" fill="#2F2E41"/>
<path d="M165.448 42.1638H153.965C153.683 42.1638 153.412 42.0516 153.213 41.852C153.013 41.6523 152.901 41.3814 152.901 41.099C152.901 40.8166 153.013 40.5458 153.213 40.3461C153.412 40.1464 153.683 40.0342 153.965 40.0342H165.448C165.73 40.0342 166.001 40.1464 166.2 40.3461C166.399 40.5458 166.511 40.8166 166.511 41.099C166.511 41.3814 166.399 41.6523 166.2 41.852C166.001 42.0516 165.73 42.1638 165.448 42.1638Z" fill="#3F3D56"/>
<path d="M165.448 45.1453H153.965C153.683 45.1453 153.412 45.0331 153.213 44.8334C153.013 44.6337 152.901 44.3629 152.901 44.0805C152.901 43.798 153.013 43.5272 153.213 43.3275C153.412 43.1278 153.683 43.0156 153.965 43.0156H165.448C165.73 43.0156 166.001 43.1278 166.2 43.3275C166.399 43.5272 166.511 43.798 166.511 44.0805C166.511 44.3629 166.399 44.6337 166.2 44.8334C166.001 45.0331 165.73 45.1453 165.448 45.1453Z" fill="#3F3D56"/>
<path d="M165.448 48.1267H153.965C153.683 48.1267 153.412 48.0145 153.213 47.8148C153.013 47.6151 152.901 47.3443 152.901 47.0619C152.901 46.7795 153.013 46.5086 153.213 46.3089C153.412 46.1093 153.683 45.9971 153.965 45.9971H165.448C165.73 45.9971 166.001 46.1093 166.2 46.3089C166.399 46.5086 166.511 46.7795 166.511 47.0619C166.511 47.3443 166.399 47.6151 166.2 47.8148C166.001 48.0145 165.73 48.1267 165.448 48.1267Z" fill="#3F3D56"/>
<path d="M254.463 45.1668H254.076L253.928 45.0432C254.416 44.4596 254.684 43.7222 254.685 42.9604C254.681 42.3337 254.492 41.722 254.142 41.2028C253.791 40.6836 253.295 40.2801 252.715 40.0433C252.136 39.8066 251.499 39.7473 250.886 39.8729C250.273 39.9984 249.711 40.3033 249.271 40.7488C248.831 41.1944 248.532 41.7606 248.413 42.376C248.295 42.9914 248.361 43.6282 248.603 44.2059C248.846 44.7837 249.254 45.2764 249.776 45.6218C250.299 45.9672 250.911 46.1498 251.537 46.1464C252.296 46.141 253.029 45.8732 253.613 45.3882L253.757 45.5118V45.9036L256.199 48.3527L256.93 47.6201L254.463 45.1668ZM251.537 45.1668C251.102 45.1684 250.675 45.0407 250.312 44.7997C249.949 44.5586 249.665 44.2152 249.497 43.8127C249.328 43.4102 249.283 42.9667 249.366 42.5384C249.45 42.1101 249.658 41.7161 249.965 41.4064C250.272 41.0966 250.664 40.885 251.091 40.7982C251.518 40.7114 251.961 40.7534 252.364 40.9188C252.767 41.0843 253.112 41.3657 253.356 41.7276C253.599 42.0895 253.73 42.5156 253.732 42.9519L253.732 42.9604C253.734 43.2485 253.679 43.5341 253.57 43.8008C253.461 44.0676 253.302 44.3104 253.099 44.5152C252.897 44.7201 252.657 44.8831 252.392 44.9949C252.126 45.1067 251.842 45.1651 251.554 45.1667C251.549 45.1668 251.543 45.1668 251.537 45.1668H251.537Z" fill="#3F3D56"/>
<path d="M188.843 81.3495H168.213C166.972 81.3495 165.782 80.8559 164.904 79.9772C164.027 79.0986 163.534 77.9068 163.534 76.6642C163.534 75.4216 164.027 74.2299 164.904 73.3513C165.782 72.4726 166.972 71.979 168.213 71.979H188.843C190.084 71.979 191.274 72.4726 192.151 73.3513C193.028 74.2299 193.521 75.4216 193.521 76.6642C193.521 77.9068 193.028 79.0986 192.151 79.9772C191.274 80.8559 190.084 81.3495 188.843 81.3495Z" fill="#30B395"/>
<path d="M252 91.5719H166.086C165.409 91.5719 164.76 91.3026 164.282 90.8233C163.803 90.3441 163.534 89.6941 163.534 89.0163C163.534 88.3385 163.803 87.6885 164.282 87.2092C164.76 86.7299 165.409 86.4607 166.086 86.4607H252C252.677 86.4607 253.326 86.7299 253.804 87.2092C254.283 87.6885 254.552 88.3385 254.552 89.0163C254.552 89.6941 254.283 90.3441 253.804 90.8233C253.326 91.3026 252.677 91.5719 252 91.5719Z" fill="#E6E6E6"/>
<path d="M197.645 101.794H166.086C165.409 101.794 164.76 101.525 164.282 101.046C163.803 100.566 163.534 99.9162 163.534 99.2384C163.534 98.5607 163.803 97.9106 164.282 97.4314C164.76 96.9521 165.409 96.6829 166.086 96.6829H197.645C198.321 96.6829 198.971 96.9521 199.449 97.4314C199.928 97.9106 200.197 98.5607 200.197 99.2384C200.197 99.9162 199.928 100.566 199.449 101.046C198.971 101.525 198.321 101.794 197.645 101.794Z" fill="#E6E6E6"/>
<path d="M188.843 194.647H168.213C166.972 194.647 165.782 194.153 164.904 193.275C164.027 192.396 163.534 191.204 163.534 189.962C163.534 188.719 164.027 187.528 164.904 186.649C165.782 185.77 166.972 185.277 168.213 185.277H188.843C190.084 185.277 191.274 185.77 192.151 186.649C193.028 187.528 193.521 188.719 193.521 189.962C193.521 191.204 193.028 192.396 192.151 193.275C191.274 194.153 190.084 194.647 188.843 194.647Z" fill="#30B395"/>
<path d="M252 204.869H166.086C165.409 204.869 164.76 204.6 164.282 204.121C163.803 203.641 163.534 202.991 163.534 202.314C163.534 201.636 163.803 200.986 164.282 200.507C164.76 200.027 165.409 199.758 166.086 199.758H252C252.677 199.758 253.326 200.027 253.804 200.507C254.283 200.986 254.552 201.636 254.552 202.314C254.552 202.991 254.283 203.641 253.804 204.121C253.326 204.6 252.677 204.869 252 204.869Z" fill="#E6E6E6"/>
<path d="M197.645 215.092H166.086C165.409 215.092 164.76 214.822 164.282 214.343C163.803 213.864 163.534 213.214 163.534 212.536C163.534 211.858 163.803 211.208 164.282 210.729C164.76 210.25 165.409 209.98 166.086 209.98H197.645C198.321 209.98 198.971 210.25 199.449 210.729C199.928 211.208 200.197 211.858 200.197 212.536C200.197 213.214 199.928 213.864 199.449 214.343C198.971 214.822 198.321 215.092 197.645 215.092Z" fill="#E6E6E6"/>
<path d="M188.843 247.036H168.213C166.972 247.036 165.782 246.543 164.904 245.664C164.027 244.786 163.534 243.594 163.534 242.351C163.534 241.109 164.027 239.917 164.904 239.038C165.782 238.16 166.972 237.666 168.213 237.666H188.843C190.084 237.666 191.274 238.16 192.151 239.038C193.028 239.917 193.521 241.109 193.521 242.351C193.521 243.594 193.028 244.786 192.151 245.664C191.274 246.543 190.084 247.036 188.843 247.036Z" fill="#30B395"/>
<path d="M252 257.259H166.086C165.409 257.259 164.76 256.99 164.282 256.51C163.803 256.031 163.534 255.381 163.534 254.703C163.534 254.026 163.803 253.375 164.282 252.896C164.76 252.417 165.409 252.148 166.086 252.148H252C252.677 252.148 253.326 252.417 253.804 252.896C254.283 253.375 254.552 254.026 254.552 254.703C254.552 255.381 254.283 256.031 253.804 256.51C253.326 256.99 252.677 257.259 252 257.259Z" fill="#E6E6E6"/>
<path d="M197.645 267.481H166.086C165.409 267.481 164.76 267.212 164.282 266.732C163.803 266.253 163.534 265.603 163.534 264.925C163.534 264.248 163.803 263.598 164.282 263.118C164.76 262.639 165.409 262.37 166.086 262.37H197.645C198.321 262.37 198.971 262.639 199.449 263.118C199.928 263.598 200.197 264.248 200.197 264.925C200.197 265.603 199.928 266.253 199.449 266.732C198.971 267.212 198.321 267.481 197.645 267.481Z" fill="#E6E6E6"/>
<path d="M264.121 168.026H99.9492C98.9907 168.025 98.0718 167.643 97.3941 166.965C96.7163 166.286 96.3351 165.366 96.334 164.406V119.683C96.3351 118.723 96.7163 117.803 97.394 117.124C98.0718 116.446 98.9907 116.064 99.9492 116.063H264.121C265.08 116.064 265.999 116.446 266.676 117.124C267.354 117.803 267.735 118.723 267.737 119.683V164.406C267.735 165.366 267.354 166.286 266.676 166.965C265.999 167.643 265.08 168.025 264.121 168.026Z" fill="#30B395"/>
<path d="M40.9287 221.234C42.4981 232.261 34.1874 281.115 35.1104 281.111L47.0447 281.047C47.47 280.229 52.9481 253.868 54.6664 249.639C57.0652 243.77 59.4852 237.828 60.4294 231.558C61.3184 225.672 60.8803 219.675 60.3018 213.75C60.3287 213.574 60.3134 213.394 60.2571 213.225C60.2007 213.055 60.1051 212.902 59.9779 212.777C59.8508 212.653 59.6959 212.56 59.5259 212.507C59.3559 212.454 59.1758 212.442 59.0004 212.472L42.9872 211.646C39.6868 211.476 38.9042 210.752 39.406 213.997C39.7548 216.421 40.5799 218.78 40.9287 221.234Z" fill="#2F2E41"/>
<path d="M44.0763 194.421C40.8227 199.106 37.4116 204.499 38.4919 210.108C39.3128 214.368 42.5537 217.668 45.6117 220.756C57.8353 233.049 81.938 287.287 81.938 287.287C93.5697 279.833 81.6609 287.5 93.4641 279.62C92.4178 279.539 68.6469 193.965 66.6776 193.85C58.7115 193.322 51.8384 192.543 44.0763 194.421Z" fill="#2F2E41"/>
<path d="M56.946 149.827C55.2933 148.351 43.6794 143.799 43.6794 143.799C43.4658 143.771 43.2491 143.777 43.0377 143.818C42.3767 143.985 42.0752 144.808 42.2163 145.473C42.3575 146.138 41.1993 157.069 40.9009 162.039C40.3779 170.714 45.4793 190.365 45.4344 190.966C45.2596 193.109 44.3226 195.118 42.7939 196.627C43.1912 197.121 68.4256 198.112 70.142 198.696C70.4885 198.256 68.1881 167.087 68.0823 165.326C67.9058 162.653 59.1277 151.851 56.946 149.827Z" fill="#E6E6E6"/>
<path d="M38.9473 217.459C39.5453 217.161 40.0708 216.735 40.4867 216.212C40.9027 215.689 41.199 215.08 41.3547 214.43C41.5105 213.779 41.522 213.103 41.3883 212.447C41.2547 211.792 40.9791 211.174 40.5811 210.636L51.2281 151.628L41.2927 151.497L33.899 209.849C33.0421 210.578 32.4821 211.597 32.3252 212.712C32.1683 213.827 32.4253 214.961 33.0476 215.899C33.6699 216.837 34.6141 217.514 35.7015 217.802C36.7888 218.089 37.9437 217.967 38.9473 217.459H38.9473Z" fill="#FFB8B8"/>
<path d="M38.8616 156.007C38.4473 156.037 38.0346 155.929 37.6877 155.7C37.0965 155.193 41.9196 147.437 42.8723 147.322C45.9729 146.964 49.1628 146.845 52.1698 147.684C55.1768 148.523 58.0051 150.431 59.3491 153.255C59.9105 154.431 55.8402 160.347 53.9901 159.478C51.7742 158.439 41.7793 156.079 38.8616 156.007Z" fill="#E6E6E6"/>
<path d="M49.8053 143.163C55.9687 143.163 60.9651 138.16 60.9651 131.987C60.9651 125.815 55.9687 120.812 49.8053 120.812C43.6419 120.812 38.6455 125.815 38.6455 131.987C38.6455 138.16 43.6419 143.163 49.8053 143.163Z" fill="#FFB8B8"/>
<path d="M38.844 150.466C40.3948 150.628 41.9615 150.399 43.4009 149.798C44.8402 149.198 46.1062 148.245 47.0829 147.028C48.0597 145.811 48.7161 144.368 48.9921 142.831C49.2681 141.294 49.1548 139.712 48.6627 138.231C48.2186 136.894 47.4762 135.668 47.0695 134.319C46.6628 132.97 46.6517 131.375 47.5538 130.293C49.3187 128.177 52.7205 129.508 55.4414 129.088C58.3406 128.639 60.5649 125.854 60.7969 122.925C61.0289 119.997 59.5046 117.098 57.2355 115.236C54.9664 113.374 52.04 112.458 49.1204 112.17C45.371 111.801 41.5899 112.405 38.1412 113.924C34.6924 115.443 31.6923 117.825 29.4295 120.842C27.1667 123.859 25.7176 127.408 25.2217 131.148C24.7258 134.888 25.1998 138.693 26.598 142.196C27.8177 145.253 29.8101 148.099 32.6399 149.773C35.4698 151.447 39.2074 151.768 42.0278 150.079" fill="#2F2E41"/>
<path d="M158.336 136.507H129.816C128.005 136.507 126.532 134.406 126.532 131.822C126.532 129.239 128.005 127.137 129.816 127.137H158.336C160.147 127.137 161.62 129.239 161.62 131.822C161.62 134.406 160.147 136.507 158.336 136.507Z" fill="white"/>
<path d="M234.987 146.73H129.084C128.407 146.73 127.758 146.461 127.279 145.981C126.801 145.502 126.532 144.852 126.532 144.174C126.532 143.496 126.801 142.846 127.279 142.367C127.758 141.888 128.407 141.619 129.084 141.619H234.987C235.664 141.619 236.313 141.888 236.792 142.367C237.27 142.846 237.539 143.496 237.539 144.174C237.539 144.852 237.27 145.502 236.792 145.981C236.313 146.461 235.664 146.73 234.987 146.73Z" fill="#E6E6E6"/>
<path d="M180.632 156.952H129.084C128.407 156.952 127.758 156.683 127.279 156.204C126.801 155.724 126.532 155.074 126.532 154.396C126.532 153.719 126.801 153.069 127.279 152.589C127.758 152.11 128.407 151.841 129.084 151.841H180.632C181.309 151.841 181.958 152.11 182.437 152.589C182.915 153.069 183.184 153.719 183.184 154.396C183.184 155.074 182.915 155.724 182.437 156.204C181.958 156.683 181.309 156.952 180.632 156.952Z" fill="#E6E6E6"/>
<path d="M336 298.148H0V299H336V298.148Z" fill="#3F3D56"/>
</g>
<defs>
<clipPath id="clip0">
<rect width="336" height="299" fill="white"/>
</clipPath>
</defs>
</svg>
