<svg width="350" height="350" viewBox="0 0 350 350" fill="none" xmlns="http://www.w3.org/2000/svg">
    <rect width="350" height="350" fill="white"/>
    <path d="M336.319 214.259C333.792 217.023 330.658 219.08 327.257 220.677H327.252C326.932 220.829 326.612 220.977 326.288 221.117H326.284L326.28 221.121L326.276 221.117H326.272C326.272 221.117 326.272 221.118 326.272 221.118C326.271 221.119 326.271 221.119 326.271 221.12C326.27 221.12 326.27 221.12 326.269 221.121C326.269 221.121 326.268 221.121 326.268 221.121H326.263L326.259 221.117C326.255 221.121 326.255 221.121 326.251 221.117L326.247 221.121L326.243 221.117H326.239C326.235 221.121 326.235 221.121 326.231 221.117H326.227C323.95 222.102 321.612 222.939 319.228 223.622C305.205 227.603 290.466 228.374 276.105 225.876C275.83 225.827 275.56 225.777 275.285 225.728V192.423C275.556 192.308 275.83 192.193 276.105 192.082C277.898 191.339 279.713 190.656 281.549 190.033C284.191 189.129 286.87 188.355 289.586 187.709C298.447 185.562 307.59 184.822 316.68 185.516C318.333 185.639 319.983 185.817 321.628 186.05C325.07 186.53 328.68 187.368 331.855 188.822H331.859C332.323 189.039 332.779 189.265 333.23 189.507C336.052 191.039 338.432 193.145 339.884 196.032C340.406 197.069 340.782 198.173 341 199.313V199.321C341.082 199.715 341.14 200.114 341.185 200.508C341.702 205.369 339.687 210.572 336.319 214.259Z" fill="#F2F2F2"/>
    <path d="M341.185 200.508C341.144 200.518 341.103 200.523 341.062 200.524C334.034 200.832 327.016 201.289 320.007 201.896H319.995C319.966 201.9 319.942 201.9 319.913 201.904C312.717 202.528 305.536 203.31 298.37 204.249C298.067 204.29 297.767 204.331 297.467 204.368C292.512 205.029 287.565 205.762 282.628 206.569C280.45 206.926 278.275 207.298 276.105 207.685C275.83 207.735 275.56 207.78 275.285 207.833V206.589C275.56 206.536 275.834 206.491 276.105 206.441C283.334 205.16 290.587 204.042 297.865 203.087C299.695 202.84 301.528 202.607 303.363 202.388C308.663 201.748 313.972 201.195 319.289 200.73C319.679 200.697 320.064 200.664 320.454 200.631C327.26 200.052 334.076 199.613 340.902 199.313C340.935 199.311 340.968 199.314 341 199.321C341.657 199.379 341.796 200.364 341.185 200.508Z" fill="white"/>
    <path d="M326.59 219.907C317.835 219.971 309.21 216.255 303.017 210.105C301.27 208.363 299.73 206.425 298.429 204.328C298.011 203.658 297.035 204.397 297.449 205.061C302.258 212.781 310.269 218.28 319.102 220.302C321.61 220.871 324.176 221.146 326.747 221.121C327.532 221.115 327.37 219.901 326.59 219.907V219.907Z" fill="white"/>
    <path d="M289.586 187.709C289.549 187.824 289.482 187.928 289.392 188.009C289.302 188.091 289.192 188.147 289.073 188.173C287.067 188.699 285.129 189.457 283.297 190.431C280.623 191.845 278.194 193.682 276.105 195.872C275.994 195.983 275.888 196.094 275.785 196.209C275.613 196.389 275.449 196.574 275.285 196.763V194.973C275.547 194.693 275.822 194.418 276.105 194.155C277.754 192.575 279.581 191.192 281.549 190.033C284.191 189.129 286.87 188.355 289.586 187.709Z" fill="white"/>
    <path d="M332.581 188.498C327.012 190.893 322.352 195.006 319.28 200.236C319.217 200.385 319.217 200.553 319.278 200.704C319.338 200.854 319.456 200.974 319.605 201.038C319.755 201.097 319.921 201.096 320.071 201.036C320.22 200.975 320.34 200.859 320.406 200.712C323.339 195.773 327.763 191.893 333.041 189.632C333.765 189.323 333.307 188.187 332.581 188.498L332.581 188.498Z" fill="white"/>
    <path d="M349.369 153.623C348.418 157.245 346.592 160.526 344.323 163.519L344.319 163.523C344.11 163.803 343.892 164.086 343.667 164.357V164.361C342.092 166.303 340.391 168.14 338.575 169.859C332.05 176.084 324.678 181.355 316.68 185.516C304.097 192.094 290.034 195.983 276.105 196.205C275.999 196.209 275.892 196.209 275.785 196.209C275.617 196.213 275.449 196.213 275.285 196.213V177.55C275.551 177.041 275.826 176.532 276.105 176.027C279.725 169.508 284.139 163.464 289.246 158.033C289.369 157.898 289.496 157.762 289.623 157.631C291.543 155.602 293.556 153.671 295.662 151.837C303.764 144.707 313.127 139.157 323.269 135.474C326.539 134.3 330.124 133.359 333.611 133.174C334.124 133.146 334.633 133.133 335.146 133.137C338.358 133.183 341.439 133.942 344.069 135.823C345.011 136.5 345.855 137.303 346.58 138.209C346.834 138.525 347.068 138.849 347.294 139.182V139.186C350.009 143.251 350.641 148.79 349.369 153.623Z" fill="#F2F2F2"/>
    <path d="M347.293 139.182V139.186C347.263 139.212 347.23 139.236 347.195 139.256C341.123 142.791 335.128 146.455 329.209 150.248C329.201 150.252 329.197 150.256 329.189 150.26C329.165 150.277 329.14 150.292 329.115 150.305C323.031 154.206 317.033 158.238 311.121 162.402C310.875 162.575 310.624 162.751 310.374 162.928C306.292 165.814 302.252 168.763 298.255 171.772C290.706 177.464 283.323 183.366 276.105 189.478C275.83 189.708 275.56 189.942 275.285 190.176V188.579C275.556 188.345 275.83 188.111 276.105 187.881C278.87 185.545 281.66 183.241 284.474 180.97C285.316 180.293 286.161 179.615 287.006 178.946C294.514 172.963 302.19 167.204 310.034 161.667H310.038C311.58 160.579 313.126 159.5 314.674 158.431C319.072 155.401 323.519 152.443 328.015 149.558C328.339 149.349 328.668 149.139 328.996 148.93C334.752 145.251 340.583 141.692 346.489 138.254C346.518 138.236 346.548 138.221 346.58 138.208C347.195 137.962 347.773 138.775 347.293 139.182Z" fill="white"/>
    <path d="M343.375 163.147C335.651 167.274 326.289 167.994 317.951 165.427C315.595 164.696 313.331 163.696 311.206 162.444C310.525 162.045 310.003 163.153 310.678 163.549C318.52 168.149 328.167 169.294 336.927 166.979C339.412 166.316 341.812 165.367 344.077 164.149C344.77 163.779 344.062 162.779 343.375 163.147V163.147Z" fill="white"/>
    <path d="M285.591 178.171C285.208 176.021 285.077 173.834 285.2 171.655C285.476 166.683 286.997 161.861 289.623 157.632C291.545 155.604 293.558 153.672 295.663 151.837C295.683 151.957 295.671 152.08 295.629 152.194C295.587 152.308 295.516 152.409 295.423 152.488C293.891 153.887 292.526 155.459 291.356 157.172C287.176 163.278 285.545 170.777 286.81 178.069C286.83 178.152 286.829 178.238 286.806 178.321C286.784 178.403 286.741 178.478 286.681 178.538C286.593 178.615 286.487 178.667 286.373 178.69C286.259 178.712 286.141 178.705 286.03 178.668C285.92 178.63 285.821 178.565 285.744 178.478C285.667 178.391 285.614 178.285 285.591 178.171Z" fill="white"/>
    <path d="M334.102 132.547C330.283 137.258 328.064 143.066 327.771 149.126C327.785 149.287 327.863 149.436 327.986 149.541C328.11 149.646 328.27 149.698 328.431 149.685C328.591 149.668 328.739 149.59 328.843 149.467C328.947 149.344 329 149.185 328.99 149.024C329.294 143.286 331.412 137.794 335.036 133.338C335.534 132.727 334.601 131.935 334.102 132.547Z" fill="white"/>
    <path d="M291.617 146.039V146.043C291.588 146.396 291.556 146.745 291.519 147.094V147.102C291.233 149.587 290.788 152.05 290.185 154.477C289.898 155.668 289.586 156.851 289.246 158.033C289.205 158.185 289.16 158.337 289.115 158.485V158.489C288.113 161.928 286.915 165.308 285.529 168.611C282.978 174.692 279.821 180.5 276.105 185.947C275.839 186.345 275.564 186.744 275.285 187.138V122.835C275.56 122.818 275.83 122.818 276.105 122.827C276.236 122.827 276.368 122.831 276.499 122.839C277.657 122.9 278.8 123.122 279.896 123.5C280.282 123.627 280.655 123.771 281.024 123.931C285.5 125.894 289.016 130.222 290.542 134.981C291.687 138.545 291.917 142.294 291.617 146.039Z" fill="#F2F2F2"/>
    <path d="M281.024 123.931C281.015 123.971 280.999 124.01 280.979 124.046C279.318 127.278 277.693 130.526 276.105 133.79C275.83 134.353 275.556 134.919 275.285 135.482V132.69C275.556 132.131 275.829 131.573 276.105 131.014C277.332 128.526 278.579 126.049 279.847 123.582C279.861 123.553 279.877 123.526 279.896 123.5C280.274 122.958 281.209 123.327 281.024 123.931Z" fill="white"/>
    <path d="M291.748 146.7C291.675 146.832 291.601 146.963 291.519 147.094C290.314 149.196 288.88 151.157 287.244 152.942C284.101 156.355 280.315 159.113 276.105 161.06C275.834 161.191 275.56 161.314 275.285 161.429V160.095C275.56 159.971 275.834 159.844 276.105 159.713C282.2 156.803 287.262 152.102 290.616 146.236C290.665 146.152 290.73 146.08 290.809 146.024C290.888 145.968 290.978 145.929 291.073 145.911C291.168 145.893 291.265 145.895 291.359 145.918C291.453 145.941 291.541 145.983 291.617 146.043C291.669 146.078 291.713 146.122 291.748 146.174C291.783 146.225 291.807 146.283 291.819 146.344C291.831 146.405 291.831 146.468 291.819 146.529C291.807 146.59 291.783 146.648 291.748 146.7Z" fill="white"/>
    <path d="M276.105 72.5504V103.758H275.284V103.425H0.82052V103.758H0V72.5504C0.00352347 68.9577 1.43104 65.5132 3.96925 62.9727C6.50746 60.4323 9.94901 59.0035 13.5386 59H262.566C266.156 59.0035 269.598 60.4323 272.136 62.9727C274.674 65.5132 276.102 68.9577 276.105 72.5504Z" fill="#30B395"/>
    <path d="M262.566 59H13.5386C9.94901 59.0035 6.50746 60.4323 3.96925 62.9727C1.43104 65.5132 0.00352347 68.9577 0 72.5504V250.759C0.00352347 254.352 1.43104 257.797 3.96925 260.337C6.50746 262.877 9.94901 264.306 13.5386 264.31H262.566C266.156 264.306 269.598 262.877 272.136 260.337C274.674 257.797 276.102 254.352 276.105 250.759V72.5504C276.102 68.9577 274.674 65.5132 272.136 62.9727C269.598 60.4323 266.156 59.0035 262.566 59ZM275.284 250.759C275.28 254.134 273.939 257.369 271.555 259.755C269.171 262.142 265.938 263.484 262.566 263.488H13.5386C10.1669 263.484 6.93447 262.142 4.5503 259.755C2.16613 257.369 0.824822 254.134 0.82052 250.759V72.5504C0.824822 69.1758 2.16613 65.9406 4.5503 63.5543C6.93447 61.168 10.1669 59.8255 13.5386 59.8212H262.566C265.938 59.8255 269.171 61.168 271.555 63.5543C273.939 65.9406 275.28 69.1758 275.284 72.5504V250.759Z" fill="#3F3D56"/>
    <path d="M55.7955 89.591C60.3271 89.591 64.0007 85.9142 64.0007 81.3786C64.0007 76.8431 60.3271 73.1663 55.7955 73.1663C51.2639 73.1663 47.5903 76.8431 47.5903 81.3786C47.5903 85.9142 51.2639 89.591 55.7955 89.591Z" fill="white"/>
    <path d="M220.31 89.591C224.841 89.591 228.515 85.9142 228.515 81.3786C228.515 76.8431 224.841 73.1663 220.31 73.1663C215.778 73.1663 212.104 76.8431 212.104 81.3786C212.104 85.9142 215.778 89.591 220.31 89.591Z" fill="white"/>
    <path d="M79.502 172.948H30.6907C28.6229 172.945 26.6404 172.122 25.1782 170.659C23.7159 169.195 22.8935 167.211 22.8911 165.141V142.051C22.8935 139.981 23.7159 137.997 25.1782 136.534C26.6404 135.07 28.6229 134.247 30.6907 134.245H79.502C81.5698 134.247 83.5523 135.07 85.0145 136.534C86.4767 137.997 87.2992 139.981 87.3016 142.051V165.141C87.2992 167.211 86.4767 169.195 85.0145 170.659C83.5523 172.122 81.5698 172.945 79.502 172.948Z" fill="#30B395"/>
    <path d="M162.538 172.948H113.727C111.659 172.945 109.676 172.122 108.214 170.659C106.752 169.195 105.93 167.211 105.927 165.141V142.051C105.93 139.981 106.752 137.997 108.214 136.534C109.676 135.07 111.659 134.247 113.727 134.245H162.538C164.606 134.247 166.588 135.07 168.051 136.534C169.513 137.997 170.335 139.981 170.338 142.051V165.141C170.335 167.211 169.513 169.195 168.051 170.659C166.588 172.122 164.606 172.945 162.538 172.948Z" fill="#30B395"/>
    <path d="M162.538 232.607H113.727C111.596 232.605 109.554 231.757 108.047 230.249C106.541 228.741 105.693 226.697 105.691 224.564V201.474C105.693 199.341 106.541 197.297 108.047 195.789C109.554 194.281 111.596 193.433 113.727 193.431H162.538C164.669 193.433 166.711 194.281 168.218 195.789C169.724 197.297 170.572 199.341 170.574 201.474V224.564C170.572 226.697 169.724 228.741 168.218 230.249C166.711 231.757 164.669 232.605 162.538 232.607Z" fill="#F2F2F2"/>
    <path d="M79.3418 232.607H30.5306C28.4001 232.605 26.3575 231.757 24.851 230.249C23.3444 228.741 22.497 226.697 22.4946 224.564V201.474C22.497 199.341 23.3444 197.297 24.851 195.789C26.3575 194.281 28.4001 193.433 30.5306 193.431H79.3418C81.4723 193.433 83.5149 194.281 85.0214 195.789C86.528 197.297 87.3754 199.341 87.3778 201.474V224.564C87.3754 226.697 86.528 228.741 85.0214 230.249C83.5149 231.757 81.4723 232.605 79.3418 232.607Z" fill="#F2F2F2"/>
    <path d="M245.574 232.607H196.763C194.632 232.605 192.59 231.757 191.083 230.249C189.577 228.741 188.729 226.697 188.727 224.564V201.474C188.729 199.341 189.577 197.297 191.083 195.789C192.59 194.281 194.632 193.433 196.763 193.431H245.574C247.705 193.433 249.747 194.281 251.254 195.789C252.76 197.297 253.608 199.341 253.61 201.474V224.564C253.608 226.697 252.76 228.741 251.254 230.249C249.747 231.757 247.705 232.605 245.574 232.607Z" fill="#F2F2F2"/>
    <path d="M245.574 172.994H196.763C194.632 172.992 192.59 172.144 191.083 170.636C189.577 169.128 188.729 167.084 188.727 164.951V141.861C188.729 139.728 189.577 137.684 191.083 136.176C192.59 134.668 194.632 133.82 196.763 133.818H245.574C247.705 133.82 249.747 134.668 251.254 136.176C252.76 137.684 253.608 139.728 253.61 141.861V164.951C253.608 167.084 252.76 169.128 251.254 170.636C249.747 172.144 247.705 172.992 245.574 172.994Z" fill="#F2F2F2"/>
    <path d="M55.0966 166.844C62.4065 166.844 68.3323 160.913 68.3323 153.596C68.3323 146.28 62.4065 140.349 55.0966 140.349C47.7867 140.349 41.8608 146.28 41.8608 153.596C41.8608 160.913 47.7867 166.844 55.0966 166.844Z" fill="white"/>
    <path d="M53.7847 158.65C53.487 158.65 53.1971 158.554 52.9588 158.375L52.944 158.364L49.8335 155.98C49.6893 155.87 49.5682 155.732 49.4772 155.575C49.3861 155.418 49.327 155.244 49.3031 155.064C49.2791 154.884 49.2909 154.701 49.3378 154.525C49.3846 154.349 49.4655 154.185 49.576 154.041C49.6864 153.896 49.8242 153.775 49.9814 153.684C50.1386 153.593 50.3122 153.534 50.4923 153.51C50.6723 153.487 50.8552 153.499 51.0306 153.546C51.2061 153.593 51.3705 153.674 51.5145 153.785L53.5293 155.331L58.2904 149.116C58.4008 148.972 58.5385 148.851 58.6957 148.76C58.8528 148.669 59.0263 148.61 59.2062 148.587C59.3861 148.563 59.5689 148.575 59.7442 148.622C59.9196 148.669 60.0839 148.75 60.2279 148.86L60.1983 148.9L60.2287 148.861C60.5192 149.084 60.7092 149.414 60.7572 149.778C60.8051 150.141 60.707 150.509 60.4844 150.8L54.8842 158.11C54.7546 158.278 54.5881 158.415 54.3974 158.508C54.2068 158.602 53.9971 158.65 53.7847 158.65Z" fill="#30B395"/>
    <path d="M138.369 166.653C145.679 166.653 151.605 160.722 151.605 153.406C151.605 146.089 145.679 140.158 138.369 140.158C131.059 140.158 125.133 146.089 125.133 153.406C125.133 160.722 131.059 166.653 138.369 166.653Z" fill="white"/>
    <path d="M137.057 158.46C136.759 158.46 136.469 158.364 136.231 158.185L136.216 158.174L133.106 155.79C132.815 155.567 132.625 155.238 132.576 154.874C132.528 154.51 132.627 154.142 132.849 153.851C133.072 153.56 133.402 153.369 133.765 153.321C134.128 153.273 134.496 153.371 134.787 153.594L136.802 155.141L141.563 148.926C141.673 148.782 141.811 148.661 141.968 148.57C142.125 148.479 142.299 148.42 142.479 148.396C142.658 148.373 142.841 148.385 143.017 148.432C143.192 148.478 143.356 148.56 143.5 148.67L143.471 148.71L143.501 148.671C143.792 148.894 143.982 149.224 144.03 149.587C144.078 149.951 143.979 150.319 143.757 150.61L138.157 157.92C138.027 158.088 137.86 158.225 137.67 158.318C137.479 158.412 137.269 158.46 137.057 158.46Z" fill="#30B395"/>
    <path d="M227.823 215.918C228.257 215.442 228.583 214.877 228.776 214.261C228.968 213.646 229.024 212.996 228.939 212.357C228.853 211.718 228.629 211.105 228.281 210.562C227.934 210.019 227.472 209.559 226.927 209.214L219.538 169.723L210.551 173.059L220.64 210.828C220.122 211.782 219.972 212.893 220.217 213.95C220.463 215.008 221.087 215.938 221.973 216.566C222.858 217.193 223.942 217.474 225.021 217.355C226.099 217.235 227.096 216.724 227.823 215.918Z" fill="#A0616A"/>
    <path d="M156.115 155.66C156.138 155.905 156.141 156.152 156.124 156.397L173.597 169.857L178.552 167.821L182.6 174.904L174.179 179.362C173.498 179.722 172.72 179.852 171.959 179.731C171.199 179.611 170.498 179.247 169.963 178.694L152.497 160.672C151.573 160.881 150.607 160.803 149.728 160.448C148.849 160.094 148.098 159.48 147.576 158.689C147.054 157.897 146.785 156.965 146.805 156.017C146.825 155.069 147.133 154.149 147.688 153.38C148.243 152.611 149.018 152.029 149.912 151.713C150.805 151.396 151.774 151.359 152.688 151.606C153.603 151.854 154.421 152.374 155.033 153.098C155.646 153.822 156.023 154.716 156.115 155.66H156.115Z" fill="#A0616A"/>
    <path d="M196.936 286.01H191.907L189.514 270.699L196.937 270.7L196.936 286.01Z" fill="#A0616A"/>
    <path d="M198.219 290.89L182.001 290.89V290.685C182.001 289.855 182.165 289.033 182.482 288.267C182.799 287.5 183.264 286.804 183.85 286.217C184.436 285.63 185.132 285.165 185.898 284.848C186.664 284.53 187.485 284.367 188.314 284.367H188.314L198.22 284.367L198.219 290.89Z" fill="#2F2E41"/>
    <path d="M215.808 286.01H210.779L208.386 270.699L215.809 270.7L215.808 286.01Z" fill="#A0616A"/>
    <path d="M217.091 290.89L200.874 290.89V290.685C200.874 289.855 201.037 289.033 201.354 288.267C201.671 287.5 202.136 286.804 202.722 286.217C203.309 285.63 204.004 285.165 204.77 284.848C205.536 284.53 206.357 284.367 207.186 284.367H207.186L217.092 284.367L217.091 290.89Z" fill="#2F2E41"/>
    <path d="M190.862 282.985C190.403 282.985 189.96 282.814 189.621 282.504C189.281 282.195 189.069 281.77 189.027 281.312L184.644 222.311L184.851 222.294L215.013 219.812L215.022 220.027L217.419 281.148C217.429 281.396 217.388 281.644 217.299 281.876C217.211 282.108 217.076 282.32 216.904 282.499C216.732 282.678 216.525 282.82 216.297 282.917C216.068 283.015 215.823 283.065 215.574 283.065H209.66C209.219 283.067 208.791 282.91 208.456 282.622C208.121 282.334 207.901 281.935 207.836 281.498L199.804 232.123C199.796 232.072 199.77 232.026 199.729 231.994C199.689 231.962 199.638 231.946 199.587 231.95C199.535 231.953 199.487 231.976 199.452 232.014C199.417 232.052 199.397 232.101 199.396 232.153L199.032 280.903C199.028 281.374 198.845 281.825 198.52 282.166C198.195 282.506 197.753 282.71 197.283 282.735L190.962 282.982C190.928 282.984 190.895 282.985 190.862 282.985Z" fill="#2F2E41"/>
    <path d="M196.011 147.745C201.576 147.745 206.087 143.23 206.087 137.66C206.087 132.09 201.576 127.575 196.011 127.575C190.446 127.575 185.935 132.09 185.935 137.66C185.935 143.23 190.446 147.745 196.011 147.745Z" fill="#A0616A"/>
    <path d="M197.961 226.073C193.557 226.06 189.174 225.461 184.928 224.291C184.519 224.172 184.164 223.915 183.923 223.565C183.681 223.214 183.567 222.791 183.601 222.366C184.957 201.961 185.276 186.126 182.424 175.17C181.208 170.5 181.76 165.582 183.938 161.677C187.216 155.8 193.241 152.223 199.667 152.346C199.974 152.352 200.285 152.363 200.598 152.379C210.351 152.882 217.951 161.713 217.539 172.065L215.577 221.409C215.57 221.769 215.457 222.118 215.251 222.414C215.046 222.709 214.757 222.937 214.422 223.069C209.16 225.051 203.584 226.068 197.961 226.073Z" fill="#3F3D56"/>
    <path d="M184.082 178.959L176.534 169.701C176.319 169.438 176.164 169.131 176.078 168.803C175.992 168.474 175.978 168.13 176.037 167.795C176.096 167.46 176.227 167.142 176.42 166.862C176.612 166.583 176.863 166.348 177.155 166.174L187.379 160.076C188.732 158.983 190.462 158.473 192.191 158.655C193.919 158.838 195.505 159.699 196.6 161.05C197.694 162.401 198.209 164.131 198.031 165.862C197.853 167.592 196.997 169.181 195.65 170.281L187.66 179.057C187.431 179.308 187.15 179.507 186.838 179.64C186.525 179.773 186.188 179.837 185.848 179.828C185.509 179.818 185.175 179.736 184.87 179.586C184.565 179.436 184.296 179.222 184.082 178.959Z" fill="#3F3D56"/>
    <path d="M207.826 177.797C207.515 177.658 207.239 177.454 207.015 177.199C206.791 176.943 206.625 176.642 206.527 176.316L203.13 164.94C202.392 163.365 202.309 161.561 202.898 159.924C203.487 158.288 204.701 156.952 206.273 156.21C207.845 155.467 209.647 155.38 211.284 155.965C212.921 156.551 214.259 157.763 215.004 159.334L221.575 169.267C221.762 169.55 221.887 169.871 221.939 170.207C221.992 170.543 221.971 170.886 221.879 171.213C221.787 171.54 221.626 171.844 221.406 172.103C221.187 172.362 220.914 172.571 220.606 172.715L209.794 177.781C209.486 177.925 209.151 178.001 208.812 178.004C208.472 178.007 208.135 177.936 207.826 177.797Z" fill="#3F3D56"/>
    <path d="M200.99 145.935L193.521 144.224C192.75 144.048 191.825 143.711 191.718 142.927C191.574 141.874 193.089 141.14 192.949 140.086C192.814 139.066 191.434 138.934 190.451 138.633C189.534 138.311 188.779 137.645 188.345 136.776C187.91 135.907 187.831 134.903 188.123 133.976C187.059 135.477 184.627 135.606 183.247 134.39C181.866 133.173 181.601 130.967 182.431 129.324C182.878 128.516 183.51 127.827 184.275 127.31C185.039 126.793 185.915 126.465 186.83 126.35C188.671 126.142 190.531 126.489 192.173 127.347C192.282 126.184 193.734 125.712 194.901 125.702C197.327 125.73 199.683 126.515 201.642 127.946C203.601 129.377 205.066 131.384 205.832 133.687C207.265 138.307 206.306 143.372 202.298 146.075L200.99 145.935Z" fill="#2F2E41"/>
    <path d="M276.223 291H119.914C119.805 291 119.701 290.957 119.624 290.88C119.547 290.803 119.503 290.698 119.503 290.589C119.503 290.48 119.547 290.376 119.624 290.299C119.701 290.222 119.805 290.179 119.914 290.179H276.223C276.332 290.179 276.436 290.222 276.513 290.299C276.59 290.376 276.633 290.48 276.633 290.589C276.633 290.698 276.59 290.803 276.513 290.88C276.436 290.957 276.332 291 276.223 291Z" fill="#3F3D56"/>
    </svg>
    