<svg width="314" height="301" viewBox="0 0 314 301" fill="none" xmlns="http://www.w3.org/2000/svg">
    <g clip-path="url(#clip0)">
    <path d="M183.478 71.3424H181.829V26.1541C181.829 22.7195 181.152 19.3184 179.835 16.1453C178.519 12.9721 176.59 10.0889 174.159 7.66026C171.727 5.23165 168.84 3.30522 165.663 1.99095C162.485 0.676681 159.08 0.000321891 155.641 0.000488312H59.7826C56.3437 0.000432838 52.9384 0.676889 49.7612 1.99123C46.5841 3.30558 43.6972 5.23207 41.2655 7.66071C38.8338 10.0893 36.9049 12.9726 35.5889 16.1457C34.273 19.3189 33.5956 22.7199 33.5957 26.1545V274.06C33.5957 280.997 36.3546 287.649 41.2655 292.554C46.1764 297.458 52.8371 300.214 59.7822 300.214H155.641C162.586 300.214 169.247 297.458 174.158 292.554C179.069 287.649 181.828 280.997 181.828 274.06V103.508H183.477L183.478 71.3424Z" fill="#3F3D56"/>
    <path d="M176.488 24.402V275.811C176.487 281.07 174.395 286.113 170.672 289.833C166.949 293.552 161.9 295.642 156.634 295.644H58.8078C53.5401 295.645 48.4877 293.556 44.7621 289.836C41.0364 286.117 38.9425 281.072 38.9409 275.811V24.402C38.9425 19.1411 41.0363 14.0962 44.7618 10.3769C48.4873 6.65768 53.5394 4.56866 58.8069 4.56934H70.6739C70.0912 6.00046 69.8694 7.55263 70.028 9.08941C70.1866 10.6262 70.7208 12.1005 71.5835 13.3828C72.4463 14.6652 73.6112 15.7162 74.9759 16.4435C76.3406 17.1709 77.8633 17.5523 79.4102 17.5543H135.183C136.73 17.5523 138.252 17.1709 139.617 16.4435C140.982 15.7162 142.147 14.6652 143.009 13.3828C143.872 12.1005 144.406 10.6262 144.565 9.08941C144.723 7.55263 144.502 6.00046 143.919 4.56934H156.631C161.896 4.57023 166.946 6.6595 170.67 10.3778C174.393 14.0962 176.486 19.1392 176.488 24.3982V24.402Z" fill="white"/>
    <path d="M108.764 124.981C97.6259 124.985 86.9424 120.57 79.0634 112.708C71.1844 104.845 66.7552 94.179 66.75 83.055V83.0179C66.75 82.93 66.75 82.8375 66.7551 82.7496C66.882 59.7705 85.7295 41.0576 108.764 41.0576C114.281 41.0573 119.745 42.1424 124.842 44.2508C129.939 46.3593 134.571 49.4499 138.473 53.3461C142.374 57.2423 145.469 61.8679 147.581 66.9588C149.693 72.0496 150.78 77.506 150.78 83.0164C150.78 88.5268 149.694 93.9833 147.583 99.0744C145.472 104.165 142.377 108.791 138.476 112.688C134.575 116.585 129.944 119.676 124.846 121.785C119.749 123.894 114.286 124.98 108.768 124.98H108.764V124.981ZM108.764 41.9405C97.9052 41.9647 87.4948 46.2676 79.7946 53.9142C72.0943 61.5607 67.7264 71.9332 67.6399 82.7779C67.6352 82.8717 67.6352 82.9469 67.6352 83.0183C67.6342 91.1439 70.0458 99.0874 74.5651 105.844C79.0844 112.601 85.5084 117.867 93.0246 120.978C100.541 124.088 108.812 124.902 116.791 123.318C124.771 121.733 132.101 117.821 137.854 112.075C143.608 106.33 147.526 99.0098 149.113 91.0404C150.701 83.071 149.887 74.8103 146.774 67.3031C143.661 59.7959 138.388 53.3793 131.624 48.8647C124.859 44.3502 116.906 41.9405 108.77 41.9405H108.764Z" fill="#E6E6E6"/>
    <path d="M90.3891 82.6615C95.3696 82.6615 99.4071 78.6291 99.4071 73.6549C99.4071 68.6806 95.3696 64.6482 90.3891 64.6482C85.4086 64.6482 81.3711 68.6806 81.3711 73.6549C81.3711 78.6291 85.4086 82.6615 90.3891 82.6615Z" fill="#3F3D56"/>
    <path d="M118.668 101.408H74.4281C74.3727 101.409 74.3173 101.405 74.2627 101.395L95.1865 65.2006C95.3141 64.9751 95.4994 64.7876 95.7234 64.657C95.9474 64.5265 96.2021 64.4578 96.4615 64.4578C96.7208 64.4578 96.9755 64.5265 97.1995 64.657C97.4235 64.7876 97.6088 64.9751 97.7364 65.2006L111.778 89.4893L112.451 90.6513L118.668 101.408Z" fill="#30B395"/>
    <path d="M143.298 101.409H105.036L112.45 90.6526L112.983 89.8775L122.645 75.8602C122.816 75.6457 123.03 75.4696 123.273 75.3432C123.517 75.2168 123.784 75.1431 124.058 75.1268C124.332 75.1104 124.606 75.1519 124.863 75.2484C125.12 75.3449 125.354 75.4944 125.549 75.687C125.599 75.7417 125.645 75.7996 125.688 75.8602L143.298 101.409Z" fill="#30B395"/>
    <path d="M152.209 169.099H65.2787C64.8519 169.098 64.4427 168.929 64.1409 168.627C63.8391 168.326 63.6694 167.917 63.6689 167.491V145.955C63.6695 145.528 63.8393 145.12 64.141 144.818C64.4428 144.517 64.8519 144.347 65.2787 144.347H152.209C152.636 144.347 153.045 144.517 153.347 144.818C153.648 145.12 153.818 145.528 153.819 145.955V167.491C153.818 167.918 153.648 168.326 153.347 168.628C153.045 168.929 152.636 169.098 152.209 169.099V169.099ZM65.2787 144.99C65.0225 144.99 64.7769 145.092 64.5958 145.273C64.4147 145.454 64.3129 145.699 64.3127 145.955V167.491C64.3129 167.747 64.4147 167.992 64.5958 168.173C64.7769 168.354 65.0225 168.456 65.2787 168.456H152.209C152.465 168.456 152.711 168.354 152.892 168.173C153.073 167.992 153.175 167.747 153.175 167.491V145.955C153.175 145.699 153.073 145.454 152.892 145.273C152.711 145.092 152.465 144.99 152.209 144.99H65.2787Z" fill="#E6E6E6"/>
    <path d="M76.5473 163.476C80.2814 163.476 83.3084 160.452 83.3084 156.723C83.3084 152.993 80.2814 149.97 76.5473 149.97C72.8132 149.97 69.7861 152.993 69.7861 156.723C69.7861 160.452 72.8132 163.476 76.5473 163.476Z" fill="#30B395"/>
    <path d="M92.1626 152.221C91.8637 152.221 91.577 152.339 91.3657 152.55C91.1544 152.761 91.0356 153.048 91.0356 153.346C91.0356 153.645 91.1544 153.931 91.3657 154.142C91.577 154.353 91.8637 154.472 92.1626 154.472H145.286C145.436 154.478 145.586 154.453 145.726 154.4C145.867 154.348 145.995 154.267 146.104 154.164C146.213 154.061 146.301 153.937 146.361 153.8C146.422 153.663 146.454 153.515 146.456 153.365C146.459 153.215 146.431 153.066 146.375 152.927C146.319 152.788 146.236 152.662 146.131 152.555C146.025 152.449 145.899 152.364 145.761 152.307C145.622 152.249 145.473 152.22 145.323 152.221H92.1626V152.221Z" fill="#E6E6E6"/>
    <path d="M92.1626 158.973C91.8637 158.973 91.577 159.092 91.3657 159.303C91.1544 159.514 91.0356 159.8 91.0356 160.099C91.0356 160.397 91.1544 160.684 91.3657 160.895C91.577 161.106 91.8637 161.224 92.1626 161.224H145.286C145.436 161.23 145.586 161.206 145.726 161.153C145.867 161.1 145.995 161.02 146.104 160.917C146.213 160.814 146.301 160.69 146.361 160.553C146.422 160.416 146.454 160.268 146.456 160.118C146.459 159.968 146.431 159.819 146.375 159.68C146.319 159.541 146.236 159.414 146.131 159.308C146.025 159.201 145.899 159.117 145.761 159.059C145.622 159.002 145.473 158.973 145.323 158.974H92.1626V158.973Z" fill="#E6E6E6"/>
    <path d="M152.209 205.113H65.2787C64.8519 205.113 64.4427 204.943 64.1409 204.642C63.8391 204.341 63.6694 203.932 63.6689 203.506V181.97C63.6695 181.543 63.8393 181.135 64.141 180.833C64.4428 180.532 64.8519 180.362 65.2787 180.362H152.209C152.636 180.362 153.045 180.532 153.347 180.833C153.648 181.135 153.818 181.543 153.819 181.97V203.506C153.818 203.932 153.648 204.341 153.346 204.642C153.045 204.943 152.636 205.113 152.209 205.113ZM65.2787 181.005C65.0225 181.005 64.7769 181.107 64.5958 181.288C64.4147 181.468 64.3129 181.714 64.3127 181.97V203.506C64.3129 203.762 64.4147 204.007 64.5958 204.188C64.7769 204.369 65.0225 204.471 65.2787 204.471H152.209C152.465 204.471 152.711 204.369 152.892 204.188C153.073 204.007 153.175 203.762 153.175 203.506V181.97C153.175 181.714 153.073 181.468 152.892 181.288C152.711 181.107 152.465 181.005 152.209 181.005H65.2787Z" fill="#E6E6E6"/>
    <path d="M76.5473 199.49C80.2814 199.49 83.3084 196.466 83.3084 192.737C83.3084 189.008 80.2814 185.984 76.5473 185.984C72.8132 185.984 69.7861 189.008 69.7861 192.737C69.7861 196.466 72.8132 199.49 76.5473 199.49Z" fill="#30B395"/>
    <path d="M92.1626 188.234C91.8637 188.234 91.577 188.353 91.3657 188.564C91.1544 188.775 91.0356 189.061 91.0356 189.36C91.0356 189.658 91.1544 189.945 91.3657 190.156C91.577 190.367 91.8637 190.485 92.1626 190.485H145.286C145.581 190.484 145.863 190.367 146.073 190.16C146.282 189.953 146.402 189.672 146.407 189.378C146.412 189.084 146.301 188.799 146.098 188.586C145.896 188.372 145.617 188.246 145.323 188.235H92.1626V188.234Z" fill="#E6E6E6"/>
    <path d="M92.1626 194.988C91.8637 194.988 91.577 195.107 91.3657 195.318C91.1544 195.529 91.0356 195.815 91.0356 196.114C91.0356 196.412 91.1544 196.699 91.3657 196.91C91.577 197.121 91.8637 197.239 92.1626 197.239H145.286C145.581 197.238 145.863 197.121 146.073 196.914C146.282 196.707 146.402 196.426 146.407 196.132C146.412 195.838 146.301 195.553 146.098 195.34C145.896 195.126 145.617 195 145.323 194.989H92.1626V194.988Z" fill="#E6E6E6"/>
    <path d="M152.209 241.128H65.2787C64.8519 241.127 64.4427 240.958 64.1409 240.656C63.8391 240.355 63.6694 239.946 63.6689 239.52V217.984C63.6695 217.558 63.8393 217.149 64.141 216.848C64.4428 216.546 64.8519 216.377 65.2787 216.376H152.209C152.636 216.377 153.045 216.546 153.347 216.848C153.648 217.149 153.818 217.558 153.819 217.984V239.521C153.818 239.947 153.648 240.355 153.347 240.657C153.045 240.958 152.636 241.128 152.209 241.128V241.128ZM65.2787 217.019C65.0225 217.019 64.7769 217.121 64.5958 217.302C64.4147 217.483 64.3129 217.728 64.3127 217.984V239.521C64.3129 239.776 64.4147 240.022 64.5958 240.203C64.7769 240.383 65.0225 240.485 65.2787 240.485H152.209C152.465 240.485 152.711 240.383 152.892 240.203C153.073 240.022 153.175 239.776 153.175 239.521V217.984C153.175 217.728 153.073 217.483 152.892 217.302C152.711 217.121 152.465 217.019 152.209 217.019H65.2787Z" fill="#E6E6E6"/>
    <path d="M76.5473 235.505C80.2814 235.505 83.3084 232.481 83.3084 228.752C83.3084 225.023 80.2814 221.999 76.5473 221.999C72.8132 221.999 69.7861 225.023 69.7861 228.752C69.7861 232.481 72.8132 235.505 76.5473 235.505Z" fill="#30B395"/>
    <path d="M92.1626 224.25C91.8637 224.25 91.577 224.369 91.3657 224.58C91.1544 224.791 91.0356 225.077 91.0356 225.376C91.0356 225.674 91.1544 225.96 91.3657 226.171C91.577 226.382 91.8637 226.501 92.1626 226.501H145.286C145.436 226.507 145.586 226.483 145.726 226.43C145.867 226.377 145.995 226.297 146.104 226.194C146.213 226.091 146.301 225.967 146.361 225.83C146.422 225.692 146.454 225.544 146.456 225.395C146.459 225.245 146.431 225.096 146.375 224.957C146.319 224.818 146.236 224.691 146.131 224.584C146.025 224.478 145.899 224.393 145.761 224.336C145.622 224.279 145.473 224.25 145.323 224.25H92.1626V224.25Z" fill="#E6E6E6"/>
    <path d="M92.1626 231.003C91.8637 231.003 91.577 231.121 91.3657 231.332C91.1544 231.543 91.0356 231.83 91.0356 232.128C91.0356 232.427 91.1544 232.713 91.3657 232.924C91.577 233.135 91.8637 233.254 92.1626 233.254H145.286C145.436 233.259 145.586 233.235 145.726 233.182C145.867 233.13 145.995 233.049 146.104 232.946C146.213 232.843 146.301 232.719 146.361 232.582C146.422 232.445 146.454 232.297 146.456 232.147C146.459 231.997 146.431 231.848 146.375 231.709C146.319 231.57 146.236 231.444 146.131 231.337C146.025 231.231 145.899 231.146 145.761 231.089C145.622 231.031 145.473 231.002 145.323 231.003H92.1626V231.003Z" fill="#E6E6E6"/>
    <path d="M222.155 295.352H216.887L214.382 275.062H222.155L222.155 295.352Z" fill="#FEB8B8"/>
    <path d="M223.497 300.451H206.515V300.236C206.515 298.485 207.211 296.806 208.451 295.568C209.69 294.33 211.371 293.635 213.124 293.634H223.498L223.497 300.451Z" fill="#2F2E41"/>
    <path d="M287.584 291.908L282.455 293.113L275.359 273.936L282.926 272.156L287.584 291.908Z" fill="#FEB8B8"/>
    <path d="M290.062 296.563L273.531 300.449L273.482 300.241C273.283 299.397 273.252 298.522 273.391 297.666C273.531 296.81 273.838 295.99 274.294 295.253C274.751 294.515 275.349 293.875 276.054 293.368C276.758 292.861 277.556 292.498 278.401 292.299L288.497 289.925L290.062 296.563Z" fill="#2F2E41"/>
    <path d="M221.078 209.773C221.088 208.717 221.402 183.762 228.251 174.327L228.352 174.188L252.219 177.477L251.685 182.715C252.735 183.734 260.992 192.352 263.377 212.76L288.711 280.712L276.934 281.781L242.07 207.602L223.621 288.233H211.948L221.078 209.773Z" fill="#2F2E41"/>
    <path d="M225.454 175.248L227.787 163.015C227.33 162.428 225.306 159.608 225.757 156.303C226.051 154.146 227.34 152.255 229.588 150.681L235.636 136.588L235.718 136.541C236.125 136.301 245.754 130.74 251.003 135.987C251.134 136.088 264.058 146.336 258.869 160.156L252.463 179.355L225.454 175.248Z" fill="#CCCCCC"/>
    <path d="M217.337 191.798C217.966 191.726 218.572 191.517 219.112 191.187C219.651 190.856 220.111 190.411 220.46 189.883C220.809 189.355 221.038 188.757 221.13 188.132C221.222 187.506 221.176 186.868 220.995 186.262L233.483 177.276L226.008 174.436L215.295 183.405C214.299 183.779 213.474 184.504 212.976 185.443C212.479 186.383 212.343 187.472 212.594 188.505C212.845 189.538 213.466 190.443 214.34 191.05C215.214 191.657 216.28 191.923 217.337 191.798V191.798Z" fill="#FEB8B8"/>
    <path d="M219.633 177.261L238.698 162.259L233.031 142.918C232.764 142.002 232.688 141.041 232.809 140.095C232.93 139.149 233.245 138.237 233.733 137.418C234.186 136.646 234.795 135.976 235.522 135.452C236.248 134.929 237.076 134.562 237.953 134.377C241.217 133.687 244.18 135.512 246.757 139.803L246.777 139.841C247.204 140.883 257.136 165.404 249.552 170.648C242.133 175.778 224.931 183.245 224.758 183.321L224.556 183.408L219.633 177.261Z" fill="#CCCCCC"/>
    <path d="M244.972 130.887C251.35 130.887 256.521 125.722 256.521 119.351C256.521 112.981 251.35 107.816 244.972 107.816C238.593 107.816 233.422 112.981 233.422 119.351C233.422 125.722 238.593 130.887 244.972 130.887Z" fill="#FEB8B8"/>
    <path d="M263.078 115.233C268.721 115.233 273.295 110.664 273.295 105.028C273.295 99.3925 268.721 94.8237 263.078 94.8237C257.435 94.8237 252.86 99.3925 252.86 105.028C252.86 110.664 257.435 115.233 263.078 115.233Z" fill="#2F2E41"/>
    <path d="M271.89 113.479C270.568 114.433 269.036 115.057 267.422 115.298C265.809 115.54 264.161 115.392 262.617 114.868C261.072 114.343 259.676 113.457 258.545 112.283C257.414 111.109 256.58 109.682 256.114 108.12C256.29 109.52 256.755 110.869 257.479 112.08C258.203 113.292 259.171 114.34 260.321 115.16C261.471 115.979 262.779 116.551 264.162 116.839C265.545 117.128 266.973 117.127 268.355 116.837C269.738 116.547 271.045 115.973 272.194 115.153C273.344 114.333 274.31 113.283 275.033 112.071C275.756 110.858 276.219 109.509 276.393 108.109C276.568 106.709 276.449 105.288 276.046 103.936C276.274 105.752 276.009 107.597 275.278 109.276C274.547 110.955 273.376 112.407 271.89 113.479Z" fill="#2F2E41"/>
    <path d="M231.567 113.489C233.351 110.3 234.034 108.969 236.334 107.026C238.367 105.311 240.869 104.807 242.887 106.432C245.341 105.362 248.08 105.131 250.679 105.776C253.278 106.42 255.591 107.904 257.259 109.996C258.927 112.089 259.856 114.673 259.903 117.347C259.949 120.021 259.11 122.635 257.515 124.784C255.921 126.933 253.661 128.496 251.086 129.23C248.511 129.964 245.765 129.828 243.275 128.843C240.786 127.858 238.691 126.08 237.317 123.784C235.944 121.489 235.368 118.804 235.678 116.148C233.924 115.903 233.321 113.736 231.567 113.489Z" fill="#2F2E41"/>
    <path d="M313.18 301H0.819657C0.366686 301 0 300.802 0 300.559C0 300.315 0.367109 300.117 0.819657 300.117H313.18C313.632 300.117 314 300.315 314 300.559C314 300.802 313.633 301 313.18 301Z" fill="#E6E6E6"/>
    </g>
    <defs>
    <clipPath id="clip0">
    <rect width="314" height="301" fill="white"/>
    </clipPath>
    </defs>
    </svg>
    