<svg width="392" height="254" viewBox="0 0 392 254" fill="none" xmlns="http://www.w3.org/2000/svg">
    <path d="M73.0158 90.9522C78.7543 90.9522 83.4062 86.2978 83.4062 80.5562C83.4062 74.8146 78.7543 70.1602 73.0158 70.1602C67.2774 70.1602 62.6255 74.8146 62.6255 80.5562C62.6255 86.2978 67.2774 90.9522 73.0158 90.9522Z" fill="#FFB8B8"/>
    <path d="M37.9072 205.136L40.5381 209.608L59.0301 201.583L55.147 194.983L37.9072 205.136Z" fill="#FFB8B8"/>
    <path d="M38.6952 203.136L43.8763 211.943L43.8765 211.943C44.3101 212.68 44.5944 213.496 44.713 214.343C44.8317 215.19 44.7825 216.052 44.5682 216.88C44.3539 217.708 43.9787 218.485 43.464 219.168C42.9493 219.851 42.3053 220.426 41.5686 220.859L41.3863 220.967L32.9033 206.547L38.6952 203.136Z" fill="#2F2E41"/>
    <path d="M68.39 221.247L73.5765 221.246L76.0437 201.231L68.3892 201.231L68.39 221.247Z" fill="#FFB8B8"/>
    <path d="M67.0679 219.553L77.2817 219.552H77.2821C78.1369 219.552 78.9833 219.721 79.7731 220.048C80.5628 220.375 81.2804 220.855 81.8848 221.46C82.4892 222.064 82.9687 222.782 83.2958 223.573C83.6229 224.363 83.7913 225.21 83.7913 226.065V226.276L67.0682 226.277L67.0679 219.553Z" fill="#2F2E41"/>
    <path d="M47.5391 209.12C47.2406 209.12 46.9463 209.05 46.6799 208.915C46.4136 208.781 46.1827 208.585 46.006 208.344L41.0041 201.547C40.8515 201.34 40.7425 201.104 40.6837 200.853C40.6249 200.602 40.6175 200.342 40.6619 200.089C40.7064 199.835 40.8018 199.593 40.9424 199.377C41.0829 199.162 41.2658 198.977 41.4798 198.834L63.7377 183.959L50.3076 148.627L79.0275 150.998L79.9949 181.361C80.0856 184.126 79.4232 186.864 78.0786 189.281C76.7339 191.699 74.7575 193.705 72.361 195.085L48.4902 208.864C48.2012 209.032 47.8731 209.12 47.5391 209.12Z" fill="#2F2E41"/>
    <path d="M68.5467 217.183C68.0541 217.182 67.5811 216.99 67.227 216.648C66.8729 216.305 66.6653 215.839 66.6477 215.346L65.5952 185.767L78.6284 185.08L77.5907 214.872C77.5754 215.344 77.385 215.793 77.0565 216.132C76.728 216.471 76.285 216.676 75.814 216.706L68.6761 217.179C68.6328 217.182 68.5897 217.183 68.5467 217.183Z" fill="#2F2E41"/>
    <path d="M82.3512 156.872C79.0353 156.872 67.4531 153.14 63.4323 151.81C62.8308 152.291 59.5263 154.764 55.669 154.312C53.289 154.033 51.1937 152.685 49.4414 150.305C45.5719 145.051 50.3512 122.517 55.0421 104.538C55.9825 100.904 58.2944 97.7768 61.4918 95.8129C64.6891 93.849 68.523 93.2018 72.1874 94.0075C74.8433 94.5941 77.283 95.9101 79.2326 97.8077C81.1821 99.7052 82.5642 102.109 83.2235 104.749C84.1067 108.346 83.347 112.577 82.7922 115.667C82.5314 117.12 82.3254 118.267 82.3958 118.831C82.6681 121.01 84.1806 155.187 83.208 156.646C83.1045 156.802 82.8049 156.872 82.3512 156.872Z" fill="#30B395"/>
    <path d="M70.2204 156.932C70.7534 156.535 71.1928 156.026 71.5079 155.441C71.8229 154.856 72.0059 154.208 72.0438 153.545C72.0818 152.881 71.9739 152.217 71.7277 151.6C71.4815 150.982 71.1029 150.426 70.6188 149.971L70.8241 108.557L61.0752 110.181L63.9389 150.379C63.2285 151.244 62.8597 152.339 62.9024 153.457C62.9451 154.576 63.3964 155.64 64.1707 156.447C64.945 157.255 65.9885 157.751 67.1035 157.84C68.2185 157.929 69.3275 157.606 70.2204 156.932Z" fill="#FFB8B8"/>
    <path d="M72.475 135.153H61.9743C61.4728 135.152 60.9921 134.953 60.6359 134.6C60.2797 134.247 60.0767 133.767 60.0706 133.266L59.8128 104.783C59.8039 103.798 59.9902 102.821 60.361 101.909C60.7318 100.996 61.2797 100.167 61.973 99.4674C62.6663 98.7683 63.4913 98.2136 64.4002 97.8354C65.3092 97.4573 66.284 97.2632 67.2684 97.2644C68.2528 97.2656 69.2272 97.4621 70.1352 97.8424C71.0432 98.2228 71.8668 98.7795 72.5584 99.4804C73.25 100.181 73.7959 101.012 74.1645 101.926C74.533 102.839 74.717 103.816 74.7056 104.801L74.3785 133.27C74.3711 133.771 74.1674 134.249 73.8115 134.601C73.4555 134.953 72.9756 135.151 72.475 135.153Z" fill="#30B395"/>
    <path d="M70.3701 90.9087C65.6128 90.9175 61.1248 87.1551 60.3005 82.4673C60.0053 80.6257 60.1384 78.7408 60.6893 76.9589C61.2876 74.9305 62.3134 73.054 63.6978 71.4559C65.0823 69.8578 66.793 68.5752 68.7148 67.6946C70.6366 66.814 72.7247 66.3559 74.8384 66.3511C76.9521 66.3463 79.0423 66.795 80.968 67.6669C82.2406 68.2431 83.4942 69.0707 84.0769 70.3409C84.6596 71.6111 84.2949 73.3865 83.0202 73.958C82.1871 74.3315 81.1418 74.1481 80.4027 74.6843C79.3412 75.4544 79.6145 77.0932 80.0885 78.3164C80.5625 79.5396 81.0986 81.0198 80.304 82.0634C79.5636 83.0358 78.0836 83.0056 76.9178 82.6396C75.7521 82.2736 74.6014 81.6607 73.386 81.7854C71.6133 81.9672 70.3394 83.7315 70.1036 85.4988C69.8678 87.2661 70.4229 89.0327 70.9709 90.7292L70.3701 90.9087Z" fill="#2F2E41"/>
    <path d="M118.901 226.675H9.75654C9.64434 226.675 9.53674 226.631 9.4574 226.551C9.37807 226.472 9.3335 226.364 9.3335 226.252C9.3335 226.14 9.37807 226.032 9.4574 225.953C9.53674 225.873 9.64434 225.829 9.75654 225.829H118.901C119.014 225.829 119.121 225.873 119.201 225.953C119.28 226.032 119.324 226.14 119.324 226.252C119.324 226.364 119.28 226.472 119.201 226.551C119.121 226.631 119.014 226.675 118.901 226.675Z" fill="#CCCCCC"/>
    <path d="M385.02 183.933H113.918C112.068 183.93 110.293 183.194 108.985 181.885C107.676 180.575 106.94 178.8 106.938 176.949V9.69042C106.939 8.33389 107.479 7.03335 108.437 6.07412C109.396 5.11488 110.696 4.57529 112.052 4.57373H386.798C388.177 4.5753 389.499 5.12421 390.475 6.10002C391.45 7.07584 391.998 8.39888 392 9.77888V176.949C391.998 178.8 391.262 180.575 389.953 181.885C388.645 183.194 386.87 183.93 385.02 183.933Z" fill="#F2F2F2"/>
    <path d="M376.254 175.115H123.595C119.891 175.115 116.878 172.292 116.878 168.822V23.171C116.878 20.5975 119.111 18.5037 121.855 18.5037H377.912C380.702 18.5037 382.971 20.632 382.971 23.2479V168.822C382.971 172.292 379.958 175.115 376.254 175.115Z" fill="white"/>
    <path d="M391.903 10.5607H106.84V7.00509C106.843 5.1473 107.582 3.36643 108.895 2.05318C110.208 0.73993 111.989 0.00154045 113.845 0H384.897C386.754 0.00152478 388.534 0.739908 389.848 2.05316C391.161 3.36642 391.9 5.14729 391.903 7.00509V10.5607Z" fill="#3F3D56"/>
    <path d="M119.572 7.1039C120.573 7.1039 121.384 6.29216 121.384 5.29084C121.384 4.28952 120.573 3.47778 119.572 3.47778C118.571 3.47778 117.76 4.28952 117.76 5.29084C117.76 6.29216 118.571 7.1039 119.572 7.1039Z" fill="white"/>
    <path d="M126.45 7.1039C127.451 7.1039 128.262 6.29216 128.262 5.29084C128.262 4.28952 127.451 3.47778 126.45 3.47778C125.449 3.47778 124.638 4.28952 124.638 5.29084C124.638 6.29216 125.449 7.1039 126.45 7.1039Z" fill="white"/>
    <path d="M133.328 7.1039C134.329 7.1039 135.14 6.29216 135.14 5.29084C135.14 4.28952 134.329 3.47778 133.328 3.47778C132.327 3.47778 131.516 4.28952 131.516 5.29084C131.516 6.29216 132.327 7.1039 133.328 7.1039Z" fill="white"/>
    <path d="M243.931 50.3503H194.516C193.779 50.3503 193.073 50.0575 192.552 49.5363C192.031 49.0151 191.738 48.3081 191.738 47.571C191.738 46.8339 192.031 46.127 192.552 45.6058C193.073 45.0846 193.779 44.7917 194.516 44.7917H243.931C244.667 44.7917 245.374 45.0846 245.895 45.6058C246.416 46.127 246.709 46.8339 246.709 47.571C246.709 48.3081 246.416 49.0151 245.895 49.5363C245.374 50.0575 244.667 50.3503 243.931 50.3503Z" fill="#CCCCCC"/>
    <path d="M305.333 50.3503H255.918C255.182 50.3503 254.475 50.0575 253.954 49.5363C253.433 49.0151 253.141 48.3081 253.141 47.571C253.141 46.8339 253.433 46.127 253.954 45.6058C254.475 45.0846 255.182 44.7917 255.918 44.7917H305.333C306.07 44.7917 306.776 45.0846 307.297 45.6058C307.818 46.127 308.111 46.8339 308.111 47.571C308.111 48.3081 307.818 49.0151 307.297 49.5363C306.776 50.0575 306.07 50.3503 305.333 50.3503Z" fill="#CCCCCC"/>
    <path d="M305.333 60.8823H219.369C218.632 60.8823 217.925 60.5895 217.404 60.0682C216.883 59.547 216.591 58.8401 216.591 58.103C216.591 57.3659 216.883 56.659 217.404 56.1378C217.925 55.6165 218.632 55.3237 219.369 55.3237H305.333C306.069 55.3237 306.776 55.6165 307.297 56.1378C307.818 56.659 308.11 57.3659 308.11 58.103C308.11 58.8401 307.818 59.547 307.297 60.0682C306.776 60.5895 306.069 60.8823 305.333 60.8823Z" fill="#CCCCCC"/>
    <path d="M243.93 39.6718H194.516C193.779 39.6709 193.074 39.3777 192.554 38.8566C192.033 38.3355 191.741 37.6291 191.741 36.8926C191.741 36.156 192.033 35.4496 192.554 34.9285C193.074 34.4074 193.779 34.1142 194.516 34.1133H243.93C244.295 34.1128 244.657 34.1844 244.994 34.3239C245.332 34.4633 245.638 34.668 245.897 34.9261C246.155 35.1842 246.36 35.4908 246.5 35.8282C246.639 36.1656 246.711 36.5273 246.711 36.8926C246.711 37.2578 246.639 37.6195 246.5 37.9569C246.36 38.2943 246.155 38.6009 245.897 38.859C245.638 39.1171 245.332 39.3218 244.994 39.4612C244.657 39.6007 244.295 39.6723 243.93 39.6718Z" fill="#CCCCCC"/>
    <path d="M271.123 39.8183H257.088C256.352 39.8183 255.645 39.5255 255.124 39.0043C254.603 38.4831 254.311 37.7761 254.311 37.039C254.311 36.3019 254.603 35.595 255.124 35.0738C255.645 34.5526 256.352 34.2598 257.088 34.2598H271.123C271.86 34.2598 272.567 34.5526 273.087 35.0738C273.608 35.595 273.901 36.3019 273.901 37.039C273.901 37.7761 273.608 38.4831 273.087 39.0043C272.567 39.5255 271.86 39.8183 271.123 39.8183Z" fill="#CCCCCC"/>
    <path d="M208.551 60.8823H194.516C193.779 60.8814 193.074 60.5881 192.554 60.067C192.033 59.5459 191.741 58.8395 191.741 58.103C191.741 57.3665 192.033 56.6601 192.554 56.139C193.074 55.6179 193.779 55.3246 194.516 55.3237H208.551C208.916 55.3233 209.277 55.3948 209.615 55.5343C209.952 55.6738 210.259 55.8784 210.517 56.1365C210.775 56.3947 210.98 56.7012 211.12 57.0386C211.26 57.376 211.332 57.7377 211.332 58.103C211.332 58.4683 211.26 58.8299 211.12 59.1674C210.98 59.5048 210.775 59.8113 210.517 60.0694C210.259 60.3276 209.952 60.5322 209.615 60.6717C209.277 60.8112 208.916 60.8827 208.551 60.8823Z" fill="#CCCCCC"/>
    <path d="M243.931 148.973H194.516C193.779 148.973 193.073 148.68 192.552 148.159C192.031 147.638 191.738 146.931 191.738 146.194C191.738 145.456 192.031 144.75 192.552 144.228C193.073 143.707 193.779 143.414 194.516 143.414H243.931C244.296 143.414 244.657 143.486 244.994 143.626C245.331 143.766 245.637 143.97 245.895 144.228C246.153 144.486 246.357 144.793 246.497 145.13C246.637 145.467 246.709 145.829 246.709 146.194C246.709 146.559 246.637 146.92 246.497 147.257C246.357 147.594 246.153 147.901 245.895 148.159C245.637 148.417 245.331 148.622 244.994 148.761C244.657 148.901 244.296 148.973 243.931 148.973Z" fill="#CCCCCC"/>
    <path d="M305.333 148.973H255.918C255.182 148.973 254.475 148.68 253.954 148.159C253.433 147.638 253.141 146.931 253.141 146.194C253.141 145.456 253.433 144.75 253.954 144.228C254.475 143.707 255.182 143.414 255.918 143.414H305.333C305.698 143.414 306.059 143.486 306.396 143.626C306.733 143.766 307.039 143.97 307.297 144.228C307.555 144.486 307.76 144.793 307.899 145.13C308.039 145.467 308.111 145.829 308.111 146.194C308.111 146.559 308.039 146.92 307.899 147.257C307.76 147.594 307.555 147.901 307.297 148.159C307.039 148.417 306.733 148.622 306.396 148.761C306.059 148.901 305.698 148.973 305.333 148.973Z" fill="#CCCCCC"/>
    <path d="M305.333 159.505H219.369C218.632 159.505 217.925 159.212 217.404 158.691C216.883 158.17 216.591 157.463 216.591 156.726C216.591 155.989 216.883 155.282 217.404 154.761C217.925 154.239 218.632 153.947 219.369 153.947H305.333C305.698 153.946 306.059 154.018 306.397 154.157C306.734 154.297 307.041 154.501 307.299 154.759C307.557 155.017 307.762 155.324 307.902 155.661C308.042 155.999 308.114 156.361 308.114 156.726C308.114 157.091 308.042 157.453 307.902 157.79C307.762 158.128 307.557 158.434 307.299 158.692C307.041 158.95 306.734 159.155 306.397 159.294C306.059 159.434 305.698 159.505 305.333 159.505Z" fill="#CCCCCC"/>
    <path d="M243.931 138.295H194.516C193.779 138.295 193.073 138.002 192.552 137.481C192.031 136.959 191.738 136.252 191.738 135.515C191.738 134.778 192.031 134.071 192.552 133.55C193.073 133.029 193.779 132.736 194.516 132.736H243.931C244.667 132.736 245.374 133.029 245.895 133.55C246.416 134.071 246.709 134.778 246.709 135.515C246.709 136.252 246.416 136.959 245.895 137.481C245.374 138.002 244.667 138.295 243.931 138.295Z" fill="#CCCCCC"/>
    <path d="M271.123 138.441H257.088C256.352 138.441 255.645 138.148 255.124 137.627C254.603 137.106 254.311 136.399 254.311 135.662C254.311 134.925 254.603 134.218 255.124 133.697C255.645 133.175 256.352 132.883 257.088 132.883H271.123C271.86 132.883 272.567 133.175 273.087 133.697C273.608 134.218 273.901 134.925 273.901 135.662C273.901 136.399 273.608 137.106 273.087 137.627C272.567 138.148 271.86 138.441 271.123 138.441Z" fill="#CCCCCC"/>
    <path d="M208.551 159.505H194.516C193.779 159.505 193.073 159.212 192.552 158.691C192.031 158.17 191.738 157.463 191.738 156.726C191.738 155.989 192.031 155.282 192.552 154.761C193.073 154.239 193.779 153.947 194.516 153.947H208.551C208.916 153.946 209.278 154.018 209.615 154.157C209.952 154.297 210.259 154.501 210.517 154.759C210.776 155.017 210.981 155.324 211.12 155.661C211.26 155.999 211.332 156.361 211.332 156.726C211.332 157.091 211.26 157.453 211.12 157.79C210.981 158.128 210.776 158.434 210.517 158.692C210.259 158.95 209.952 159.155 209.615 159.294C209.278 159.434 208.916 159.505 208.551 159.505Z" fill="#CCCCCC"/>
    <path d="M231.025 119.135C229.976 119.138 228.969 118.725 228.222 117.988L209.647 99.6353C209.283 99.275 208.993 98.8458 208.795 98.3727C208.598 97.8995 208.496 97.3918 208.496 96.879C208.496 96.3663 208.598 95.8586 208.795 95.3854C208.993 94.9123 209.283 94.4831 209.647 94.1228L228.147 75.844C228.918 75.0862 229.956 74.6631 231.037 74.6665C232.118 74.6699 233.153 75.0996 233.919 75.8622C234.686 76.6311 235.116 77.6728 235.116 78.7588C235.116 79.8449 234.686 80.8866 233.919 81.6554L220.172 95.4104C219.744 95.84 219.503 96.422 219.503 97.0287C219.503 97.6355 219.744 98.2174 220.172 98.647L233.845 112.327C234.403 112.885 234.783 113.596 234.938 114.37C235.092 115.144 235.013 115.946 234.711 116.675C234.409 117.404 233.897 118.027 233.241 118.465C232.585 118.903 231.813 119.136 231.025 119.135V119.135Z" fill="#30B395"/>
    <path d="M260.623 119.135C259.834 119.136 259.063 118.903 258.407 118.465C257.75 118.027 257.239 117.404 256.937 116.675C256.635 115.946 256.556 115.144 256.71 114.37C256.864 113.596 257.245 112.885 257.803 112.327L271.476 98.647C271.904 98.2175 272.144 97.6355 272.144 97.0287C272.144 96.422 271.904 95.84 271.476 95.4104L257.728 81.6555C257.348 81.2751 257.047 80.8235 256.841 80.3265C256.635 79.8295 256.529 79.2968 256.529 78.7588C256.529 78.2209 256.635 77.6882 256.841 77.1912C257.047 76.6942 257.348 76.2426 257.729 75.8623C258.494 75.0996 259.53 74.6699 260.611 74.6665C261.691 74.6631 262.73 75.0862 263.5 75.8441L282 94.1228C282.365 94.4831 282.655 94.9123 282.852 95.3855C283.05 95.8586 283.152 96.3663 283.152 96.8791C283.152 97.3918 283.05 97.8995 282.852 98.3727C282.655 98.8458 282.365 99.275 282 99.6353L263.425 117.988C262.679 118.725 261.672 119.138 260.623 119.135Z" fill="#30B395"/>
    </svg>
    