<svg width="261" height="261" viewBox="0 0 261 261" fill="none" xmlns="http://www.w3.org/2000/svg">
<rect width="261" height="261" fill="white"/>
<g clip-path="url(#clip0)">
<path d="M250.798 159.776C248.913 161.837 246.576 163.371 244.04 164.562H244.037C243.798 164.675 243.559 164.786 243.318 164.89H243.315L243.311 164.893L243.308 164.89H243.305C243.305 164.89 243.305 164.891 243.305 164.891C243.305 164.891 243.305 164.892 243.305 164.892C243.304 164.892 243.304 164.892 243.304 164.893C243.303 164.893 243.303 164.893 243.302 164.893H243.299L243.296 164.89C243.293 164.893 243.293 164.893 243.29 164.89L243.287 164.893L243.284 164.89H243.281C243.278 164.893 243.278 164.893 243.275 164.89H243.272C241.574 165.625 239.831 166.249 238.052 166.758C227.595 169.727 216.605 170.301 205.895 168.439C205.69 168.402 205.489 168.365 205.284 168.328V143.492C205.486 143.406 205.69 143.321 205.895 143.238C207.232 142.684 208.586 142.174 209.955 141.71C211.925 141.036 213.923 140.459 215.948 139.977C222.556 138.376 229.374 137.825 236.153 138.342C237.386 138.434 238.615 138.566 239.842 138.74C242.409 139.098 245.101 139.723 247.469 140.807H247.472C247.818 140.969 248.158 141.137 248.494 141.318C250.599 142.46 252.373 144.031 253.456 146.184C253.845 146.957 254.126 147.78 254.289 148.63V148.636C254.35 148.93 254.393 149.227 254.426 149.521C254.812 153.147 253.31 157.026 250.798 159.776Z" fill="#F2F2F2"/>
<path d="M254.426 149.521C254.396 149.529 254.365 149.533 254.334 149.533C249.094 149.763 243.86 150.104 238.634 150.556H238.625C238.603 150.559 238.585 150.559 238.563 150.562C233.197 151.028 227.842 151.611 222.499 152.311C222.272 152.341 222.049 152.372 221.826 152.4C218.13 152.893 214.441 153.44 210.76 154.041C209.135 154.307 207.514 154.585 205.895 154.874C205.69 154.91 205.489 154.944 205.284 154.984V154.056C205.489 154.016 205.693 153.983 205.895 153.946C211.286 152.991 216.695 152.157 222.122 151.444C223.487 151.26 224.853 151.087 226.222 150.924C230.175 150.446 234.133 150.034 238.098 149.687C238.389 149.662 238.677 149.638 238.967 149.613C244.043 149.181 249.125 148.854 254.215 148.63C254.24 148.629 254.264 148.631 254.289 148.636C254.778 148.679 254.882 149.414 254.426 149.521Z" fill="white"/>
<path d="M243.543 163.987C237.014 164.035 230.582 161.265 225.964 156.679C224.661 155.38 223.513 153.934 222.543 152.37C222.231 151.871 221.503 152.422 221.812 152.917C225.398 158.674 231.372 162.775 237.959 164.282C239.829 164.707 241.742 164.912 243.66 164.893C244.246 164.889 244.124 163.983 243.543 163.987V163.987Z" fill="white"/>
<path d="M215.949 139.977C215.921 140.063 215.87 140.14 215.803 140.201C215.736 140.262 215.654 140.304 215.566 140.323C214.07 140.715 212.624 141.281 211.259 142.007C209.264 143.061 207.453 144.432 205.895 146.064C205.813 146.147 205.733 146.23 205.657 146.315C205.528 146.45 205.406 146.588 205.284 146.729V145.394C205.479 145.186 205.684 144.98 205.895 144.784C207.125 143.606 208.488 142.574 209.955 141.71C211.925 141.037 213.923 140.459 215.949 139.977Z" fill="white"/>
<path d="M248.01 140.566C243.857 142.352 240.382 145.419 238.091 149.319C238.045 149.43 238.044 149.556 238.09 149.668C238.135 149.78 238.223 149.869 238.334 149.917C238.446 149.961 238.57 149.96 238.681 149.915C238.793 149.87 238.882 149.784 238.932 149.674C241.118 145.991 244.418 143.097 248.353 141.412C248.893 141.181 248.551 140.334 248.01 140.566L248.01 140.566Z" fill="white"/>
<path d="M260.53 114.559C259.82 117.26 258.458 119.706 256.767 121.938L256.764 121.941C256.607 122.15 256.445 122.361 256.277 122.563V122.566C255.103 124.014 253.834 125.384 252.48 126.666C247.614 131.308 242.117 135.238 236.153 138.342C226.77 143.247 216.282 146.147 205.895 146.312C205.816 146.315 205.736 146.315 205.657 146.315C205.531 146.318 205.406 146.318 205.284 146.318V132.401C205.482 132.022 205.687 131.642 205.895 131.265C208.595 126.404 211.886 121.897 215.695 117.848C215.786 117.746 215.881 117.645 215.976 117.547C217.408 116.035 218.909 114.595 220.479 113.227C226.521 107.91 233.503 103.771 241.066 101.025C243.504 100.149 246.178 99.4477 248.779 99.3099C249.161 99.2884 249.54 99.2793 249.923 99.2823C252.318 99.316 254.616 99.8825 256.577 101.285C257.279 101.79 257.909 102.388 258.449 103.064C258.639 103.3 258.813 103.542 258.982 103.79V103.793C261.007 106.824 261.478 110.955 260.53 114.559Z" fill="#F2F2F2"/>
<path d="M258.982 103.79V103.793C258.959 103.813 258.934 103.83 258.908 103.845C254.38 106.481 249.91 109.214 245.496 112.042C245.49 112.045 245.487 112.048 245.481 112.051C245.463 112.063 245.445 112.075 245.426 112.085C240.888 114.994 236.416 118.001 232.007 121.106C231.824 121.234 231.637 121.366 231.45 121.498C228.406 123.65 225.394 125.849 222.413 128.093C216.784 132.337 211.278 136.738 205.895 141.297C205.691 141.468 205.489 141.643 205.284 141.817V140.626C205.486 140.452 205.691 140.277 205.895 140.106C207.958 138.363 210.038 136.646 212.137 134.952C212.764 134.447 213.394 133.942 214.024 133.443C219.623 128.981 225.347 124.686 231.196 120.558H231.199C232.35 119.746 233.502 118.942 234.656 118.145C237.936 115.885 241.253 113.679 244.606 111.528C244.847 111.371 245.092 111.215 245.337 111.059C249.629 108.315 253.978 105.662 258.382 103.098C258.403 103.085 258.426 103.073 258.449 103.064C258.908 102.88 259.34 103.487 258.982 103.79Z" fill="white"/>
<path d="M256.059 121.661C250.3 124.739 243.318 125.275 237.1 123.361C235.344 122.817 233.656 122.07 232.071 121.137C231.563 120.839 231.174 121.665 231.677 121.961C237.525 125.391 244.719 126.245 251.251 124.518C253.104 124.024 254.894 123.316 256.584 122.408C257.1 122.132 256.572 121.387 256.059 121.661V121.661Z" fill="white"/>
<path d="M212.969 132.864C212.684 131.261 212.586 129.631 212.678 128.005C212.884 124.298 214.018 120.702 215.976 117.548C217.409 116.036 218.911 114.595 220.48 113.227C220.495 113.316 220.486 113.408 220.455 113.493C220.424 113.578 220.37 113.654 220.301 113.712C219.159 114.755 218.141 115.928 217.269 117.205C214.152 121.758 212.935 127.35 213.878 132.789C213.893 132.85 213.893 132.915 213.876 132.976C213.859 133.037 213.827 133.093 213.782 133.139C213.717 133.196 213.638 133.234 213.552 133.251C213.467 133.268 213.379 133.263 213.297 133.235C213.215 133.207 213.141 133.158 213.084 133.093C213.026 133.028 212.987 132.949 212.969 132.864Z" fill="white"/>
<path d="M249.145 98.8423C246.296 102.355 244.642 106.686 244.424 111.205C244.434 111.326 244.492 111.437 244.584 111.515C244.676 111.593 244.796 111.632 244.916 111.622C245.035 111.61 245.145 111.551 245.223 111.459C245.301 111.368 245.34 111.249 245.333 111.129C245.56 106.851 247.138 102.755 249.841 99.4321C250.212 98.9765 249.517 98.3858 249.145 98.8423Z" fill="white"/>
<path d="M217.463 108.903V108.906C217.442 109.17 217.417 109.43 217.389 109.69V109.696C217.177 111.549 216.845 113.386 216.395 115.196C216.181 116.084 215.948 116.966 215.695 117.848C215.664 117.961 215.63 118.074 215.597 118.184V118.188C214.849 120.752 213.957 123.272 212.923 125.735C211.021 130.27 208.666 134.601 205.895 138.663C205.697 138.96 205.492 139.257 205.284 139.551V91.5997C205.489 91.5875 205.69 91.5875 205.895 91.5936C205.993 91.5936 206.091 91.5967 206.189 91.6028C207.052 91.6482 207.905 91.8141 208.722 92.0958C209.01 92.1907 209.288 92.2979 209.564 92.4173C212.901 93.881 215.523 97.1084 216.661 100.657C217.515 103.315 217.686 106.111 217.463 108.903Z" fill="#F2F2F2"/>
<path d="M209.564 92.4173C209.557 92.4473 209.545 92.4762 209.53 92.5031C208.291 94.9129 207.079 97.335 205.895 99.7693C205.69 100.189 205.486 100.611 205.284 101.031V98.9487C205.486 98.5322 205.689 98.1158 205.895 97.6994C206.81 95.8438 207.74 93.9963 208.686 92.157C208.696 92.1356 208.708 92.1151 208.722 92.0958C209.004 91.6916 209.701 91.9672 209.564 92.4173Z" fill="white"/>
<path d="M217.561 109.396C217.506 109.494 217.451 109.592 217.389 109.69C216.491 111.257 215.422 112.72 214.202 114.051C211.858 116.596 209.035 118.653 205.895 120.104C205.693 120.202 205.489 120.294 205.284 120.38V119.385C205.489 119.293 205.693 119.198 205.895 119.1C210.44 116.93 214.215 113.424 216.716 109.05C216.753 108.988 216.802 108.934 216.86 108.892C216.919 108.85 216.986 108.822 217.057 108.808C217.128 108.794 217.201 108.796 217.271 108.813C217.341 108.83 217.406 108.862 217.463 108.906C217.502 108.932 217.535 108.965 217.561 109.004C217.586 109.042 217.604 109.086 217.613 109.131C217.622 109.177 217.622 109.223 217.613 109.269C217.604 109.314 217.587 109.358 217.561 109.396Z" fill="white"/>
<path d="M205.895 54.1018V77.3734H205.284V77.1254H0.611874V77.3734H0V54.1018C0.0026275 51.4227 1.06714 48.854 2.95993 46.9596C4.85271 45.0651 7.41912 43.9997 10.0959 43.9971H195.8C198.476 43.9997 201.043 45.0651 202.936 46.9596C204.828 48.854 205.893 51.4227 205.895 54.1018Z" fill="#6C63FF"/>
<path d="M195.8 43.9971H10.0959C7.41912 43.9997 4.85271 45.0651 2.95993 46.9596C1.06714 48.854 0.0026275 51.4227 0 54.1018V186.995C0.0026275 189.674 1.06714 192.243 2.95993 194.137C4.85271 196.031 7.41912 197.097 10.0959 197.099H195.8C198.476 197.097 201.043 196.031 202.936 194.137C204.828 192.243 205.893 189.674 205.895 186.995V54.1018C205.893 51.4227 204.828 48.854 202.936 46.9596C201.043 45.0651 198.476 43.9997 195.8 43.9971ZM205.284 186.995C205.28 189.511 204.28 191.924 202.502 193.703C200.724 195.483 198.314 196.484 195.8 196.487H10.0959C7.58157 196.484 5.17113 195.483 3.39323 193.703C1.61532 191.924 0.615082 189.511 0.611874 186.995V54.1018C0.615082 51.5853 1.61532 49.1727 3.39323 47.3933C5.17113 45.6138 7.58157 44.6127 10.0959 44.6095H195.8C198.314 44.6127 200.724 45.6138 202.502 47.3933C204.28 49.1727 205.28 51.5853 205.284 54.1018V186.995Z" fill="#3F3D56"/>
<path d="M41.6074 66.8092C44.9867 66.8092 47.7262 64.0674 47.7262 60.6851C47.7262 57.3029 44.9867 54.561 41.6074 54.561C38.2281 54.561 35.4887 57.3029 35.4887 60.6851C35.4887 64.0674 38.2281 66.8092 41.6074 66.8092Z" fill="white"/>
<path d="M164.288 66.8092C167.667 66.8092 170.407 64.0674 170.407 60.6851C170.407 57.3029 167.667 54.561 164.288 54.561C160.909 54.561 158.169 57.3029 158.169 60.6851C158.169 64.0674 160.909 66.8092 164.288 66.8092Z" fill="white"/>
<path d="M59.2859 128.969H22.8866C21.3446 128.968 19.8662 128.354 18.7758 127.262C17.6854 126.171 17.0721 124.691 17.0703 123.148V105.929C17.0721 104.386 17.6854 102.906 18.7758 101.815C19.8662 100.724 21.3446 100.11 22.8866 100.108H59.2859C60.8279 100.11 62.3063 100.724 63.3967 101.815C64.4871 102.906 65.1004 104.386 65.1022 105.929V123.148C65.1004 124.691 64.4871 126.171 63.3967 127.262C62.3063 128.354 60.8279 128.968 59.2859 128.969Z" fill="#6C63FF"/>
<path d="M121.207 128.969H84.8078C83.2658 128.968 81.7874 128.354 80.697 127.262C79.6066 126.171 78.9933 124.691 78.9915 123.148V105.929C78.9933 104.386 79.6066 102.906 80.697 101.815C81.7874 100.724 83.2658 100.11 84.8078 100.108H121.207C122.749 100.11 124.227 100.724 125.318 101.815C126.408 102.906 127.022 104.386 127.023 105.929V123.148C127.022 124.691 126.408 126.171 125.318 127.262C124.227 128.354 122.749 128.968 121.207 128.969Z" fill="#6C63FF"/>
<path d="M121.207 173.458H84.8078C83.219 173.457 81.6958 172.824 80.5724 171.7C79.449 170.575 78.817 169.051 78.8152 167.461V150.242C78.817 148.652 79.449 147.127 80.5724 146.003C81.6958 144.878 83.219 144.246 84.8078 144.244H121.207C122.796 144.246 124.319 144.878 125.442 146.003C126.566 147.127 127.198 148.652 127.2 150.242V167.461C127.198 169.051 126.566 170.575 125.442 171.7C124.319 172.824 122.796 173.457 121.207 173.458Z" fill="#F2F2F2"/>
<path d="M59.1665 173.458H22.7673C21.1785 173.457 19.6553 172.824 18.5319 171.7C17.4084 170.575 16.7765 169.051 16.7747 167.461V150.242C16.7765 148.652 17.4084 147.127 18.5319 146.003C19.6553 144.878 21.1785 144.246 22.7673 144.244H59.1665C60.7552 144.246 62.2784 144.878 63.4019 146.003C64.5253 147.127 65.1572 148.652 65.159 150.242V167.461C65.1572 169.051 64.5253 170.575 63.4019 171.7C62.2784 172.824 60.7552 173.457 59.1665 173.458Z" fill="#F2F2F2"/>
<path d="M183.128 173.458H146.729C145.14 173.457 143.617 172.824 142.494 171.7C141.37 170.575 140.738 169.051 140.736 167.461V150.242C140.738 148.652 141.37 147.127 142.494 146.003C143.617 144.878 145.14 144.246 146.729 144.244H183.128C184.717 144.246 186.24 144.878 187.364 146.003C188.487 147.127 189.119 148.652 189.121 150.242V167.461C189.119 169.051 188.487 170.575 187.364 171.7C186.24 172.824 184.717 173.457 183.128 173.458Z" fill="#F2F2F2"/>
<path d="M183.128 129.004H146.729C145.14 129.002 143.617 128.37 142.494 127.245C141.37 126.121 140.738 124.596 140.736 123.006V105.787C140.738 104.197 141.37 102.673 142.494 101.548C143.617 100.424 145.14 99.7913 146.729 99.7896H183.128C184.717 99.7913 186.24 100.424 187.364 101.548C188.487 102.673 189.119 104.197 189.121 105.787V123.006C189.119 124.596 188.487 126.121 187.364 127.245C186.24 128.37 184.717 129.002 183.128 129.004Z" fill="#F2F2F2"/>
<path d="M41.0862 124.417C46.5373 124.417 50.9563 119.995 50.9563 114.539C50.9563 109.083 46.5373 104.66 41.0862 104.66C35.6351 104.66 31.2162 109.083 31.2162 114.539C31.2162 119.995 35.6351 124.417 41.0862 124.417Z" fill="white"/>
<path d="M40.1079 118.307C39.8858 118.308 39.6696 118.236 39.492 118.103L39.4809 118.094L37.1614 116.317C37.0538 116.234 36.9635 116.132 36.8956 116.014C36.8278 115.897 36.7837 115.768 36.7658 115.633C36.748 115.499 36.7568 115.362 36.7917 115.231C36.8266 115.1 36.887 114.978 36.9693 114.87C37.0517 114.763 37.1544 114.672 37.2717 114.604C37.3889 114.537 37.5184 114.493 37.6526 114.475C37.7869 114.457 37.9233 114.466 38.0541 114.501C38.1849 114.536 38.3075 114.597 38.4149 114.679L39.9174 115.832L43.4678 111.198C43.5501 111.091 43.6528 111 43.77 110.933C43.8872 110.865 44.0165 110.821 44.1507 110.803C44.2849 110.785 44.4212 110.794 44.552 110.829C44.6827 110.864 44.8052 110.925 44.9126 111.007L44.8906 111.037L44.9132 111.008C45.1298 111.174 45.2716 111.42 45.3073 111.691C45.3431 111.962 45.2699 112.236 45.1039 112.454L40.9277 117.905C40.8311 118.03 40.7069 118.132 40.5648 118.202C40.4226 118.272 40.2662 118.308 40.1079 118.307Z" fill="#6C63FF"/>
<path d="M103.184 124.276C108.635 124.276 113.054 119.853 113.054 114.397C113.054 108.941 108.635 104.518 103.184 104.518C97.7326 104.518 93.3136 108.941 93.3136 114.397C93.3136 119.853 97.7326 124.276 103.184 124.276Z" fill="white"/>
<path d="M102.205 118.165C101.983 118.166 101.767 118.094 101.589 117.961L101.578 117.952L99.2588 116.175C99.0419 116.009 98.8998 115.763 98.864 115.492C98.8281 115.22 98.9013 114.946 99.0676 114.729C99.2338 114.512 99.4794 114.37 99.7503 114.334C100.021 114.298 100.295 114.371 100.512 114.537L102.015 115.691L105.565 111.056C105.648 110.949 105.75 110.858 105.867 110.791C105.985 110.723 106.114 110.679 106.248 110.661C106.382 110.643 106.519 110.652 106.649 110.687C106.78 110.722 106.903 110.783 107.01 110.865L106.988 110.895L107.011 110.866C107.227 111.032 107.369 111.278 107.405 111.549C107.44 111.82 107.367 112.095 107.201 112.312L103.025 117.763C102.929 117.889 102.804 117.99 102.662 118.06C102.52 118.13 102.364 118.166 102.205 118.165Z" fill="#6C63FF"/>
<path d="M169.89 161.013C170.215 160.658 170.457 160.237 170.601 159.778C170.745 159.319 170.786 158.834 170.723 158.357C170.659 157.881 170.492 157.424 170.233 157.019C169.973 156.614 169.629 156.271 169.223 156.014L163.712 126.565L157.011 129.052L164.535 157.217C164.148 157.929 164.036 158.757 164.219 159.546C164.402 160.334 164.868 161.028 165.528 161.496C166.188 161.964 166.997 162.173 167.801 162.084C168.605 161.995 169.348 161.614 169.89 161.013Z" fill="#A0616A"/>
<path d="M116.417 116.078C116.434 116.261 116.436 116.444 116.424 116.628L129.454 126.665L133.149 125.146L136.168 130.428L129.887 133.753C129.38 134.021 128.799 134.118 128.232 134.028C127.665 133.938 127.143 133.667 126.743 133.254L113.719 119.815C113.03 119.971 112.31 119.913 111.654 119.649C110.998 119.384 110.439 118.927 110.049 118.336C109.66 117.746 109.459 117.051 109.474 116.344C109.489 115.637 109.719 114.951 110.133 114.377C110.547 113.804 111.125 113.37 111.791 113.134C112.457 112.898 113.18 112.87 113.862 113.055C114.544 113.239 115.154 113.627 115.61 114.167C116.067 114.707 116.348 115.374 116.417 116.078H116.417Z" fill="#A0616A"/>
<path d="M146.858 213.282H143.108L141.323 201.864L146.859 201.865L146.858 213.282Z" fill="#A0616A"/>
<path d="M147.815 216.921L135.721 216.921V216.767C135.721 216.149 135.843 215.536 136.079 214.964C136.316 214.393 136.663 213.874 137.1 213.436C137.537 212.999 138.056 212.652 138.627 212.415C139.198 212.178 139.81 212.056 140.428 212.056H140.429L147.815 212.056L147.815 216.921Z" fill="#2F2E41"/>
<path d="M160.931 213.282H157.181L155.396 201.864L160.932 201.865L160.931 213.282Z" fill="#A0616A"/>
<path d="M161.888 216.921L149.794 216.921V216.767C149.794 216.149 149.916 215.536 150.152 214.964C150.389 214.393 150.736 213.874 151.173 213.436C151.61 212.999 152.129 212.652 152.7 212.415C153.271 212.178 153.883 212.056 154.501 212.056H154.502L161.888 212.056L161.888 216.921Z" fill="#2F2E41"/>
<path d="M142.329 211.026C141.986 211.026 141.656 210.898 141.403 210.667C141.15 210.437 140.992 210.12 140.96 209.779L137.691 165.78L137.846 165.768L160.339 163.917L160.345 164.077L162.133 209.656C162.14 209.841 162.109 210.026 162.043 210.199C161.977 210.372 161.877 210.53 161.748 210.663C161.62 210.797 161.466 210.903 161.296 210.975C161.125 211.048 160.942 211.085 160.757 211.085H156.347C156.017 211.087 155.699 210.97 155.449 210.755C155.199 210.54 155.034 210.243 154.986 209.917L148.997 173.097C148.991 173.059 148.971 173.025 148.941 173.001C148.911 172.977 148.873 172.965 148.835 172.968C148.796 172.971 148.76 172.988 148.734 173.016C148.708 173.044 148.693 173.081 148.693 173.12L148.421 209.473C148.418 209.824 148.282 210.161 148.039 210.415C147.797 210.669 147.467 210.821 147.117 210.84L142.403 211.023C142.378 211.025 142.353 211.026 142.329 211.026Z" fill="#2F2E41"/>
<path d="M146.168 110.176C150.318 110.176 153.682 106.809 153.682 102.655C153.682 98.5014 150.318 95.1343 146.168 95.1343C142.018 95.1343 138.654 98.5014 138.654 102.655C138.654 106.809 142.018 110.176 146.168 110.176Z" fill="#A0616A"/>
<path d="M147.623 168.586C144.338 168.576 141.07 168.129 137.904 167.257C137.599 167.168 137.334 166.977 137.154 166.715C136.973 166.454 136.889 166.138 136.914 165.822C137.925 150.605 138.163 138.797 136.036 130.627C135.129 127.145 135.541 123.477 137.165 120.565C139.609 116.182 144.102 113.515 148.895 113.607C149.124 113.611 149.355 113.619 149.589 113.631C156.862 114.006 162.529 120.592 162.222 128.311L160.759 165.108C160.754 165.376 160.669 165.637 160.516 165.857C160.363 166.078 160.147 166.248 159.898 166.346C155.973 167.823 151.815 168.582 147.623 168.586Z" fill="#3F3D56"/>
<path d="M137.272 133.452L131.644 126.549C131.484 126.352 131.368 126.124 131.304 125.878C131.24 125.633 131.23 125.377 131.274 125.127C131.318 124.877 131.415 124.64 131.559 124.431C131.702 124.223 131.89 124.048 132.107 123.918L139.732 119.371C140.74 118.556 142.03 118.175 143.319 118.311C144.608 118.447 145.791 119.09 146.607 120.097C147.424 121.105 147.808 122.395 147.675 123.685C147.542 124.976 146.904 126.161 145.899 126.981L139.94 133.525C139.77 133.712 139.561 133.861 139.328 133.96C139.095 134.059 138.843 134.107 138.59 134.1C138.336 134.093 138.088 134.032 137.86 133.92C137.633 133.808 137.433 133.648 137.272 133.452Z" fill="#3F3D56"/>
<path d="M154.978 132.586C154.747 132.482 154.541 132.33 154.374 132.139C154.207 131.949 154.083 131.724 154.01 131.481L151.477 122.998C150.927 121.823 150.864 120.478 151.304 119.258C151.743 118.037 152.649 117.041 153.821 116.487C154.993 115.934 156.337 115.869 157.558 116.305C158.778 116.742 159.776 117.646 160.331 118.818L165.231 126.224C165.371 126.436 165.464 126.675 165.503 126.925C165.542 127.176 165.527 127.432 165.459 127.676C165.39 127.92 165.27 128.146 165.106 128.34C164.942 128.533 164.738 128.689 164.509 128.796L156.446 132.573C156.217 132.681 155.967 132.738 155.714 132.74C155.46 132.742 155.21 132.689 154.978 132.586Z" fill="#3F3D56"/>
<path d="M149.881 108.826L144.311 107.55C143.737 107.418 143.046 107.167 142.967 106.583C142.86 105.797 143.989 105.25 143.885 104.464C143.784 103.703 142.755 103.605 142.022 103.38C141.338 103.14 140.775 102.644 140.451 101.996C140.127 101.348 140.068 100.599 140.286 99.9078C139.493 101.027 137.679 101.123 136.65 100.216C135.62 99.3092 135.423 97.6636 136.041 96.4383C136.375 95.8364 136.846 95.3219 137.416 94.9367C137.986 94.5514 138.639 94.3063 139.322 94.2212C140.694 94.0654 142.082 94.3243 143.306 94.9646C143.388 94.097 144.47 93.7453 145.341 93.7375C147.149 93.7586 148.906 94.3435 150.367 95.4108C151.828 96.478 152.92 97.9746 153.492 99.6921C154.56 103.138 153.845 106.914 150.856 108.93L149.881 108.826Z" fill="#2F2E41"/>
<path d="M205.983 217.003H89.4215C89.3403 217.003 89.2625 216.97 89.2052 216.913C89.1478 216.856 89.1155 216.778 89.1155 216.697C89.1155 216.615 89.1478 216.537 89.2052 216.48C89.2625 216.423 89.3403 216.39 89.4215 216.39H205.983C206.065 216.39 206.142 216.423 206.2 216.48C206.257 216.537 206.289 216.615 206.289 216.697C206.289 216.778 206.257 216.856 206.2 216.913C206.142 216.97 206.065 217.003 205.983 217.003Z" fill="#3F3D56"/>
</g>
<defs>
<clipPath id="clip0">
<rect width="261" height="173.006" fill="white" transform="translate(0 43.9971)"/>
</clipPath>
</defs>
</svg>
