<svg width="491" height="581" viewBox="0 0 491 581" fill="none" xmlns="http://www.w3.org/2000/svg">
    <rect x="1" y="1" width="489" height="579" stroke="#F4C13A" stroke-width="2"/>
    <path d="M74.7978 434.824L77.1018 432.16C78.4698 433.48 79.8618 434.476 81.2778 435.148C82.7178 435.796 84.2178 436.12 85.7778 436.12C87.5778 436.12 89.0418 435.724 90.1698 434.932C91.3218 434.14 91.8978 433.132 91.8978 431.908C91.8978 430.804 91.5018 429.952 90.7098 429.352C89.9178 428.728 88.6098 428.26 86.7858 427.948L82.5738 427.264C80.2698 426.88 78.5418 426.148 77.3898 425.068C76.2618 423.964 75.6978 422.512 75.6978 420.712C75.6978 418.528 76.5498 416.776 78.2538 415.456C79.9578 414.136 82.2018 413.476 84.9858 413.476C86.7858 413.476 88.5738 413.776 90.3498 414.376C92.1258 414.952 93.7218 415.792 95.1378 416.896L93.0498 419.776C91.6818 418.744 90.3138 417.976 88.9458 417.472C87.5778 416.944 86.1978 416.68 84.8058 416.68C83.1738 416.68 81.8538 417.028 80.8458 417.724C79.8378 418.42 79.3338 419.32 79.3338 420.424C79.3338 421.456 79.6818 422.248 80.3778 422.8C81.0738 423.328 82.2258 423.724 83.8338 423.988L87.9018 424.636C90.5418 425.068 92.4858 425.86 93.7338 427.012C95.0058 428.14 95.6418 429.676 95.6418 431.62C95.6418 432.772 95.4018 433.828 94.9218 434.788C94.4418 435.748 93.7578 436.564 92.8698 437.236C92.0058 437.908 90.9498 438.436 89.7018 438.82C88.4538 439.18 87.0858 439.36 85.5978 439.36C83.5818 439.36 81.6378 438.964 79.7658 438.172C77.8938 437.38 76.2378 436.264 74.7978 434.824ZM102.24 420.676V431.548C102.24 432.988 102.648 434.128 103.464 434.968C104.304 435.808 105.408 436.228 106.776 436.228C107.736 436.228 108.6 436.024 109.368 435.616C110.136 435.184 110.772 434.584 111.276 433.816V420.676H114.876V439H111.276V437.164C110.556 437.884 109.728 438.436 108.792 438.82C107.88 439.18 106.872 439.36 105.768 439.36C103.68 439.36 101.964 438.688 100.62 437.344C99.2999 436 98.6399 434.272 98.6399 432.16V420.676H102.24ZM137.57 429.82C137.57 431.14 137.33 432.388 136.85 433.564C136.37 434.716 135.71 435.712 134.87 436.552C134.054 437.392 133.07 438.064 131.918 438.568C130.766 439.048 129.542 439.288 128.246 439.288C127.214 439.288 126.23 439.132 125.294 438.82C124.358 438.508 123.494 438.052 122.702 437.452V439H119.138V413.8L122.738 413.008V422.404C123.482 421.756 124.334 421.264 125.294 420.928C126.254 420.568 127.262 420.388 128.318 420.388C129.614 420.388 130.826 420.64 131.954 421.144C133.082 421.624 134.054 422.284 134.87 423.124C135.71 423.964 136.37 424.96 136.85 426.112C137.33 427.264 137.57 428.5 137.57 429.82ZM127.85 423.52C126.818 423.52 125.858 423.712 124.97 424.096C124.082 424.48 123.338 425.02 122.738 425.716V433.996C123.314 434.668 124.046 435.196 124.934 435.58C125.846 435.964 126.818 436.156 127.85 436.156C129.602 436.156 131.066 435.556 132.242 434.356C133.442 433.156 134.042 431.656 134.042 429.856C134.042 428.056 133.442 426.556 132.242 425.356C131.042 424.132 129.578 423.52 127.85 423.52ZM141.005 439V420.676H144.605V422.404C145.277 421.732 146.045 421.216 146.909 420.856C147.773 420.496 148.721 420.316 149.753 420.316C150.977 420.316 152.081 420.592 153.065 421.144C154.049 421.672 154.829 422.416 155.405 423.376C156.149 422.368 157.037 421.612 158.069 421.108C159.125 420.58 160.301 420.316 161.597 420.316C163.613 420.316 165.257 420.988 166.529 422.332C167.825 423.652 168.473 425.368 168.473 427.48V439H164.873V428.092C164.873 426.652 164.489 425.524 163.721 424.708C162.977 423.868 161.957 423.448 160.661 423.448C159.773 423.448 158.969 423.652 158.249 424.06C157.529 424.468 156.905 425.08 156.377 425.896C156.425 426.136 156.461 426.4 156.485 426.688C156.509 426.952 156.521 427.216 156.521 427.48V439H152.957V428.092C152.957 426.652 152.573 425.524 151.805 424.708C151.061 423.868 150.041 423.448 148.745 423.448C147.881 423.448 147.101 423.64 146.405 424.024C145.709 424.384 145.109 424.936 144.605 425.68V439H141.005ZM174.41 417.724C173.81 417.724 173.294 417.508 172.862 417.076C172.43 416.62 172.214 416.092 172.214 415.492C172.214 414.892 172.43 414.376 172.862 413.944C173.294 413.488 173.81 413.26 174.41 413.26C175.01 413.26 175.526 413.488 175.958 413.944C176.414 414.376 176.642 414.892 176.642 415.492C176.642 416.092 176.414 416.62 175.958 417.076C175.526 417.508 175.01 417.724 174.41 417.724ZM176.21 420.676V439H172.61V420.676H176.21ZM182.826 434.464V423.7H178.938V420.676H182.826V415.996L186.39 415.132V420.676H191.79V423.7H186.39V433.636C186.39 434.572 186.594 435.232 187.002 435.616C187.434 436 188.13 436.192 189.09 436.192C189.594 436.192 190.038 436.168 190.422 436.12C190.83 436.048 191.262 435.928 191.718 435.76V438.784C191.238 438.952 190.674 439.084 190.026 439.18C189.402 439.276 188.826 439.324 188.298 439.324C186.522 439.324 185.166 438.916 184.23 438.1C183.294 437.26 182.826 436.048 182.826 434.464ZM206.538 440.728L207.258 439.072L199.95 420.676H203.91L209.274 434.68L215.178 420.676H219.066L210.21 441.196C209.37 443.14 208.41 444.532 207.33 445.372C206.25 446.236 204.87 446.668 203.19 446.668C202.806 446.668 202.446 446.644 202.11 446.596C201.798 446.572 201.522 446.524 201.282 446.452V443.284C201.522 443.332 201.762 443.368 202.002 443.392C202.266 443.416 202.566 443.428 202.902 443.428C203.718 443.428 204.426 443.2 205.026 442.744C205.65 442.312 206.154 441.64 206.538 440.728ZM219.771 429.82C219.771 428.5 220.011 427.264 220.491 426.112C220.995 424.936 221.679 423.928 222.543 423.088C223.407 422.224 224.415 421.552 225.567 421.072C226.743 420.568 227.991 420.316 229.311 420.316C230.631 420.316 231.867 420.568 233.019 421.072C234.195 421.552 235.203 422.224 236.043 423.088C236.907 423.928 237.579 424.936 238.059 426.112C238.563 427.264 238.815 428.5 238.815 429.82C238.815 431.164 238.563 432.424 238.059 433.6C237.579 434.752 236.907 435.76 236.043 436.624C235.203 437.464 234.195 438.136 233.019 438.64C231.867 439.12 230.631 439.36 229.311 439.36C227.991 439.36 226.743 439.12 225.567 438.64C224.415 438.136 223.407 437.464 222.543 436.624C221.679 435.76 220.995 434.752 220.491 433.6C220.011 432.424 219.771 431.164 219.771 429.82ZM229.311 436.192C230.967 436.192 232.371 435.58 233.523 434.356C234.699 433.108 235.287 431.596 235.287 429.82C235.287 428.044 234.699 426.544 233.523 425.32C232.371 424.096 230.967 423.484 229.311 423.484C227.655 423.484 226.239 424.096 225.063 425.32C223.887 426.544 223.299 428.044 223.299 429.82C223.299 431.596 223.875 433.108 225.027 434.356C226.203 435.58 227.631 436.192 229.311 436.192ZM245.748 420.676V431.548C245.748 432.988 246.156 434.128 246.972 434.968C247.812 435.808 248.916 436.228 250.284 436.228C251.244 436.228 252.108 436.024 252.876 435.616C253.644 435.184 254.28 434.584 254.784 433.816V420.676H258.384V439H254.784V437.164C254.064 437.884 253.236 438.436 252.3 438.82C251.388 439.18 250.38 439.36 249.276 439.36C247.188 439.36 245.472 438.688 244.128 437.344C242.808 436 242.148 434.272 242.148 432.16V420.676H245.748ZM262.645 439V420.676H266.245V423.016C266.797 422.128 267.505 421.456 268.369 421C269.233 420.52 270.205 420.28 271.285 420.28C271.669 420.28 272.005 420.304 272.293 420.352C272.581 420.4 272.857 420.472 273.121 420.568V423.808C272.785 423.688 272.437 423.592 272.077 423.52C271.717 423.448 271.357 423.412 270.997 423.412C269.941 423.412 268.993 423.7 268.153 424.276C267.337 424.828 266.701 425.656 266.245 426.76V439H262.645ZM301.96 429.82C301.96 431.14 301.72 432.388 301.24 433.564C300.76 434.716 300.1 435.712 299.26 436.552C298.444 437.392 297.46 438.064 296.308 438.568C295.156 439.048 293.932 439.288 292.636 439.288C291.604 439.288 290.62 439.132 289.684 438.82C288.748 438.508 287.884 438.052 287.092 437.452V439H283.528V413.8L287.128 413.008V422.404C287.872 421.756 288.724 421.264 289.684 420.928C290.644 420.568 291.652 420.388 292.708 420.388C294.004 420.388 295.216 420.64 296.344 421.144C297.472 421.624 298.444 422.284 299.26 423.124C300.1 423.964 300.76 424.96 301.24 426.112C301.72 427.264 301.96 428.5 301.96 429.82ZM292.24 423.52C291.208 423.52 290.248 423.712 289.36 424.096C288.472 424.48 287.728 425.02 287.128 425.716V433.996C287.704 434.668 288.436 435.196 289.324 435.58C290.236 435.964 291.208 436.156 292.24 436.156C293.992 436.156 295.456 435.556 296.632 434.356C297.832 433.156 298.432 431.656 298.432 429.856C298.432 428.056 297.832 426.556 296.632 425.356C295.432 424.132 293.968 423.52 292.24 423.52ZM304.638 429.82C304.638 428.5 304.878 427.264 305.358 426.112C305.862 424.936 306.546 423.928 307.41 423.088C308.274 422.224 309.282 421.552 310.434 421.072C311.61 420.568 312.858 420.316 314.178 420.316C315.498 420.316 316.734 420.568 317.886 421.072C319.062 421.552 320.07 422.224 320.91 423.088C321.774 423.928 322.446 424.936 322.926 426.112C323.43 427.264 323.682 428.5 323.682 429.82C323.682 431.164 323.43 432.424 322.926 433.6C322.446 434.752 321.774 435.76 320.91 436.624C320.07 437.464 319.062 438.136 317.886 438.64C316.734 439.12 315.498 439.36 314.178 439.36C312.858 439.36 311.61 439.12 310.434 438.64C309.282 438.136 308.274 437.464 307.41 436.624C306.546 435.76 305.862 434.752 305.358 433.6C304.878 432.424 304.638 431.164 304.638 429.82ZM314.178 436.192C315.834 436.192 317.238 435.58 318.39 434.356C319.566 433.108 320.154 431.596 320.154 429.82C320.154 428.044 319.566 426.544 318.39 425.32C317.238 424.096 315.834 423.484 314.178 423.484C312.522 423.484 311.106 424.096 309.93 425.32C308.754 426.544 308.166 428.044 308.166 429.82C308.166 431.596 308.742 433.108 309.894 434.356C311.07 435.58 312.498 436.192 314.178 436.192ZM326.329 429.82C326.329 428.5 326.569 427.264 327.049 426.112C327.553 424.936 328.237 423.928 329.101 423.088C329.965 422.224 330.973 421.552 332.125 421.072C333.301 420.568 334.549 420.316 335.869 420.316C337.189 420.316 338.425 420.568 339.577 421.072C340.753 421.552 341.761 422.224 342.601 423.088C343.465 423.928 344.137 424.936 344.617 426.112C345.121 427.264 345.373 428.5 345.373 429.82C345.373 431.164 345.121 432.424 344.617 433.6C344.137 434.752 343.465 435.76 342.601 436.624C341.761 437.464 340.753 438.136 339.577 438.64C338.425 439.12 337.189 439.36 335.869 439.36C334.549 439.36 333.301 439.12 332.125 438.64C330.973 438.136 329.965 437.464 329.101 436.624C328.237 435.76 327.553 434.752 327.049 433.6C326.569 432.424 326.329 431.164 326.329 429.82ZM335.869 436.192C337.525 436.192 338.929 435.58 340.081 434.356C341.257 433.108 341.845 431.596 341.845 429.82C341.845 428.044 341.257 426.544 340.081 425.32C338.929 424.096 337.525 423.484 335.869 423.484C334.213 423.484 332.797 424.096 331.621 425.32C330.445 426.544 329.857 428.044 329.857 429.82C329.857 431.596 330.433 433.108 331.585 434.356C332.761 435.58 334.189 436.192 335.869 436.192ZM348.778 439V413.8L352.378 413.008V428.74L361.27 420.676H365.482L356.05 429.28L365.986 439H361.234L352.378 430.36V439H348.778ZM369.457 417.724C368.857 417.724 368.341 417.508 367.909 417.076C367.477 416.62 367.261 416.092 367.261 415.492C367.261 414.892 367.477 414.376 367.909 413.944C368.341 413.488 368.857 413.26 369.457 413.26C370.057 413.26 370.573 413.488 371.005 413.944C371.461 414.376 371.689 414.892 371.689 415.492C371.689 416.092 371.461 416.62 371.005 417.076C370.573 417.508 370.057 417.724 369.457 417.724ZM371.257 420.676V439H367.657V420.676H371.257ZM375.497 439V420.676H379.097V422.512C379.817 421.792 380.633 421.252 381.545 420.892C382.481 420.508 383.501 420.316 384.605 420.316C386.693 420.316 388.409 420.988 389.753 422.332C391.097 423.652 391.769 425.368 391.769 427.48V439H388.169V428.092C388.169 426.652 387.749 425.524 386.909 424.708C386.093 423.868 385.001 423.448 383.633 423.448C382.673 423.448 381.797 423.652 381.005 424.06C380.237 424.468 379.601 425.056 379.097 425.824V439H375.497ZM404.311 439.144C403.039 439.144 401.839 438.904 400.711 438.424C399.583 437.92 398.599 437.248 397.759 436.408C396.943 435.568 396.295 434.572 395.815 433.42C395.335 432.268 395.095 431.044 395.095 429.748C395.095 428.452 395.335 427.228 395.815 426.076C396.295 424.924 396.943 423.928 397.759 423.088C398.599 422.248 399.583 421.588 400.711 421.108C401.863 420.604 403.087 420.352 404.383 420.352C405.367 420.352 406.315 420.508 407.227 420.82C408.163 421.132 409.027 421.588 409.819 422.188V420.676H413.383V439.252C413.383 441.628 412.651 443.452 411.187 444.724C409.747 446.02 407.683 446.668 404.995 446.668C403.675 446.668 402.367 446.512 401.071 446.2C399.799 445.888 398.647 445.444 397.615 444.868L399.019 442.06C400.051 442.588 401.047 442.984 402.007 443.248C402.967 443.512 403.927 443.644 404.887 443.644C406.471 443.644 407.683 443.272 408.523 442.528C409.363 441.784 409.783 440.692 409.783 439.252V437.2C409.015 437.824 408.163 438.304 407.227 438.64C406.291 438.976 405.319 439.144 404.311 439.144ZM398.623 429.748C398.623 431.5 399.211 432.988 400.387 434.212C401.563 435.412 403.015 436.012 404.743 436.012C405.775 436.012 406.723 435.832 407.587 435.472C408.451 435.088 409.183 434.56 409.783 433.888V425.608C409.207 424.936 408.475 424.42 407.587 424.06C406.723 423.676 405.775 423.484 404.743 423.484C403.015 423.484 401.563 424.096 400.387 425.32C399.211 426.52 398.623 427.996 398.623 429.748ZM183.913 487V468.676H187.513V471.016C188.065 470.128 188.773 469.456 189.637 469C190.501 468.52 191.473 468.28 192.553 468.28C192.937 468.28 193.273 468.304 193.561 468.352C193.849 468.4 194.125 468.472 194.389 468.568V471.808C194.053 471.688 193.705 471.592 193.345 471.52C192.985 471.448 192.625 471.412 192.265 471.412C191.209 471.412 190.261 471.7 189.421 472.276C188.605 472.828 187.969 473.656 187.513 474.76V487H183.913ZM212.023 484.912C210.967 485.728 209.863 486.34 208.711 486.748C207.559 487.132 206.299 487.324 204.931 487.324C203.587 487.324 202.327 487.084 201.151 486.604C199.975 486.1 198.955 485.428 198.091 484.588C197.227 483.748 196.543 482.752 196.039 481.6C195.559 480.424 195.319 479.164 195.319 477.82C195.319 476.5 195.559 475.264 196.039 474.112C196.519 472.96 197.167 471.964 197.983 471.124C198.799 470.284 199.771 469.624 200.899 469.144C202.027 468.64 203.227 468.388 204.499 468.388C205.747 468.388 206.911 468.64 207.991 469.144C209.095 469.624 210.031 470.296 210.799 471.16C211.591 472 212.215 473.008 212.671 474.184C213.127 475.36 213.355 476.62 213.355 477.964V479.008H198.883C199.123 480.52 199.819 481.78 200.971 482.788C202.123 483.772 203.491 484.264 205.075 484.264C205.963 484.264 206.815 484.12 207.631 483.832C208.447 483.544 209.143 483.148 209.719 482.644L212.023 484.912ZM204.427 471.412C203.059 471.412 201.859 471.868 200.827 472.78C199.819 473.692 199.183 474.868 198.919 476.308H209.791C209.527 474.916 208.891 473.752 207.883 472.816C206.899 471.88 205.747 471.412 204.427 471.412ZM225.278 487.288C223.982 487.288 222.77 487.048 221.642 486.568C220.514 486.064 219.53 485.392 218.69 484.552C217.874 483.712 217.226 482.716 216.746 481.564C216.266 480.388 216.026 479.14 216.026 477.82C216.026 476.5 216.266 475.264 216.746 474.112C217.226 472.96 217.874 471.964 218.69 471.124C219.53 470.284 220.526 469.624 221.678 469.144C222.83 468.64 224.054 468.388 225.35 468.388C226.382 468.388 227.366 468.544 228.302 468.856C229.262 469.168 230.126 469.612 230.894 470.188V468.676H234.458V494.452H230.858V485.308C230.09 485.956 229.226 486.448 228.266 486.784C227.33 487.12 226.334 487.288 225.278 487.288ZM219.554 477.784C219.554 479.584 220.154 481.096 221.354 482.32C222.554 483.544 224.03 484.156 225.782 484.156C226.814 484.156 227.762 483.964 228.626 483.58C229.514 483.196 230.258 482.656 230.858 481.96V473.644C230.258 472.972 229.514 472.444 228.626 472.06C227.738 471.676 226.79 471.484 225.782 471.484C224.03 471.484 222.554 472.084 221.354 473.284C220.154 474.484 219.554 475.984 219.554 477.784ZM242.25 468.676V479.548C242.25 480.988 242.658 482.128 243.474 482.968C244.314 483.808 245.418 484.228 246.786 484.228C247.746 484.228 248.61 484.024 249.378 483.616C250.146 483.184 250.782 482.584 251.286 481.816V468.676H254.886V487H251.286V485.164C250.566 485.884 249.738 486.436 248.802 486.82C247.89 487.18 246.882 487.36 245.778 487.36C243.69 487.36 241.974 486.688 240.63 485.344C239.31 484 238.65 482.272 238.65 480.16V468.676H242.25ZM275.023 484.912C273.967 485.728 272.863 486.34 271.711 486.748C270.559 487.132 269.299 487.324 267.931 487.324C266.587 487.324 265.327 487.084 264.151 486.604C262.975 486.1 261.955 485.428 261.091 484.588C260.227 483.748 259.543 482.752 259.039 481.6C258.559 480.424 258.319 479.164 258.319 477.82C258.319 476.5 258.559 475.264 259.039 474.112C259.519 472.96 260.167 471.964 260.983 471.124C261.799 470.284 262.771 469.624 263.899 469.144C265.027 468.64 266.227 468.388 267.499 468.388C268.747 468.388 269.911 468.64 270.991 469.144C272.095 469.624 273.031 470.296 273.799 471.16C274.591 472 275.215 473.008 275.671 474.184C276.127 475.36 276.355 476.62 276.355 477.964V479.008H261.883C262.123 480.52 262.819 481.78 263.971 482.788C265.123 483.772 266.491 484.264 268.075 484.264C268.963 484.264 269.815 484.12 270.631 483.832C271.447 483.544 272.143 483.148 272.719 482.644L275.023 484.912ZM267.427 471.412C266.059 471.412 264.859 471.868 263.827 472.78C262.819 473.692 262.183 474.868 261.919 476.308H272.791C272.527 474.916 271.891 473.752 270.883 472.816C269.899 471.88 268.747 471.412 267.427 471.412ZM278.232 484.624L280.176 482.248C281.136 482.992 282.108 483.568 283.092 483.976C284.1 484.36 285.12 484.552 286.152 484.552C287.448 484.552 288.504 484.3 289.32 483.796C290.136 483.292 290.544 482.632 290.544 481.816C290.544 481.168 290.304 480.652 289.824 480.268C289.344 479.884 288.6 479.62 287.592 479.476L284.28 479.008C282.48 478.744 281.112 478.192 280.176 477.352C279.264 476.488 278.808 475.348 278.808 473.932C278.808 472.276 279.468 470.944 280.788 469.936C282.108 468.904 283.836 468.388 285.972 468.388C287.316 468.388 288.588 468.58 289.788 468.964C291.012 469.348 292.2 469.936 293.352 470.728L291.516 473.104C290.508 472.432 289.524 471.952 288.564 471.664C287.628 471.352 286.68 471.196 285.72 471.196C284.616 471.196 283.728 471.424 283.056 471.88C282.384 472.336 282.048 472.936 282.048 473.68C282.048 474.352 282.276 474.868 282.732 475.228C283.212 475.564 283.992 475.816 285.072 475.984L288.384 476.452C290.184 476.716 291.552 477.28 292.488 478.144C293.448 479.008 293.928 480.148 293.928 481.564C293.928 482.38 293.724 483.148 293.316 483.868C292.932 484.564 292.392 485.164 291.696 485.668C291.024 486.172 290.22 486.58 289.284 486.892C288.348 487.18 287.34 487.324 286.26 487.324C284.676 487.324 283.188 487.096 281.796 486.64C280.428 486.184 279.24 485.512 278.232 484.624ZM298.719 482.464V471.7H294.831V468.676H298.719V463.996L302.283 463.132V468.676H307.683V471.7H302.283V481.636C302.283 482.572 302.487 483.232 302.895 483.616C303.327 484 304.023 484.192 304.983 484.192C305.487 484.192 305.931 484.168 306.315 484.12C306.723 484.048 307.155 483.928 307.611 483.76V486.784C307.131 486.952 306.567 487.084 305.919 487.18C305.295 487.276 304.719 487.324 304.191 487.324C302.415 487.324 301.059 486.916 300.123 486.1C299.187 485.26 298.719 484.048 298.719 482.464Z" fill="black"/>
    <rect x="70" y="27" width="350" height="350" fill="white"/>
    <path d="M406.319 241.259C403.792 244.023 400.658 246.08 397.257 247.677H397.252C396.932 247.829 396.612 247.977 396.288 248.117H396.284L396.28 248.121L396.276 248.117H396.272C396.272 248.117 396.272 248.118 396.272 248.118C396.271 248.119 396.271 248.119 396.271 248.12C396.27 248.12 396.27 248.12 396.269 248.121C396.269 248.121 396.268 248.121 396.268 248.121H396.263L396.259 248.117C396.255 248.121 396.255 248.121 396.251 248.117L396.247 248.121L396.243 248.117H396.239C396.235 248.121 396.235 248.121 396.231 248.117H396.227C393.95 249.102 391.612 249.939 389.228 250.622C375.205 254.603 360.466 255.374 346.105 252.876C345.83 252.827 345.56 252.777 345.285 252.728V219.423C345.556 219.308 345.83 219.193 346.105 219.082C347.898 218.339 349.713 217.656 351.549 217.033C354.191 216.129 356.87 215.355 359.586 214.709C368.447 212.562 377.59 211.822 386.68 212.516C388.333 212.639 389.983 212.817 391.628 213.05C395.07 213.53 398.68 214.368 401.855 215.822H401.859C402.323 216.039 402.779 216.265 403.23 216.507C406.052 218.039 408.432 220.145 409.884 223.032C410.406 224.069 410.782 225.173 411 226.313V226.321C411.082 226.715 411.14 227.114 411.185 227.508C411.702 232.369 409.687 237.572 406.319 241.259Z" fill="#F2F2F2"/>
    <path d="M411.185 227.508C411.144 227.518 411.103 227.523 411.062 227.524C404.034 227.832 397.016 228.289 390.007 228.896H389.995C389.966 228.9 389.942 228.9 389.913 228.904C382.717 229.528 375.536 230.31 368.37 231.249C368.067 231.29 367.767 231.331 367.467 231.368C362.512 232.029 357.565 232.762 352.628 233.569C350.45 233.926 348.275 234.298 346.105 234.685C345.83 234.735 345.56 234.78 345.285 234.833V233.589C345.56 233.536 345.834 233.491 346.105 233.441C353.334 232.16 360.587 231.042 367.865 230.087C369.695 229.84 371.528 229.607 373.363 229.388C378.663 228.748 383.972 228.195 389.289 227.73C389.679 227.697 390.064 227.664 390.454 227.631C397.26 227.052 404.076 226.613 410.902 226.313C410.935 226.311 410.968 226.314 411 226.321C411.657 226.379 411.796 227.364 411.185 227.508Z" fill="white"/>
    <path d="M396.59 246.907C387.835 246.971 379.21 243.255 373.017 237.105C371.27 235.363 369.73 233.425 368.429 231.328C368.011 230.658 367.035 231.397 367.449 232.061C372.258 239.781 380.269 245.28 389.102 247.302C391.61 247.871 394.176 248.146 396.747 248.121C397.532 248.115 397.37 246.901 396.59 246.907V246.907Z" fill="white"/>
    <path d="M359.586 214.709C359.549 214.824 359.482 214.928 359.392 215.009C359.302 215.091 359.192 215.147 359.073 215.173C357.067 215.699 355.129 216.457 353.297 217.431C350.623 218.845 348.194 220.682 346.105 222.872C345.994 222.983 345.888 223.094 345.785 223.209C345.613 223.389 345.449 223.574 345.285 223.763V221.973C345.547 221.693 345.822 221.418 346.105 221.155C347.754 219.575 349.581 218.192 351.549 217.033C354.191 216.129 356.87 215.355 359.586 214.709Z" fill="white"/>
    <path d="M402.581 215.498C397.012 217.893 392.352 222.006 389.28 227.236C389.217 227.385 389.217 227.553 389.278 227.704C389.338 227.854 389.456 227.974 389.605 228.038C389.755 228.097 389.921 228.096 390.071 228.036C390.22 227.975 390.34 227.859 390.406 227.712C393.339 222.773 397.763 218.893 403.041 216.632C403.765 216.323 403.307 215.187 402.581 215.498L402.581 215.498Z" fill="white"/>
    <path d="M419.369 180.623C418.418 184.245 416.592 187.526 414.323 190.519L414.319 190.523C414.11 190.803 413.892 191.086 413.667 191.357V191.361C412.092 193.303 410.391 195.14 408.575 196.859C402.05 203.084 394.678 208.355 386.68 212.516C374.097 219.094 360.034 222.983 346.105 223.205C345.999 223.209 345.892 223.209 345.785 223.209C345.617 223.213 345.449 223.213 345.285 223.213V204.55C345.551 204.041 345.826 203.532 346.105 203.027C349.725 196.508 354.139 190.464 359.246 185.033C359.369 184.898 359.496 184.762 359.623 184.631C361.543 182.602 363.556 180.671 365.662 178.837C373.764 171.707 383.127 166.157 393.269 162.474C396.539 161.3 400.124 160.359 403.611 160.174C404.124 160.146 404.633 160.133 405.146 160.137C408.358 160.183 411.439 160.942 414.069 162.823C415.011 163.5 415.855 164.303 416.58 165.209C416.834 165.525 417.068 165.849 417.294 166.182V166.186C420.009 170.251 420.641 175.79 419.369 180.623Z" fill="#F2F2F2"/>
    <path d="M417.293 166.182V166.186C417.263 166.212 417.23 166.236 417.195 166.256C411.123 169.791 405.128 173.455 399.209 177.248C399.201 177.252 399.197 177.256 399.189 177.26C399.165 177.277 399.14 177.292 399.115 177.305C393.031 181.206 387.033 185.238 381.121 189.402C380.875 189.575 380.624 189.751 380.374 189.928C376.292 192.814 372.252 195.763 368.255 198.772C360.706 204.464 353.323 210.366 346.105 216.478C345.83 216.708 345.56 216.942 345.285 217.176V215.579C345.556 215.345 345.83 215.111 346.105 214.881C348.87 212.545 351.66 210.241 354.474 207.97C355.316 207.293 356.161 206.615 357.006 205.946C364.514 199.963 372.19 194.204 380.034 188.667H380.038C381.58 187.579 383.126 186.5 384.674 185.431C389.072 182.401 393.519 179.443 398.015 176.558C398.339 176.349 398.668 176.139 398.996 175.93C404.752 172.251 410.583 168.692 416.489 165.254C416.518 165.236 416.548 165.221 416.58 165.208C417.195 164.962 417.773 165.775 417.293 166.182Z" fill="white"/>
    <path d="M413.375 190.147C405.651 194.274 396.289 194.994 387.951 192.427C385.595 191.696 383.331 190.696 381.206 189.444C380.525 189.045 380.003 190.153 380.678 190.549C388.52 195.149 398.167 196.294 406.927 193.979C409.412 193.316 411.812 192.367 414.077 191.149C414.77 190.779 414.062 189.779 413.375 190.147V190.147Z" fill="white"/>
    <path d="M355.591 205.171C355.208 203.021 355.077 200.834 355.2 198.655C355.476 193.683 356.997 188.861 359.623 184.632C361.545 182.604 363.558 180.672 365.663 178.837C365.683 178.957 365.671 179.08 365.629 179.194C365.587 179.308 365.516 179.409 365.423 179.488C363.891 180.887 362.526 182.459 361.356 184.172C357.176 190.278 355.545 197.777 356.81 205.069C356.83 205.152 356.829 205.238 356.806 205.321C356.784 205.403 356.741 205.478 356.681 205.538C356.593 205.615 356.487 205.667 356.373 205.69C356.259 205.712 356.141 205.705 356.03 205.668C355.92 205.63 355.821 205.565 355.744 205.478C355.667 205.391 355.614 205.285 355.591 205.171Z" fill="white"/>
    <path d="M404.102 159.547C400.283 164.258 398.064 170.066 397.771 176.126C397.785 176.287 397.863 176.436 397.986 176.541C398.11 176.646 398.27 176.698 398.431 176.685C398.591 176.668 398.739 176.59 398.843 176.467C398.947 176.344 399 176.185 398.99 176.024C399.294 170.286 401.412 164.794 405.036 160.338C405.534 159.727 404.601 158.935 404.102 159.547Z" fill="white"/>
    <path d="M361.617 173.039V173.043C361.588 173.396 361.556 173.745 361.519 174.094V174.102C361.233 176.587 360.788 179.05 360.185 181.477C359.898 182.668 359.586 183.851 359.246 185.033C359.205 185.185 359.16 185.337 359.115 185.485V185.489C358.113 188.928 356.915 192.308 355.529 195.611C352.978 201.692 349.821 207.5 346.105 212.947C345.839 213.345 345.564 213.744 345.285 214.138V149.835C345.56 149.818 345.83 149.818 346.105 149.827C346.236 149.827 346.368 149.831 346.499 149.839C347.657 149.9 348.8 150.122 349.896 150.5C350.282 150.627 350.655 150.771 351.024 150.931C355.5 152.894 359.016 157.222 360.542 161.981C361.687 165.545 361.917 169.294 361.617 173.039Z" fill="#F2F2F2"/>
    <path d="M351.024 150.931C351.015 150.971 350.999 151.01 350.979 151.046C349.318 154.278 347.693 157.526 346.105 160.79C345.83 161.353 345.556 161.919 345.285 162.482V159.69C345.556 159.131 345.829 158.573 346.105 158.014C347.332 155.526 348.579 153.049 349.847 150.582C349.861 150.553 349.877 150.526 349.896 150.5C350.274 149.958 351.209 150.327 351.024 150.931Z" fill="white"/>
    <path d="M361.748 173.7C361.675 173.832 361.601 173.963 361.519 174.094C360.314 176.196 358.88 178.157 357.244 179.942C354.101 183.355 350.315 186.113 346.105 188.06C345.834 188.191 345.56 188.314 345.285 188.429V187.095C345.56 186.971 345.834 186.844 346.105 186.713C352.2 183.803 357.262 179.102 360.616 173.236C360.665 173.152 360.73 173.08 360.809 173.024C360.888 172.968 360.978 172.929 361.073 172.911C361.168 172.893 361.265 172.895 361.359 172.918C361.453 172.941 361.541 172.983 361.617 173.043C361.669 173.078 361.713 173.122 361.748 173.174C361.783 173.225 361.807 173.283 361.819 173.344C361.831 173.405 361.831 173.468 361.819 173.529C361.807 173.59 361.783 173.648 361.748 173.7Z" fill="white"/>
    <path d="M346.105 99.5504V130.758H345.284V130.425H70.8205V130.758H70V99.5504C70.0035 95.9577 71.431 92.5132 73.9692 89.9727C76.5075 87.4323 79.949 86.0035 83.5386 86H332.566C336.156 86.0035 339.598 87.4323 342.136 89.9727C344.674 92.5132 346.102 95.9577 346.105 99.5504Z" fill="#30B395"/>
    <path d="M332.566 86H83.5386C79.949 86.0035 76.5075 87.4323 73.9692 89.9727C71.431 92.5132 70.0035 95.9577 70 99.5504V277.759C70.0035 281.352 71.431 284.797 73.9692 287.337C76.5075 289.877 79.949 291.306 83.5386 291.31H332.566C336.156 291.306 339.598 289.877 342.136 287.337C344.674 284.797 346.102 281.352 346.105 277.759V99.5504C346.102 95.9577 344.674 92.5132 342.136 89.9727C339.598 87.4323 336.156 86.0035 332.566 86ZM345.284 277.759C345.28 281.134 343.939 284.369 341.555 286.755C339.171 289.142 335.938 290.484 332.566 290.488H83.5386C80.1669 290.484 76.9345 289.142 74.5503 286.755C72.1661 284.369 70.8248 281.134 70.8205 277.759V99.5504C70.8248 96.1758 72.1661 92.9406 74.5503 90.5543C76.9345 88.168 80.1669 86.8255 83.5386 86.8212H332.566C335.938 86.8255 339.171 88.168 341.555 90.5543C343.939 92.9406 345.28 96.1758 345.284 99.5504V277.759Z" fill="#3F3D56"/>
    <path d="M125.796 116.591C130.327 116.591 134.001 112.914 134.001 108.379C134.001 103.843 130.327 100.166 125.796 100.166C121.264 100.166 117.59 103.843 117.59 108.379C117.59 112.914 121.264 116.591 125.796 116.591Z" fill="white"/>
    <path d="M290.31 116.591C294.841 116.591 298.515 112.914 298.515 108.379C298.515 103.843 294.841 100.166 290.31 100.166C285.778 100.166 282.104 103.843 282.104 108.379C282.104 112.914 285.778 116.591 290.31 116.591Z" fill="white"/>
    <path d="M149.502 199.948H100.691C98.6229 199.945 96.6404 199.122 95.1782 197.659C93.7159 196.195 92.8935 194.211 92.8911 192.141V169.051C92.8935 166.981 93.7159 164.997 95.1782 163.534C96.6404 162.07 98.6229 161.247 100.691 161.245H149.502C151.57 161.247 153.552 162.07 155.015 163.534C156.477 164.997 157.299 166.981 157.302 169.051V192.141C157.299 194.211 156.477 196.195 155.015 197.659C153.552 199.122 151.57 199.945 149.502 199.948Z" fill="#30B395"/>
    <path d="M232.538 199.948H183.727C181.659 199.945 179.676 199.122 178.214 197.659C176.752 196.195 175.93 194.211 175.927 192.141V169.051C175.93 166.981 176.752 164.997 178.214 163.534C179.676 162.07 181.659 161.247 183.727 161.245H232.538C234.606 161.247 236.588 162.07 238.051 163.534C239.513 164.997 240.335 166.981 240.338 169.051V192.141C240.335 194.211 239.513 196.195 238.051 197.659C236.588 199.122 234.606 199.945 232.538 199.948Z" fill="#30B395"/>
    <path d="M232.538 259.607H183.727C181.596 259.605 179.554 258.757 178.047 257.249C176.541 255.741 175.693 253.697 175.691 251.564V228.474C175.693 226.341 176.541 224.297 178.047 222.789C179.554 221.281 181.596 220.433 183.727 220.431H232.538C234.669 220.433 236.711 221.281 238.218 222.789C239.724 224.297 240.572 226.341 240.574 228.474V251.564C240.572 253.697 239.724 255.741 238.218 257.249C236.711 258.757 234.669 259.605 232.538 259.607Z" fill="#F2F2F2"/>
    <path d="M149.342 259.607H100.531C98.4001 259.605 96.3575 258.757 94.851 257.249C93.3444 255.741 92.497 253.697 92.4946 251.564V228.474C92.497 226.341 93.3444 224.297 94.851 222.789C96.3575 221.281 98.4001 220.433 100.531 220.431H149.342C151.472 220.433 153.515 221.281 155.021 222.789C156.528 224.297 157.375 226.341 157.378 228.474V251.564C157.375 253.697 156.528 255.741 155.021 257.249C153.515 258.757 151.472 259.605 149.342 259.607Z" fill="#F2F2F2"/>
    <path d="M315.574 259.607H266.763C264.632 259.605 262.59 258.757 261.083 257.249C259.577 255.741 258.729 253.697 258.727 251.564V228.474C258.729 226.341 259.577 224.297 261.083 222.789C262.59 221.281 264.632 220.433 266.763 220.431H315.574C317.705 220.433 319.747 221.281 321.254 222.789C322.76 224.297 323.608 226.341 323.61 228.474V251.564C323.608 253.697 322.76 255.741 321.254 257.249C319.747 258.757 317.705 259.605 315.574 259.607Z" fill="#F2F2F2"/>
    <path d="M315.574 199.994H266.763C264.632 199.992 262.59 199.144 261.083 197.636C259.577 196.128 258.729 194.084 258.727 191.951V168.861C258.729 166.728 259.577 164.684 261.083 163.176C262.59 161.668 264.632 160.82 266.763 160.818H315.574C317.705 160.82 319.747 161.668 321.254 163.176C322.76 164.684 323.608 166.728 323.61 168.861V191.951C323.608 194.084 322.76 196.128 321.254 197.636C319.747 199.144 317.705 199.992 315.574 199.994Z" fill="#F2F2F2"/>
    <path d="M125.097 193.844C132.406 193.844 138.332 187.913 138.332 180.596C138.332 173.28 132.406 167.349 125.097 167.349C117.787 167.349 111.861 173.28 111.861 180.596C111.861 187.913 117.787 193.844 125.097 193.844Z" fill="white"/>
    <path d="M123.785 185.65C123.487 185.65 123.197 185.554 122.959 185.375L122.944 185.364L119.834 182.98C119.689 182.87 119.568 182.732 119.477 182.575C119.386 182.418 119.327 182.244 119.303 182.064C119.279 181.884 119.291 181.701 119.338 181.525C119.385 181.349 119.466 181.185 119.576 181.041C119.686 180.896 119.824 180.775 119.981 180.684C120.139 180.593 120.312 180.534 120.492 180.51C120.672 180.487 120.855 180.499 121.031 180.546C121.206 180.593 121.37 180.674 121.515 180.785L123.529 182.331L128.29 176.116C128.401 175.972 128.539 175.851 128.696 175.76C128.853 175.669 129.026 175.61 129.206 175.587C129.386 175.563 129.569 175.575 129.744 175.622C129.92 175.669 130.084 175.75 130.228 175.86L130.198 175.9L130.229 175.861C130.519 176.084 130.709 176.414 130.757 176.778C130.805 177.141 130.707 177.509 130.484 177.8L124.884 185.11C124.755 185.278 124.588 185.415 124.397 185.508C124.207 185.602 123.997 185.65 123.785 185.65Z" fill="#30B395"/>
    <path d="M208.369 193.653C215.679 193.653 221.605 187.722 221.605 180.406C221.605 173.089 215.679 167.158 208.369 167.158C201.059 167.158 195.133 173.089 195.133 180.406C195.133 187.722 201.059 193.653 208.369 193.653Z" fill="white"/>
    <path d="M207.057 185.46C206.759 185.46 206.469 185.364 206.231 185.185L206.216 185.174L203.106 182.79C202.815 182.567 202.625 182.238 202.576 181.874C202.528 181.51 202.627 181.142 202.849 180.851C203.072 180.56 203.402 180.369 203.765 180.321C204.128 180.273 204.496 180.371 204.787 180.594L206.802 182.141L211.563 175.926C211.673 175.782 211.811 175.661 211.968 175.57C212.125 175.479 212.299 175.42 212.479 175.396C212.658 175.373 212.841 175.385 213.017 175.432C213.192 175.478 213.356 175.56 213.5 175.67L213.471 175.71L213.501 175.671C213.792 175.894 213.982 176.224 214.03 176.587C214.078 176.951 213.979 177.319 213.757 177.61L208.157 184.92C208.027 185.088 207.86 185.225 207.67 185.318C207.479 185.412 207.269 185.46 207.057 185.46Z" fill="#30B395"/>
    <path d="M297.823 242.918C298.257 242.442 298.583 241.877 298.776 241.261C298.968 240.646 299.024 239.996 298.939 239.357C298.853 238.718 298.629 238.105 298.281 237.562C297.934 237.019 297.472 236.559 296.927 236.214L289.538 196.723L280.551 200.059L290.64 237.828C290.122 238.782 289.972 239.893 290.217 240.95C290.463 242.008 291.087 242.938 291.973 243.566C292.858 244.193 293.942 244.474 295.021 244.355C296.099 244.235 297.096 243.724 297.823 242.918Z" fill="#A0616A"/>
    <path d="M226.115 182.66C226.138 182.905 226.141 183.152 226.124 183.397L243.597 196.857L248.552 194.821L252.6 201.904L244.179 206.362C243.498 206.722 242.72 206.852 241.959 206.731C241.199 206.611 240.498 206.247 239.963 205.694L222.497 187.672C221.573 187.881 220.607 187.803 219.728 187.448C218.849 187.094 218.098 186.48 217.576 185.689C217.054 184.897 216.785 183.965 216.805 183.017C216.825 182.069 217.133 181.149 217.688 180.38C218.243 179.611 219.018 179.029 219.912 178.713C220.805 178.396 221.774 178.359 222.688 178.606C223.603 178.854 224.421 179.374 225.033 180.098C225.646 180.822 226.023 181.716 226.115 182.66H226.115Z" fill="#A0616A"/>
    <path d="M266.936 313.01H261.907L259.514 297.699L266.937 297.7L266.936 313.01Z" fill="#A0616A"/>
    <path d="M268.219 317.89L252.001 317.89V317.685C252.001 316.855 252.165 316.033 252.482 315.267C252.799 314.5 253.264 313.804 253.85 313.217C254.436 312.63 255.132 312.165 255.898 311.848C256.664 311.53 257.485 311.367 258.314 311.367H258.314L268.22 311.367L268.219 317.89Z" fill="#2F2E41"/>
    <path d="M285.808 313.01H280.779L278.386 297.699L285.809 297.7L285.808 313.01Z" fill="#A0616A"/>
    <path d="M287.091 317.89L270.874 317.89V317.685C270.874 316.855 271.037 316.033 271.354 315.267C271.671 314.5 272.136 313.804 272.722 313.217C273.309 312.63 274.004 312.165 274.77 311.848C275.536 311.53 276.357 311.367 277.186 311.367H277.186L287.092 311.367L287.091 317.89Z" fill="#2F2E41"/>
    <path d="M260.862 309.985C260.403 309.985 259.96 309.814 259.621 309.504C259.281 309.195 259.069 308.77 259.027 308.312L254.644 249.311L254.851 249.294L285.013 246.812L285.022 247.027L287.419 308.148C287.429 308.396 287.388 308.644 287.299 308.876C287.211 309.108 287.076 309.32 286.904 309.499C286.732 309.678 286.525 309.82 286.297 309.917C286.068 310.015 285.823 310.065 285.574 310.065H279.66C279.219 310.067 278.791 309.91 278.456 309.622C278.121 309.334 277.901 308.935 277.836 308.498L269.804 259.123C269.796 259.072 269.77 259.026 269.729 258.994C269.689 258.962 269.638 258.946 269.587 258.95C269.535 258.953 269.487 258.976 269.452 259.014C269.417 259.052 269.397 259.101 269.396 259.153L269.032 307.903C269.028 308.374 268.845 308.825 268.52 309.166C268.195 309.506 267.753 309.71 267.283 309.735L260.962 309.982C260.928 309.984 260.895 309.985 260.862 309.985Z" fill="#2F2E41"/>
    <path d="M266.011 174.745C271.576 174.745 276.087 170.23 276.087 164.66C276.087 159.09 271.576 154.575 266.011 154.575C260.446 154.575 255.935 159.09 255.935 164.66C255.935 170.23 260.446 174.745 266.011 174.745Z" fill="#A0616A"/>
    <path d="M267.961 253.073C263.557 253.06 259.174 252.461 254.928 251.291C254.519 251.172 254.164 250.915 253.923 250.565C253.681 250.214 253.567 249.791 253.601 249.366C254.957 228.961 255.276 213.126 252.424 202.17C251.208 197.5 251.76 192.582 253.938 188.677C257.216 182.8 263.241 179.223 269.667 179.346C269.974 179.352 270.285 179.363 270.598 179.379C280.351 179.882 287.951 188.713 287.539 199.065L285.577 248.409C285.57 248.769 285.457 249.118 285.251 249.414C285.046 249.709 284.757 249.937 284.422 250.069C279.16 252.051 273.584 253.068 267.961 253.073Z" fill="#3F3D56"/>
    <path d="M254.082 205.959L246.534 196.701C246.319 196.438 246.164 196.131 246.078 195.803C245.992 195.474 245.978 195.13 246.037 194.795C246.096 194.46 246.227 194.142 246.42 193.862C246.612 193.583 246.863 193.348 247.155 193.174L257.379 187.076C258.732 185.983 260.462 185.473 262.191 185.655C263.919 185.838 265.505 186.699 266.6 188.05C267.694 189.401 268.209 191.131 268.031 192.862C267.853 194.592 266.997 196.181 265.65 197.281L257.66 206.057C257.431 206.308 257.15 206.507 256.838 206.64C256.525 206.773 256.188 206.837 255.848 206.828C255.509 206.818 255.175 206.736 254.87 206.586C254.565 206.436 254.296 206.222 254.082 205.959Z" fill="#3F3D56"/>
    <path d="M277.826 204.797C277.515 204.658 277.239 204.454 277.015 204.199C276.791 203.943 276.625 203.642 276.527 203.316L273.13 191.94C272.392 190.365 272.309 188.561 272.898 186.924C273.487 185.288 274.701 183.952 276.273 183.21C277.845 182.467 279.647 182.38 281.284 182.965C282.921 183.551 284.259 184.763 285.004 186.334L291.575 196.267C291.762 196.55 291.887 196.871 291.939 197.207C291.992 197.543 291.971 197.886 291.879 198.213C291.787 198.54 291.626 198.844 291.406 199.103C291.187 199.362 290.914 199.571 290.606 199.715L279.794 204.781C279.486 204.925 279.151 205.001 278.812 205.004C278.472 205.007 278.135 204.936 277.826 204.797Z" fill="#3F3D56"/>
    <path d="M270.99 172.935L263.521 171.224C262.75 171.048 261.825 170.711 261.718 169.927C261.574 168.874 263.089 168.14 262.949 167.086C262.814 166.066 261.434 165.934 260.451 165.633C259.534 165.311 258.779 164.645 258.345 163.776C257.91 162.907 257.831 161.903 258.123 160.976C257.059 162.477 254.627 162.606 253.247 161.39C251.866 160.173 251.601 157.967 252.431 156.324C252.878 155.516 253.51 154.827 254.275 154.31C255.039 153.793 255.915 153.465 256.83 153.35C258.671 153.142 260.531 153.489 262.173 154.347C262.282 153.184 263.734 152.712 264.901 152.702C267.327 152.73 269.683 153.515 271.642 154.946C273.601 156.377 275.066 158.384 275.832 160.687C277.265 165.307 276.306 170.372 272.298 173.075L270.99 172.935Z" fill="#2F2E41"/>
    <path d="M346.223 318H189.914C189.805 318 189.701 317.957 189.624 317.88C189.547 317.803 189.503 317.698 189.503 317.589C189.503 317.48 189.547 317.376 189.624 317.299C189.701 317.222 189.805 317.179 189.914 317.179H346.223C346.332 317.179 346.436 317.222 346.513 317.299C346.59 317.376 346.633 317.48 346.633 317.589C346.633 317.698 346.59 317.803 346.513 317.88C346.436 317.957 346.332 318 346.223 318Z" fill="#3F3D56"/>
    </svg>
    