<svg width="491" height="581" viewBox="0 0 491 581" fill="none" xmlns="http://www.w3.org/2000/svg">
    <rect x="1" y="1" width="489" height="579" stroke="#F4C13A" stroke-width="2"/>
    <path d="M119.663 457.904C121.103 457.904 122.483 457.616 123.803 457.04C125.123 456.44 126.239 455.6 127.151 454.52L129.635 457.04C128.411 458.384 126.899 459.452 125.099 460.244C123.323 461.012 121.475 461.396 119.555 461.396C117.707 461.396 115.967 461.06 114.335 460.388C112.727 459.716 111.335 458.804 110.159 457.652C108.983 456.476 108.047 455.096 107.351 453.512C106.679 451.904 106.343 450.2 106.343 448.4C106.343 446.576 106.679 444.872 107.351 443.288C108.047 441.704 108.983 440.336 110.159 439.184C111.335 438.008 112.727 437.084 114.335 436.412C115.967 435.74 117.707 435.404 119.555 435.404C121.523 435.404 123.407 435.8 125.207 436.592C127.031 437.36 128.531 438.416 129.707 439.76L127.187 442.352C126.227 441.248 125.075 440.396 123.731 439.796C122.387 439.196 120.995 438.896 119.555 438.896C118.235 438.896 116.999 439.136 115.847 439.616C114.695 440.096 113.699 440.768 112.859 441.632C112.043 442.472 111.395 443.48 110.915 444.656C110.435 445.808 110.195 447.056 110.195 448.4C110.195 449.744 110.435 451.004 110.915 452.18C111.395 453.332 112.055 454.328 112.895 455.168C113.735 456.008 114.731 456.68 115.883 457.184C117.059 457.664 118.319 457.904 119.663 457.904ZM132.901 461V442.676H136.501V445.016C137.053 444.128 137.761 443.456 138.625 443C139.489 442.52 140.461 442.28 141.541 442.28C141.925 442.28 142.261 442.304 142.549 442.352C142.837 442.4 143.113 442.472 143.377 442.568V445.808C143.041 445.688 142.693 445.592 142.333 445.52C141.973 445.448 141.613 445.412 141.253 445.412C140.197 445.412 139.249 445.7 138.409 446.276C137.593 446.828 136.957 447.656 136.501 448.76V461H132.901ZM161.012 458.912C159.956 459.728 158.852 460.34 157.7 460.748C156.548 461.132 155.288 461.324 153.92 461.324C152.576 461.324 151.316 461.084 150.14 460.604C148.964 460.1 147.944 459.428 147.08 458.588C146.216 457.748 145.532 456.752 145.028 455.6C144.548 454.424 144.308 453.164 144.308 451.82C144.308 450.5 144.548 449.264 145.028 448.112C145.508 446.96 146.156 445.964 146.972 445.124C147.788 444.284 148.76 443.624 149.888 443.144C151.016 442.64 152.216 442.388 153.488 442.388C154.736 442.388 155.9 442.64 156.98 443.144C158.084 443.624 159.02 444.296 159.788 445.16C160.58 446 161.204 447.008 161.66 448.184C162.116 449.36 162.344 450.62 162.344 451.964V453.008H147.872C148.112 454.52 148.808 455.78 149.96 456.788C151.112 457.772 152.48 458.264 154.064 458.264C154.952 458.264 155.804 458.12 156.62 457.832C157.436 457.544 158.132 457.148 158.708 456.644L161.012 458.912ZM153.416 445.412C152.048 445.412 150.848 445.868 149.816 446.78C148.808 447.692 148.172 448.868 147.908 450.308H158.78C158.516 448.916 157.88 447.752 156.872 446.816C155.888 445.88 154.736 445.412 153.416 445.412ZM171.358 461.324C169.366 461.324 167.746 460.808 166.498 459.776C165.25 458.744 164.625 457.4 164.625 455.744C164.625 454.016 165.286 452.66 166.606 451.676C167.926 450.668 169.738 450.164 172.042 450.164C172.93 450.164 173.794 450.26 174.634 450.452C175.474 450.62 176.278 450.86 177.046 451.172V449.228C177.046 447.932 176.662 446.96 175.894 446.312C175.126 445.664 174.022 445.34 172.582 445.34C171.742 445.34 170.866 445.472 169.954 445.736C169.042 445.976 168.022 446.36 166.894 446.888L165.562 444.188C166.93 443.54 168.226 443.072 169.45 442.784C170.674 442.472 171.886 442.316 173.086 442.316C175.462 442.316 177.298 442.892 178.594 444.044C179.914 445.172 180.574 446.78 180.574 448.868V461H177.046V459.416C176.23 460.064 175.354 460.544 174.418 460.856C173.482 461.168 172.462 461.324 171.358 461.324ZM168.082 455.672C168.082 456.56 168.454 457.28 169.198 457.832C169.966 458.384 170.962 458.66 172.186 458.66C173.146 458.66 174.034 458.516 174.85 458.228C175.666 457.94 176.398 457.508 177.046 456.932V453.764C176.35 453.38 175.618 453.104 174.85 452.936C174.082 452.744 173.242 452.648 172.33 452.648C171.034 452.648 170.002 452.924 169.234 453.476C168.466 454.028 168.082 454.76 168.082 455.672ZM186.395 456.464V445.7H182.507V442.676H186.395V437.996L189.959 437.132V442.676H195.359V445.7H189.959V455.636C189.959 456.572 190.163 457.232 190.571 457.616C191.003 458 191.699 458.192 192.659 458.192C193.163 458.192 193.607 458.168 193.991 458.12C194.399 458.048 194.831 457.928 195.287 457.76V460.784C194.807 460.952 194.243 461.084 193.595 461.18C192.971 461.276 192.395 461.324 191.867 461.324C190.091 461.324 188.735 460.916 187.799 460.1C186.863 459.26 186.395 458.048 186.395 456.464ZM213.5 458.912C212.444 459.728 211.34 460.34 210.188 460.748C209.036 461.132 207.776 461.324 206.408 461.324C205.064 461.324 203.804 461.084 202.628 460.604C201.452 460.1 200.432 459.428 199.568 458.588C198.704 457.748 198.02 456.752 197.516 455.6C197.036 454.424 196.796 453.164 196.796 451.82C196.796 450.5 197.036 449.264 197.516 448.112C197.996 446.96 198.644 445.964 199.46 445.124C200.276 444.284 201.248 443.624 202.376 443.144C203.504 442.64 204.704 442.388 205.976 442.388C207.224 442.388 208.388 442.64 209.468 443.144C210.572 443.624 211.508 444.296 212.276 445.16C213.068 446 213.692 447.008 214.148 448.184C214.604 449.36 214.832 450.62 214.832 451.964V453.008H200.36C200.6 454.52 201.296 455.78 202.448 456.788C203.6 457.772 204.968 458.264 206.552 458.264C207.44 458.264 208.292 458.12 209.108 457.832C209.924 457.544 210.62 457.148 211.196 456.644L213.5 458.912ZM205.904 445.412C204.536 445.412 203.336 445.868 202.304 446.78C201.296 447.692 200.66 448.868 200.396 450.308H211.268C211.004 448.916 210.368 447.752 209.36 446.816C208.376 445.88 207.224 445.412 205.904 445.412ZM231.58 461.324C229.588 461.324 227.968 460.808 226.72 459.776C225.472 458.744 224.848 457.4 224.848 455.744C224.848 454.016 225.508 452.66 226.828 451.676C228.148 450.668 229.96 450.164 232.264 450.164C233.152 450.164 234.016 450.26 234.856 450.452C235.696 450.62 236.5 450.86 237.268 451.172V449.228C237.268 447.932 236.884 446.96 236.116 446.312C235.348 445.664 234.244 445.34 232.804 445.34C231.964 445.34 231.088 445.472 230.176 445.736C229.264 445.976 228.244 446.36 227.116 446.888L225.784 444.188C227.152 443.54 228.448 443.072 229.672 442.784C230.896 442.472 232.108 442.316 233.308 442.316C235.684 442.316 237.52 442.892 238.816 444.044C240.136 445.172 240.796 446.78 240.796 448.868V461H237.268V459.416C236.452 460.064 235.576 460.544 234.64 460.856C233.704 461.168 232.684 461.324 231.58 461.324ZM228.304 455.672C228.304 456.56 228.676 457.28 229.42 457.832C230.188 458.384 231.184 458.66 232.408 458.66C233.368 458.66 234.256 458.516 235.072 458.228C235.888 457.94 236.62 457.508 237.268 456.932V453.764C236.572 453.38 235.84 453.104 235.072 452.936C234.304 452.744 233.464 452.648 232.552 452.648C231.256 452.648 230.224 452.924 229.456 453.476C228.688 454.028 228.304 454.76 228.304 455.672ZM244.944 461V442.676H248.544V444.512C249.264 443.792 250.08 443.252 250.992 442.892C251.928 442.508 252.948 442.316 254.052 442.316C256.14 442.316 257.856 442.988 259.2 444.332C260.544 445.652 261.216 447.368 261.216 449.48V461H257.616V450.092C257.616 448.652 257.196 447.524 256.356 446.708C255.54 445.868 254.448 445.448 253.08 445.448C252.12 445.448 251.244 445.652 250.452 446.06C249.684 446.468 249.048 447.056 248.544 447.824V461H244.944ZM270.806 461L281.246 435.8H285.674L295.97 461H291.866L288.95 453.62H277.682L274.73 461H270.806ZM278.942 450.488H287.726L283.334 439.436L278.942 450.488ZM300.961 442.676V453.548C300.961 454.988 301.369 456.128 302.185 456.968C303.025 457.808 304.129 458.228 305.497 458.228C306.457 458.228 307.321 458.024 308.089 457.616C308.857 457.184 309.493 456.584 309.997 455.816V442.676H313.597V461H309.997V459.164C309.277 459.884 308.449 460.436 307.513 460.82C306.601 461.18 305.593 461.36 304.489 461.36C302.401 461.36 300.685 460.688 299.341 459.344C298.021 458 297.361 456.272 297.361 454.16V442.676H300.961ZM320.234 456.464V445.7H316.346V442.676H320.234V437.996L323.798 437.132V442.676H329.198V445.7H323.798V455.636C323.798 456.572 324.002 457.232 324.41 457.616C324.842 458 325.538 458.192 326.498 458.192C327.002 458.192 327.446 458.168 327.83 458.12C328.238 458.048 328.67 457.928 329.126 457.76V460.784C328.646 460.952 328.082 461.084 327.434 461.18C326.81 461.276 326.234 461.324 325.706 461.324C323.93 461.324 322.574 460.916 321.638 460.1C320.702 459.26 320.234 458.048 320.234 456.464ZM331.851 461V435.8L335.451 435.008V444.512C336.171 443.792 336.987 443.252 337.899 442.892C338.835 442.508 339.855 442.316 340.959 442.316C343.047 442.316 344.763 442.988 346.107 444.332C347.451 445.652 348.123 447.368 348.123 449.48V461H344.523V450.092C344.523 448.652 344.103 447.524 343.263 446.708C342.447 445.868 341.355 445.448 339.987 445.448C339.027 445.448 338.151 445.652 337.359 446.06C336.591 446.468 335.955 447.056 335.451 447.824V461H331.851ZM351.448 451.82C351.448 450.5 351.688 449.264 352.168 448.112C352.672 446.936 353.356 445.928 354.22 445.088C355.084 444.224 356.092 443.552 357.244 443.072C358.42 442.568 359.668 442.316 360.988 442.316C362.308 442.316 363.544 442.568 364.696 443.072C365.872 443.552 366.88 444.224 367.72 445.088C368.584 445.928 369.256 446.936 369.736 448.112C370.24 449.264 370.492 450.5 370.492 451.82C370.492 453.164 370.24 454.424 369.736 455.6C369.256 456.752 368.584 457.76 367.72 458.624C366.88 459.464 365.872 460.136 364.696 460.64C363.544 461.12 362.308 461.36 360.988 461.36C359.668 461.36 358.42 461.12 357.244 460.64C356.092 460.136 355.084 459.464 354.22 458.624C353.356 457.76 352.672 456.752 352.168 455.6C351.688 454.424 351.448 453.164 351.448 451.82ZM360.988 458.192C362.644 458.192 364.048 457.58 365.2 456.356C366.376 455.108 366.964 453.596 366.964 451.82C366.964 450.044 366.376 448.544 365.2 447.32C364.048 446.096 362.644 445.484 360.988 445.484C359.332 445.484 357.916 446.096 356.74 447.32C355.564 448.544 354.976 450.044 354.976 451.82C354.976 453.596 355.552 455.108 356.704 456.356C357.88 457.58 359.308 458.192 360.988 458.192ZM373.897 461V442.676H377.497V445.016C378.049 444.128 378.757 443.456 379.621 443C380.485 442.52 381.457 442.28 382.537 442.28C382.921 442.28 383.257 442.304 383.545 442.352C383.833 442.4 384.109 442.472 384.373 442.568V445.808C384.037 445.688 383.689 445.592 383.329 445.52C382.969 445.448 382.609 445.412 382.249 445.412C381.193 445.412 380.245 445.7 379.405 446.276C378.589 446.828 377.953 447.656 377.497 448.76V461H373.897ZM193.978 509V483.8H205.642C208.09 483.8 210.07 484.508 211.582 485.924C213.118 487.316 213.886 489.128 213.886 491.36C213.886 493.568 213.118 495.368 211.582 496.76C210.046 498.152 208.066 498.848 205.642 498.848H197.758V509H193.978ZM205.246 487.112H197.758V495.644H205.246C206.71 495.644 207.874 495.26 208.738 494.492C209.626 493.7 210.07 492.656 210.07 491.36C210.07 490.064 209.626 489.032 208.738 488.264C207.874 487.496 206.71 487.112 205.246 487.112ZM217.347 509V490.676H220.947V493.016C221.499 492.128 222.207 491.456 223.071 491C223.935 490.52 224.907 490.28 225.987 490.28C226.371 490.28 226.707 490.304 226.995 490.352C227.283 490.4 227.559 490.472 227.823 490.568V493.808C227.487 493.688 227.139 493.592 226.779 493.52C226.419 493.448 226.059 493.412 225.699 493.412C224.643 493.412 223.695 493.7 222.855 494.276C222.039 494.828 221.403 495.656 220.947 496.76V509H217.347ZM228.753 499.82C228.753 498.5 228.993 497.264 229.473 496.112C229.977 494.936 230.661 493.928 231.525 493.088C232.389 492.224 233.397 491.552 234.549 491.072C235.725 490.568 236.973 490.316 238.293 490.316C239.613 490.316 240.849 490.568 242.001 491.072C243.177 491.552 244.185 492.224 245.025 493.088C245.889 493.928 246.561 494.936 247.041 496.112C247.545 497.264 247.797 498.5 247.797 499.82C247.797 501.164 247.545 502.424 247.041 503.6C246.561 504.752 245.889 505.76 245.025 506.624C244.185 507.464 243.177 508.136 242.001 508.64C240.849 509.12 239.613 509.36 238.293 509.36C236.973 509.36 235.725 509.12 234.549 508.64C233.397 508.136 232.389 507.464 231.525 506.624C230.661 505.76 229.977 504.752 229.473 503.6C228.993 502.424 228.753 501.164 228.753 499.82ZM238.293 506.192C239.949 506.192 241.353 505.58 242.505 504.356C243.681 503.108 244.269 501.596 244.269 499.82C244.269 498.044 243.681 496.544 242.505 495.32C241.353 494.096 239.949 493.484 238.293 493.484C236.637 493.484 235.221 494.096 234.045 495.32C232.869 496.544 232.281 498.044 232.281 499.82C232.281 501.596 232.857 503.108 234.009 504.356C235.185 505.58 236.613 506.192 238.293 506.192ZM248.565 490.676H252.813V487.904C252.813 486.008 253.341 484.556 254.397 483.548C255.477 482.516 257.025 482 259.041 482C259.521 482 259.977 482.036 260.409 482.108C260.841 482.156 261.249 482.228 261.633 482.324V485.456C261.201 485.336 260.817 485.252 260.481 485.204C260.145 485.156 259.773 485.132 259.365 485.132C258.381 485.132 257.637 485.372 257.133 485.852C256.653 486.308 256.413 487.016 256.413 487.976V490.676H261.633V493.7H256.413V509H252.813V493.7H248.565V490.676ZM266.186 487.724C265.586 487.724 265.07 487.508 264.638 487.076C264.206 486.62 263.99 486.092 263.99 485.492C263.99 484.892 264.206 484.376 264.638 483.944C265.07 483.488 265.586 483.26 266.186 483.26C266.786 483.26 267.302 483.488 267.734 483.944C268.19 484.376 268.418 484.892 268.418 485.492C268.418 486.092 268.19 486.62 267.734 487.076C267.302 487.508 266.786 487.724 266.186 487.724ZM267.986 490.676V509H264.386V490.676H267.986ZM275.826 483.008V509H272.226V483.8L275.826 483.008ZM295.941 506.912C294.885 507.728 293.781 508.34 292.629 508.748C291.477 509.132 290.217 509.324 288.849 509.324C287.505 509.324 286.245 509.084 285.069 508.604C283.893 508.1 282.873 507.428 282.009 506.588C281.145 505.748 280.461 504.752 279.957 503.6C279.477 502.424 279.237 501.164 279.237 499.82C279.237 498.5 279.477 497.264 279.957 496.112C280.437 494.96 281.085 493.964 281.901 493.124C282.717 492.284 283.689 491.624 284.817 491.144C285.945 490.64 287.145 490.388 288.417 490.388C289.665 490.388 290.829 490.64 291.909 491.144C293.013 491.624 293.949 492.296 294.717 493.16C295.509 494 296.133 495.008 296.589 496.184C297.045 497.36 297.273 498.62 297.273 499.964V501.008H282.801C283.041 502.52 283.737 503.78 284.889 504.788C286.041 505.772 287.409 506.264 288.993 506.264C289.881 506.264 290.733 506.12 291.549 505.832C292.365 505.544 293.061 505.148 293.637 504.644L295.941 506.912ZM288.345 493.412C286.977 493.412 285.777 493.868 284.745 494.78C283.737 495.692 283.101 496.868 282.837 498.308H293.709C293.445 496.916 292.809 495.752 291.801 494.816C290.817 493.88 289.665 493.412 288.345 493.412Z" fill="black"/>
    <g clip-path="url(#clip0)">
    <path d="M272.478 139.342H270.829V94.1541C270.829 90.7195 270.152 87.3184 268.835 84.1453C267.519 80.9721 265.59 78.0889 263.159 75.6603C260.727 73.2317 257.84 71.3052 254.663 69.9909C251.485 68.6767 248.08 68.0003 244.641 68.0005H148.783C145.344 68.0004 141.938 68.6769 138.761 69.9912C135.584 71.3056 132.697 73.2321 130.266 75.6607C127.834 78.0893 125.905 80.9726 124.589 84.1457C123.273 87.3189 122.596 90.7199 122.596 94.1545V342.06C122.596 348.997 125.355 355.649 130.266 360.554C135.176 365.458 141.837 368.214 148.782 368.214H244.641C251.586 368.214 258.247 365.458 263.158 360.554C268.069 355.649 270.828 348.997 270.828 342.06V171.508H272.477L272.478 139.342Z" fill="#3F3D56"/>
    <path d="M265.488 92.402V343.811C265.487 349.07 263.395 354.113 259.672 357.833C255.949 361.552 250.9 363.642 245.634 363.644H147.808C142.54 363.645 137.488 361.556 133.762 357.836C130.036 354.117 127.942 349.072 127.941 343.811V92.402C127.942 87.1411 130.036 82.0962 133.762 78.3769C137.487 74.6577 142.539 72.5687 147.807 72.5693H159.674C159.091 74.0005 158.869 75.5526 159.028 77.0894C159.187 78.6262 159.721 80.1005 160.584 81.3828C161.446 82.6652 162.611 83.7162 163.976 84.4435C165.341 85.1709 166.863 85.5523 168.41 85.5543H224.183C225.73 85.5523 227.252 85.1709 228.617 84.4435C229.982 83.7162 231.147 82.6652 232.009 81.3828C232.872 80.1005 233.406 78.6262 233.565 77.0894C233.723 75.5526 233.502 74.0005 232.919 72.5693H245.631C250.896 72.5702 255.946 74.6595 259.67 78.3778C263.393 82.0962 265.486 87.1392 265.488 92.3982V92.402Z" fill="white"/>
    <path d="M197.764 192.981C186.626 192.985 175.942 188.57 168.063 180.708C160.184 172.845 155.755 162.179 155.75 151.055V151.018C155.75 150.93 155.75 150.838 155.755 150.75C155.882 127.77 174.73 109.058 197.764 109.058C203.281 109.057 208.745 110.142 213.842 112.251C218.939 114.359 223.571 117.45 227.473 121.346C231.374 125.242 234.469 129.868 236.581 134.959C238.693 140.05 239.78 145.506 239.78 151.016C239.78 156.527 238.694 161.983 236.583 167.074C234.472 172.165 231.377 176.791 227.476 180.688C223.575 184.585 218.944 187.676 213.846 189.785C208.749 191.894 203.286 192.98 197.768 192.98H197.764V192.981ZM197.764 109.94C186.905 109.965 176.495 114.268 168.795 121.914C161.094 129.561 156.726 139.933 156.64 150.778C156.635 150.872 156.635 150.947 156.635 151.018C156.634 159.144 159.046 167.087 163.565 173.844C168.084 180.601 174.508 185.867 182.025 188.978C189.541 192.088 197.812 192.902 205.791 191.318C213.771 189.733 221.101 185.821 226.854 180.075C232.608 174.33 236.526 167.01 238.113 159.04C239.701 151.071 238.887 142.81 235.774 135.303C232.661 127.796 227.388 121.379 220.624 116.865C213.859 112.35 205.906 109.941 197.77 109.94H197.764Z" fill="#E6E6E6"/>
    <path d="M179.389 150.662C184.37 150.662 188.407 146.629 188.407 141.655C188.407 136.681 184.37 132.648 179.389 132.648C174.409 132.648 170.371 136.681 170.371 141.655C170.371 146.629 174.409 150.662 179.389 150.662Z" fill="#3F3D56"/>
    <path d="M207.668 169.408H163.428C163.373 169.409 163.317 169.405 163.263 169.395L184.186 133.201C184.314 132.975 184.499 132.788 184.723 132.657C184.947 132.527 185.202 132.458 185.461 132.458C185.721 132.458 185.975 132.527 186.199 132.657C186.423 132.788 186.609 132.975 186.736 133.201L200.778 157.489L201.451 158.651L207.668 169.408Z" fill="#30B395"/>
    <path d="M232.298 169.409H194.036L201.45 158.653L201.983 157.878L211.645 143.86C211.816 143.646 212.03 143.47 212.273 143.343C212.517 143.217 212.784 143.143 213.058 143.127C213.332 143.11 213.606 143.152 213.863 143.248C214.12 143.345 214.354 143.494 214.549 143.687C214.599 143.742 214.645 143.8 214.688 143.86L232.298 169.409Z" fill="#30B395"/>
    <path d="M241.209 237.099H154.279C153.852 237.098 153.443 236.929 153.141 236.627C152.839 236.326 152.669 235.917 152.669 235.491V213.955C152.67 213.528 152.839 213.12 153.141 212.818C153.443 212.517 153.852 212.347 154.279 212.347H241.209C241.636 212.347 242.045 212.517 242.347 212.818C242.648 213.12 242.818 213.528 242.819 213.955V235.491C242.818 235.918 242.648 236.326 242.347 236.628C242.045 236.929 241.636 237.098 241.209 237.099V237.099ZM154.279 212.99C154.023 212.99 153.777 213.092 153.596 213.273C153.415 213.454 153.313 213.699 153.313 213.955V235.491C153.313 235.747 153.415 235.992 153.596 236.173C153.777 236.354 154.023 236.456 154.279 236.456H241.209C241.465 236.456 241.711 236.354 241.892 236.173C242.073 235.992 242.175 235.747 242.175 235.491V213.955C242.175 213.699 242.073 213.454 241.892 213.273C241.711 213.092 241.465 212.99 241.209 212.99H154.279Z" fill="#E6E6E6"/>
    <path d="M165.547 231.476C169.281 231.476 172.308 228.452 172.308 224.723C172.308 220.993 169.281 217.97 165.547 217.97C161.813 217.97 158.786 220.993 158.786 224.723C158.786 228.452 161.813 231.476 165.547 231.476Z" fill="#30B395"/>
    <path d="M181.163 220.221C180.864 220.221 180.577 220.339 180.366 220.55C180.154 220.761 180.036 221.048 180.036 221.346C180.036 221.645 180.154 221.931 180.366 222.142C180.577 222.353 180.864 222.472 181.163 222.472H234.286C234.436 222.478 234.586 222.453 234.726 222.4C234.867 222.348 234.995 222.267 235.104 222.164C235.213 222.061 235.301 221.937 235.361 221.8C235.422 221.663 235.454 221.515 235.456 221.365C235.459 221.215 235.431 221.066 235.375 220.927C235.319 220.788 235.236 220.662 235.131 220.555C235.025 220.449 234.899 220.364 234.761 220.307C234.622 220.249 234.473 220.22 234.323 220.221H181.163V220.221Z" fill="#E6E6E6"/>
    <path d="M181.163 226.973C180.864 226.973 180.577 227.092 180.366 227.303C180.154 227.514 180.036 227.8 180.036 228.099C180.036 228.397 180.154 228.684 180.366 228.895C180.577 229.106 180.864 229.224 181.163 229.224H234.286C234.436 229.23 234.586 229.206 234.726 229.153C234.867 229.1 234.995 229.02 235.104 228.917C235.213 228.814 235.301 228.69 235.361 228.553C235.422 228.416 235.454 228.268 235.456 228.118C235.459 227.968 235.431 227.819 235.375 227.68C235.319 227.541 235.236 227.414 235.131 227.308C235.025 227.201 234.899 227.117 234.761 227.059C234.622 227.002 234.473 226.973 234.323 226.974H181.163V226.973Z" fill="#E6E6E6"/>
    <path d="M241.209 273.113H154.279C153.852 273.113 153.443 272.943 153.141 272.642C152.839 272.341 152.669 271.932 152.669 271.506V249.97C152.67 249.543 152.839 249.135 153.141 248.833C153.443 248.532 153.852 248.362 154.279 248.362H241.209C241.636 248.362 242.045 248.532 242.347 248.833C242.648 249.135 242.818 249.543 242.819 249.97V271.506C242.818 271.932 242.648 272.341 242.346 272.642C242.045 272.943 241.636 273.113 241.209 273.113ZM154.279 249.005C154.023 249.005 153.777 249.107 153.596 249.288C153.415 249.468 153.313 249.714 153.313 249.97V271.506C153.313 271.762 153.415 272.007 153.596 272.188C153.777 272.369 154.023 272.471 154.279 272.471H241.209C241.465 272.471 241.711 272.369 241.892 272.188C242.073 272.007 242.175 271.762 242.175 271.506V249.97C242.175 249.714 242.073 249.468 241.892 249.288C241.711 249.107 241.465 249.005 241.209 249.005H154.279Z" fill="#E6E6E6"/>
    <path d="M165.547 267.49C169.281 267.49 172.308 264.466 172.308 260.737C172.308 257.008 169.281 253.984 165.547 253.984C161.813 253.984 158.786 257.008 158.786 260.737C158.786 264.466 161.813 267.49 165.547 267.49Z" fill="#30B395"/>
    <path d="M181.163 256.234C180.864 256.234 180.577 256.353 180.366 256.564C180.154 256.775 180.036 257.061 180.036 257.36C180.036 257.658 180.154 257.945 180.366 258.156C180.577 258.367 180.864 258.485 181.163 258.485H234.286C234.581 258.484 234.863 258.367 235.073 258.16C235.282 257.953 235.402 257.672 235.407 257.378C235.412 257.084 235.301 256.799 235.098 256.586C234.896 256.372 234.617 256.246 234.323 256.235H181.163V256.234Z" fill="#E6E6E6"/>
    <path d="M181.163 262.988C180.864 262.988 180.577 263.107 180.366 263.318C180.154 263.529 180.036 263.815 180.036 264.114C180.036 264.412 180.154 264.699 180.366 264.91C180.577 265.121 180.864 265.239 181.163 265.239H234.286C234.581 265.238 234.863 265.121 235.073 264.914C235.282 264.707 235.402 264.426 235.407 264.132C235.412 263.838 235.301 263.553 235.098 263.34C234.896 263.126 234.617 263 234.323 262.989H181.163V262.988Z" fill="#E6E6E6"/>
    <path d="M241.209 309.128H154.279C153.852 309.127 153.443 308.958 153.141 308.656C152.839 308.355 152.669 307.946 152.669 307.52V285.984C152.67 285.558 152.839 285.149 153.141 284.848C153.443 284.546 153.852 284.377 154.279 284.376H241.209C241.636 284.377 242.045 284.546 242.347 284.848C242.648 285.149 242.818 285.558 242.819 285.984V307.521C242.818 307.947 242.648 308.355 242.347 308.657C242.045 308.958 241.636 309.128 241.209 309.128V309.128ZM154.279 285.019C154.023 285.019 153.777 285.121 153.596 285.302C153.415 285.483 153.313 285.728 153.313 285.984V307.521C153.313 307.776 153.415 308.022 153.596 308.203C153.777 308.383 154.023 308.485 154.279 308.485H241.209C241.465 308.485 241.711 308.383 241.892 308.203C242.073 308.022 242.175 307.776 242.175 307.521V285.984C242.175 285.728 242.073 285.483 241.892 285.302C241.711 285.121 241.465 285.019 241.209 285.019H154.279Z" fill="#E6E6E6"/>
    <path d="M165.547 303.505C169.281 303.505 172.308 300.481 172.308 296.752C172.308 293.023 169.281 289.999 165.547 289.999C161.813 289.999 158.786 293.023 158.786 296.752C158.786 300.481 161.813 303.505 165.547 303.505Z" fill="#30B395"/>
    <path d="M181.163 292.25C180.864 292.25 180.577 292.369 180.366 292.58C180.154 292.791 180.036 293.077 180.036 293.376C180.036 293.674 180.154 293.96 180.366 294.171C180.577 294.382 180.864 294.501 181.163 294.501H234.286C234.436 294.507 234.586 294.483 234.726 294.43C234.867 294.377 234.995 294.297 235.104 294.194C235.213 294.091 235.301 293.967 235.361 293.83C235.422 293.692 235.454 293.544 235.456 293.395C235.459 293.245 235.431 293.096 235.375 292.957C235.319 292.818 235.236 292.691 235.131 292.584C235.025 292.478 234.899 292.393 234.761 292.336C234.622 292.279 234.473 292.25 234.323 292.25H181.163V292.25Z" fill="#E6E6E6"/>
    <path d="M181.163 299.003C180.864 299.003 180.577 299.121 180.366 299.332C180.154 299.543 180.036 299.83 180.036 300.128C180.036 300.427 180.154 300.713 180.366 300.924C180.577 301.135 180.864 301.254 181.163 301.254H234.286C234.436 301.259 234.586 301.235 234.726 301.182C234.867 301.13 234.995 301.049 235.104 300.946C235.213 300.843 235.301 300.719 235.361 300.582C235.422 300.445 235.454 300.297 235.456 300.147C235.459 299.997 235.431 299.848 235.375 299.709C235.319 299.57 235.236 299.444 235.131 299.337C235.025 299.231 234.899 299.146 234.761 299.089C234.622 299.031 234.473 299.002 234.323 299.003H181.163V299.003Z" fill="#E6E6E6"/>
    <path d="M311.155 363.352H305.887L303.382 343.062H311.155L311.155 363.352Z" fill="#FEB8B8"/>
    <path d="M312.497 368.451H295.515V368.236C295.515 366.485 296.211 364.806 297.451 363.568C298.69 362.33 300.371 361.635 302.124 361.634H312.498L312.497 368.451Z" fill="#2F2E41"/>
    <path d="M376.584 359.908L371.455 361.113L364.359 341.936L371.926 340.156L376.584 359.908Z" fill="#FEB8B8"/>
    <path d="M379.062 364.563L362.531 368.449L362.482 368.241C362.283 367.397 362.252 366.522 362.391 365.666C362.531 364.81 362.838 363.99 363.294 363.253C363.751 362.515 364.349 361.875 365.054 361.368C365.758 360.861 366.556 360.498 367.401 360.299L377.497 357.925L379.062 364.563Z" fill="#2F2E41"/>
    <path d="M310.078 277.773C310.088 276.717 310.402 251.762 317.251 242.327L317.352 242.188L341.219 245.477L340.685 250.715C341.735 251.734 349.992 260.352 352.377 280.76L377.711 348.712L365.934 349.781L331.07 275.602L312.621 356.233H300.948L310.078 277.773Z" fill="#2F2E41"/>
    <path d="M314.454 243.248L316.787 231.015C316.33 230.428 314.306 227.608 314.757 224.303C315.051 222.146 316.34 220.255 318.588 218.681L324.636 204.588L324.718 204.541C325.125 204.301 334.754 198.74 340.003 203.987C340.134 204.088 353.058 214.336 347.869 228.156L341.463 247.355L314.454 243.248Z" fill="#CCCCCC"/>
    <path d="M306.337 259.798C306.966 259.726 307.572 259.517 308.112 259.187C308.651 258.856 309.111 258.411 309.46 257.883C309.809 257.355 310.038 256.757 310.13 256.132C310.222 255.506 310.176 254.868 309.995 254.262L322.483 245.276L315.008 242.436L304.295 251.405C303.299 251.779 302.474 252.504 301.976 253.443C301.479 254.383 301.343 255.472 301.594 256.505C301.845 257.538 302.466 258.443 303.34 259.05C304.214 259.657 305.28 259.923 306.337 259.798V259.798Z" fill="#FEB8B8"/>
    <path d="M308.633 245.261L327.698 230.259L322.031 210.918C321.764 210.002 321.688 209.041 321.809 208.095C321.93 207.149 322.245 206.237 322.733 205.418C323.186 204.646 323.795 203.976 324.522 203.452C325.248 202.929 326.076 202.562 326.953 202.377C330.217 201.687 333.18 203.512 335.757 207.803L335.777 207.841C336.204 208.883 346.136 233.404 338.552 238.648C331.133 243.778 313.931 251.245 313.758 251.321L313.556 251.408L308.633 245.261Z" fill="#CCCCCC"/>
    <path d="M333.972 198.887C340.35 198.887 345.521 193.722 345.521 187.351C345.521 180.981 340.35 175.816 333.972 175.816C327.593 175.816 322.422 180.981 322.422 187.351C322.422 193.722 327.593 198.887 333.972 198.887Z" fill="#FEB8B8"/>
    <path d="M352.078 183.233C357.721 183.233 362.295 178.664 362.295 173.028C362.295 167.392 357.721 162.824 352.078 162.824C346.435 162.824 341.86 167.392 341.86 173.028C341.86 178.664 346.435 183.233 352.078 183.233Z" fill="#2F2E41"/>
    <path d="M360.89 181.479C359.568 182.433 358.036 183.057 356.422 183.298C354.809 183.54 353.161 183.392 351.617 182.868C350.072 182.343 348.676 181.457 347.545 180.283C346.414 179.109 345.58 177.682 345.114 176.12C345.29 177.52 345.755 178.869 346.479 180.08C347.203 181.292 348.171 182.34 349.321 183.16C350.471 183.979 351.779 184.551 353.162 184.839C354.545 185.128 355.973 185.127 357.355 184.837C358.738 184.547 360.045 183.973 361.194 183.153C362.344 182.333 363.31 181.283 364.033 180.071C364.756 178.858 365.219 177.509 365.393 176.109C365.568 174.709 365.449 173.288 365.046 171.936C365.274 173.752 365.009 175.597 364.278 177.276C363.547 178.955 362.376 180.407 360.89 181.479Z" fill="#2F2E41"/>
    <path d="M320.567 181.489C322.351 178.3 323.034 176.969 325.334 175.026C327.367 173.311 329.869 172.807 331.887 174.432C334.341 173.362 337.08 173.131 339.679 173.776C342.278 174.42 344.591 175.904 346.259 177.996C347.927 180.089 348.856 182.673 348.903 185.347C348.949 188.021 348.11 190.635 346.515 192.784C344.921 194.933 342.661 196.496 340.086 197.23C337.511 197.964 334.765 197.828 332.275 196.843C329.786 195.858 327.691 194.08 326.317 191.784C324.944 189.489 324.368 186.804 324.678 184.148C322.924 183.903 322.321 181.736 320.567 181.489Z" fill="#2F2E41"/>
    <path d="M402.18 369H89.8197C89.3667 369 89 368.802 89 368.559C89 368.315 89.3671 368.117 89.8197 368.117H402.18C402.632 368.117 403 368.315 403 368.559C403 368.802 402.633 369 402.18 369Z" fill="#E6E6E6"/>
    </g>
    <defs>
    <clipPath id="clip0">
    <rect width="314" height="301" fill="white" transform="translate(89 68)"/>
    </clipPath>
    </defs>
    </svg>
    