<svg width="491" height="581" viewBox="0 0 491 581" fill="none" xmlns="http://www.w3.org/2000/svg">
    <rect x="1" y="1" width="489" height="579" stroke="#30B395" stroke-width="2"/>
    <path d="M119.144 439V413.8H122.924V435.652H137.432V439H119.144ZM155.752 436.912C154.696 437.728 153.592 438.34 152.44 438.748C151.288 439.132 150.028 439.324 148.66 439.324C147.316 439.324 146.056 439.084 144.88 438.604C143.704 438.1 142.684 437.428 141.82 436.588C140.956 435.748 140.272 434.752 139.768 433.6C139.288 432.424 139.048 431.164 139.048 429.82C139.048 428.5 139.288 427.264 139.768 426.112C140.248 424.96 140.896 423.964 141.712 423.124C142.528 422.284 143.5 421.624 144.628 421.144C145.756 420.64 146.956 420.388 148.228 420.388C149.476 420.388 150.64 420.64 151.72 421.144C152.824 421.624 153.76 422.296 154.528 423.16C155.32 424 155.944 425.008 156.4 426.184C156.856 427.36 157.084 428.62 157.084 429.964V431.008H142.612C142.852 432.52 143.548 433.78 144.7 434.788C145.852 435.772 147.22 436.264 148.804 436.264C149.692 436.264 150.544 436.12 151.36 435.832C152.176 435.544 152.872 435.148 153.448 434.644L155.752 436.912ZM148.156 423.412C146.788 423.412 145.588 423.868 144.556 424.78C143.548 425.692 142.912 426.868 142.648 428.308H153.52C153.256 426.916 152.62 425.752 151.612 424.816C150.628 423.88 149.476 423.412 148.156 423.412ZM162.186 434.464V423.7H158.298V420.676H162.186V415.996L165.75 415.132V420.676H171.15V423.7H165.75V433.636C165.75 434.572 165.954 435.232 166.362 435.616C166.794 436 167.49 436.192 168.45 436.192C168.954 436.192 169.398 436.168 169.782 436.12C170.19 436.048 170.622 435.928 171.078 435.76V438.784C170.598 438.952 170.034 439.084 169.386 439.18C168.762 439.276 168.186 439.324 167.658 439.324C165.882 439.324 164.526 438.916 163.59 438.1C162.654 437.26 162.186 436.048 162.186 434.464ZM183.701 434.464V423.7H179.813V420.676H183.701V415.996L187.265 415.132V420.676H192.665V423.7H187.265V433.636C187.265 434.572 187.469 435.232 187.877 435.616C188.309 436 189.005 436.192 189.965 436.192C190.469 436.192 190.913 436.168 191.297 436.12C191.705 436.048 192.137 435.928 192.593 435.76V438.784C192.113 438.952 191.549 439.084 190.901 439.18C190.277 439.276 189.701 439.324 189.173 439.324C187.397 439.324 186.041 438.916 185.105 438.1C184.169 437.26 183.701 436.048 183.701 434.464ZM195.317 439V413.8L198.917 413.008V422.512C199.637 421.792 200.453 421.252 201.365 420.892C202.301 420.508 203.321 420.316 204.425 420.316C206.513 420.316 208.229 420.988 209.573 422.332C210.917 423.652 211.589 425.368 211.589 427.48V439H207.989V428.092C207.989 426.652 207.569 425.524 206.729 424.708C205.913 423.868 204.821 423.448 203.453 423.448C202.493 423.448 201.617 423.652 200.825 424.06C200.057 424.468 199.421 425.056 198.917 425.824V439H195.317ZM231.619 436.912C230.563 437.728 229.459 438.34 228.307 438.748C227.155 439.132 225.895 439.324 224.527 439.324C223.183 439.324 221.923 439.084 220.747 438.604C219.571 438.1 218.551 437.428 217.687 436.588C216.823 435.748 216.139 434.752 215.635 433.6C215.155 432.424 214.915 431.164 214.915 429.82C214.915 428.5 215.155 427.264 215.635 426.112C216.115 424.96 216.763 423.964 217.579 423.124C218.395 422.284 219.367 421.624 220.495 421.144C221.623 420.64 222.823 420.388 224.095 420.388C225.343 420.388 226.507 420.64 227.587 421.144C228.691 421.624 229.627 422.296 230.395 423.16C231.187 424 231.811 425.008 232.267 426.184C232.723 427.36 232.951 428.62 232.951 429.964V431.008H218.479C218.719 432.52 219.415 433.78 220.567 434.788C221.719 435.772 223.087 436.264 224.671 436.264C225.559 436.264 226.411 436.12 227.227 435.832C228.043 435.544 228.739 435.148 229.315 434.644L231.619 436.912ZM224.023 423.412C222.655 423.412 221.455 423.868 220.423 424.78C219.415 425.692 218.779 426.868 218.515 428.308H229.387C229.123 426.916 228.487 425.752 227.479 424.816C226.495 423.88 225.343 423.412 224.023 423.412ZM242.175 436.624L244.119 434.248C245.079 434.992 246.051 435.568 247.035 435.976C248.043 436.36 249.063 436.552 250.095 436.552C251.391 436.552 252.447 436.3 253.263 435.796C254.079 435.292 254.487 434.632 254.487 433.816C254.487 433.168 254.247 432.652 253.767 432.268C253.287 431.884 252.543 431.62 251.535 431.476L248.223 431.008C246.423 430.744 245.055 430.192 244.119 429.352C243.207 428.488 242.751 427.348 242.751 425.932C242.751 424.276 243.411 422.944 244.731 421.936C246.051 420.904 247.779 420.388 249.915 420.388C251.259 420.388 252.531 420.58 253.731 420.964C254.955 421.348 256.143 421.936 257.295 422.728L255.459 425.104C254.451 424.432 253.467 423.952 252.507 423.664C251.571 423.352 250.623 423.196 249.663 423.196C248.559 423.196 247.671 423.424 246.999 423.88C246.327 424.336 245.991 424.936 245.991 425.68C245.991 426.352 246.219 426.868 246.675 427.228C247.155 427.564 247.935 427.816 249.015 427.984L252.327 428.452C254.127 428.716 255.495 429.28 256.431 430.144C257.391 431.008 257.871 432.148 257.871 433.564C257.871 434.38 257.667 435.148 257.259 435.868C256.875 436.564 256.335 437.164 255.639 437.668C254.967 438.172 254.163 438.58 253.227 438.892C252.291 439.18 251.283 439.324 250.203 439.324C248.619 439.324 247.131 439.096 245.739 438.64C244.371 438.184 243.183 437.512 242.175 436.624ZM259.985 429.82C259.985 428.5 260.225 427.264 260.705 426.112C261.209 424.936 261.893 423.928 262.757 423.088C263.621 422.224 264.629 421.552 265.781 421.072C266.957 420.568 268.205 420.316 269.525 420.316C270.845 420.316 272.081 420.568 273.233 421.072C274.409 421.552 275.417 422.224 276.257 423.088C277.121 423.928 277.793 424.936 278.273 426.112C278.777 427.264 279.029 428.5 279.029 429.82C279.029 431.164 278.777 432.424 278.273 433.6C277.793 434.752 277.121 435.76 276.257 436.624C275.417 437.464 274.409 438.136 273.233 438.64C272.081 439.12 270.845 439.36 269.525 439.36C268.205 439.36 266.957 439.12 265.781 438.64C264.629 438.136 263.621 437.464 262.757 436.624C261.893 435.76 261.209 434.752 260.705 433.6C260.225 432.424 259.985 431.164 259.985 429.82ZM269.525 436.192C271.181 436.192 272.585 435.58 273.737 434.356C274.913 433.108 275.501 431.596 275.501 429.82C275.501 428.044 274.913 426.544 273.737 425.32C272.585 424.096 271.181 423.484 269.525 423.484C267.869 423.484 266.453 424.096 265.277 425.32C264.101 426.544 263.513 428.044 263.513 429.82C263.513 431.596 264.089 433.108 265.241 434.356C266.417 435.58 267.845 436.192 269.525 436.192ZM279.798 420.676H284.046V417.904C284.046 416.008 284.574 414.556 285.63 413.548C286.71 412.516 288.258 412 290.274 412C290.754 412 291.21 412.036 291.642 412.108C292.074 412.156 292.482 412.228 292.866 412.324V415.456C292.434 415.336 292.05 415.252 291.714 415.204C291.378 415.156 291.006 415.132 290.598 415.132C289.614 415.132 288.87 415.372 288.366 415.852C287.886 416.308 287.646 417.016 287.646 417.976V420.676H292.866V423.7H287.646V439H284.046V423.7H279.798V420.676ZM298.346 434.464V423.7H294.458V420.676H298.346V415.996L301.91 415.132V420.676H307.31V423.7H301.91V433.636C301.91 434.572 302.114 435.232 302.522 435.616C302.954 436 303.65 436.192 304.61 436.192C305.114 436.192 305.558 436.168 305.942 436.12C306.35 436.048 306.782 435.928 307.238 435.76V438.784C306.758 438.952 306.194 439.084 305.546 439.18C304.922 439.276 304.346 439.324 303.818 439.324C302.042 439.324 300.686 438.916 299.75 438.1C298.814 437.26 298.346 436.048 298.346 434.464ZM317.225 439H313.733L308.621 420.676H312.113L315.641 434.14L319.853 420.676H322.949L327.125 434.14L330.689 420.676H334.073L328.925 439H325.469L321.365 425.572L317.225 439ZM342.301 439.324C340.309 439.324 338.689 438.808 337.441 437.776C336.193 436.744 335.569 435.4 335.569 433.744C335.569 432.016 336.229 430.66 337.549 429.676C338.869 428.668 340.681 428.164 342.985 428.164C343.873 428.164 344.737 428.26 345.577 428.452C346.417 428.62 347.221 428.86 347.989 429.172V427.228C347.989 425.932 347.605 424.96 346.837 424.312C346.069 423.664 344.965 423.34 343.525 423.34C342.685 423.34 341.809 423.472 340.897 423.736C339.985 423.976 338.965 424.36 337.837 424.888L336.505 422.188C337.873 421.54 339.169 421.072 340.393 420.784C341.617 420.472 342.829 420.316 344.029 420.316C346.405 420.316 348.241 420.892 349.537 422.044C350.857 423.172 351.517 424.78 351.517 426.868V439H347.989V437.416C347.173 438.064 346.297 438.544 345.361 438.856C344.425 439.168 343.405 439.324 342.301 439.324ZM339.025 433.672C339.025 434.56 339.397 435.28 340.141 435.832C340.909 436.384 341.905 436.66 343.129 436.66C344.089 436.66 344.977 436.516 345.793 436.228C346.609 435.94 347.341 435.508 347.989 434.932V431.764C347.293 431.38 346.561 431.104 345.793 430.936C345.025 430.744 344.185 430.648 343.273 430.648C341.977 430.648 340.945 430.924 340.177 431.476C339.409 432.028 339.025 432.76 339.025 433.672ZM355.665 439V420.676H359.265V423.016C359.817 422.128 360.525 421.456 361.389 421C362.253 420.52 363.225 420.28 364.305 420.28C364.689 420.28 365.025 420.304 365.313 420.352C365.601 420.4 365.877 420.472 366.141 420.568V423.808C365.805 423.688 365.457 423.592 365.097 423.52C364.737 423.448 364.377 423.412 364.017 423.412C362.961 423.412 362.013 423.7 361.173 424.276C360.357 424.828 359.721 425.656 359.265 426.76V439H355.665ZM383.775 436.912C382.719 437.728 381.615 438.34 380.463 438.748C379.311 439.132 378.051 439.324 376.683 439.324C375.339 439.324 374.079 439.084 372.903 438.604C371.727 438.1 370.707 437.428 369.843 436.588C368.979 435.748 368.295 434.752 367.791 433.6C367.311 432.424 367.071 431.164 367.071 429.82C367.071 428.5 367.311 427.264 367.791 426.112C368.271 424.96 368.919 423.964 369.735 423.124C370.551 422.284 371.523 421.624 372.651 421.144C373.779 420.64 374.979 420.388 376.251 420.388C377.499 420.388 378.663 420.64 379.743 421.144C380.847 421.624 381.783 422.296 382.551 423.16C383.343 424 383.967 425.008 384.423 426.184C384.879 427.36 385.107 428.62 385.107 429.964V431.008H370.635C370.875 432.52 371.571 433.78 372.723 434.788C373.875 435.772 375.243 436.264 376.827 436.264C377.715 436.264 378.567 436.12 379.383 435.832C380.199 435.544 380.895 435.148 381.471 434.644L383.775 436.912ZM376.179 423.412C374.811 423.412 373.611 423.868 372.579 424.78C371.571 425.692 370.935 426.868 370.671 428.308H381.543C381.279 426.916 380.643 425.752 379.635 424.816C378.651 423.88 377.499 423.412 376.179 423.412ZM165.191 482.464V471.7H161.303V468.676H165.191V463.996L168.755 463.132V468.676H174.155V471.7H168.755V481.636C168.755 482.572 168.959 483.232 169.367 483.616C169.799 484 170.495 484.192 171.455 484.192C171.959 484.192 172.403 484.168 172.787 484.12C173.195 484.048 173.627 483.928 174.083 483.76V486.784C173.603 486.952 173.039 487.084 172.391 487.18C171.767 487.276 171.191 487.324 170.663 487.324C168.887 487.324 167.531 486.916 166.595 486.1C165.659 485.26 165.191 484.048 165.191 482.464ZM182.604 487.324C180.612 487.324 178.992 486.808 177.744 485.776C176.496 484.744 175.872 483.4 175.872 481.744C175.872 480.016 176.532 478.66 177.852 477.676C179.172 476.668 180.984 476.164 183.288 476.164C184.176 476.164 185.04 476.26 185.88 476.452C186.72 476.62 187.524 476.86 188.292 477.172V475.228C188.292 473.932 187.908 472.96 187.14 472.312C186.372 471.664 185.268 471.34 183.828 471.34C182.988 471.34 182.112 471.472 181.2 471.736C180.288 471.976 179.268 472.36 178.14 472.888L176.808 470.188C178.176 469.54 179.472 469.072 180.696 468.784C181.92 468.472 183.132 468.316 184.332 468.316C186.708 468.316 188.544 468.892 189.84 470.044C191.16 471.172 191.82 472.78 191.82 474.868V487H188.292V485.416C187.476 486.064 186.6 486.544 185.664 486.856C184.728 487.168 183.708 487.324 182.604 487.324ZM179.328 481.672C179.328 482.56 179.7 483.28 180.444 483.832C181.212 484.384 182.208 484.66 183.432 484.66C184.392 484.66 185.28 484.516 186.096 484.228C186.912 483.94 187.644 483.508 188.292 482.932V479.764C187.596 479.38 186.864 479.104 186.096 478.936C185.328 478.744 184.488 478.648 183.576 478.648C182.28 478.648 181.248 478.924 180.48 479.476C179.712 480.028 179.328 480.76 179.328 481.672ZM195.968 487V461.8L199.568 461.008V476.74L208.46 468.676H212.672L203.24 477.28L213.176 487H208.424L199.568 478.36V487H195.968ZM229.387 484.912C228.331 485.728 227.227 486.34 226.075 486.748C224.923 487.132 223.663 487.324 222.295 487.324C220.951 487.324 219.691 487.084 218.515 486.604C217.339 486.1 216.319 485.428 215.455 484.588C214.591 483.748 213.907 482.752 213.403 481.6C212.923 480.424 212.683 479.164 212.683 477.82C212.683 476.5 212.923 475.264 213.403 474.112C213.883 472.96 214.531 471.964 215.347 471.124C216.163 470.284 217.135 469.624 218.263 469.144C219.391 468.64 220.591 468.388 221.863 468.388C223.111 468.388 224.275 468.64 225.355 469.144C226.459 469.624 227.395 470.296 228.163 471.16C228.955 472 229.579 473.008 230.035 474.184C230.491 475.36 230.719 476.62 230.719 477.964V479.008H216.247C216.487 480.52 217.183 481.78 218.335 482.788C219.487 483.772 220.855 484.264 222.439 484.264C223.327 484.264 224.179 484.12 224.995 483.832C225.811 483.544 226.507 483.148 227.083 482.644L229.387 484.912ZM221.791 471.412C220.423 471.412 219.223 471.868 218.191 472.78C217.183 473.692 216.547 474.868 216.283 476.308H227.155C226.891 474.916 226.255 473.752 225.247 472.816C224.263 471.88 223.111 471.412 221.791 471.412ZM232.595 484.624L234.539 482.248C235.499 482.992 236.471 483.568 237.455 483.976C238.463 484.36 239.483 484.552 240.515 484.552C241.811 484.552 242.867 484.3 243.683 483.796C244.499 483.292 244.907 482.632 244.907 481.816C244.907 481.168 244.667 480.652 244.187 480.268C243.707 479.884 242.963 479.62 241.955 479.476L238.643 479.008C236.843 478.744 235.475 478.192 234.539 477.352C233.627 476.488 233.171 475.348 233.171 473.932C233.171 472.276 233.831 470.944 235.151 469.936C236.471 468.904 238.199 468.388 240.335 468.388C241.679 468.388 242.951 468.58 244.151 468.964C245.375 469.348 246.563 469.936 247.715 470.728L245.879 473.104C244.871 472.432 243.887 471.952 242.927 471.664C241.991 471.352 241.043 471.196 240.083 471.196C238.979 471.196 238.091 471.424 237.419 471.88C236.747 472.336 236.411 472.936 236.411 473.68C236.411 474.352 236.639 474.868 237.095 475.228C237.575 475.564 238.355 475.816 239.435 475.984L242.747 476.452C244.547 476.716 245.915 477.28 246.851 478.144C247.811 479.008 248.291 480.148 248.291 481.564C248.291 482.38 248.087 483.148 247.679 483.868C247.295 484.564 246.755 485.164 246.059 485.668C245.387 486.172 244.583 486.58 243.647 486.892C242.711 487.18 241.703 487.324 240.623 487.324C239.039 487.324 237.551 487.096 236.159 486.64C234.791 486.184 233.603 485.512 232.595 484.624ZM267.329 484.156C268.241 484.156 269.105 483.976 269.921 483.616C270.737 483.232 271.517 482.668 272.261 481.924L274.421 484.264C273.461 485.224 272.357 485.98 271.109 486.532C269.861 487.06 268.553 487.324 267.185 487.324C265.865 487.324 264.629 487.084 263.477 486.604C262.325 486.1 261.329 485.428 260.489 484.588C259.649 483.748 258.977 482.752 258.473 481.6C257.993 480.424 257.753 479.164 257.753 477.82C257.753 476.5 257.993 475.264 258.473 474.112C258.977 472.936 259.649 471.928 260.489 471.088C261.329 470.224 262.325 469.552 263.477 469.072C264.629 468.568 265.865 468.316 267.185 468.316C268.553 468.316 269.885 468.592 271.181 469.144C272.477 469.672 273.605 470.416 274.565 471.376L272.297 473.824C271.601 473.08 270.821 472.516 269.957 472.132C269.093 471.724 268.193 471.52 267.257 471.52C265.601 471.52 264.197 472.132 263.045 473.356C261.893 474.58 261.317 476.068 261.317 477.82C261.317 479.62 261.893 481.132 263.045 482.356C264.221 483.556 265.649 484.156 267.329 484.156ZM283.15 487.324C281.158 487.324 279.538 486.808 278.29 485.776C277.042 484.744 276.418 483.4 276.418 481.744C276.418 480.016 277.078 478.66 278.398 477.676C279.718 476.668 281.53 476.164 283.834 476.164C284.722 476.164 285.586 476.26 286.426 476.452C287.266 476.62 288.07 476.86 288.838 477.172V475.228C288.838 473.932 288.454 472.96 287.686 472.312C286.918 471.664 285.814 471.34 284.374 471.34C283.534 471.34 282.658 471.472 281.746 471.736C280.834 471.976 279.814 472.36 278.686 472.888L277.354 470.188C278.722 469.54 280.018 469.072 281.242 468.784C282.466 468.472 283.678 468.316 284.878 468.316C287.254 468.316 289.09 468.892 290.386 470.044C291.706 471.172 292.366 472.78 292.366 474.868V487H288.838V485.416C288.022 486.064 287.146 486.544 286.21 486.856C285.274 487.168 284.254 487.324 283.15 487.324ZM279.874 481.672C279.874 482.56 280.246 483.28 280.99 483.832C281.758 484.384 282.754 484.66 283.978 484.66C284.938 484.66 285.826 484.516 286.642 484.228C287.458 483.94 288.19 483.508 288.838 482.932V479.764C288.142 479.38 287.41 479.104 286.642 478.936C285.874 478.744 285.034 478.648 284.122 478.648C282.826 478.648 281.794 478.924 281.026 479.476C280.258 480.028 279.874 480.76 279.874 481.672ZM296.515 487V468.676H300.115V471.016C300.667 470.128 301.375 469.456 302.239 469C303.103 468.52 304.075 468.28 305.155 468.28C305.539 468.28 305.875 468.304 306.163 468.352C306.451 468.4 306.727 468.472 306.991 468.568V471.808C306.655 471.688 306.307 471.592 305.947 471.52C305.587 471.448 305.227 471.412 304.867 471.412C303.811 471.412 302.863 471.7 302.023 472.276C301.207 472.828 300.571 473.656 300.115 474.76V487H296.515ZM324.625 484.912C323.569 485.728 322.465 486.34 321.313 486.748C320.161 487.132 318.901 487.324 317.533 487.324C316.189 487.324 314.929 487.084 313.753 486.604C312.577 486.1 311.557 485.428 310.693 484.588C309.829 483.748 309.145 482.752 308.641 481.6C308.161 480.424 307.921 479.164 307.921 477.82C307.921 476.5 308.161 475.264 308.641 474.112C309.121 472.96 309.769 471.964 310.585 471.124C311.401 470.284 312.373 469.624 313.501 469.144C314.629 468.64 315.829 468.388 317.101 468.388C318.349 468.388 319.513 468.64 320.593 469.144C321.697 469.624 322.633 470.296 323.401 471.16C324.193 472 324.817 473.008 325.273 474.184C325.729 475.36 325.957 476.62 325.957 477.964V479.008H311.485C311.725 480.52 312.421 481.78 313.573 482.788C314.725 483.772 316.093 484.264 317.677 484.264C318.565 484.264 319.417 484.12 320.233 483.832C321.049 483.544 321.745 483.148 322.321 482.644L324.625 484.912ZM317.029 471.412C315.661 471.412 314.461 471.868 313.429 472.78C312.421 473.692 311.785 474.868 311.521 476.308H322.393C322.129 474.916 321.493 473.752 320.485 472.816C319.501 471.88 318.349 471.412 317.029 471.412ZM164.677 525.82C164.677 524.5 164.917 523.264 165.397 522.112C165.901 520.936 166.585 519.928 167.449 519.088C168.313 518.224 169.321 517.552 170.473 517.072C171.649 516.568 172.897 516.316 174.217 516.316C175.537 516.316 176.773 516.568 177.925 517.072C179.101 517.552 180.109 518.224 180.949 519.088C181.813 519.928 182.485 520.936 182.965 522.112C183.469 523.264 183.721 524.5 183.721 525.82C183.721 527.164 183.469 528.424 182.965 529.6C182.485 530.752 181.813 531.76 180.949 532.624C180.109 533.464 179.101 534.136 177.925 534.64C176.773 535.12 175.537 535.36 174.217 535.36C172.897 535.36 171.649 535.12 170.473 534.64C169.321 534.136 168.313 533.464 167.449 532.624C166.585 531.76 165.901 530.752 165.397 529.6C164.917 528.424 164.677 527.164 164.677 525.82ZM174.217 532.192C175.873 532.192 177.277 531.58 178.429 530.356C179.605 529.108 180.193 527.596 180.193 525.82C180.193 524.044 179.605 522.544 178.429 521.32C177.277 520.096 175.873 519.484 174.217 519.484C172.561 519.484 171.145 520.096 169.969 521.32C168.793 522.544 168.205 524.044 168.205 525.82C168.205 527.596 168.781 529.108 169.933 530.356C171.109 531.58 172.537 532.192 174.217 532.192ZM184.489 516.676H188.737V513.904C188.737 512.008 189.265 510.556 190.321 509.548C191.401 508.516 192.949 508 194.965 508C195.445 508 195.901 508.036 196.333 508.108C196.765 508.156 197.173 508.228 197.557 508.324V511.456C197.125 511.336 196.741 511.252 196.405 511.204C196.069 511.156 195.697 511.132 195.289 511.132C194.305 511.132 193.561 511.372 193.057 511.852C192.577 512.308 192.337 513.016 192.337 513.976V516.676H197.557V519.7H192.337V535H188.737V519.7H184.489V516.676ZM210.209 530.464V519.7H206.321V516.676H210.209V511.996L213.773 511.132V516.676H219.173V519.7H213.773V529.636C213.773 530.572 213.977 531.232 214.385 531.616C214.817 532 215.513 532.192 216.473 532.192C216.977 532.192 217.421 532.168 217.805 532.12C218.213 532.048 218.645 531.928 219.101 531.76V534.784C218.621 534.952 218.057 535.084 217.409 535.18C216.785 535.276 216.209 535.324 215.681 535.324C213.905 535.324 212.549 534.916 211.613 534.1C210.677 533.26 210.209 532.048 210.209 530.464ZM221.825 535V509.8L225.425 509.008V518.512C226.145 517.792 226.961 517.252 227.873 516.892C228.809 516.508 229.829 516.316 230.933 516.316C233.021 516.316 234.737 516.988 236.081 518.332C237.425 519.652 238.097 521.368 238.097 523.48V535H234.497V524.092C234.497 522.652 234.077 521.524 233.237 520.708C232.421 519.868 231.329 519.448 229.961 519.448C229.001 519.448 228.125 519.652 227.333 520.06C226.565 520.468 225.929 521.056 225.425 521.824V535H221.825ZM258.127 532.912C257.071 533.728 255.967 534.34 254.815 534.748C253.663 535.132 252.403 535.324 251.035 535.324C249.691 535.324 248.431 535.084 247.255 534.604C246.079 534.1 245.059 533.428 244.195 532.588C243.331 531.748 242.647 530.752 242.143 529.6C241.663 528.424 241.423 527.164 241.423 525.82C241.423 524.5 241.663 523.264 242.143 522.112C242.623 520.96 243.271 519.964 244.087 519.124C244.903 518.284 245.875 517.624 247.003 517.144C248.131 516.64 249.331 516.388 250.603 516.388C251.851 516.388 253.015 516.64 254.095 517.144C255.199 517.624 256.135 518.296 256.903 519.16C257.695 520 258.319 521.008 258.775 522.184C259.231 523.36 259.459 524.62 259.459 525.964V527.008H244.987C245.227 528.52 245.923 529.78 247.075 530.788C248.227 531.772 249.595 532.264 251.179 532.264C252.067 532.264 252.919 532.12 253.735 531.832C254.551 531.544 255.247 531.148 255.823 530.644L258.127 532.912ZM250.531 519.412C249.163 519.412 247.963 519.868 246.931 520.78C245.923 521.692 245.287 522.868 245.023 524.308H255.895C255.631 522.916 254.995 521.752 253.987 520.816C253.003 519.88 251.851 519.412 250.531 519.412ZM270.411 535V516.676H274.011V519.016C274.563 518.128 275.271 517.456 276.135 517C276.999 516.52 277.971 516.28 279.051 516.28C279.435 516.28 279.771 516.304 280.059 516.352C280.347 516.4 280.623 516.472 280.887 516.568V519.808C280.551 519.688 280.203 519.592 279.843 519.52C279.483 519.448 279.123 519.412 278.763 519.412C277.707 519.412 276.759 519.7 275.919 520.276C275.103 520.828 274.467 521.656 274.011 522.76V535H270.411ZM298.521 532.912C297.465 533.728 296.361 534.34 295.209 534.748C294.057 535.132 292.797 535.324 291.429 535.324C290.085 535.324 288.825 535.084 287.649 534.604C286.473 534.1 285.453 533.428 284.589 532.588C283.725 531.748 283.041 530.752 282.537 529.6C282.057 528.424 281.817 527.164 281.817 525.82C281.817 524.5 282.057 523.264 282.537 522.112C283.017 520.96 283.665 519.964 284.481 519.124C285.297 518.284 286.269 517.624 287.397 517.144C288.525 516.64 289.725 516.388 290.997 516.388C292.245 516.388 293.409 516.64 294.489 517.144C295.593 517.624 296.529 518.296 297.297 519.16C298.089 520 298.713 521.008 299.169 522.184C299.625 523.36 299.853 524.62 299.853 525.964V527.008H285.381C285.621 528.52 286.317 529.78 287.469 530.788C288.621 531.772 289.989 532.264 291.573 532.264C292.461 532.264 293.313 532.12 294.129 531.832C294.945 531.544 295.641 531.148 296.217 530.644L298.521 532.912ZM290.925 519.412C289.557 519.412 288.357 519.868 287.325 520.78C286.317 521.692 285.681 522.868 285.417 524.308H296.289C296.025 522.916 295.389 521.752 294.381 520.816C293.397 519.88 292.245 519.412 290.925 519.412ZM301.73 532.624L303.674 530.248C304.634 530.992 305.606 531.568 306.59 531.976C307.598 532.36 308.618 532.552 309.65 532.552C310.946 532.552 312.002 532.3 312.818 531.796C313.634 531.292 314.042 530.632 314.042 529.816C314.042 529.168 313.802 528.652 313.322 528.268C312.842 527.884 312.098 527.62 311.09 527.476L307.778 527.008C305.978 526.744 304.61 526.192 303.674 525.352C302.762 524.488 302.306 523.348 302.306 521.932C302.306 520.276 302.966 518.944 304.286 517.936C305.606 516.904 307.334 516.388 309.47 516.388C310.814 516.388 312.086 516.58 313.286 516.964C314.51 517.348 315.698 517.936 316.85 518.728L315.014 521.104C314.006 520.432 313.022 519.952 312.062 519.664C311.126 519.352 310.178 519.196 309.218 519.196C308.114 519.196 307.226 519.424 306.554 519.88C305.882 520.336 305.546 520.936 305.546 521.68C305.546 522.352 305.774 522.868 306.23 523.228C306.71 523.564 307.49 523.816 308.57 523.984L311.882 524.452C313.682 524.716 315.05 525.28 315.986 526.144C316.946 527.008 317.426 528.148 317.426 529.564C317.426 530.38 317.222 531.148 316.814 531.868C316.43 532.564 315.89 533.164 315.194 533.668C314.522 534.172 313.718 534.58 312.782 534.892C311.846 535.18 310.838 535.324 309.758 535.324C308.174 535.324 306.686 535.096 305.294 534.64C303.926 534.184 302.738 533.512 301.73 532.624ZM322.217 530.464V519.7H318.329V516.676H322.217V511.996L325.781 511.132V516.676H331.181V519.7H325.781V529.636C325.781 530.572 325.985 531.232 326.393 531.616C326.825 532 327.521 532.192 328.481 532.192C328.985 532.192 329.429 532.168 329.813 532.12C330.221 532.048 330.653 531.928 331.109 531.76V534.784C330.629 534.952 330.065 535.084 329.417 535.18C328.793 535.276 328.217 535.324 327.689 535.324C325.913 535.324 324.557 534.916 323.621 534.1C322.685 533.26 322.217 532.048 322.217 530.464ZM334.334 527.8L333.866 508.9H337.574L337.142 527.8H334.334ZM335.738 535.288C335.114 535.288 334.574 535.06 334.118 534.604C333.662 534.148 333.434 533.608 333.434 532.984C333.434 532.36 333.662 531.832 334.118 531.4C334.574 530.944 335.114 530.716 335.738 530.716C336.362 530.716 336.89 530.944 337.322 531.4C337.778 531.832 338.006 532.36 338.006 532.984C338.006 533.608 337.778 534.148 337.322 534.604C336.89 535.06 336.362 535.288 335.738 535.288Z" fill="black"/>
    <path d="M130.016 175.952C135.754 175.952 140.406 171.298 140.406 165.556C140.406 159.815 135.754 155.16 130.016 155.16C124.277 155.16 119.625 159.815 119.625 165.556C119.625 171.298 124.277 175.952 130.016 175.952Z" fill="#FFB8B8"/>
    <path d="M94.9072 290.136L97.5381 294.608L116.03 286.583L112.147 279.983L94.9072 290.136Z" fill="#FFB8B8"/>
    <path d="M95.6952 288.136L100.876 296.943L100.877 296.943C101.31 297.68 101.594 298.496 101.713 299.343C101.832 300.19 101.783 301.052 101.568 301.88C101.354 302.708 100.979 303.485 100.464 304.168C99.9493 304.851 99.3053 305.426 98.5686 305.859L98.3863 305.967L89.9033 291.547L95.6952 288.136Z" fill="#2F2E41"/>
    <path d="M125.39 306.247L130.577 306.246L133.044 286.231L125.389 286.231L125.39 306.247Z" fill="#FFB8B8"/>
    <path d="M124.068 304.553L134.282 304.552H134.282C135.137 304.552 135.983 304.721 136.773 305.048C137.563 305.375 138.28 305.855 138.885 306.46C139.489 307.064 139.969 307.782 140.296 308.573C140.623 309.363 140.791 310.21 140.791 311.065V311.276L124.068 311.277L124.068 304.553Z" fill="#2F2E41"/>
    <path d="M104.539 294.12C104.241 294.12 103.946 294.05 103.68 293.915C103.414 293.781 103.183 293.585 103.006 293.344L98.0041 286.547C97.8515 286.34 97.7425 286.104 97.6837 285.853C97.6249 285.602 97.6175 285.342 97.6619 285.089C97.7064 284.835 97.8018 284.593 97.9424 284.377C98.0829 284.162 98.2658 283.977 98.4798 283.834L120.738 268.959L107.308 233.627L136.028 235.998L136.995 266.361C137.086 269.126 136.423 271.864 135.079 274.281C133.734 276.699 131.758 278.705 129.361 280.085L105.49 293.864C105.201 294.032 104.873 294.12 104.539 294.12Z" fill="#2F2E41"/>
    <path d="M125.547 302.183C125.054 302.182 124.581 301.99 124.227 301.648C123.873 301.305 123.665 300.839 123.648 300.346L122.595 270.767L135.628 270.08L134.591 299.872C134.575 300.344 134.385 300.793 134.056 301.132C133.728 301.471 133.285 301.676 132.814 301.706L125.676 302.179C125.633 302.182 125.59 302.183 125.547 302.183Z" fill="#2F2E41"/>
    <path d="M139.351 241.872C136.035 241.872 124.453 238.14 120.432 236.81C119.831 237.291 116.526 239.764 112.669 239.312C110.289 239.033 108.194 237.685 106.441 235.305C102.572 230.051 107.351 207.517 112.042 189.538C112.982 185.904 115.294 182.777 118.492 180.813C121.689 178.849 125.523 178.202 129.187 179.007C131.843 179.594 134.283 180.91 136.233 182.808C138.182 184.705 139.564 187.109 140.224 189.749C141.107 193.346 140.347 197.577 139.792 200.667C139.531 202.12 139.325 203.267 139.396 203.831C139.668 206.01 141.181 240.187 140.208 241.646C140.104 241.802 139.805 241.872 139.351 241.872Z" fill="#30B395"/>
    <path d="M127.22 241.932C127.753 241.535 128.193 241.026 128.508 240.441C128.823 239.856 129.006 239.208 129.044 238.545C129.082 237.881 128.974 237.217 128.728 236.6C128.481 235.982 128.103 235.426 127.619 234.971L127.824 193.557L118.075 195.181L120.939 235.379C120.228 236.244 119.86 237.339 119.902 238.457C119.945 239.576 120.396 240.64 121.171 241.447C121.945 242.255 122.988 242.751 124.103 242.84C125.218 242.929 126.328 242.606 127.22 241.932Z" fill="#FFB8B8"/>
    <path d="M129.475 220.153H118.974C118.473 220.152 117.992 219.953 117.636 219.6C117.28 219.247 117.077 218.767 117.071 218.266L116.813 189.783C116.804 188.798 116.99 187.821 117.361 186.909C117.732 185.996 118.28 185.167 118.973 184.467C119.666 183.768 120.491 183.214 121.4 182.835C122.309 182.457 123.284 182.263 124.268 182.264C125.253 182.266 126.227 182.462 127.135 182.842C128.043 183.223 128.867 183.78 129.558 184.48C130.25 185.181 130.796 186.012 131.164 186.926C131.533 187.839 131.717 188.816 131.706 189.801L131.379 218.27C131.371 218.771 131.167 219.249 130.811 219.601C130.455 219.953 129.976 220.151 129.475 220.153Z" fill="#30B395"/>
    <path d="M127.37 175.909C122.613 175.917 118.125 172.155 117.3 167.467C117.005 165.626 117.138 163.741 117.689 161.959C118.288 159.931 119.313 158.054 120.698 156.456C122.082 154.858 123.793 153.575 125.715 152.695C127.637 151.814 129.725 151.356 131.838 151.351C133.952 151.346 136.042 151.795 137.968 152.667C139.241 153.243 140.494 154.071 141.077 155.341C141.66 156.611 141.295 158.386 140.02 158.958C139.187 159.332 138.142 159.148 137.403 159.684C136.341 160.454 136.614 162.093 137.088 163.316C137.562 164.54 138.099 166.02 137.304 167.063C136.564 168.036 135.084 168.006 133.918 167.64C132.752 167.274 131.601 166.661 130.386 166.785C128.613 166.967 127.339 168.731 127.104 170.499C126.868 172.266 127.423 174.033 127.971 175.729L127.37 175.909Z" fill="#2F2E41"/>
    <path d="M175.901 311.675H66.7565C66.6443 311.675 66.5367 311.631 66.4574 311.551C66.3781 311.472 66.3335 311.364 66.3335 311.252C66.3335 311.14 66.3781 311.032 66.4574 310.953C66.5367 310.873 66.6443 310.829 66.7565 310.829H175.901C176.014 310.829 176.121 310.873 176.201 310.953C176.28 311.032 176.324 311.14 176.324 311.252C176.324 311.364 176.28 311.472 176.201 311.551C176.121 311.631 176.014 311.675 175.901 311.675Z" fill="#CCCCCC"/>
    <path d="M442.02 268.933H170.918C169.068 268.93 167.293 268.194 165.985 266.885C164.676 265.575 163.94 263.8 163.938 261.949V94.6904C163.939 93.3339 164.479 92.0333 165.437 91.0741C166.396 90.1149 167.696 89.5753 169.052 89.5737H443.798C445.177 89.5753 446.499 90.1242 447.475 91.1C448.45 92.0758 448.998 93.3989 449 94.7789V261.949C448.998 263.8 448.262 265.575 446.953 266.885C445.645 268.194 443.87 268.93 442.02 268.933Z" fill="#F2F2F2"/>
    <path d="M433.254 260.115H180.595C176.891 260.115 173.878 257.292 173.878 253.822V108.171C173.878 105.598 176.111 103.504 178.855 103.504H434.912C437.702 103.504 439.971 105.632 439.971 108.248V253.822C439.971 257.292 436.958 260.115 433.254 260.115Z" fill="white"/>
    <path d="M448.903 95.5607H163.84V92.0051C163.843 90.1473 164.582 88.3664 165.895 87.0532C167.208 85.7399 168.989 85.0015 170.845 85H441.897C443.754 85.0015 445.534 85.7399 446.848 87.0532C448.161 88.3664 448.9 90.1473 448.903 92.0051V95.5607Z" fill="#3F3D56"/>
    <path d="M176.572 92.1039C177.573 92.1039 178.384 91.2922 178.384 90.2908C178.384 89.2895 177.573 88.4778 176.572 88.4778C175.571 88.4778 174.76 89.2895 174.76 90.2908C174.76 91.2922 175.571 92.1039 176.572 92.1039Z" fill="white"/>
    <path d="M183.45 92.1039C184.451 92.1039 185.262 91.2922 185.262 90.2908C185.262 89.2895 184.451 88.4778 183.45 88.4778C182.449 88.4778 181.638 89.2895 181.638 90.2908C181.638 91.2922 182.449 92.1039 183.45 92.1039Z" fill="white"/>
    <path d="M190.328 92.1039C191.329 92.1039 192.14 91.2922 192.14 90.2908C192.14 89.2895 191.329 88.4778 190.328 88.4778C189.327 88.4778 188.516 89.2895 188.516 90.2908C188.516 91.2922 189.327 92.1039 190.328 92.1039Z" fill="white"/>
    <path d="M300.931 135.35H251.516C250.779 135.35 250.073 135.057 249.552 134.536C249.031 134.015 248.738 133.308 248.738 132.571C248.738 131.834 249.031 131.127 249.552 130.606C250.073 130.085 250.779 129.792 251.516 129.792H300.931C301.667 129.792 302.374 130.085 302.895 130.606C303.416 131.127 303.709 131.834 303.709 132.571C303.709 133.308 303.416 134.015 302.895 134.536C302.374 135.057 301.667 135.35 300.931 135.35Z" fill="#CCCCCC"/>
    <path d="M362.333 135.35H312.918C312.182 135.35 311.475 135.057 310.954 134.536C310.433 134.015 310.141 133.308 310.141 132.571C310.141 131.834 310.433 131.127 310.954 130.606C311.475 130.085 312.182 129.792 312.918 129.792H362.333C363.07 129.792 363.776 130.085 364.297 130.606C364.818 131.127 365.111 131.834 365.111 132.571C365.111 133.308 364.818 134.015 364.297 134.536C363.776 135.057 363.07 135.35 362.333 135.35Z" fill="#CCCCCC"/>
    <path d="M362.333 145.882H276.369C275.632 145.882 274.925 145.589 274.404 145.068C273.883 144.547 273.591 143.84 273.591 143.103C273.591 142.366 273.883 141.659 274.404 141.138C274.925 140.617 275.632 140.324 276.369 140.324H362.333C363.069 140.324 363.776 140.617 364.297 141.138C364.818 141.659 365.11 142.366 365.11 143.103C365.11 143.84 364.818 144.547 364.297 145.068C363.776 145.589 363.069 145.882 362.333 145.882Z" fill="#CCCCCC"/>
    <path d="M300.93 124.672H251.516C250.779 124.671 250.074 124.378 249.554 123.857C249.033 123.335 248.741 122.629 248.741 121.893C248.741 121.156 249.033 120.45 249.554 119.929C250.074 119.407 250.779 119.114 251.516 119.113H300.93C301.295 119.113 301.657 119.184 301.994 119.324C302.332 119.463 302.638 119.668 302.897 119.926C303.155 120.184 303.36 120.491 303.5 120.828C303.639 121.166 303.711 121.527 303.711 121.893C303.711 122.258 303.639 122.62 303.5 122.957C303.36 123.294 303.155 123.601 302.897 123.859C302.638 124.117 302.332 124.322 301.994 124.461C301.657 124.601 301.295 124.672 300.93 124.672Z" fill="#CCCCCC"/>
    <path d="M328.123 124.818H314.088C313.352 124.818 312.645 124.525 312.124 124.004C311.603 123.483 311.311 122.776 311.311 122.039C311.311 121.302 311.603 120.595 312.124 120.074C312.645 119.553 313.352 119.26 314.088 119.26H328.123C328.86 119.26 329.567 119.553 330.087 120.074C330.608 120.595 330.901 121.302 330.901 122.039C330.901 122.776 330.608 123.483 330.087 124.004C329.567 124.525 328.86 124.818 328.123 124.818Z" fill="#CCCCCC"/>
    <path d="M265.551 145.882H251.516C250.779 145.881 250.074 145.588 249.554 145.067C249.033 144.546 248.741 143.84 248.741 143.103C248.741 142.366 249.033 141.66 249.554 141.139C250.074 140.618 250.779 140.325 251.516 140.324H265.551C265.916 140.323 266.277 140.395 266.615 140.534C266.952 140.674 267.259 140.878 267.517 141.137C267.775 141.395 267.98 141.701 268.12 142.039C268.26 142.376 268.332 142.738 268.332 143.103C268.332 143.468 268.26 143.83 268.12 144.167C267.98 144.505 267.775 144.811 267.517 145.069C267.259 145.328 266.952 145.532 266.615 145.672C266.277 145.811 265.916 145.883 265.551 145.882Z" fill="#CCCCCC"/>
    <path d="M300.931 233.973H251.516C250.779 233.973 250.073 233.68 249.552 233.159C249.031 232.638 248.738 231.931 248.738 231.194C248.738 230.456 249.031 229.75 249.552 229.228C250.073 228.707 250.779 228.414 251.516 228.414H300.931C301.296 228.414 301.657 228.486 301.994 228.626C302.331 228.766 302.637 228.97 302.895 229.228C303.153 229.486 303.357 229.793 303.497 230.13C303.637 230.467 303.709 230.829 303.709 231.194C303.709 231.559 303.637 231.92 303.497 232.257C303.357 232.594 303.153 232.901 302.895 233.159C302.637 233.417 302.331 233.622 301.994 233.761C301.657 233.901 301.296 233.973 300.931 233.973Z" fill="#CCCCCC"/>
    <path d="M362.333 233.973H312.918C312.182 233.973 311.475 233.68 310.954 233.159C310.433 232.638 310.141 231.931 310.141 231.194C310.141 230.456 310.433 229.75 310.954 229.228C311.475 228.707 312.182 228.414 312.918 228.414H362.333C362.698 228.414 363.059 228.486 363.396 228.626C363.733 228.766 364.039 228.97 364.297 229.228C364.555 229.486 364.76 229.793 364.899 230.13C365.039 230.467 365.111 230.829 365.111 231.194C365.111 231.559 365.039 231.92 364.899 232.257C364.76 232.594 364.555 232.901 364.297 233.159C364.039 233.417 363.733 233.622 363.396 233.761C363.059 233.901 362.698 233.973 362.333 233.973Z" fill="#CCCCCC"/>
    <path d="M362.333 244.505H276.369C275.632 244.505 274.925 244.212 274.404 243.691C273.883 243.17 273.591 242.463 273.591 241.726C273.591 240.989 273.883 240.282 274.404 239.761C274.925 239.239 275.632 238.947 276.369 238.947H362.333C362.698 238.946 363.059 239.018 363.397 239.157C363.734 239.297 364.041 239.501 364.299 239.759C364.557 240.017 364.762 240.324 364.902 240.661C365.042 240.999 365.114 241.361 365.114 241.726C365.114 242.091 365.042 242.453 364.902 242.79C364.762 243.128 364.557 243.434 364.299 243.692C364.041 243.95 363.734 244.155 363.397 244.294C363.059 244.434 362.698 244.505 362.333 244.505Z" fill="#CCCCCC"/>
    <path d="M300.931 223.295H251.516C250.779 223.295 250.073 223.002 249.552 222.481C249.031 221.959 248.738 221.252 248.738 220.515C248.738 219.778 249.031 219.071 249.552 218.55C250.073 218.029 250.779 217.736 251.516 217.736H300.931C301.667 217.736 302.374 218.029 302.895 218.55C303.416 219.071 303.709 219.778 303.709 220.515C303.709 221.252 303.416 221.959 302.895 222.481C302.374 223.002 301.667 223.295 300.931 223.295Z" fill="#CCCCCC"/>
    <path d="M328.123 223.441H314.088C313.352 223.441 312.645 223.148 312.124 222.627C311.603 222.106 311.311 221.399 311.311 220.662C311.311 219.925 311.603 219.218 312.124 218.697C312.645 218.175 313.352 217.883 314.088 217.883H328.123C328.86 217.883 329.567 218.175 330.087 218.697C330.608 219.218 330.901 219.925 330.901 220.662C330.901 221.399 330.608 222.106 330.087 222.627C329.567 223.148 328.86 223.441 328.123 223.441Z" fill="#CCCCCC"/>
    <path d="M265.551 244.505H251.516C250.779 244.505 250.073 244.212 249.552 243.691C249.031 243.17 248.738 242.463 248.738 241.726C248.738 240.989 249.031 240.282 249.552 239.761C250.073 239.239 250.779 238.947 251.516 238.947H265.551C265.916 238.946 266.278 239.018 266.615 239.157C266.952 239.297 267.259 239.501 267.517 239.759C267.776 240.017 267.981 240.324 268.12 240.661C268.26 240.999 268.332 241.361 268.332 241.726C268.332 242.091 268.26 242.453 268.12 242.79C267.981 243.128 267.776 243.434 267.517 243.692C267.259 243.95 266.952 244.155 266.615 244.294C266.278 244.434 265.916 244.505 265.551 244.505Z" fill="#CCCCCC"/>
    <path d="M288.025 204.135C286.976 204.138 285.969 203.725 285.222 202.988L266.647 184.635C266.283 184.275 265.993 183.846 265.795 183.373C265.598 182.9 265.496 182.392 265.496 181.879C265.496 181.366 265.598 180.859 265.795 180.385C265.993 179.912 266.283 179.483 266.647 179.123L285.147 160.844C285.918 160.086 286.956 159.663 288.037 159.667C289.118 159.67 290.153 160.1 290.919 160.862C291.686 161.631 292.116 162.673 292.116 163.759C292.116 164.845 291.686 165.887 290.919 166.655L277.172 180.41C276.744 180.84 276.503 181.422 276.503 182.029C276.503 182.635 276.744 183.217 277.172 183.647L290.845 197.327C291.403 197.885 291.783 198.596 291.938 199.37C292.092 200.144 292.013 200.946 291.711 201.675C291.409 202.404 290.897 203.027 290.241 203.465C289.585 203.903 288.813 204.136 288.025 204.135V204.135Z" fill="#30B395"/>
    <path d="M317.623 204.135C316.834 204.136 316.063 203.903 315.407 203.465C314.75 203.027 314.239 202.404 313.937 201.675C313.635 200.946 313.556 200.144 313.71 199.37C313.864 198.596 314.245 197.885 314.803 197.327L328.476 183.647C328.904 183.217 329.144 182.635 329.144 182.029C329.144 181.422 328.904 180.84 328.476 180.41L314.728 166.655C314.348 166.275 314.047 165.823 313.841 165.326C313.635 164.829 313.529 164.297 313.529 163.759C313.529 163.221 313.635 162.688 313.841 162.191C314.047 161.694 314.348 161.243 314.729 160.862C315.494 160.1 316.53 159.67 317.611 159.667C318.691 159.663 319.73 160.086 320.5 160.844L339 179.123C339.365 179.483 339.655 179.912 339.852 180.385C340.05 180.859 340.152 181.366 340.152 181.879C340.152 182.392 340.05 182.9 339.852 183.373C339.655 183.846 339.365 184.275 339 184.635L320.425 202.988C319.679 203.725 318.672 204.138 317.623 204.135Z" fill="#30B395"/>
    </svg>
    