<svg width="491" height="581" viewBox="0 0 491 581" fill="none" xmlns="http://www.w3.org/2000/svg">
    <rect x="1" y="1" width="489" height="579" stroke="#30B395" stroke-width="2"/>
    <path d="M121.069 456.904C122.509 456.904 123.889 456.616 125.209 456.04C126.529 455.44 127.645 454.6 128.557 453.52L131.041 456.04C129.817 457.384 128.305 458.452 126.505 459.244C124.729 460.012 122.881 460.396 120.961 460.396C119.113 460.396 117.373 460.06 115.741 459.388C114.133 458.716 112.741 457.804 111.565 456.652C110.389 455.476 109.453 454.096 108.757 452.512C108.085 450.904 107.749 449.2 107.749 447.4C107.749 445.576 108.085 443.872 108.757 442.288C109.453 440.704 110.389 439.336 111.565 438.184C112.741 437.008 114.133 436.084 115.741 435.412C117.373 434.74 119.113 434.404 120.961 434.404C122.929 434.404 124.813 434.8 126.613 435.592C128.437 436.36 129.937 437.416 131.113 438.76L128.593 441.352C127.633 440.248 126.481 439.396 125.137 438.796C123.793 438.196 122.401 437.896 120.961 437.896C119.641 437.896 118.405 438.136 117.253 438.616C116.101 439.096 115.105 439.768 114.265 440.632C113.449 441.472 112.801 442.48 112.321 443.656C111.841 444.808 111.601 446.056 111.601 447.4C111.601 448.744 111.841 450.004 112.321 451.18C112.801 452.332 113.461 453.328 114.301 454.168C115.141 455.008 116.137 455.68 117.289 456.184C118.465 456.664 119.725 456.904 121.069 456.904ZM137.908 434.008V460H134.308V434.8L137.908 434.008ZM147.943 460.324C145.951 460.324 144.331 459.808 143.083 458.776C141.835 457.744 141.211 456.4 141.211 454.744C141.211 453.016 141.871 451.66 143.191 450.676C144.511 449.668 146.323 449.164 148.627 449.164C149.515 449.164 150.379 449.26 151.219 449.452C152.059 449.62 152.863 449.86 153.631 450.172V448.228C153.631 446.932 153.247 445.96 152.479 445.312C151.711 444.664 150.607 444.34 149.167 444.34C148.327 444.34 147.451 444.472 146.539 444.736C145.627 444.976 144.607 445.36 143.479 445.888L142.147 443.188C143.515 442.54 144.811 442.072 146.035 441.784C147.259 441.472 148.471 441.316 149.671 441.316C152.047 441.316 153.883 441.892 155.179 443.044C156.499 444.172 157.159 445.78 157.159 447.868V460H153.631V458.416C152.815 459.064 151.939 459.544 151.003 459.856C150.067 460.168 149.047 460.324 147.943 460.324ZM144.667 454.672C144.667 455.56 145.039 456.28 145.783 456.832C146.551 457.384 147.547 457.66 148.771 457.66C149.731 457.66 150.619 457.516 151.435 457.228C152.251 456.94 152.983 456.508 153.631 455.932V452.764C152.935 452.38 152.203 452.104 151.435 451.936C150.667 451.744 149.827 451.648 148.915 451.648C147.619 451.648 146.587 451.924 145.819 452.476C145.051 453.028 144.667 453.76 144.667 454.672ZM163.108 438.724C162.508 438.724 161.992 438.508 161.56 438.076C161.128 437.62 160.912 437.092 160.912 436.492C160.912 435.892 161.128 435.376 161.56 434.944C161.992 434.488 162.508 434.26 163.108 434.26C163.708 434.26 164.224 434.488 164.656 434.944C165.112 435.376 165.34 435.892 165.34 436.492C165.34 437.092 165.112 437.62 164.656 438.076C164.224 438.508 163.708 438.724 163.108 438.724ZM164.908 441.676V460H161.308V441.676H164.908ZM169.147 460V441.676H172.747V443.404C173.419 442.732 174.187 442.216 175.051 441.856C175.915 441.496 176.863 441.316 177.895 441.316C179.119 441.316 180.223 441.592 181.207 442.144C182.191 442.672 182.971 443.416 183.547 444.376C184.291 443.368 185.179 442.612 186.211 442.108C187.267 441.58 188.443 441.316 189.739 441.316C191.755 441.316 193.399 441.988 194.671 443.332C195.967 444.652 196.615 446.368 196.615 448.48V460H193.015V449.092C193.015 447.652 192.631 446.524 191.863 445.708C191.119 444.868 190.099 444.448 188.803 444.448C187.915 444.448 187.111 444.652 186.391 445.06C185.671 445.468 185.047 446.08 184.519 446.896C184.567 447.136 184.603 447.4 184.627 447.688C184.651 447.952 184.663 448.216 184.663 448.48V460H181.099V449.092C181.099 447.652 180.715 446.524 179.947 445.708C179.203 444.868 178.183 444.448 176.887 444.448C176.023 444.448 175.243 444.64 174.547 445.024C173.851 445.384 173.251 445.936 172.747 446.68V460H169.147ZM212.848 461.728L213.568 460.072L206.26 441.676H210.22L215.584 455.68L221.488 441.676H225.376L216.52 462.196C215.68 464.14 214.72 465.532 213.64 466.372C212.56 467.236 211.18 467.668 209.5 467.668C209.116 467.668 208.756 467.644 208.42 467.596C208.108 467.572 207.832 467.524 207.592 467.452V464.284C207.832 464.332 208.072 464.368 208.312 464.392C208.576 464.416 208.876 464.428 209.212 464.428C210.028 464.428 210.736 464.2 211.336 463.744C211.96 463.312 212.464 462.64 212.848 461.728ZM226.081 450.82C226.081 449.5 226.321 448.264 226.801 447.112C227.305 445.936 227.989 444.928 228.853 444.088C229.717 443.224 230.725 442.552 231.877 442.072C233.053 441.568 234.301 441.316 235.621 441.316C236.941 441.316 238.177 441.568 239.329 442.072C240.505 442.552 241.513 443.224 242.353 444.088C243.217 444.928 243.889 445.936 244.369 447.112C244.873 448.264 245.125 449.5 245.125 450.82C245.125 452.164 244.873 453.424 244.369 454.6C243.889 455.752 243.217 456.76 242.353 457.624C241.513 458.464 240.505 459.136 239.329 459.64C238.177 460.12 236.941 460.36 235.621 460.36C234.301 460.36 233.053 460.12 231.877 459.64C230.725 459.136 229.717 458.464 228.853 457.624C227.989 456.76 227.305 455.752 226.801 454.6C226.321 453.424 226.081 452.164 226.081 450.82ZM235.621 457.192C237.277 457.192 238.681 456.58 239.833 455.356C241.009 454.108 241.597 452.596 241.597 450.82C241.597 449.044 241.009 447.544 239.833 446.32C238.681 445.096 237.277 444.484 235.621 444.484C233.965 444.484 232.549 445.096 231.373 446.32C230.197 447.544 229.609 449.044 229.609 450.82C229.609 452.596 230.185 454.108 231.337 455.356C232.513 456.58 233.941 457.192 235.621 457.192ZM252.058 441.676V452.548C252.058 453.988 252.466 455.128 253.282 455.968C254.122 456.808 255.226 457.228 256.594 457.228C257.554 457.228 258.418 457.024 259.186 456.616C259.954 456.184 260.59 455.584 261.094 454.816V441.676H264.694V460H261.094V458.164C260.374 458.884 259.546 459.436 258.61 459.82C257.698 460.18 256.69 460.36 255.586 460.36C253.498 460.36 251.782 459.688 250.438 458.344C249.118 457 248.458 455.272 248.458 453.16V441.676H252.058ZM268.956 460V441.676H272.556V444.016C273.108 443.128 273.816 442.456 274.68 442C275.544 441.52 276.516 441.28 277.596 441.28C277.98 441.28 278.316 441.304 278.604 441.352C278.892 441.4 279.168 441.472 279.432 441.568V444.808C279.096 444.688 278.748 444.592 278.388 444.52C278.028 444.448 277.668 444.412 277.308 444.412C276.252 444.412 275.304 444.7 274.464 445.276C273.648 445.828 273.012 446.656 272.556 447.76V460H268.956ZM293.439 434.008V460H289.839V434.8L293.439 434.008ZM299.479 438.724C298.879 438.724 298.363 438.508 297.931 438.076C297.499 437.62 297.283 437.092 297.283 436.492C297.283 435.892 297.499 435.376 297.931 434.944C298.363 434.488 298.879 434.26 299.479 434.26C300.079 434.26 300.595 434.488 301.027 434.944C301.483 435.376 301.711 435.892 301.711 436.492C301.711 437.092 301.483 437.62 301.027 438.076C300.595 438.508 300.079 438.724 299.479 438.724ZM301.279 441.676V460H297.679V441.676H301.279ZM303.791 457.624L305.735 455.248C306.695 455.992 307.667 456.568 308.651 456.976C309.659 457.36 310.679 457.552 311.711 457.552C313.007 457.552 314.063 457.3 314.879 456.796C315.695 456.292 316.103 455.632 316.103 454.816C316.103 454.168 315.863 453.652 315.383 453.268C314.903 452.884 314.159 452.62 313.151 452.476L309.839 452.008C308.039 451.744 306.671 451.192 305.735 450.352C304.823 449.488 304.367 448.348 304.367 446.932C304.367 445.276 305.027 443.944 306.347 442.936C307.667 441.904 309.395 441.388 311.531 441.388C312.875 441.388 314.147 441.58 315.347 441.964C316.571 442.348 317.759 442.936 318.911 443.728L317.075 446.104C316.067 445.432 315.083 444.952 314.123 444.664C313.187 444.352 312.239 444.196 311.279 444.196C310.175 444.196 309.287 444.424 308.615 444.88C307.943 445.336 307.607 445.936 307.607 446.68C307.607 447.352 307.835 447.868 308.291 448.228C308.771 448.564 309.551 448.816 310.631 448.984L313.943 449.452C315.743 449.716 317.111 450.28 318.047 451.144C319.007 452.008 319.487 453.148 319.487 454.564C319.487 455.38 319.283 456.148 318.875 456.868C318.491 457.564 317.951 458.164 317.255 458.668C316.583 459.172 315.779 459.58 314.843 459.892C313.907 460.18 312.899 460.324 311.819 460.324C310.235 460.324 308.747 460.096 307.355 459.64C305.987 459.184 304.799 458.512 303.791 457.624ZM324.277 455.464V444.7H320.389V441.676H324.277V436.996L327.841 436.132V441.676H333.241V444.7H327.841V454.636C327.841 455.572 328.045 456.232 328.453 456.616C328.885 457 329.581 457.192 330.541 457.192C331.045 457.192 331.489 457.168 331.873 457.12C332.281 457.048 332.713 456.928 333.169 456.76V459.784C332.689 459.952 332.125 460.084 331.477 460.18C330.853 460.276 330.277 460.324 329.749 460.324C327.973 460.324 326.617 459.916 325.681 459.1C324.745 458.26 324.277 457.048 324.277 455.464ZM337.694 438.724C337.094 438.724 336.578 438.508 336.146 438.076C335.714 437.62 335.498 437.092 335.498 436.492C335.498 435.892 335.714 435.376 336.146 434.944C336.578 434.488 337.094 434.26 337.694 434.26C338.294 434.26 338.81 434.488 339.242 434.944C339.698 435.376 339.926 435.892 339.926 436.492C339.926 437.092 339.698 437.62 339.242 438.076C338.81 438.508 338.294 438.724 337.694 438.724ZM339.494 441.676V460H335.894V441.676H339.494ZM343.733 460V441.676H347.333V443.512C348.053 442.792 348.869 442.252 349.781 441.892C350.717 441.508 351.737 441.316 352.841 441.316C354.929 441.316 356.645 441.988 357.989 443.332C359.333 444.652 360.005 446.368 360.005 448.48V460H356.405V449.092C356.405 447.652 355.985 446.524 355.145 445.708C354.329 444.868 353.237 444.448 351.869 444.448C350.909 444.448 350.033 444.652 349.241 445.06C348.473 445.468 347.837 446.056 347.333 446.824V460H343.733ZM372.547 460.144C371.275 460.144 370.075 459.904 368.947 459.424C367.819 458.92 366.835 458.248 365.995 457.408C365.179 456.568 364.531 455.572 364.051 454.42C363.571 453.268 363.331 452.044 363.331 450.748C363.331 449.452 363.571 448.228 364.051 447.076C364.531 445.924 365.179 444.928 365.995 444.088C366.835 443.248 367.819 442.588 368.947 442.108C370.099 441.604 371.323 441.352 372.619 441.352C373.603 441.352 374.551 441.508 375.463 441.82C376.399 442.132 377.263 442.588 378.055 443.188V441.676H381.619V460.252C381.619 462.628 380.887 464.452 379.423 465.724C377.983 467.02 375.919 467.668 373.231 467.668C371.911 467.668 370.603 467.512 369.307 467.2C368.035 466.888 366.883 466.444 365.851 465.868L367.255 463.06C368.287 463.588 369.283 463.984 370.243 464.248C371.203 464.512 372.163 464.644 373.123 464.644C374.707 464.644 375.919 464.272 376.759 463.528C377.599 462.784 378.019 461.692 378.019 460.252V458.2C377.251 458.824 376.399 459.304 375.463 459.64C374.527 459.976 373.555 460.144 372.547 460.144ZM366.859 450.748C366.859 452.5 367.447 453.988 368.623 455.212C369.799 456.412 371.251 457.012 372.979 457.012C374.011 457.012 374.959 456.832 375.823 456.472C376.687 456.088 377.419 455.56 378.019 454.888V446.608C377.443 445.936 376.711 445.42 375.823 445.06C374.959 444.676 374.011 444.484 372.979 444.484C371.251 444.484 369.799 445.096 368.623 446.32C367.447 447.52 366.859 448.996 366.859 450.748Z" fill="black"/>
    <g clip-path="url(#clip0)">
    <path d="M366.757 319.054C361.088 335.683 353.797 352.276 344.456 368.069C344.249 368.425 344.039 368.774 343.828 369.128L320.704 361.802C320.837 361.467 320.983 361.092 321.139 360.682C330.466 336.527 386.737 189.357 384.211 160.341C384.483 162.716 393.286 241.319 366.757 319.054Z" fill="#E6E6E6"/>
    <path d="M348.918 369.483C348.604 369.804 348.281 370.124 347.956 370.436L330.609 364.94C330.844 364.656 331.117 364.321 331.431 363.942C336.569 357.659 351.843 338.847 366.757 319.054C382.786 297.783 398.402 275.382 400.59 266.177C400.151 268.27 386.463 331.988 348.918 369.483Z" fill="#E6E6E6"/>
    <path d="M357.589 124.438C357.582 124.438 357.576 124.44 357.57 124.44V87.2014C357.57 83.1698 355.97 79.3032 353.124 76.4524C350.277 73.6016 346.416 72 342.39 72H225.973C221.947 72 218.086 73.6016 215.239 76.4524C212.392 79.3032 210.793 83.1698 210.793 87.2014V106.292C210.472 106.299 210.166 106.431 209.941 106.661C209.716 106.891 209.59 107.2 209.589 107.522V116.978C209.59 117.3 209.716 117.609 209.941 117.839C210.166 118.069 210.472 118.201 210.793 118.208V128.114H210.731C210.57 128.114 210.409 128.146 210.26 128.208C210.111 128.27 209.975 128.361 209.861 128.475C209.746 128.59 209.656 128.726 209.594 128.875C209.532 129.025 209.5 129.185 209.5 129.347V147.632C209.5 147.794 209.532 147.954 209.594 148.104C209.656 148.254 209.746 148.39 209.861 148.504C209.975 148.619 210.111 148.709 210.26 148.771C210.409 148.833 210.57 148.865 210.731 148.865H210.793V156.128H210.774C210.612 156.128 210.452 156.159 210.303 156.221C210.153 156.283 210.017 156.374 209.903 156.489C209.789 156.603 209.698 156.739 209.636 156.889C209.574 157.038 209.543 157.199 209.543 157.361V175.825C209.543 175.986 209.574 176.147 209.636 176.296C209.698 176.446 209.789 176.582 209.903 176.696C210.017 176.811 210.153 176.902 210.303 176.964C210.452 177.026 210.612 177.058 210.774 177.058H210.793V355.534C210.793 359.565 212.392 363.432 215.239 366.283C218.086 369.133 221.947 370.735 225.973 370.735H342.39C346.416 370.735 350.277 369.133 353.124 366.283C355.97 363.432 357.57 359.565 357.57 355.534V160.649C357.576 160.649 357.582 160.651 357.589 160.651C357.877 160.651 358.162 160.594 358.428 160.484C358.694 160.373 358.936 160.212 359.139 160.008C359.343 159.804 359.504 159.562 359.614 159.295C359.725 159.029 359.781 158.744 359.781 158.455V126.634C359.781 126.052 359.55 125.493 359.139 125.081C358.728 124.67 358.17 124.438 357.589 124.438Z" fill="#3F3D56"/>
    <path d="M348.507 91.4565V351.274C348.506 354.37 347.277 357.338 345.091 359.527C342.904 361.715 339.94 362.945 336.849 362.945H231.515C228.424 362.945 225.459 361.715 223.273 359.527C221.087 357.338 219.858 354.37 219.857 351.274V91.4565C219.857 88.3602 221.085 85.3906 223.271 83.2012C225.458 81.0118 228.423 79.7817 231.515 79.7817H247.277V81.8305C247.278 84.3797 248.29 86.8242 250.09 88.6268C251.89 90.4294 254.331 91.4426 256.876 91.4437H310.466C313.009 91.4381 315.445 90.4228 317.24 88.6205C319.036 86.8183 320.044 84.3764 320.044 81.8305V79.803H336.849C339.937 79.803 342.899 81.0301 345.085 83.215C347.27 85.3998 348.501 88.3639 348.507 91.4565Z" fill="white"/>
    <path d="M177.699 217.788C177.076 217.547 176.408 217.445 175.741 217.49C175.075 217.535 174.426 217.726 173.842 218.049C173.257 218.372 172.75 218.82 172.356 219.36C171.963 219.901 171.693 220.521 171.565 221.178L134.029 241.617L140.629 249.056L175.487 226.652C176.603 226.795 177.732 226.522 178.66 225.887C179.589 225.251 180.252 224.297 180.525 223.204C180.797 222.111 180.66 220.957 180.139 219.958C179.619 218.96 178.75 218.188 177.699 217.788H177.699Z" fill="#FFB8B8"/>
    <path d="M168.126 364.849L172.803 361.819L163.36 342.311L156.457 346.782L168.126 364.849Z" fill="#FFB8B8"/>
    <path d="M184.633 360.326L169.933 369.848L166.259 364.16L175.492 358.179C176.942 357.24 178.705 356.916 180.394 357.279C182.082 357.641 183.558 358.661 184.495 360.113L184.633 360.326L184.633 360.326Z" fill="#2F2E41"/>
    <path d="M115.646 365.554H121.216L123.867 344.037H115.646V365.554Z" fill="#FFB8B8"/>
    <path d="M131.959 370.734H114.452V363.96H125.448C126.303 363.96 127.15 364.129 127.939 364.456C128.729 364.784 129.447 365.264 130.052 365.87C130.657 366.475 131.136 367.194 131.463 367.985C131.791 368.776 131.959 369.624 131.959 370.481V370.734Z" fill="#2F2E41"/>
    <path d="M243.448 114.164H231.965C231.683 114.164 231.412 114.052 231.213 113.852C231.013 113.652 230.901 113.381 230.901 113.099C230.901 112.817 231.013 112.546 231.213 112.346C231.412 112.146 231.683 112.034 231.965 112.034H243.448C243.73 112.034 244.001 112.146 244.2 112.346C244.399 112.546 244.511 112.817 244.511 113.099C244.511 113.381 244.399 113.652 244.2 113.852C244.001 114.052 243.73 114.164 243.448 114.164Z" fill="#3F3D56"/>
    <path d="M243.448 117.145H231.965C231.683 117.145 231.412 117.033 231.213 116.833C231.013 116.634 230.901 116.363 230.901 116.08C230.901 115.798 231.013 115.527 231.213 115.328C231.412 115.128 231.683 115.016 231.965 115.016H243.448C243.73 115.016 244.001 115.128 244.2 115.328C244.399 115.527 244.511 115.798 244.511 116.08C244.511 116.363 244.399 116.634 244.2 116.833C244.001 117.033 243.73 117.145 243.448 117.145Z" fill="#3F3D56"/>
    <path d="M243.448 120.127H231.965C231.683 120.127 231.412 120.015 231.213 119.815C231.013 119.615 230.901 119.344 230.901 119.062C230.901 118.779 231.013 118.509 231.213 118.309C231.412 118.109 231.683 117.997 231.965 117.997H243.448C243.73 117.997 244.001 118.109 244.2 118.309C244.399 118.509 244.511 118.779 244.511 119.062C244.511 119.344 244.399 119.615 244.2 119.815C244.001 120.015 243.73 120.127 243.448 120.127Z" fill="#3F3D56"/>
    <path d="M332.463 117.167H332.076L331.928 117.043C332.416 116.46 332.684 115.722 332.685 114.96C332.681 114.334 332.492 113.722 332.142 113.203C331.791 112.684 331.295 112.28 330.715 112.043C330.136 111.807 329.499 111.747 328.886 111.873C328.273 111.998 327.711 112.303 327.271 112.749C326.831 113.194 326.532 113.761 326.413 114.376C326.295 114.991 326.361 115.628 326.603 116.206C326.846 116.784 327.254 117.276 327.776 117.622C328.299 117.967 328.911 118.15 329.537 118.146C330.296 118.141 331.029 117.873 331.613 117.388L331.757 117.512V117.904L334.199 120.353L334.93 119.62L332.463 117.167ZM329.537 117.167C329.102 117.168 328.675 117.041 328.312 116.8C327.949 116.559 327.665 116.215 327.497 115.813C327.328 115.41 327.283 114.967 327.366 114.538C327.45 114.11 327.658 113.716 327.965 113.406C328.272 113.097 328.664 112.885 329.091 112.798C329.518 112.711 329.961 112.753 330.364 112.919C330.767 113.084 331.112 113.366 331.356 113.728C331.599 114.089 331.73 114.516 331.732 114.952L331.732 114.96C331.734 115.248 331.679 115.534 331.57 115.801C331.461 116.068 331.302 116.31 331.099 116.515C330.897 116.72 330.657 116.883 330.392 116.995C330.126 117.107 329.842 117.165 329.554 117.167C329.549 117.167 329.543 117.167 329.537 117.167H329.537Z" fill="#3F3D56"/>
    <path d="M266.843 153.349H246.213C244.972 153.349 243.782 152.856 242.904 151.977C242.027 151.099 241.534 149.907 241.534 148.664C241.534 147.422 242.027 146.23 242.904 145.351C243.782 144.473 244.972 143.979 246.213 143.979H266.843C268.084 143.979 269.274 144.473 270.151 145.351C271.028 146.23 271.521 147.422 271.521 148.664C271.521 149.907 271.028 151.099 270.151 151.977C269.274 152.856 268.084 153.349 266.843 153.349Z" fill="#30B395"/>
    <path d="M330 163.572H244.086C243.409 163.572 242.76 163.303 242.282 162.823C241.803 162.344 241.534 161.694 241.534 161.016C241.534 160.338 241.803 159.688 242.282 159.209C242.76 158.73 243.409 158.461 244.086 158.461H330C330.677 158.461 331.326 158.73 331.804 159.209C332.283 159.688 332.552 160.338 332.552 161.016C332.552 161.694 332.283 162.344 331.804 162.823C331.326 163.303 330.677 163.572 330 163.572Z" fill="#E6E6E6"/>
    <path d="M275.645 173.794H244.086C243.409 173.794 242.76 173.525 242.282 173.046C241.803 172.566 241.534 171.916 241.534 171.238C241.534 170.561 241.803 169.911 242.282 169.431C242.76 168.952 243.409 168.683 244.086 168.683H275.645C276.321 168.683 276.971 168.952 277.449 169.431C277.928 169.911 278.197 170.561 278.197 171.238C278.197 171.916 277.928 172.566 277.449 173.046C276.971 173.525 276.321 173.794 275.645 173.794Z" fill="#E6E6E6"/>
    <path d="M266.843 266.647H246.213C244.972 266.647 243.782 266.153 242.904 265.275C242.027 264.396 241.534 263.204 241.534 261.962C241.534 260.719 242.027 259.528 242.904 258.649C243.782 257.77 244.972 257.277 246.213 257.277H266.843C268.084 257.277 269.274 257.77 270.151 258.649C271.028 259.528 271.521 260.719 271.521 261.962C271.521 263.204 271.028 264.396 270.151 265.275C269.274 266.153 268.084 266.647 266.843 266.647Z" fill="#30B395"/>
    <path d="M330 276.869H244.086C243.409 276.869 242.76 276.6 242.282 276.121C241.803 275.641 241.534 274.991 241.534 274.314C241.534 273.636 241.803 272.986 242.282 272.507C242.76 272.027 243.409 271.758 244.086 271.758H330C330.677 271.758 331.326 272.027 331.804 272.507C332.283 272.986 332.552 273.636 332.552 274.314C332.552 274.991 332.283 275.641 331.804 276.121C331.326 276.6 330.677 276.869 330 276.869Z" fill="#E6E6E6"/>
    <path d="M275.645 287.092H244.086C243.409 287.092 242.76 286.822 242.282 286.343C241.803 285.864 241.534 285.214 241.534 284.536C241.534 283.858 241.803 283.208 242.282 282.729C242.76 282.25 243.409 281.98 244.086 281.98H275.645C276.321 281.98 276.971 282.25 277.449 282.729C277.928 283.208 278.197 283.858 278.197 284.536C278.197 285.214 277.928 285.864 277.449 286.343C276.971 286.822 276.321 287.092 275.645 287.092Z" fill="#E6E6E6"/>
    <path d="M266.843 319.036H246.213C244.972 319.036 243.782 318.543 242.904 317.664C242.027 316.786 241.534 315.594 241.534 314.351C241.534 313.109 242.027 311.917 242.904 311.038C243.782 310.16 244.972 309.666 246.213 309.666H266.843C268.084 309.666 269.274 310.16 270.151 311.038C271.028 311.917 271.521 313.109 271.521 314.351C271.521 315.594 271.028 316.786 270.151 317.664C269.274 318.543 268.084 319.036 266.843 319.036Z" fill="#30B395"/>
    <path d="M330 329.259H244.086C243.409 329.259 242.76 328.99 242.282 328.51C241.803 328.031 241.534 327.381 241.534 326.703C241.534 326.026 241.803 325.375 242.282 324.896C242.76 324.417 243.409 324.148 244.086 324.148H330C330.677 324.148 331.326 324.417 331.804 324.896C332.283 325.375 332.552 326.026 332.552 326.703C332.552 327.381 332.283 328.031 331.804 328.51C331.326 328.99 330.677 329.259 330 329.259Z" fill="#E6E6E6"/>
    <path d="M275.645 339.481H244.086C243.409 339.481 242.76 339.212 242.282 338.732C241.803 338.253 241.534 337.603 241.534 336.925C241.534 336.248 241.803 335.598 242.282 335.118C242.76 334.639 243.409 334.37 244.086 334.37H275.645C276.321 334.37 276.971 334.639 277.449 335.118C277.928 335.598 278.197 336.248 278.197 336.925C278.197 337.603 277.928 338.253 277.449 338.732C276.971 339.212 276.321 339.481 275.645 339.481Z" fill="#E6E6E6"/>
    <path d="M342.121 240.026H177.949C176.991 240.025 176.072 239.643 175.394 238.965C174.716 238.286 174.335 237.366 174.334 236.406V191.683C174.335 190.723 174.716 189.803 175.394 189.124C176.072 188.446 176.991 188.064 177.949 188.063H342.121C343.08 188.064 343.999 188.446 344.676 189.124C345.354 189.803 345.735 190.723 345.737 191.683V236.406C345.735 237.366 345.354 238.286 344.676 238.965C343.999 239.643 343.08 240.025 342.121 240.026Z" fill="#30B395"/>
    <path d="M118.929 293.234C120.498 304.261 112.187 353.115 113.11 353.111L125.045 353.047C125.47 352.229 130.948 325.868 132.666 321.639C135.065 315.77 137.485 309.828 138.429 303.558C139.318 297.672 138.88 291.675 138.302 285.75C138.329 285.574 138.313 285.394 138.257 285.225C138.201 285.055 138.105 284.902 137.978 284.777C137.851 284.653 137.696 284.56 137.526 284.507C137.356 284.454 137.176 284.442 137 284.472L120.987 283.646C117.687 283.476 116.904 282.752 117.406 285.997C117.755 288.421 118.58 290.78 118.929 293.234Z" fill="#2F2E41"/>
    <path d="M122.076 266.421C118.823 271.106 115.412 276.499 116.492 282.108C117.313 286.368 120.554 289.668 123.612 292.756C135.835 305.049 159.938 359.287 159.938 359.287C171.57 351.833 159.661 359.5 171.464 351.62C170.418 351.539 146.647 265.965 144.678 265.85C136.711 265.322 129.838 264.543 122.076 266.421Z" fill="#2F2E41"/>
    <path d="M134.946 221.827C133.293 220.351 121.679 215.799 121.679 215.799C121.466 215.771 121.249 215.777 121.038 215.818C120.377 215.985 120.075 216.808 120.216 217.473C120.358 218.138 119.199 229.069 118.901 234.039C118.378 242.714 123.479 262.365 123.434 262.966C123.26 265.109 122.323 267.118 120.794 268.627C121.191 269.121 146.426 270.112 148.142 270.696C148.489 270.256 146.188 239.087 146.082 237.326C145.906 234.653 137.128 223.851 134.946 221.827Z" fill="#E6E6E6"/>
    <path d="M116.947 289.459C117.545 289.161 118.071 288.735 118.487 288.212C118.903 287.689 119.199 287.08 119.355 286.43C119.511 285.779 119.522 285.103 119.388 284.447C119.255 283.792 118.979 283.174 118.581 282.636L129.228 223.628L119.293 223.497L111.899 281.849C111.042 282.578 110.482 283.597 110.325 284.712C110.168 285.827 110.425 286.961 111.048 287.899C111.67 288.837 112.614 289.514 113.701 289.802C114.789 290.089 115.944 289.967 116.947 289.459H116.947Z" fill="#FFB8B8"/>
    <path d="M116.862 228.007C116.447 228.037 116.035 227.929 115.688 227.7C115.097 227.193 119.92 219.437 120.872 219.322C123.973 218.964 127.163 218.845 130.17 219.684C133.177 220.523 136.005 222.431 137.349 225.255C137.911 226.431 133.84 232.347 131.99 231.478C129.774 230.439 119.779 228.079 116.862 228.007Z" fill="#E6E6E6"/>
    <path d="M127.805 215.163C133.969 215.163 138.965 210.16 138.965 203.987C138.965 197.815 133.969 192.812 127.805 192.812C121.642 192.812 116.646 197.815 116.646 203.987C116.646 210.16 121.642 215.163 127.805 215.163Z" fill="#FFB8B8"/>
    <path d="M116.844 222.466C118.395 222.628 119.962 222.399 121.401 221.798C122.84 221.198 124.106 220.245 125.083 219.028C126.06 217.811 126.716 216.368 126.992 214.831C127.268 213.294 127.155 211.712 126.663 210.231C126.219 208.894 125.476 207.668 125.07 206.319C124.663 204.97 124.652 203.375 125.554 202.293C127.319 200.177 130.721 201.508 133.441 201.088C136.341 200.639 138.565 197.854 138.797 194.925C139.029 191.997 137.505 189.098 135.236 187.236C132.966 185.374 130.04 184.458 127.12 184.17C123.371 183.801 119.59 184.405 116.141 185.924C112.692 187.443 109.692 189.825 107.43 192.842C105.167 195.859 103.718 199.408 103.222 203.148C102.726 206.888 103.2 210.693 104.598 214.196C105.818 217.253 107.81 220.099 110.64 221.773C113.47 223.447 117.207 223.768 120.028 222.079" fill="#2F2E41"/>
    <path d="M236.336 208.507H207.816C206.005 208.507 204.532 206.406 204.532 203.822C204.532 201.239 206.005 199.137 207.816 199.137H236.336C238.147 199.137 239.62 201.239 239.62 203.822C239.62 206.406 238.147 208.507 236.336 208.507Z" fill="white"/>
    <path d="M312.987 218.73H207.084C206.407 218.73 205.758 218.461 205.279 217.981C204.801 217.502 204.532 216.852 204.532 216.174C204.532 215.496 204.801 214.846 205.279 214.367C205.758 213.888 206.407 213.619 207.084 213.619H312.987C313.664 213.619 314.313 213.888 314.792 214.367C315.27 214.846 315.539 215.496 315.539 216.174C315.539 216.852 315.27 217.502 314.792 217.981C314.313 218.461 313.664 218.73 312.987 218.73Z" fill="#E6E6E6"/>
    <path d="M258.632 228.952H207.084C206.407 228.952 205.758 228.683 205.279 228.204C204.801 227.724 204.532 227.074 204.532 226.396C204.532 225.719 204.801 225.069 205.279 224.589C205.758 224.11 206.407 223.841 207.084 223.841H258.632C259.309 223.841 259.958 224.11 260.437 224.589C260.915 225.069 261.184 225.719 261.184 226.396C261.184 227.074 260.915 227.724 260.437 228.204C259.958 228.683 259.309 228.952 258.632 228.952Z" fill="#E6E6E6"/>
    <path d="M414 370.148H78V371H414V370.148Z" fill="#3F3D56"/>
    </g>
    <defs>
    <clipPath id="clip0">
    <rect width="336" height="299" fill="white" transform="translate(78 72)"/>
    </clipPath>
    </defs>
    </svg>
    