<svg width="671" height="306" viewBox="0 0 671 306" fill="none" xmlns="http://www.w3.org/2000/svg">
    <path d="M616.889 172.935C633.503 172.935 646.971 159.458 646.971 142.833C646.971 126.209 633.503 112.732 616.889 112.732C600.276 112.732 586.808 126.209 586.808 142.833C586.808 159.458 600.276 172.935 616.889 172.935Z" fill="#F2F2F2"/>
    <path d="M616.889 150.755C621.261 150.755 624.806 147.208 624.806 142.833C624.806 138.458 621.261 134.912 616.889 134.912C612.517 134.912 608.973 138.458 608.973 142.833C608.973 147.208 612.517 150.755 616.889 150.755Z" fill="#E6E6E6"/>
    <path d="M615.443 143.003C618.778 145.725 619.794 150.015 619.174 154.158C618.411 158.702 616.055 162.825 612.529 165.788C608.563 169.314 603.727 171.698 599.06 174.138C594.771 176.328 590.65 178.831 586.73 181.628C571.72 192.544 560.38 208.088 553.89 225.434C547.411 242.75 545.673 262.405 550.596 280.352C553.032 289.231 557.96 298.811 567.14 302.153C574.457 304.816 584.448 303.1 588.174 295.554C592.176 287.447 586.592 278.334 579.399 274.31C570.075 269.093 558.938 272.905 550.551 278.186C541.318 283.999 533.896 292.342 524.257 297.553C519.918 299.972 515.09 301.381 510.132 301.676C505.578 301.855 501.033 301.153 496.746 299.607C487.851 296.364 480.194 290.416 474.848 282.598C468.725 273.692 465.985 262.775 465.485 252.08C464.367 228.152 473.813 205.767 481.392 183.577C485.465 172.021 488.516 160.13 490.511 148.041C492.407 135.89 493.082 123.58 492.526 111.294C492.024 100.431 490.953 89.0709 486.162 79.1493C481.948 70.425 474.248 63.2847 464.513 61.4845C460.125 60.6227 455.578 61.1454 451.499 62.9804C450.111 63.6143 451.316 65.6631 452.698 65.0324C461.313 61.0997 471.496 64.9261 477.859 71.276C485.29 78.691 488.018 89.6412 489.23 99.745C491.953 123.69 489.807 147.939 482.922 171.033C476.315 193.493 465.921 215.015 463.523 238.546C462.429 249.283 462.991 260.383 466.421 270.679C469.363 279.85 474.881 287.981 482.315 294.1C489.315 299.762 497.926 303.62 506.991 304.05C517.167 304.533 526.09 299.993 533.985 293.954C542.441 287.487 550.22 279.506 560.463 275.88C565.132 274.227 570.451 273.455 575.245 275.047C579.358 276.453 582.847 279.26 585.103 282.978C587.185 286.442 587.953 290.774 586.053 294.496C584.266 297.996 580.779 300.02 577.004 300.713C573.007 301.42 568.888 300.72 565.348 298.731C561.213 296.368 558.187 292.401 556.067 288.21C551.839 279.853 550.418 269.906 550.203 260.63C550.014 251.57 551.174 242.532 553.645 233.813C558.562 216.177 568.486 200.346 582.214 188.241C585.673 185.226 589.373 182.5 593.277 180.091C597.536 177.464 602.082 175.365 606.424 172.887C610.696 170.448 614.906 167.534 617.848 163.521C620.356 160.081 621.71 155.935 621.717 151.677C621.762 149.719 621.373 147.775 620.579 145.985C619.784 144.195 618.604 142.602 617.123 141.322C615.948 140.363 614.258 142.035 615.443 143.003V143.003Z" fill="#CCCCCC"/>
    <path d="M334.61 281.461C345.129 288.264 357.297 292.081 369.814 292.503C369.591 293.034 369.339 293.552 369.062 294.056C367.605 296.747 365.546 299.065 363.045 300.829C360.085 302.914 356.609 304.145 352.997 304.388C349.385 304.632 345.776 303.878 342.563 302.209C339.35 300.54 336.656 298.02 334.777 294.924C332.897 291.829 331.903 288.276 331.903 284.653V281.461H334.61Z" fill="#3F3D56"/>
    <path d="M408.446 282.395V284.653C408.447 289.048 406.985 293.319 404.291 296.79C401.596 300.261 397.823 302.735 393.567 303.82C389.311 304.906 384.814 304.542 380.788 302.785C376.762 301.028 373.435 297.979 371.334 294.119C371.045 293.603 370.783 293.071 370.55 292.527C371.128 292.543 371.698 292.551 372.276 292.551C385.038 292.566 397.555 289.051 408.446 282.395Z" fill="#3F3D56"/>
    <path d="M435.076 43.6556C434.483 43.5685 433.881 43.513 433.279 43.4734C440.116 59.2396 440.59 77.0415 434.601 93.1494C435.203 93.0781 435.797 92.9831 436.391 92.8722C442.188 91.7481 447.399 88.6018 451.095 83.9935C454.791 79.3851 456.734 73.6137 456.576 67.7066C456.418 61.7995 454.171 56.1401 450.234 51.7359C446.297 47.3316 440.925 44.4683 435.076 43.6556Z" fill="#3F3D56"/>
    <path d="M311.273 43.4734C310.672 43.5131 310.07 43.5685 309.476 43.6556C303.627 44.4683 298.256 47.3316 294.319 51.7359C290.382 56.1402 288.134 61.7996 287.977 67.7066C287.819 73.6137 289.761 79.3852 293.458 83.9935C297.154 88.6019 302.365 91.7482 308.162 92.8722C308.756 92.9831 309.349 93.0782 309.951 93.1495C303.963 77.0416 304.437 59.2396 311.273 43.4734Z" fill="#3F3D56"/>
    <path d="M435.076 43.6556C428.555 28.0658 416.475 15.4585 401.183 8.28287C385.892 1.10722 368.481 -0.124397 352.333 4.8273C336.185 9.77899 322.452 20.5604 313.804 35.077C305.156 49.5937 302.208 66.8089 305.535 83.3784C308.862 99.9478 318.224 114.688 331.805 124.736C345.385 134.784 362.213 139.422 379.019 137.749C395.825 136.075 411.41 128.21 422.746 115.682C434.081 103.153 440.358 86.8556 440.356 69.9551C440.353 60.9253 438.558 51.986 435.076 43.6556ZM434.601 93.1494C428.81 108.726 417.403 121.57 402.623 129.153C387.844 136.735 370.763 138.508 354.744 134.121C338.724 129.734 324.925 119.506 316.063 105.45C307.202 91.3932 303.919 74.5267 306.861 58.1698C309.803 41.8128 318.757 27.1502 331.96 17.0679C345.164 6.98556 361.661 2.2138 378.203 3.69179C394.746 5.16977 410.137 12.7904 421.347 25.0539C432.557 37.3173 438.773 53.3353 438.773 69.9551C438.771 77.8732 437.358 85.7274 434.601 93.1494V93.1494Z" fill="#3F3D56"/>
    <path d="M407.108 54.5082H337.444C333.77 54.5082 330.246 55.9687 327.648 58.5685C325.05 61.1682 323.591 64.6943 323.591 68.3709C323.591 72.0475 325.05 75.5735 327.648 78.1733C330.246 80.7731 333.77 82.2336 337.444 82.2336H407.108C410.782 82.2336 414.305 80.7731 416.904 78.1733C419.502 75.5735 420.961 72.0475 420.961 68.3709C420.961 64.6943 419.502 61.1682 416.904 58.5685C414.305 55.9687 410.782 54.5082 407.108 54.5082Z" fill="#3F3D56"/>
    <path d="M372.276 151.547C353.665 151.556 335.796 158.851 322.491 171.874C309.187 184.896 301.503 202.611 301.083 221.23C300.663 239.849 307.54 257.893 320.244 271.502C332.948 285.112 350.47 293.207 369.062 294.056C369.814 294.095 370.574 294.119 371.334 294.119C371.651 294.135 371.959 294.135 372.276 294.135C391.172 294.135 409.294 286.624 422.655 273.253C436.016 259.883 443.523 241.749 443.523 222.841C443.523 203.933 436.016 185.799 422.655 172.429C409.294 159.058 391.172 151.547 372.276 151.547ZM408.445 282.395C397.555 289.051 385.037 292.565 372.276 292.551C371.698 292.551 371.128 292.543 370.55 292.527C370.305 292.527 370.059 292.519 369.814 292.503C353.086 291.921 337.125 285.335 324.849 273.948C312.574 262.562 304.803 247.135 302.957 230.487C301.111 213.839 305.313 197.083 314.796 183.28C324.279 169.478 338.408 159.551 354.602 155.314C370.797 151.076 387.974 152.812 402.994 160.203C418.015 167.595 429.876 180.148 436.41 195.569C442.943 210.99 443.713 228.249 438.579 244.191C433.444 260.133 422.748 273.694 408.445 282.395Z" fill="#3F3D56"/>
    <path d="M422.281 205.282H391.143C388.974 205.282 386.893 204.419 385.359 202.884C383.825 201.349 382.963 199.267 382.963 197.096C382.963 194.925 383.825 192.843 385.359 191.308C386.893 189.773 388.974 188.91 391.143 188.91H422.281C424.45 188.91 426.531 189.773 428.065 191.308C429.599 192.843 430.461 194.925 430.461 197.096C430.461 199.267 429.599 201.349 428.065 202.884C426.531 204.419 424.45 205.282 422.281 205.282Z" fill="#3F3D56"/>
    <path d="M393.219 201.25C395.512 201.25 397.371 199.39 397.371 197.096C397.371 194.802 395.512 192.942 393.219 192.942C390.926 192.942 389.067 194.802 389.067 197.096C389.067 199.39 390.926 201.25 393.219 201.25Z" fill="#F2F2F2"/>
    <path d="M406.712 201.25C409.005 201.25 410.864 199.39 410.864 197.096C410.864 194.802 409.005 192.942 406.712 192.942C404.419 192.942 402.561 194.802 402.561 197.096C402.561 199.39 404.419 201.25 406.712 201.25Z" fill="#F2F2F2"/>
    <path d="M420.205 201.25C422.498 201.25 424.357 199.39 424.357 197.096C424.357 194.802 422.498 192.942 420.205 192.942C417.912 192.942 416.053 194.802 416.053 197.096C416.053 199.39 417.912 201.25 420.205 201.25Z" fill="#30B395"/>
    <path d="M130.322 302.364C137.441 296.344 141.765 286.836 140.631 277.579C139.497 268.322 132.473 259.812 123.363 257.846C114.252 255.881 103.867 261.322 101.1 270.228C99.5769 253.058 97.8221 235.169 88.6997 220.548C80.4396 207.308 66.133 197.835 50.6279 196.14C35.1227 194.445 18.7978 200.846 9.12784 213.093C-0.542143 225.339 -2.9098 243.142 3.8628 257.202C8.85194 267.559 18.0437 275.267 27.6744 281.538C58.3996 301.544 96.5141 308.303 132.781 302.962L130.322 302.364Z" fill="#F2F2F2"/>
    <path d="M24.4606 201.201C37.2542 211.629 48.9911 223.291 59.5013 236.02C70.0132 248.735 79.2679 262.441 87.1351 276.945C91.5326 285.08 95.4829 293.45 98.9685 302.017C99.6792 303.76 96.8513 304.519 96.1485 302.795C89.9747 287.692 82.3365 273.231 73.3435 259.618C64.3941 246.055 54.1511 233.393 42.7582 221.81C36.3144 215.261 29.5156 209.072 22.3927 203.27C20.9327 202.081 23.0126 200.021 24.4606 201.201Z" fill="white"/>
    <path d="M127.909 52.2823C141.462 52.2823 152.449 41.2878 152.449 27.7254C152.449 14.1631 141.462 3.16864 127.909 3.16864C114.355 3.16864 103.368 14.1631 103.368 27.7254C103.368 41.2878 114.355 52.2823 127.909 52.2823Z" fill="#2F2E41"/>
    <path d="M219.434 117.644C218.964 118.352 218.391 118.985 217.733 119.523C216.787 120.305 215.686 120.877 214.502 121.202C213.319 121.528 212.081 121.6 210.868 121.413C209.655 121.226 208.495 120.785 207.465 120.118C206.434 119.452 205.556 118.575 204.888 117.545C204.733 117.305 204.591 117.057 204.462 116.802L165.792 113.069C162.74 112.762 159.868 111.479 157.602 109.41C155.336 107.341 153.798 104.596 153.215 101.583L151.02 90.0036L166.112 87.6542L168.82 96.9291L206.524 106.197C206.816 105.94 207.125 105.705 207.45 105.492C209.132 104.399 211.139 103.921 213.132 104.138C215.126 104.355 216.983 105.253 218.391 106.681C219.8 108.109 220.673 109.979 220.863 111.977C221.053 113.974 220.548 115.976 219.434 117.644L219.434 117.644Z" fill="#FFB8B8"/>
    <path d="M169.747 95.5292L152.889 100.086C151.977 100.332 151.005 100.205 150.186 99.7342C149.367 99.2634 148.768 98.4867 148.521 97.5746L142.616 75.7017C141.984 73.3588 142.24 70.8645 143.337 68.6997C144.433 66.535 146.292 64.8531 148.554 63.9785C150.816 63.1038 153.322 63.0983 155.588 63.963C157.855 64.8277 159.721 66.5013 160.827 68.6612L171.989 90.4623C172.231 90.935 172.364 91.4558 172.38 91.9867C172.395 92.5176 172.291 93.0452 172.076 93.5308C171.861 94.0165 171.541 94.4479 171.138 94.7937C170.735 95.1394 170.26 95.3907 169.747 95.5292Z" fill="#2F2E41"/>
    <path d="M159.982 296.371H169.686L174.304 258.912L159.979 258.913L159.982 296.371Z" fill="#FFB8B8"/>
    <path d="M188.404 305.388L157.902 305.39L157.902 293.597L176.619 293.596C179.744 293.596 182.742 294.838 184.952 297.05C187.162 299.261 188.404 302.261 188.404 305.388Z" fill="#2F2E41"/>
    <path d="M73.4805 286.907L82.5604 290.337L100.105 256.925L86.7038 251.863L73.4805 286.907Z" fill="#FFB8B8"/>
    <path d="M96.8877 305.39L68.352 294.608L72.5148 283.576L90.0254 290.192C92.9494 291.296 95.3151 293.518 96.602 296.368C97.889 299.219 97.9918 302.464 96.8877 305.39L96.8877 305.39Z" fill="#2F2E41"/>
    <path d="M159.675 287.671C158.923 287.67 158.19 287.431 157.582 286.988C156.974 286.545 156.522 285.92 156.291 285.204L131.538 208.71C131.464 208.483 131.324 208.283 131.136 208.137C130.948 207.991 130.721 207.905 130.483 207.89C130.245 207.875 130.008 207.931 129.803 208.053C129.598 208.174 129.434 208.354 129.333 208.57L95.0281 281.607C94.6566 282.397 94.0087 283.023 93.207 283.367C92.4053 283.711 91.5055 283.748 90.6778 283.473L77.1672 278.966C76.3091 278.678 75.5924 278.075 75.1621 277.278C74.7318 276.481 74.6201 275.55 74.8495 274.674L95.8629 195.026C98.0617 186.589 99.6499 178.004 100.615 169.339C102.089 155.069 108.775 141.846 119.39 132.205C124.025 127.955 127.038 122.224 127.913 115.995L127.969 115.597L158.743 120.459L178.236 279.625C178.337 280.477 178.128 281.336 177.65 282.047C177.171 282.759 176.452 283.274 175.626 283.5L160.606 287.547C160.302 287.629 159.99 287.671 159.675 287.671Z" fill="#2F2E41"/>
    <path d="M137.658 52.1653C148.396 52.1653 157.101 43.4545 157.101 32.7091C157.101 21.9638 148.396 13.253 137.658 13.253C126.919 13.253 118.214 21.9638 118.214 32.7091C118.214 43.4545 126.919 52.1653 137.658 52.1653Z" fill="#FFB8B8"/>
    <path d="M156.83 123.852C156.769 123.852 156.708 123.851 156.647 123.848L126.141 122.321C125.289 122.283 124.48 121.939 123.862 121.351C123.244 120.764 122.858 119.974 122.775 119.125L118.607 78.4651C118.302 75.4875 118.73 72.4804 119.852 69.7059C120.974 66.9314 122.757 64.4736 125.046 62.5467C127.335 60.6198 130.06 59.2822 132.984 58.6506C135.908 58.0189 138.942 58.1123 141.821 58.9227H141.821C144.207 59.5765 146.43 60.7209 148.349 62.2828C169.809 79.9179 162.889 111.87 160.257 121.243C160.051 121.994 159.604 122.656 158.984 123.127C158.365 123.599 157.608 123.854 156.83 123.852Z" fill="#30B395"/>
    <path d="M130.291 151.155C129.442 151.155 128.597 151.028 127.785 150.779C126.611 150.423 125.525 149.822 124.599 149.017C123.672 148.211 122.926 147.219 122.41 146.105C121.894 144.991 121.618 143.781 121.602 142.553C121.586 141.325 121.829 140.108 122.316 138.981C122.43 138.719 122.557 138.463 122.698 138.215L104.384 103.929C102.948 101.217 102.424 98.1135 102.891 95.0799C103.358 92.0462 104.789 89.2439 106.974 87.089L115.392 78.8464L125.706 90.1184L119.49 97.5124L132.664 134.058C133.039 134.159 133.407 134.286 133.764 134.439C135.604 135.235 137.114 136.642 138.037 138.423C138.961 140.203 139.243 142.249 138.835 144.213C138.427 146.177 137.354 147.94 135.798 149.205C134.241 150.47 132.296 151.158 130.291 151.155L130.291 151.155Z" fill="#FFB8B8"/>
    <path d="M121.168 97.5092L108.038 85.9884C107.328 85.3645 106.895 84.4845 106.833 83.5414C106.772 82.5984 107.086 81.6693 107.708 80.958L122.636 63.9227C124.235 62.0979 126.452 60.9301 128.861 60.6446C131.269 60.359 133.698 60.9758 135.679 62.3761C137.66 63.7764 139.052 65.8609 139.588 68.2279C140.124 70.5948 139.765 73.0764 138.581 75.1943L126.625 96.57C126.366 97.0335 126.006 97.4332 125.573 97.7398C125.14 98.0465 124.643 98.2523 124.12 98.3424C123.597 98.4324 123.061 98.4043 122.55 98.2602C122.039 98.116 121.567 97.8594 121.168 97.5092V97.5092Z" fill="#2F2E41"/>
    <path d="M125.146 51.6084C126.92 52.2378 129.094 52.7928 130.49 51.4873C131.853 50.2128 131.605 47.8822 130.802 46.1652C129.999 44.4482 128.754 42.9203 128.372 41.0514C127.825 38.3731 129.24 35.5905 131.259 33.8443C133.279 32.0981 135.82 31.1809 138.302 30.2982L151.912 25.4567C155.281 24.2583 158.912 22.8505 160.797 19.6968C163.525 15.1335 161.031 8.61053 156.557 5.94775C152.082 3.28498 146.43 3.78104 141.602 5.65338C138.932 6.68893 136.392 8.11592 133.631 8.84489C128.181 10.2836 121.984 8.99292 117.195 12.0678C113.026 14.7444 111.093 20.2059 111.233 25.316C111.374 30.4262 113.254 35.2928 115.237 39.9663C116.417 42.7467 117.678 45.5591 119.676 47.7706C121.675 49.982 124.563 51.529 127.448 51.1221L125.146 51.6084Z" fill="#2F2E41"/>
    <path d="M107.326 31.6862C116.07 31.6862 123.159 24.593 123.159 15.8431C123.159 7.0932 116.07 0 107.326 0C98.5821 0 91.4937 7.0932 91.4937 15.8431C91.4937 24.593 98.5821 31.6862 107.326 31.6862Z" fill="#2F2E41"/>
    <path d="M235.737 107.298L235.457 107.259L236.515 99.5572C236.677 98.3749 236.363 97.1765 235.643 96.2256C234.922 95.2747 233.854 94.6491 232.672 94.4866L216.365 92.2435C215.183 92.081 213.986 92.3947 213.035 93.1158C212.085 93.8369 211.46 94.9062 211.298 96.0885L205.493 138.342C205.331 139.525 205.644 140.723 206.365 141.674C207.085 142.625 208.154 143.25 209.336 143.413L225.643 145.656C226.824 145.819 228.022 145.505 228.972 144.784C229.922 144.063 230.548 142.993 230.71 141.811L234.703 112.741L234.984 112.78L235.737 107.298Z" fill="#3F3D56"/>
    <path d="M232.16 96.7462L230.129 96.4669C230.191 96.7088 230.193 96.9623 230.134 97.2049C230.075 97.4476 229.957 97.672 229.791 97.8583C229.625 98.0447 229.415 98.1873 229.181 98.2736C228.947 98.3599 228.695 98.3873 228.448 98.3532L219.537 97.1275C219.29 97.0935 219.055 96.9991 218.852 96.8528C218.65 96.7064 218.487 96.5126 218.377 96.2883C218.268 96.064 218.215 95.8161 218.223 95.5665C218.232 95.317 218.302 95.0733 218.427 94.8571L216.53 94.5963C216.114 94.5389 215.69 94.5643 215.283 94.6709C214.876 94.7775 214.494 94.9633 214.159 95.2177C213.823 95.472 213.542 95.7899 213.329 96.1532C213.117 96.5165 212.978 96.9181 212.921 97.3351L207.392 137.58C207.276 138.422 207.5 139.276 208.013 139.953C208.526 140.631 209.288 141.076 210.129 141.192L225.759 143.342C226.6 143.458 227.453 143.234 228.13 142.72C228.807 142.207 229.252 141.445 229.368 140.603L234.897 100.358C235.012 99.5158 234.789 98.6622 234.276 97.9848C233.762 97.3075 233.001 96.8619 232.16 96.7461V96.7462Z" fill="white"/>
    <path d="M221.075 130.159C225.884 130.159 229.783 126.258 229.783 121.445C229.783 116.633 225.884 112.732 221.075 112.732C216.266 112.732 212.367 116.633 212.367 121.445C212.367 126.258 216.266 130.159 221.075 130.159Z" fill="#30B395"/>
    <path d="M220.212 124.769C220.016 124.77 219.825 124.706 219.669 124.589L219.659 124.581L217.613 123.014C217.517 122.941 217.437 122.85 217.377 122.747C217.317 122.643 217.277 122.529 217.262 122.41C217.246 122.292 217.253 122.171 217.284 122.055C217.315 121.939 217.368 121.831 217.441 121.736C217.514 121.641 217.605 121.561 217.708 121.501C217.812 121.441 217.926 121.402 218.045 121.387C218.164 121.371 218.284 121.38 218.4 121.411C218.515 121.442 218.624 121.496 218.718 121.569L220.044 122.586L223.176 118.498C223.249 118.404 223.34 118.324 223.443 118.264C223.546 118.204 223.66 118.166 223.779 118.15C223.897 118.134 224.017 118.142 224.133 118.173C224.248 118.204 224.356 118.257 224.451 118.33L224.432 118.356L224.452 118.33C224.643 118.477 224.768 118.694 224.799 118.933C224.831 119.173 224.766 119.414 224.62 119.606L220.935 124.414C220.85 124.525 220.741 124.615 220.615 124.676C220.49 124.738 220.352 124.77 220.212 124.769Z" fill="white"/>
    <path d="M670.057 306H5.64835C5.39884 305.999 5.15979 305.9 4.98361 305.723C4.80744 305.546 4.7085 305.307 4.7085 305.057C4.7085 304.807 4.80744 304.568 4.98361 304.391C5.15979 304.214 5.39884 304.114 5.64835 304.114H670.057C670.307 304.114 670.547 304.213 670.724 304.39C670.901 304.567 671 304.807 671 305.057C671 305.307 670.901 305.547 670.724 305.724C670.547 305.901 670.307 306 670.057 306Z" fill="#CCCCCC"/>
    </svg>
    