<svg width="676" height="483" viewBox="0 0 676 483" fill="none" xmlns="http://www.w3.org/2000/svg">
<g clip-path="url(#clip0)">
<path d="M50.3694 481.817L48.749 481.786C49.3757 463.803 51.298 445.889 54.5009 428.182C61.5075 390.271 73.1584 365.373 89.1299 354.18L90.0603 355.503C52.7508 381.651 50.3883 480.818 50.3694 481.817Z" fill="#F1F1F1"/>
<path d="M70.6237 481.43L69.0034 481.399C69.0383 479.608 70.051 437.396 86.6997 425.729L87.6301 427.052C71.6531 438.249 70.6317 481 70.6237 481.43Z" fill="#F1F1F1"/>
<path d="M99.2784 355.65C103.753 355.65 107.38 352.03 107.38 347.564C107.38 343.097 103.753 339.477 99.2784 339.477C94.804 339.477 91.1768 343.097 91.1768 347.564C91.1768 352.03 94.804 355.65 99.2784 355.65Z" fill="#F1F1F1"/>
<path d="M95.2667 425.195C99.7411 425.195 103.368 421.575 103.368 417.108C103.368 412.642 99.7411 409.022 95.2667 409.022C90.7923 409.022 87.165 412.642 87.165 417.108C87.165 421.575 90.7923 425.195 95.2667 425.195Z" fill="#F1F1F1"/>
<path d="M66.8475 360.498C68.3701 370.205 64.4017 378.887 64.4017 378.887C64.4017 378.887 57.9647 371.831 56.4421 362.124C54.9195 352.417 58.8879 343.734 58.8879 343.734C58.8879 343.734 65.3249 350.791 66.8475 360.498Z" fill="#F1F1F1"/>
<path d="M93.3292 384.073C84.018 387.261 74.7612 384.874 74.7612 384.874C74.7612 384.874 80.6008 377.317 89.912 374.129C99.2232 370.942 108.48 373.329 108.48 373.329C108.48 373.329 102.64 380.885 93.3292 384.073Z" fill="#F1F1F1"/>
<path d="M93.6284 445.662C89.4142 446.983 84.9264 447.177 80.6138 446.223C83.352 442.743 87.04 440.128 91.2332 438.692C95.4265 437.256 99.9462 437.062 104.248 438.131C101.43 441.526 97.7678 444.123 93.6284 445.662Z" fill="#F1F1F1"/>
<path d="M547.976 255.573C618.682 255.573 676 198.361 676 127.786C676 57.2119 618.682 0 547.976 0C477.27 0 419.952 57.2119 419.952 127.786C419.952 198.361 477.27 255.573 547.976 255.573Z" fill="#F1F1F1"/>
<path d="M560.779 80.212V133.704H482.874L468.482 150.94L470.125 133.704H463.123V80.212H560.779Z" fill="#30B395"/>
<path opacity="0.1" d="M560.779 98.6368H525.646V133.704H560.779V98.6368Z" fill="black"/>
<path d="M533.388 106.363H631.043V159.855H624.039L625.684 177.092L611.294 159.855H533.388V106.363Z" fill="#30B395"/>
<path opacity="0.1" d="M469.078 159.566C480.917 159.566 490.515 158.631 490.515 157.478C490.515 156.325 480.917 155.391 469.078 155.391C457.239 155.391 447.642 156.325 447.642 157.478C447.642 158.631 457.239 159.566 469.078 159.566Z" fill="black"/>
<path opacity="0.1" d="M625.683 187.79C639.167 187.79 650.097 186.726 650.097 185.413C650.097 184.1 639.167 183.035 625.683 183.035C612.2 183.035 601.27 184.1 601.27 185.413C601.27 186.726 612.2 187.79 625.683 187.79Z" fill="black"/>
<path d="M185.158 358.558H224.335C224.335 360.234 267.16 361.593 267.16 361.593C268.104 362.303 268.965 363.118 269.726 364.022C272.012 366.743 273.262 370.183 273.254 373.735V376.163C273.253 380.188 271.65 384.047 268.799 386.893C265.948 389.739 262.081 391.338 258.049 391.34H185.158C181.127 391.336 177.261 389.736 174.41 386.891C171.56 384.045 169.957 380.187 169.953 376.163V373.735C169.959 369.711 171.562 365.854 174.413 363.009C177.263 360.164 181.127 358.564 185.158 358.558Z" fill="#3F3D56"/>
<path d="M229.46 390.737H213.647V481.842H229.46V390.737Z" fill="#3F3D56"/>
<path d="M274.467 481.288C274.467 482.993 250.505 481.947 220.945 481.947C191.386 481.947 167.424 482.993 167.424 481.288C167.424 479.582 191.386 466.058 220.945 466.058C250.505 466.058 274.467 479.582 274.467 481.288Z" fill="#3F3D56"/>
<path d="M285.09 470.878L296.858 470.877L302.457 425.567L285.087 425.568L285.09 470.878Z" fill="#9F616A"/>
<path d="M282.087 467.043L305.265 467.042H305.265C309.183 467.042 312.939 468.595 315.709 471.36C318.479 474.125 320.035 477.874 320.036 481.784V482.263L282.088 482.265L282.087 467.043Z" fill="#2F2E41"/>
<path d="M319.873 470.878L331.642 470.877L337.241 425.567L319.872 425.568L319.873 470.878Z" fill="#9F616A"/>
<path d="M316.871 467.043L340.048 467.042H340.049C343.966 467.042 347.723 468.595 350.493 471.36C353.263 474.125 354.819 477.874 354.819 481.784V482.263L316.872 482.265L316.871 467.043Z" fill="#2F2E41"/>
<path d="M278.912 327.476C278.749 326.181 278.302 324.937 277.605 323.832C276.908 322.728 275.976 321.789 274.876 321.083C273.776 320.376 272.534 319.919 271.238 319.744C269.941 319.568 268.622 319.678 267.373 320.067L254.275 304.394L242.792 310.016L261.601 331.89C262.393 333.941 263.912 335.63 265.869 336.638C267.827 337.646 270.086 337.902 272.22 337.358C274.354 336.814 276.214 335.508 277.447 333.686C278.681 331.865 279.202 329.655 278.912 327.476H278.912Z" fill="#9F616A"/>
<path d="M234.867 234.517L242.549 237.665L244.409 259.327L264.987 315.502L247.51 321.308L228.092 283.627L234.867 234.517Z" fill="#CBCBCB"/>
<path d="M214.916 209.474C226.218 209.474 235.379 200.33 235.379 189.049C235.379 177.769 226.218 168.625 214.916 168.625C203.615 168.625 194.454 177.769 194.454 189.049C194.454 200.33 203.615 209.474 214.916 209.474Z" fill="#9F616A"/>
<path d="M211.769 179.545C211.769 179.545 212.667 167.137 223.745 172.197C234.823 177.256 234.1 163.311 230.752 160.847C227.405 158.382 227.511 157.772 215.266 159.421C203.022 161.07 179.251 163.863 186.937 188.437C194.624 213.011 205.943 206.613 205.943 206.613C205.943 206.613 195.475 184.576 201.666 188.789L207.856 193.002L211.123 192.311L211.769 179.545Z" fill="#2F2E41"/>
<path d="M196.887 187.707L192.716 165.175C192.643 164.777 192.648 164.369 192.733 163.973C192.817 163.577 192.979 163.202 193.209 162.868C193.439 162.535 193.732 162.25 194.073 162.03C194.413 161.81 194.793 161.658 195.192 161.585L200.082 160.683L204.814 186.246L196.887 187.707Z" fill="#30B395"/>
<path d="M201.585 200.5C206.722 200.5 210.886 196.343 210.886 191.216C210.886 186.088 206.722 181.932 201.585 181.932C196.448 181.932 192.284 186.088 192.284 191.216C192.284 196.343 196.448 200.5 201.585 200.5Z" fill="#30B395"/>
<path d="M201.585 196.786C204.667 196.786 207.165 194.292 207.165 191.216C207.165 188.139 204.667 185.645 201.585 185.645C198.502 185.645 196.004 188.139 196.004 191.216C196.004 194.292 198.502 196.786 201.585 196.786Z" fill="#F2F2F2"/>
<path d="M201.585 193.072C202.612 193.072 203.445 192.241 203.445 191.216C203.445 190.19 202.612 189.359 201.585 189.359C200.557 189.359 199.725 190.19 199.725 191.216C199.725 192.241 200.557 193.072 201.585 193.072Z" fill="#30B395"/>
<path d="M181.332 329.542C181.332 329.542 174.466 365.78 200.59 370.395C226.713 375.01 264.423 378.253 264.423 378.253L281.357 457.115L304.108 455.088C304.108 455.088 301.083 360.155 293.642 352.728C286.201 345.301 250.821 323.566 250.821 323.566L181.332 329.542Z" fill="#2F2E41"/>
<path d="M232.353 314.354L243.779 325.795C243.779 325.795 326.275 339.058 329.458 358.077C334.262 386.79 339.938 449.23 339.938 449.23L315.134 447.373L305.408 376.396L265.723 367.386L220.572 342.825L232.353 314.354Z" fill="#2F2E41"/>
<path d="M231.718 226.625L225.081 217.843L203.56 217.491C196.847 221.058 191.232 226.38 187.316 232.887C183.401 239.394 181.332 246.842 181.332 254.433V310.005C181.332 310.005 181.638 317.4 180.018 334.382C178.62 349.034 256.741 325.795 256.741 325.795L246.6 243.326C246.6 243.326 247.415 230.189 231.718 226.625Z" fill="#CBCBCB"/>
<path d="M251.411 345.845C251.247 344.55 250.801 343.306 250.104 342.201C249.406 341.097 248.475 340.158 247.374 339.452C246.274 338.745 245.032 338.288 243.736 338.113C242.44 337.937 241.121 338.047 239.872 338.436L226.774 322.763L215.291 328.385L234.099 350.259C234.892 352.31 236.411 353.999 238.368 355.007C240.325 356.015 242.585 356.271 244.719 355.727C246.853 355.183 248.713 353.877 249.946 352.055C251.179 350.234 251.701 348.024 251.411 345.845Z" fill="#9F616A"/>
<path d="M197.065 235.609L190.244 233.343C190.244 233.343 182.068 235.139 177.222 246.131C172.377 257.123 177.308 301.996 177.308 301.996L227.526 345.277L237.036 327.521L209.184 289.905C209.184 289.905 221.133 249.374 197.065 235.609Z" fill="#CBCBCB"/>
<path d="M408.323 483H0.810165C0.595295 483 0.389226 482.915 0.237291 482.763C0.0853558 482.612 0 482.406 0 482.191C0 481.977 0.0853558 481.771 0.237291 481.62C0.389226 481.468 0.595295 481.383 0.810165 481.383H408.323C408.538 481.383 408.744 481.468 408.896 481.62C409.048 481.771 409.133 481.977 409.133 482.191C409.133 482.406 409.048 482.612 408.896 482.763C408.744 482.915 408.538 483 408.323 483Z" fill="#CBCBCB"/>
</g>
<defs>
<clipPath id="clip0">
<rect width="676" height="483" fill="white"/>
</clipPath>
</defs>
</svg>
