<svg width="464" height="311" viewBox="0 0 464 311" fill="none" xmlns="http://www.w3.org/2000/svg">
<path d="M301.804 280.752H153.955C150.45 280.747 147.091 279.122 144.613 276.234C142.135 273.345 140.741 269.429 140.737 265.344V15.4074C140.741 11.3225 142.135 7.40625 144.613 4.51781C147.091 1.62936 150.45 0.00461246 153.955 0H301.804C305.309 0.00460959 308.668 1.62936 311.146 4.51781C313.624 7.40625 315.018 11.3225 315.022 15.4074V265.344C315.018 269.429 313.624 273.345 311.146 276.234C308.668 279.122 305.309 280.747 301.804 280.752Z" fill="#CBCBCB"/>
<path d="M302.688 270.921H154.317C153.237 270.92 152.201 270.419 151.438 269.529C150.674 268.638 150.244 267.431 150.243 266.172V14.5798C150.244 13.3206 150.674 12.1133 151.438 11.2229C152.201 10.3325 153.237 9.8317 154.317 9.83026H302.688C303.768 9.8317 304.803 10.3325 305.567 11.2229C306.331 12.1133 306.761 13.3206 306.762 14.5798V266.172C306.761 267.431 306.331 268.638 305.567 269.529C304.803 270.419 303.768 270.92 302.688 270.921Z" fill="white"/>
<path d="M227.317 6.02924C227.938 6.02924 228.442 5.44242 228.442 4.71854C228.442 3.99466 227.938 3.40784 227.317 3.40784C226.696 3.40784 226.193 3.99466 226.193 4.71854C226.193 5.44242 226.696 6.02924 227.317 6.02924Z" fill="white"/>
<path d="M226.114 202.091H226.006C225.773 202.091 225.549 202.006 225.384 201.853C225.219 201.701 225.126 201.495 225.126 201.28V193.167C225.126 192.952 225.219 192.746 225.384 192.594C225.549 192.441 225.773 192.356 226.006 192.356H226.114C226.348 192.356 226.571 192.441 226.736 192.594C226.901 192.746 226.994 192.952 226.994 193.167V201.28C226.994 201.495 226.901 201.701 226.736 201.853C226.571 202.006 226.348 202.091 226.114 202.091Z" fill="#3F3D56"/>
<path d="M230.144 202.091H230.035C229.802 202.091 229.578 202.006 229.414 201.853C229.249 201.701 229.156 201.495 229.156 201.28V193.167C229.156 192.952 229.249 192.746 229.414 192.594C229.578 192.441 229.802 192.356 230.035 192.356H230.144C230.377 192.356 230.601 192.441 230.766 192.594C230.931 192.746 231.024 192.952 231.024 193.167V201.28C231.024 201.495 230.931 201.701 230.766 201.853C230.601 202.006 230.377 202.091 230.144 202.091Z" fill="#3F3D56"/>
<path d="M168.78 202.015H168.672C168.438 202.015 168.215 201.929 168.05 201.777C167.885 201.625 167.792 201.419 167.792 201.203V193.09C167.792 192.875 167.885 192.669 168.05 192.517C168.215 192.365 168.438 192.279 168.672 192.279H168.78C169.013 192.279 169.237 192.365 169.402 192.517C169.567 192.669 169.66 192.875 169.66 193.09V201.203C169.66 201.419 169.567 201.625 169.402 201.777C169.237 201.929 169.013 202.015 168.78 202.015Z" fill="#3F3D56"/>
<path d="M175.1 201.932C175.014 201.932 174.93 201.914 174.854 201.88C174.778 201.845 174.713 201.796 174.664 201.735L171.437 197.75C171.333 197.62 171.276 197.466 171.275 197.308C171.274 197.15 171.329 196.996 171.431 196.866L174.661 192.784C174.725 192.703 174.818 192.641 174.926 192.609C175.034 192.576 175.15 192.575 175.259 192.604C175.368 192.633 175.463 192.692 175.531 192.772C175.598 192.852 175.635 192.948 175.635 193.047V201.467C175.635 201.566 175.599 201.662 175.532 201.742C175.465 201.821 175.37 201.88 175.262 201.91C175.209 201.924 175.155 201.932 175.1 201.932Z" fill="#3F3D56"/>
<path d="M286.49 201.203V193.09C286.49 192.875 286.583 192.669 286.748 192.517C286.913 192.365 287.136 192.279 287.37 192.279H287.478C287.712 192.279 287.935 192.365 288.1 192.517C288.265 192.669 288.358 192.875 288.358 193.09V201.203C288.358 201.419 288.265 201.625 288.1 201.777C287.935 201.929 287.712 202.015 287.478 202.015H287.37C287.136 202.015 286.913 201.929 286.748 201.777C286.583 201.625 286.49 201.419 286.49 201.203Z" fill="#3F3D56"/>
<path d="M280.641 201.91C280.533 201.88 280.438 201.821 280.371 201.742C280.304 201.662 280.268 201.566 280.268 201.467V193.047C280.268 192.948 280.305 192.852 280.373 192.772C280.44 192.692 280.535 192.633 280.644 192.604C280.753 192.575 280.87 192.576 280.977 192.609C281.085 192.641 281.178 192.703 281.243 192.784L284.472 196.866C284.575 196.996 284.629 197.15 284.628 197.308C284.627 197.466 284.571 197.62 284.467 197.75L281.239 201.735C281.19 201.796 281.125 201.845 281.049 201.88C280.973 201.914 280.889 201.932 280.804 201.932C280.749 201.932 280.694 201.924 280.641 201.91Z" fill="#3F3D56"/>
<path d="M287.921 176.323H168.024V177.405H287.921V176.323Z" fill="#CBCBCB"/>
<path d="M249.224 176.323H168.024V177.405H249.224V176.323Z" fill="#6C63FF"/>
<path d="M249.224 180.65C251.017 180.65 252.472 178.955 252.472 176.864C252.472 174.773 251.017 173.078 249.224 173.078C247.43 173.078 245.976 174.773 245.976 176.864C245.976 178.955 247.43 180.65 249.224 180.65Z" fill="#6C63FF"/>
<path d="M227.952 96.6032C225.805 96.6007 223.747 95.7184 222.229 94.1498C220.711 92.5813 219.857 90.4546 219.855 88.2363V70.0683C219.855 67.8493 220.708 65.7211 222.226 64.152C223.745 62.5829 225.804 61.7014 227.952 61.7014C230.099 61.7014 232.158 62.5829 233.677 64.152C235.195 65.7211 236.048 67.8493 236.048 70.0683V88.2363C236.046 90.4546 235.192 92.5813 233.674 94.1498C232.156 95.7184 230.098 96.6007 227.952 96.6032Z" fill="#6C63FF"/>
<path d="M227.88 105.516C223.328 105.51 218.964 103.4 215.746 99.6481C212.527 95.8964 210.717 90.8097 210.712 85.504C210.712 85.0737 210.858 84.661 211.119 84.3567C211.38 84.0524 211.734 83.8814 212.104 83.8814C212.473 83.8814 212.827 84.0524 213.088 84.3567C213.349 84.661 213.496 85.0737 213.496 85.504C213.496 89.9509 215.011 94.2156 217.709 97.3601C220.406 100.504 224.065 102.271 227.88 102.271C231.694 102.271 235.353 100.504 238.051 97.3601C240.748 94.2156 242.264 89.9509 242.264 85.504C242.264 85.0737 242.41 84.661 242.671 84.3567C242.932 84.0524 243.286 83.8814 243.656 83.8814C244.025 83.8814 244.379 84.0524 244.64 84.3567C244.901 84.661 245.048 85.0737 245.048 85.504C245.042 90.8097 243.232 95.8964 240.014 99.6481C236.795 103.4 232.431 105.51 227.88 105.516Z" fill="#6C63FF"/>
<path d="M227.88 123.906C227.51 123.906 227.156 123.735 226.895 123.43C226.634 123.126 226.488 122.713 226.488 122.283V104.434C226.488 104.004 226.634 103.591 226.895 103.287C227.156 102.983 227.51 102.812 227.88 102.812C228.249 102.812 228.603 102.983 228.864 103.287C229.125 103.591 229.272 104.004 229.272 104.434V122.283C229.272 122.713 229.125 123.126 228.864 123.43C228.603 123.735 228.249 123.906 227.88 123.906Z" fill="#6C63FF"/>
<path d="M224.632 69.2313C225.144 69.2313 225.56 68.747 225.56 68.1496C225.56 67.5521 225.144 67.0678 224.632 67.0678C224.119 67.0678 223.704 67.5521 223.704 68.1496C223.704 68.747 224.119 69.2313 224.632 69.2313Z" fill="white"/>
<path d="M224.632 79.5078C225.144 79.5078 225.56 79.0235 225.56 78.4261C225.56 77.8287 225.144 77.3444 224.632 77.3444C224.119 77.3444 223.704 77.8287 223.704 78.4261C223.704 79.0235 224.119 79.5078 224.632 79.5078Z" fill="white"/>
<path d="M231.128 73.0174C231.64 73.0174 232.056 72.5331 232.056 71.9357C232.056 71.3383 231.64 70.8539 231.128 70.8539C230.615 70.8539 230.2 71.3383 230.2 71.9357C230.2 72.5331 230.615 73.0174 231.128 73.0174Z" fill="white"/>
<path d="M238.906 124.196H216.853C216.484 124.196 216.13 124.025 215.869 123.721C215.608 123.417 215.461 123.004 215.461 122.574C215.461 122.143 215.608 121.731 215.869 121.426C216.13 121.122 216.484 120.951 216.853 120.951H238.906C239.275 120.951 239.629 121.122 239.89 121.426C240.151 121.731 240.298 122.143 240.298 122.574C240.298 123.004 240.151 123.417 239.89 123.721C239.629 124.025 239.275 124.196 238.906 124.196Z" fill="#6C63FF"/>
<path d="M377.273 244.057C376.749 243.608 376.211 243.191 375.663 242.796C375.334 242.548 374.995 242.315 374.656 242.088C374.61 242.055 374.564 242.023 374.517 241.99C372.817 240.867 371.031 239.933 369.181 239.2C367.387 238.486 365.54 237.969 363.664 237.653C363.635 237.645 363.606 237.639 363.576 237.636C363.07 237.55 362.56 237.48 362.045 237.431C361.688 237.388 361.326 237.355 360.964 237.339C360.5 237.301 360.036 237.28 359.562 237.274C359.423 237.269 359.279 237.269 359.136 237.269C357.62 237.268 356.106 237.396 354.607 237.653C354.277 237.707 353.948 237.766 353.623 237.831C353.405 237.88 353.192 237.929 352.978 237.977C352.092 238.188 351.221 238.439 350.366 238.729C349.976 238.864 349.591 239.005 349.206 239.156C348.686 239.356 348.176 239.573 347.67 239.811C347.22 240.011 346.779 240.233 346.343 240.46C342.75 242.347 339.495 245.008 336.748 248.302C335.662 249.596 334.662 250.982 333.755 252.451C333.323 253.149 332.913 253.866 332.525 254.604C331.808 255.949 331.169 257.35 330.613 258.795C329.478 261.733 328.685 264.834 328.256 268.017C328.002 269.899 327.875 271.802 327.876 273.707C327.876 274.053 327.88 274.399 327.89 274.74C328.072 282.636 330.466 290.246 334.706 296.407C335.161 297.078 335.639 297.727 336.135 298.354C336.632 298.982 337.147 299.593 337.68 300.177C338.334 300.902 339.012 301.583 339.712 302.238C344.016 306.23 349.148 308.824 354.589 309.758C360.03 310.691 365.586 309.931 370.694 307.555C371.399 307.23 372.09 306.879 372.763 306.489C372.262 305.851 371.786 305.187 371.334 304.499C370.661 304.867 369.979 305.202 369.279 305.505C364.44 307.602 359.209 308.16 354.124 307.121C349.038 306.083 344.282 303.484 340.344 299.593C339.731 298.987 339.132 298.349 338.566 297.684C337.931 296.943 337.323 296.169 336.752 295.363C336.26 294.677 335.787 293.963 335.346 293.227C331.594 287.034 329.734 279.551 330.065 271.979C330.396 264.407 332.898 257.184 337.17 251.467C337.43 251.115 337.694 250.774 337.963 250.444C338.515 249.768 339.086 249.114 339.68 248.492C342.471 245.558 345.723 243.282 349.257 241.79C349.289 241.774 349.327 241.763 349.359 241.747C349.47 241.698 349.586 241.655 349.702 241.606C350.804 241.166 351.928 240.803 353.066 240.519C353.479 240.417 353.897 240.325 354.315 240.243C354.324 240.243 354.328 240.238 354.338 240.238C355.517 240.013 356.707 239.87 357.901 239.811C358.31 239.789 358.723 239.778 359.136 239.778C359.646 239.778 360.161 239.795 360.667 239.832C361.028 239.849 361.395 239.881 361.752 239.919C362.068 239.951 362.384 239.989 362.694 240.038C366.309 240.55 369.808 241.857 373.004 243.889C373.829 244.41 374.632 244.978 375.408 245.593C376.03 246.085 376.637 246.604 377.222 247.145C377.825 246.631 378.452 246.144 379.092 245.69C378.503 245.117 377.895 244.565 377.273 244.057Z" fill="#3F3D56"/>
<path d="M363.456 189.566L361.768 223.022H328.604C325.726 222.99 322.943 224.217 320.803 226.461C318.882 228.505 317.689 231.315 317.458 234.335L321.242 235.906C321.235 235.399 321.28 234.893 321.375 234.398C321.637 233.07 322.363 230.654 324.314 229.297C325.171 228.728 326.144 228.439 327.131 228.459H364.721L366.834 193.528H379.492V189.566H363.456Z" fill="#3F3D56"/>
<path d="M396.376 206.309L396.367 206.574L395.337 238.145L395.253 240.654C394.952 240.644 394.65 240.638 394.344 240.638C393.75 240.638 393.161 240.66 392.576 240.703C389.71 240.897 386.885 241.591 384.196 242.764C383.5 243.067 382.813 243.402 382.145 243.765C381.095 244.333 380.075 244.976 379.092 245.69C378.452 246.144 377.825 246.631 377.222 247.145C374.655 249.331 372.409 251.989 370.573 255.015C369.93 256.068 369.342 257.166 368.815 258.303L366.36 258.33L349.6 258.546L339.87 258.676H339.866L333.008 258.763L330.613 258.795H330.442L328.256 258.822L323.537 258.887L321.343 258.914L318.299 258.952L320.197 238.042L336.748 239.108L339.68 239.297L340.45 239.346L347.67 239.811L349.22 239.908L353.052 240.157L354.338 240.238L360.569 240.638L360.667 239.832L360.852 238.275L360.964 237.339L361.562 232.303L361.752 230.724L362.022 228.458V228.442L362.045 228.236L362.667 223.022L363.172 218.809L363.641 214.888V214.871L364.388 208.57L364.513 207.537L365.989 207.478L371.724 207.261L374.257 207.164L382.224 206.856L393.337 206.428H393.341L394.26 206.39L394.478 206.38H394.483L396.376 206.309Z" fill="#2F2E41"/>
<path d="M394.344 281.263C397.519 281.263 400.093 278.263 400.093 274.562C400.093 270.861 397.519 267.86 394.344 267.86C391.169 267.86 388.595 270.861 388.595 274.562C388.595 278.263 391.169 281.263 394.344 281.263Z" fill="#3F3D56"/>
<path d="M356.035 279.324C358.218 279.324 359.988 277.262 359.988 274.717C359.988 272.173 358.218 270.11 356.035 270.11C353.852 270.11 352.083 272.173 352.083 274.717C352.083 277.262 353.852 279.324 356.035 279.324Z" fill="#3F3D56"/>
<path d="M382.781 240.714C382.08 241.033 381.389 241.39 380.712 241.774C379.525 242.449 378.376 243.211 377.273 244.057C376.633 244.538 376.011 245.05 375.408 245.593C372.476 248.201 369.96 251.39 367.975 255.015H370.573C372.409 251.989 374.655 249.331 377.222 247.145C377.825 246.631 378.452 246.144 379.092 245.69C380.075 244.976 381.095 244.333 382.145 243.765C382.813 243.402 383.5 243.067 384.196 242.764C386.885 241.591 389.71 240.897 392.576 240.703V238.183C389.215 238.4 385.906 239.255 382.781 240.714ZM365.72 259.931H368.091C368.318 259.379 368.559 258.833 368.815 258.303L366.36 258.33C366.132 258.855 365.919 259.39 365.72 259.931ZM396.376 238.204C396.033 238.172 395.685 238.156 395.337 238.145C395.007 238.129 394.678 238.123 394.344 238.123C393.75 238.123 393.161 238.145 392.576 238.183C389.215 238.4 385.906 239.255 382.781 240.714C382.08 241.033 381.389 241.39 380.712 241.774C379.525 242.449 378.376 243.211 377.273 244.057C376.633 244.538 376.011 245.05 375.408 245.593C371.6 248.981 368.505 253.337 366.36 258.33C366.132 258.855 365.919 259.39 365.72 259.931C365.032 261.741 364.477 263.616 364.059 265.535C363.782 266.778 363.566 268.038 363.409 269.31C363.27 270.424 363.175 271.551 363.126 272.69C363.098 273.312 363.084 273.934 363.084 274.562C363.085 275.942 363.151 277.322 363.284 278.694C363.909 285.081 365.977 291.16 369.279 296.31C369.728 297.013 370.202 297.7 370.694 298.36C374.059 302.905 378.336 306.41 383.144 308.563C387.952 310.716 393.142 311.451 398.253 310.701C403.363 309.952 408.235 307.742 412.436 304.268C416.637 300.794 420.036 296.163 422.33 290.788C424.625 285.413 425.745 279.46 425.589 273.459C425.434 267.457 424.009 261.594 421.44 256.39C418.871 251.186 415.239 246.802 410.866 243.63C406.494 240.457 401.516 238.593 396.376 238.204H396.376ZM394.344 308.485C390.275 308.487 386.251 307.492 382.533 305.564C378.815 303.636 375.486 300.819 372.763 297.294C372.262 296.656 371.786 295.993 371.334 295.304C367.593 289.695 365.467 282.852 365.26 275.752C365.246 275.357 365.242 274.962 365.242 274.562C365.237 269.497 366.211 264.497 368.091 259.931C368.318 259.379 368.559 258.833 368.815 258.303C369.342 257.166 369.93 256.068 370.573 255.015C372.409 251.989 374.655 249.331 377.222 247.145C377.825 246.631 378.452 246.144 379.092 245.69C380.075 244.976 381.095 244.333 382.145 243.765C382.813 243.402 383.5 243.067 384.196 242.764C386.885 241.591 389.71 240.897 392.576 240.703C393.161 240.66 393.75 240.638 394.344 240.638C394.65 240.638 394.952 240.644 395.253 240.655C395.629 240.671 396.005 240.692 396.376 240.719C403.901 241.332 410.928 245.327 415.976 251.861C421.023 258.395 423.697 266.959 423.433 275.746C423.17 284.534 419.989 292.859 414.563 298.966C409.136 305.074 401.887 308.486 394.344 308.485ZM365.26 275.752C365.246 275.357 365.242 274.962 365.242 274.562C365.237 269.497 366.211 264.497 368.091 259.931H365.72C365.032 261.741 364.477 263.616 364.059 265.535C364.13 265.885 364.165 266.245 364.165 266.605C364.166 267.578 363.901 268.525 363.409 269.31C363.27 270.424 363.175 271.551 363.126 272.69C363.098 273.312 363.084 273.934 363.084 274.562C363.085 275.942 363.151 277.322 363.284 278.694C363.909 285.081 365.977 291.16 369.279 296.31C369.979 296.007 370.661 295.672 371.334 295.304C367.593 289.695 365.467 282.852 365.26 275.752Z" fill="#3F3D56"/>
<path opacity="0.1" d="M376.485 223.492C376.754 223.492 376.973 223.237 376.973 222.922C376.973 222.607 376.754 222.352 376.485 222.352C376.215 222.352 375.996 222.607 375.996 222.922C375.996 223.237 376.215 223.492 376.485 223.492Z" fill="black"/>
<path opacity="0.1" d="M374.825 232.928C375.095 232.928 375.313 232.673 375.313 232.358C375.313 232.043 375.095 231.788 374.825 231.788C374.555 231.788 374.336 232.043 374.336 232.358C374.336 232.673 374.555 232.928 374.825 232.928Z" fill="black"/>
<path d="M312.778 292.078L308.373 292.077L306.277 272.272L312.778 272.272L312.778 292.078Z" fill="#FFB7B7"/>
<path d="M312.777 290.404L308.198 290.398H305.228C304.502 290.398 303.782 290.564 303.111 290.888C302.44 291.212 301.83 291.687 301.316 292.286C300.803 292.885 300.395 293.595 300.118 294.378C299.84 295.16 299.697 295.999 299.697 296.845V297.056H313.9V290.404H312.777Z" fill="#2F2E41"/>
<path d="M327.364 294.546L322.959 294.441L321.211 274.59L327.712 274.745L327.364 294.546Z" fill="#FFB7B7"/>
<path d="M327.393 292.87L322.809 292.762L319.844 292.692C319.118 292.673 318.396 292.821 317.719 293.128C317.042 293.435 316.424 293.894 315.9 294.48C315.376 295.066 314.956 295.766 314.665 296.542C314.373 297.317 314.216 298.152 314.202 298.998L314.197 299.209L328.4 299.55L328.423 298.181L328.516 292.897L327.393 292.87Z" fill="#2F2E41"/>
<path d="M342.706 223.598L317.257 233.383C315.745 233.817 314.37 234.744 313.293 236.054C312.216 237.365 311.48 239.005 311.172 240.784L303.484 285.243L315.808 285.467L323.598 248.104L340.416 240.083L327.529 248.776C326.366 249.852 325.466 251.265 324.919 252.874L317.335 285.87H330.928L338.653 259.484L372.179 237.207L342.706 223.598Z" fill="#2F2E41"/>
<path d="M368.378 177.182L352.267 179.462C352.267 179.462 342.809 184.406 342.809 186.919C342.809 189.432 339.045 225.453 339.045 225.453C339.045 225.453 335.696 227.862 348.774 232.102C361.852 236.341 364.199 242.194 364.199 242.194L365.195 247.084L380.177 240.948L382.692 199.065L385.562 182.757L375.865 176.449L368.378 177.182Z" fill="#CBCBCB"/>
<path d="M361.466 173.533C367.827 173.533 372.984 167.523 372.984 160.108C372.984 152.693 367.827 146.683 361.466 146.683C355.105 146.683 349.949 152.693 349.949 160.108C349.949 167.523 355.105 173.533 361.466 173.533Z" fill="#FFB7B7"/>
<path d="M369.361 146.326L369.59 144.887L366.505 144.22C366.505 144.22 362.142 139.557 357.137 142.937C352.132 146.317 349.938 148.074 349.938 148.074L347.629 150.55L349.365 151.67L347.171 153.427L349.022 153.827L347.444 155.717L350.043 161.859C350.043 161.859 350.529 156.385 354.23 157.186C357.931 157.986 363.166 153.168 363.166 153.168L371.16 163.08C371.16 163.08 371.227 158.652 373.387 159.109C373.387 159.109 376.032 148.513 369.361 146.326Z" fill="#2F2E41"/>
<path d="M372.319 205.834C372.71 205.151 373.225 204.577 373.827 204.151C374.429 203.725 375.104 203.459 375.804 203.37C376.504 203.281 377.212 203.372 377.879 203.637C378.545 203.902 379.154 204.333 379.662 204.902L394.909 195.838L393.921 206.142L379.593 213.169C378.717 214.1 377.578 214.625 376.393 214.643C375.207 214.661 374.057 214.171 373.161 213.267C372.264 212.363 371.684 211.107 371.528 209.737C371.373 208.367 371.655 206.978 372.319 205.834Z" fill="#FFB7B7"/>
<path d="M381.822 183.545L385.563 182.757L405.519 193.161L406.877 203.356L394.909 207.023L388.646 197.635L379.48 200.6L374.069 191.108L381.822 183.545Z" fill="#CBCBCB"/>
<path d="M364.026 195.219L363.563 218.792C363.551 219.398 363.963 219.9 364.483 219.914L373.06 220.143C373.58 220.157 374.011 219.677 374.023 219.071L374.486 195.498C374.498 194.892 374.086 194.389 373.566 194.376L364.989 194.147C364.469 194.133 364.038 194.613 364.026 195.219Z" fill="#3F3D56"/>
<path d="M369.277 203.766C370.186 203.766 370.923 202.907 370.923 201.848C370.923 200.789 370.186 199.931 369.277 199.931C368.369 199.931 367.632 200.789 367.632 201.848C367.632 202.907 368.369 203.766 369.277 203.766Z" fill="white"/>
<path d="M364.331 208.538C363.716 208.222 363.049 208.066 362.378 208.083C361.706 208.1 361.046 208.288 360.443 208.635C359.841 208.981 359.311 209.477 358.891 210.088C358.471 210.699 358.171 211.41 358.012 212.171L341.756 213.979L347.079 221.682L361.7 218.784C362.814 219.011 363.961 218.753 364.923 218.06C365.885 217.367 366.595 216.286 366.919 215.023C367.244 213.76 367.159 212.402 366.682 211.207C366.205 210.012 365.368 209.062 364.331 208.538Z" fill="#FFB7B7"/>
<path d="M347.804 190.506L346.953 208.951L350.147 210.128L348.774 222.986L340.573 224.431L343.996 191.142L347.804 190.506Z" fill="#CBCBCB"/>
<path d="M395.109 189.564L394.789 195.908L394.664 198.386V198.418L394.274 206.071L394.26 206.39L393.42 223.022H360.138C357.3 223.023 354.563 224.248 352.454 226.462C352.107 226.831 351.781 227.227 351.48 227.647C351.292 227.906 351.115 228.177 350.951 228.458C350.738 228.804 350.543 229.163 350.366 229.534C349.95 230.411 349.63 231.345 349.415 232.314C349.391 232.392 349.373 232.472 349.359 232.552C349.234 233.139 349.149 233.735 349.104 234.337L349.206 239.156L349.22 239.908L349.257 241.79L349.47 252.294L349.6 258.546L349.721 264.437C346.672 264.35 341.434 266.232 338.404 278.845C337.736 281.625 337.197 284.054 336.752 286.169C336.525 287.245 336.319 288.242 336.135 289.16C335.824 290.728 335.569 292.075 335.346 293.227C335.1 294.525 334.896 295.569 334.706 296.407C334.042 299.252 333.513 299.615 331.838 298.879C330.721 298.523 329.578 298.289 328.423 298.181C324.985 297.705 319.663 297.267 314.536 296.916C314.322 296.905 314.114 296.889 313.9 296.872C306.583 296.375 299.85 296.061 299.85 296.061V300.972L331.838 304.326C331.838 304.326 335.137 306.051 337.68 300.177C338.028 299.373 338.324 298.539 338.566 297.684C338.729 297.148 338.882 296.57 339.026 295.948C339.253 294.985 339.482 294.017 339.712 293.043C339.921 292.162 340.135 291.274 340.344 290.398C341.722 284.622 343.048 279.197 343.828 276.076C344.125 274.814 344.656 273.643 345.384 272.647C346.112 271.65 347.019 270.853 348.041 270.31C348.755 269.92 349.535 269.722 350.324 269.732L354.101 269.537L353.72 259.931H368.091C368.318 259.379 368.559 258.833 368.815 258.303C369.342 257.166 369.93 256.068 370.573 255.015H353.558L353.377 249.698L353.066 240.519L353.052 240.157L352.978 237.977L352.908 235.906C352.899 235.393 352.942 234.881 353.039 234.38C353.076 234.191 353.122 233.975 353.182 233.748C353.421 232.777 353.804 231.864 354.315 231.049C354.675 230.474 355.112 229.97 355.609 229.556C355.727 229.456 355.849 229.364 355.976 229.28C356.698 228.803 357.504 228.522 358.333 228.458C358.484 228.442 358.636 228.436 358.788 228.442H392.576V240.703C393.16 240.66 393.75 240.638 394.344 240.638C394.65 240.638 394.952 240.644 395.253 240.655C395.629 240.671 396.005 240.692 396.376 240.719V228.323L397.712 206.163L398.478 193.512H411.14L411.145 189.564H395.109Z" fill="#3F3D56"/>
<path d="M87.5602 203.683C88.2126 203.304 88.7859 202.764 89.2397 202.099C89.6935 201.434 90.0167 200.662 90.1866 199.836C90.3566 199.01 90.3691 198.15 90.2233 197.318C90.0774 196.486 89.7769 195.701 89.3427 195.019L93.07 152.539H85.0149L82.0527 194.018C81.1179 194.944 80.507 196.238 80.3358 197.654C80.1647 199.071 80.4451 200.511 81.1239 201.702C81.8028 202.893 82.833 203.753 84.0192 204.118C85.2054 204.483 86.4654 204.328 87.5602 203.683V203.683Z" fill="#9F616A"/>
<path d="M94.9562 129.095C101.25 129.095 106.352 123.148 106.352 115.811C106.352 108.474 101.25 102.526 94.9562 102.526C88.6622 102.526 83.5599 108.474 83.5599 115.811C83.5599 123.148 88.6622 129.095 94.9562 129.095Z" fill="#9F616A"/>
<path d="M97.1017 177.278C96.6455 177.278 96.202 177.103 95.8391 176.781C95.4763 176.458 95.2142 176.006 95.093 175.494C94.1799 171.627 91.8044 165.089 88.0326 156.06C87.1816 154.019 86.7103 151.792 86.6497 149.524C86.5891 147.256 86.9406 144.998 87.6811 142.9C88.4216 140.801 89.5344 138.909 90.9465 137.346C92.3586 135.784 94.038 134.588 95.8746 133.836C97.6151 133.119 99.4612 132.817 101.304 132.947C103.146 133.077 104.947 133.636 106.601 134.592C108.255 135.548 109.727 136.88 110.932 138.511C112.136 140.142 113.047 142.037 113.612 144.086C116.535 154.77 116.394 166.215 116.198 170.639C116.173 171.172 116 171.681 115.704 172.087C115.408 172.494 115.005 172.777 114.558 172.892L97.5495 177.221C97.4024 177.259 97.2523 177.278 97.1017 177.278Z" fill="#6C63FF"/>
<path d="M113.572 303.424H119.261L121.967 277.847H113.571L113.572 303.424Z" fill="#9F616A"/>
<path d="M112.122 309.852L112.121 301.259L123.324 301.259C125.218 301.258 127.034 302.135 128.373 303.696C129.712 305.256 130.464 307.373 130.464 309.58V309.851L112.122 309.852Z" fill="#2F2E41"/>
<path d="M56.6901 294.83L61.6749 298.025L74.6182 277.132L67.261 272.418L56.6901 294.83Z" fill="#9F616A"/>
<path d="M68.8354 309.949L52.7621 299.648L56.3135 292.118L66.1304 298.41C67.788 299.475 69.0156 301.263 69.5436 303.382C70.0717 305.501 69.8572 307.777 68.9472 309.712L68.8354 309.949Z" fill="#2F2E41"/>
<path d="M113.307 289.228C112.8 289.227 112.31 289.012 111.93 288.622C111.549 288.231 111.303 287.693 111.238 287.107L104.124 223.204C104.093 222.921 103.985 222.658 103.818 222.45C103.65 222.243 103.43 222.103 103.19 222.05C102.95 221.996 102.701 222.033 102.48 222.154C102.259 222.276 102.076 222.475 101.958 222.725L72.3088 285.428C72.0642 285.94 71.67 286.333 71.1981 286.535C70.7261 286.737 70.2077 286.735 69.737 286.529L63.2744 283.658C63.0145 283.543 62.7769 283.368 62.5758 283.144C62.3746 282.92 62.2138 282.652 62.1029 282.355C61.992 282.057 61.9332 281.737 61.9299 281.413C61.9266 281.089 61.979 280.767 62.0838 280.467L82.6224 221.654C82.6744 221.505 82.7097 221.348 82.7273 221.188C85.5091 196.09 92.5871 183.327 94.69 180.013C94.8436 179.769 94.9447 179.486 94.9848 179.187C95.0248 178.889 95.0026 178.583 94.9201 178.297L94.631 177.286C94.5155 176.884 94.4918 176.455 94.5623 176.04C94.6328 175.625 94.795 175.238 95.0328 174.918C102.611 164.857 115.818 170.347 115.951 170.404L116.017 170.432L116.058 170.498C130.868 194.174 125.392 271.07 124.144 286.244C124.098 286.815 123.88 287.347 123.529 287.748C123.178 288.149 122.716 288.392 122.226 288.435L113.469 289.221C113.415 289.226 113.36 289.228 113.307 289.228Z" fill="#2F2E41"/>
<path d="M139.261 131.242C139.204 131.534 139.167 131.83 139.15 132.129L119.218 145.533L114.373 142.282L109.208 150.163L117.305 156.89C117.959 157.434 118.747 157.715 119.55 157.693C120.353 157.67 121.128 157.344 121.758 156.764L142.312 137.863C143.24 138.263 144.25 138.325 145.208 138.039C146.166 137.754 147.027 137.135 147.677 136.266C148.326 135.396 148.733 134.317 148.843 133.171C148.953 132.025 148.762 130.867 148.294 129.852C147.825 128.836 147.103 128.01 146.223 127.485C145.343 126.959 144.346 126.759 143.365 126.91C142.385 127.061 141.467 127.556 140.733 128.33C140 129.104 139.487 130.119 139.261 131.242H139.261Z" fill="#9F616A"/>
<path d="M118.551 146.168L112.109 155.9C111.926 156.177 111.693 156.405 111.428 156.567C111.162 156.73 110.87 156.824 110.57 156.844C110.271 156.863 109.971 156.806 109.692 156.678C109.412 156.55 109.16 156.354 108.952 156.102L101.659 147.274C100.448 146.173 99.66 144.557 99.4694 142.781C99.2788 141.004 99.7008 139.212 100.643 137.797C101.585 136.383 102.97 135.462 104.493 135.236C106.017 135.011 107.556 135.5 108.771 136.595L117.918 142.557C118.179 142.728 118.407 142.962 118.584 143.245C118.761 143.527 118.884 143.851 118.944 144.193C119.004 144.536 119 144.89 118.932 145.23C118.864 145.571 118.734 145.891 118.551 146.168L118.551 146.168Z" fill="#6C63FF"/>
<path d="M93.5826 163.076L83.2049 160.892C82.9096 160.83 82.6293 160.694 82.383 160.495C82.1368 160.295 81.9303 160.035 81.7778 159.734C81.6253 159.433 81.5302 159.097 81.4992 158.749C81.4681 158.401 81.5017 158.05 81.5977 157.718L84.9619 146.107C85.2432 144.348 86.1115 142.79 87.3764 141.776C88.6413 140.762 90.1997 140.374 91.7097 140.697C93.2197 141.02 94.5582 142.028 95.4316 143.5C96.305 144.972 96.642 146.787 96.3688 148.548L96.0406 160.758C96.0311 161.108 95.9571 161.451 95.8236 161.764C95.6901 162.077 95.5002 162.353 95.267 162.573C95.0337 162.793 94.7625 162.952 94.4719 163.039C94.1812 163.126 93.8779 163.139 93.5826 163.076Z" fill="#6C63FF"/>
<path d="M96.7599 112.755C99.689 115.092 103.535 117.494 106.527 115.006C108.491 113.372 109.11 110.346 108.313 107.69C106.881 102.915 102.945 100.813 99.1815 99.2017C94.2889 97.107 88.9616 95.4404 83.9108 96.9406C78.86 98.4408 74.3962 104.141 75.308 110.123C76.0412 114.934 79.934 118.937 79.3814 123.78C78.8252 128.654 74.1225 131.22 69.9708 132.091C65.8191 132.962 61.1732 133.242 58.1895 136.718C54.3833 141.153 55.3338 149.079 58.9153 153.761C62.4968 158.443 67.9015 160.565 73.1386 162.008C80.0775 163.92 87.5825 164.924 94.1727 161.752C100.763 158.579 105.891 150.04 103.982 142.032C103.176 138.649 101.276 135.791 99.4404 133.008C97.6045 130.225 95.7455 127.314 95.0452 123.9C94.4616 121.055 94.8935 117.751 96.5123 115.617C96.8067 115.243 96.992 114.77 97.0415 114.266C97.0911 113.762 97.0024 113.253 96.7881 112.811L96.7599 112.755Z" fill="#2F2E41"/>
<path d="M177.248 311H0.464C0.34094 311 0.222919 310.943 0.135902 310.842C0.0488852 310.74 0 310.603 0 310.459C0 310.316 0.0488852 310.178 0.135902 310.077C0.222919 309.975 0.34094 309.918 0.464 309.918H177.248C177.371 309.918 177.489 309.975 177.576 310.077C177.663 310.178 177.712 310.316 177.712 310.459C177.712 310.603 177.663 310.74 177.576 310.842C177.489 310.943 177.371 311 177.248 311Z" fill="#CBCBCB"/>
<path d="M463.536 311H286.752C286.629 311 286.511 310.943 286.424 310.842C286.337 310.74 286.288 310.603 286.288 310.459C286.288 310.316 286.337 310.178 286.424 310.077C286.511 309.975 286.629 309.918 286.752 309.918H463.536C463.659 309.918 463.777 309.975 463.864 310.077C463.951 310.178 464 310.316 464 310.459C464 310.603 463.951 310.74 463.864 310.842C463.777 310.943 463.659 311 463.536 311Z" fill="#CBCBCB"/>
</svg>
