<svg width="663" height="451" viewBox="0 0 663 451" fill="none" xmlns="http://www.w3.org/2000/svg">
<g clip-path="url(#clip0)">
<path opacity="0.1" d="M272.478 444.356C317.292 419.568 368.485 411.647 418.515 422.271C489.408 437.335 578.507 431.43 595.765 315.211C625.24 116.724 501.723 64.3361 501.723 64.3361C501.723 64.3361 419.585 57.4607 371.014 31.2841C302.023 -5.91181 223.163 -10.6485 153.823 20.8227C109.48 40.9317 72.9634 68.9333 66.7242 107.379C49.28 214.898 77.9291 274.138 24.3349 309.236C-29.2594 344.334 16.5432 440.694 57.63 437.358C98.7168 434.022 191.56 397.425 227.74 439.817C240.59 454.852 256.848 453.004 272.478 444.356Z" fill="#6C63FF"/>
<path opacity="0.1" d="M485.105 87.2999H300.196V100.086H485.105V87.2999Z" fill="#6C63FF"/>
<path opacity="0.1" d="M485.105 142.513H300.196V155.299H485.105V142.513Z" fill="#6C63FF"/>
<path opacity="0.1" d="M485.105 200.05H300.196V212.836H485.105V200.05Z" fill="#6C63FF"/>
<path opacity="0.1" d="M328.107 54.1723H316.478V87.2999H328.107V54.1723Z" fill="#6C63FF"/>
<path opacity="0.1" d="M328.107 59.403H316.478V61.7277H328.107V59.403Z" fill="#6C63FF"/>
<path opacity="0.1" d="M328.107 77.4197H316.478V79.7445H328.107V77.4197Z" fill="#6C63FF"/>
<path opacity="0.1" d="M345.551 54.1723H333.922V87.2999H345.551V54.1723Z" fill="#6C63FF"/>
<path opacity="0.1" d="M345.551 59.403H333.922V61.7277H345.551V59.403Z" fill="#6C63FF"/>
<path opacity="0.1" d="M345.551 77.4197H333.922V79.7445H345.551V77.4197Z" fill="#6C63FF"/>
<path opacity="0.1" d="M362.995 54.1723H351.366V87.2999H362.995V54.1723Z" fill="#6C63FF"/>
<path opacity="0.1" d="M362.995 59.403H351.366V61.7277H362.995V59.403Z" fill="#6C63FF"/>
<path opacity="0.1" d="M362.995 77.4197H351.366V79.7445H362.995V77.4197Z" fill="#6C63FF"/>
<path opacity="0.1" d="M380.44 54.1723H368.81V87.2999H380.44V54.1723Z" fill="#6C63FF"/>
<path opacity="0.1" d="M380.44 59.403H368.81V61.7277H380.44V59.403Z" fill="#6C63FF"/>
<path opacity="0.1" d="M380.44 77.4197H368.81V79.7445H380.44V77.4197Z" fill="#6C63FF"/>
<path opacity="0.1" d="M397.884 54.1723H386.254V87.2999H397.884V54.1723Z" fill="#6C63FF"/>
<path opacity="0.1" d="M397.884 59.403H386.254V61.7277H397.884V59.403Z" fill="#6C63FF"/>
<path opacity="0.1" d="M397.884 77.4197H386.254V79.7445H397.884V77.4197Z" fill="#6C63FF"/>
<path opacity="0.1" d="M415.328 54.1723H403.698V87.2999H415.328V54.1723Z" fill="#6C63FF"/>
<path opacity="0.1" d="M415.328 59.403H403.698V61.7277H415.328V59.403Z" fill="#6C63FF"/>
<path opacity="0.1" d="M415.328 77.4197H403.698V79.7445H415.328V77.4197Z" fill="#6C63FF"/>
<path opacity="0.1" d="M432.772 54.1723H421.143V87.2999H432.772V54.1723Z" fill="#6C63FF"/>
<path opacity="0.1" d="M432.772 59.403H421.143V61.7277H432.772V59.403Z" fill="#6C63FF"/>
<path opacity="0.1" d="M432.772 77.4197H421.143V79.7445H432.772V77.4197Z" fill="#6C63FF"/>
<path opacity="0.1" d="M425.887 166.05L415.492 171.26L430.348 200.874L440.743 195.664L425.887 166.05Z" fill="#6C63FF"/>
<path opacity="0.1" d="M428.236 170.73L417.841 175.94L418.883 178.018L429.279 172.808L428.236 170.73Z" fill="#6C63FF"/>
<path opacity="0.1" d="M436.311 186.837L425.915 192.047L426.958 194.126L437.354 188.916L436.311 186.837Z" fill="#6C63FF"/>
<path opacity="0.1" d="M328.107 109.966H316.478V143.094H328.107V109.966Z" fill="#6C63FF"/>
<path opacity="0.1" d="M328.107 115.197H316.478V117.522H328.107V115.197Z" fill="#6C63FF"/>
<path opacity="0.1" d="M328.107 133.214H316.478V135.538H328.107V133.214Z" fill="#6C63FF"/>
<path opacity="0.1" d="M345.551 109.966H333.922V143.094H345.551V109.966Z" fill="#6C63FF"/>
<path opacity="0.1" d="M345.551 115.197H333.922V117.522H345.551V115.197Z" fill="#6C63FF"/>
<path opacity="0.1" d="M345.551 133.214H333.922V135.538H345.551V133.214Z" fill="#6C63FF"/>
<path opacity="0.1" d="M362.995 109.966H351.366V143.094H362.995V109.966Z" fill="#6C63FF"/>
<path opacity="0.1" d="M362.995 115.197H351.366V117.522H362.995V115.197Z" fill="#6C63FF"/>
<path opacity="0.1" d="M362.995 133.214H351.366V135.538H362.995V133.214Z" fill="#6C63FF"/>
<path opacity="0.1" d="M435.679 109.966H424.05V143.094H435.679V109.966Z" fill="#6C63FF"/>
<path opacity="0.1" d="M435.679 115.197H424.05V117.522H435.679V115.197Z" fill="#6C63FF"/>
<path opacity="0.1" d="M435.679 133.214H424.05V135.538H435.679V133.214Z" fill="#6C63FF"/>
<path opacity="0.1" d="M453.124 109.966H441.494V143.094H453.124V109.966Z" fill="#6C63FF"/>
<path opacity="0.1" d="M453.124 115.197H441.494V117.522H453.124V115.197Z" fill="#6C63FF"/>
<path opacity="0.1" d="M453.124 133.214H441.494V135.538H453.124V133.214Z" fill="#6C63FF"/>
<path opacity="0.1" d="M470.568 109.966H458.938V143.094H470.568V109.966Z" fill="#6C63FF"/>
<path opacity="0.1" d="M470.568 115.197H458.938V117.522H470.568V115.197Z" fill="#6C63FF"/>
<path opacity="0.1" d="M470.568 133.214H458.938V135.538H470.568V133.214Z" fill="#6C63FF"/>
<path opacity="0.1" d="M328.107 166.922H316.478V200.05H328.107V166.922Z" fill="#6C63FF"/>
<path opacity="0.1" d="M328.107 172.153H316.478V174.478H328.107V172.153Z" fill="#6C63FF"/>
<path opacity="0.1" d="M328.107 190.17H316.478V192.494H328.107V190.17Z" fill="#6C63FF"/>
<path opacity="0.1" d="M345.551 166.922H333.922V200.05H345.551V166.922Z" fill="#6C63FF"/>
<path opacity="0.1" d="M345.551 172.153H333.922V174.478H345.551V172.153Z" fill="#6C63FF"/>
<path opacity="0.1" d="M345.551 190.17H333.922V192.494H345.551V190.17Z" fill="#6C63FF"/>
<path opacity="0.1" d="M362.995 166.922H351.366V200.05H362.995V166.922Z" fill="#6C63FF"/>
<path opacity="0.1" d="M362.995 172.153H351.366V174.478H362.995V172.153Z" fill="#6C63FF"/>
<path opacity="0.1" d="M362.995 190.17H351.366V192.494H362.995V190.17Z" fill="#6C63FF"/>
<path opacity="0.1" d="M380.44 166.922H368.81V200.05H380.44V166.922Z" fill="#6C63FF"/>
<path opacity="0.1" d="M380.44 172.153H368.81V174.478H380.44V172.153Z" fill="#6C63FF"/>
<path opacity="0.1" d="M380.44 190.17H368.81V192.494H380.44V190.17Z" fill="#6C63FF"/>
<path opacity="0.1" d="M397.884 166.922H386.254V200.05H397.884V166.922Z" fill="#6C63FF"/>
<path opacity="0.1" d="M397.884 172.153H386.254V174.478H397.884V172.153Z" fill="#6C63FF"/>
<path opacity="0.1" d="M397.884 190.17H386.254V192.494H397.884V190.17Z" fill="#6C63FF"/>
<path opacity="0.1" d="M415.328 166.922H403.698V200.05H415.328V166.922Z" fill="#6C63FF"/>
<path opacity="0.1" d="M415.328 172.153H403.698V174.478H415.328V172.153Z" fill="#6C63FF"/>
<path opacity="0.1" d="M415.328 190.17H403.698V192.494H415.328V190.17Z" fill="#6C63FF"/>
<path opacity="0.1" d="M450.216 57.1247V87.2999H438.587V54.9104C442.479 55.5962 446.355 56.3343 450.216 57.1247Z" fill="#6C63FF"/>
<path opacity="0.1" d="M450.216 59.403H438.587V61.7277H450.216V59.403Z" fill="#6C63FF"/>
<path opacity="0.1" d="M450.216 77.4197H438.587V79.7445H450.216V77.4197Z" fill="#6C63FF"/>
<path opacity="0.1" d="M467.66 61.1582V87.3115H456.031V58.3685C457.543 58.6997 459.049 59.0485 460.555 59.403C462.935 59.9609 465.303 60.546 467.66 61.1582Z" fill="#6C63FF"/>
<path opacity="0.1" d="M467.66 61.1582V61.7393H456.031V59.4146H460.555C462.935 59.9648 465.303 60.546 467.66 61.1582Z" fill="#6C63FF"/>
<path opacity="0.1" d="M467.66 77.4197H456.031V79.7445H467.66V77.4197Z" fill="#6C63FF"/>
<g opacity="0.1">
<path opacity="0.1" d="M386.481 131.052C386.481 131.052 382.957 129.854 381.248 132.964C380.801 133.805 380.573 134.746 380.587 135.699C380.6 136.652 380.853 137.586 381.323 138.415C382.44 140.426 384.737 143.065 389.086 142.809C392.778 142.611 394.005 139.798 394.319 137.177C394.44 136.197 394.308 135.202 393.937 134.286C393.566 133.371 392.967 132.565 392.198 131.945C391.429 131.325 390.514 130.911 389.54 130.743C388.566 130.574 387.565 130.656 386.632 130.982L386.481 131.052Z" fill="#6C63FF"/>
<path opacity="0.1" d="M382.091 138.7C381.621 137.871 381.367 136.937 381.354 135.984C381.341 135.031 381.568 134.09 382.015 133.248C383.713 130.145 387.249 131.336 387.249 131.336L387.429 131.272C388.774 130.786 390.253 130.819 391.575 131.365C390.845 130.931 390.028 130.664 389.182 130.584C388.336 130.503 387.483 130.611 386.685 130.9L386.504 130.964C386.504 130.964 382.981 129.767 381.271 132.876C380.824 133.718 380.597 134.659 380.61 135.612C380.623 136.565 380.876 137.499 381.347 138.328C382.22 139.993 383.624 141.32 385.336 142.1C383.963 141.285 382.841 140.109 382.091 138.7Z" fill="#6C63FF"/>
<path opacity="0.2" d="M384.661 132.545C384.661 132.545 385.969 133.574 389.144 132.545H384.661Z" fill="#6C63FF"/>
<path opacity="0.1" d="M384.376 125.077C384.376 125.077 386.615 131.145 386.429 132.731L388.202 132.545C388.202 132.545 385.213 127.227 385.964 125.077H384.376Z" fill="#6C63FF"/>
<path opacity="0.2" d="M384.376 125.077C384.376 125.077 386.615 131.145 386.429 132.731L388.202 132.545C388.202 132.545 385.213 127.227 385.964 125.077H384.376Z" fill="#6C63FF"/>
<path opacity="0.1" d="M393.529 125.588C393.529 125.588 389.999 123.787 388.423 125.275C386.847 126.762 386.603 130.569 386.603 130.569C386.603 130.569 392.354 131.348 393.529 125.588Z" fill="#6C63FF"/>
<path opacity="0.1" d="M393.529 125.588C393.529 125.588 389.999 123.787 388.423 125.275C386.847 126.762 386.603 130.569 386.603 130.569C386.603 130.569 392.354 131.348 393.529 125.588Z" fill="#6C63FF"/>
<path opacity="0.1" d="M386.597 130.569C386.597 130.569 387.522 126.152 393.523 125.583L386.597 130.569Z" fill="#6C63FF"/>
</g>
<g opacity="0.1">
<path opacity="0.1" d="M460.909 188.589C460.909 188.589 457.386 187.392 455.676 190.501C455.229 191.343 455.002 192.284 455.015 193.236C455.028 194.189 455.282 195.124 455.752 195.953C456.868 197.963 459.165 200.602 463.515 200.346C467.207 200.149 468.434 197.336 468.748 194.715C468.868 193.734 468.737 192.739 468.365 191.824C467.994 190.908 467.396 190.102 466.626 189.482C465.857 188.862 464.942 188.448 463.968 188.28C462.995 188.111 461.994 188.194 461.061 188.519L460.909 188.589Z" fill="#6C63FF"/>
<path opacity="0.1" d="M456.519 196.237C456.049 195.408 455.796 194.474 455.782 193.521C455.769 192.568 455.997 191.628 456.444 190.786C458.142 187.682 461.677 188.874 461.677 188.874L461.857 188.81C463.203 188.323 464.681 188.356 466.003 188.903C465.273 188.468 464.456 188.201 463.61 188.121C462.765 188.04 461.912 188.149 461.113 188.438L460.933 188.502C460.933 188.502 457.409 187.304 455.699 190.414C455.252 191.256 455.025 192.196 455.038 193.149C455.051 194.102 455.305 195.036 455.775 195.865C456.649 197.53 458.052 198.857 459.764 199.637C458.392 198.822 457.269 197.646 456.519 196.237Z" fill="#6C63FF"/>
<path opacity="0.2" d="M459.089 190.083C459.089 190.083 460.398 191.111 463.573 190.083H459.089Z" fill="#6C63FF"/>
<path opacity="0.1" d="M458.805 182.614C458.805 182.614 461.043 188.682 460.857 190.269L462.631 190.083C462.631 190.083 459.642 184.765 460.392 182.614H458.805Z" fill="#6C63FF"/>
<path opacity="0.2" d="M458.805 182.614C458.805 182.614 461.043 188.682 460.857 190.269L462.631 190.083C462.631 190.083 459.642 184.765 460.392 182.614H458.805Z" fill="#6C63FF"/>
<path opacity="0.1" d="M467.957 183.126C467.957 183.126 464.427 181.324 462.852 182.812C461.276 184.3 461.032 188.107 461.032 188.107C461.032 188.107 466.782 188.885 467.957 183.126Z" fill="#6C63FF"/>
<path opacity="0.1" d="M467.957 183.126C467.957 183.126 464.427 181.324 462.852 182.812C461.276 184.3 461.032 188.107 461.032 188.107C461.032 188.107 466.782 188.885 467.957 183.126Z" fill="#6C63FF"/>
<path opacity="0.1" d="M461.026 188.107C461.026 188.107 461.95 183.69 467.951 183.12L461.026 188.107Z" fill="#6C63FF"/>
</g>
<path opacity="0.1" d="M578.576 366.17C595.918 366.17 609.976 361.174 609.976 355.011C609.976 348.849 595.918 343.853 578.576 343.853C561.235 343.853 547.177 348.849 547.177 355.011C547.177 361.174 561.235 366.17 578.576 366.17Z" fill="black"/>
<path d="M578.599 355.104C578.599 355.104 596.515 294.318 575.238 249.573C566.313 230.795 563.347 209.715 567.47 189.339C569.443 179.673 572.299 170.209 576 161.064" stroke="#535461" stroke-width="2" stroke-miterlimit="10"/>
<path d="M562.766 132.783C562.766 140.234 576.262 161.843 576.262 161.843C576.262 161.843 589.758 140.24 589.758 132.783C589.758 129.206 588.336 125.775 585.805 123.245C583.274 120.715 579.841 119.294 576.262 119.294C572.682 119.294 569.25 120.715 566.719 123.245C564.188 125.775 562.766 129.206 562.766 132.783Z" fill="#6C63FF"/>
<path d="M540.455 174.048C544.525 180.301 567.581 191.105 567.581 191.105C567.581 191.105 567.162 165.638 563.109 159.384C562.146 157.896 560.899 156.612 559.439 155.605C557.979 154.599 556.335 153.89 554.601 153.518C552.867 153.146 551.077 153.12 549.332 153.44C547.588 153.76 545.924 154.42 544.435 155.383C542.946 156.346 541.661 157.592 540.654 159.051C539.647 160.51 538.937 162.153 538.566 163.887C538.194 165.62 538.167 167.409 538.488 169.153C538.808 170.896 539.468 172.559 540.432 174.048H540.455Z" fill="#6C63FF"/>
<path d="M541.414 244.569C548.072 247.922 573.448 245.603 573.448 245.603C573.448 245.603 560.225 223.832 553.567 220.479C551.984 219.681 550.26 219.203 548.493 219.071C546.725 218.94 544.949 219.157 543.266 219.712C541.583 220.266 540.025 221.147 538.682 222.303C537.339 223.459 536.238 224.868 535.44 226.45C534.642 228.032 534.163 229.755 534.032 231.522C533.9 233.289 534.118 235.064 534.673 236.746C535.227 238.429 536.108 239.985 537.265 241.328C538.422 242.67 539.832 243.771 541.414 244.569Z" fill="#6C63FF"/>
<path d="M554.207 297.759C560.202 302.187 585.606 304.193 585.606 304.193C585.606 304.193 576.256 280.498 570.261 276.069C568.836 275.015 567.218 274.253 565.498 273.824C563.778 273.396 561.991 273.31 560.238 273.572C558.485 273.834 556.801 274.439 555.281 275.351C553.762 276.264 552.438 277.466 551.384 278.891C550.329 280.315 549.566 281.933 549.138 283.652C548.709 285.37 548.623 287.157 548.885 288.909C549.148 290.661 549.752 292.344 550.665 293.863C551.578 295.381 552.782 296.705 554.207 297.759Z" fill="#6C63FF"/>
<path d="M595.921 192.547C590.578 197.737 565.685 203.113 565.685 203.113C565.685 203.113 571.785 178.383 577.128 173.193C578.398 171.949 579.9 170.968 581.55 170.306C583.2 169.644 584.965 169.314 586.742 169.336C588.52 169.358 590.276 169.73 591.909 170.432C593.542 171.134 595.021 172.152 596.259 173.427C597.498 174.701 598.472 176.208 599.127 177.86C599.781 179.513 600.102 181.278 600.072 183.054C600.041 184.831 599.66 186.584 598.95 188.213C598.24 189.842 597.214 191.315 595.933 192.547H595.921Z" fill="#6C63FF"/>
<path d="M610.028 254.943C603.37 258.296 577.995 255.977 577.995 255.977C577.995 255.977 591.217 234.206 597.875 230.853C599.458 230.055 601.182 229.577 602.949 229.445C604.717 229.314 606.493 229.532 608.176 230.086C609.86 230.641 611.417 231.521 612.76 232.677C614.103 233.833 615.205 235.243 616.003 236.824C616.8 238.406 617.279 240.13 617.41 241.896C617.542 243.663 617.324 245.438 616.769 247.12C616.215 248.803 615.334 250.36 614.177 251.702C613.02 253.044 611.61 254.145 610.028 254.943Z" fill="#6C63FF"/>
<path d="M615.459 317.473C609.464 321.901 584.059 323.906 584.059 323.906C584.059 323.906 593.409 300.211 599.404 295.783C600.828 294.706 602.45 293.922 604.179 293.476C605.907 293.03 607.707 292.931 609.474 293.186C611.241 293.44 612.94 294.042 614.473 294.957C616.005 295.872 617.341 297.082 618.402 298.516C619.464 299.951 620.23 301.582 620.656 303.314C621.083 305.047 621.161 306.847 620.887 308.61C620.613 310.373 619.991 312.064 619.058 313.585C618.126 315.107 616.9 316.428 615.453 317.473H615.459Z" fill="#6C63FF"/>
<path opacity="0.1" d="M500.426 334.089C517.768 334.089 531.826 329.093 531.826 322.93C531.826 316.767 517.768 311.771 500.426 311.771C483.085 311.771 469.027 316.767 469.027 322.93C469.027 329.093 483.085 334.089 500.426 334.089Z" fill="black"/>
<path d="M499.153 324.517C499.153 324.517 507.543 296.038 497.577 275.075C493.34 266.309 492.063 256.406 493.937 246.853C494.863 242.325 496.202 237.891 497.938 233.608" stroke="#535461" stroke-width="2" stroke-miterlimit="10"/>
<path d="M491.733 220.357C491.733 223.844 498.054 233.968 498.054 233.968C498.054 233.968 504.374 223.844 504.374 220.357C504.374 218.68 503.708 217.073 502.522 215.887C501.336 214.702 499.728 214.036 498.051 214.036C496.374 214.036 494.765 214.702 493.58 215.887C492.394 217.073 491.727 218.68 491.727 220.357H491.733Z" fill="#6C63FF"/>
<path d="M481.284 239.687C483.18 242.593 493.995 247.678 493.995 247.678C493.995 247.678 493.798 235.746 491.902 232.817C491.451 232.12 490.866 231.519 490.183 231.048C489.499 230.577 488.729 230.245 487.917 230.071C487.105 229.897 486.267 229.885 485.45 230.035C484.633 230.185 483.854 230.495 483.157 230.946C482.459 231.397 481.858 231.981 481.387 232.664C480.915 233.347 480.583 234.117 480.409 234.929C480.235 235.74 480.223 236.578 480.373 237.395C480.523 238.211 480.833 238.99 481.284 239.687Z" fill="#6C63FF"/>
<path d="M481.738 272.727C484.854 274.296 496.746 273.215 496.746 273.215C496.746 273.215 490.553 263.016 487.442 261.441C486.701 261.067 485.893 260.843 485.065 260.781C484.237 260.72 483.405 260.822 482.616 261.082C481.023 261.607 479.705 262.742 478.95 264.239C478.195 265.736 478.066 267.471 478.591 269.063C479.116 270.654 480.252 271.973 481.749 272.727H481.738Z" fill="#6C63FF"/>
<path d="M487.715 297.648C490.524 299.723 502.427 300.665 502.427 300.665C502.427 300.665 498.042 289.564 495.24 287.489C494.572 286.996 493.813 286.639 493.008 286.438C492.202 286.238 491.364 286.198 490.543 286.321C489.722 286.444 488.933 286.728 488.221 287.155C487.509 287.583 486.889 288.147 486.395 288.814C485.902 289.482 485.544 290.24 485.344 291.045C485.143 291.851 485.103 292.688 485.227 293.509C485.35 294.33 485.633 295.118 486.061 295.829C486.489 296.541 487.053 297.161 487.721 297.654L487.715 297.648Z" fill="#6C63FF"/>
<path d="M507.27 248.358C504.764 250.787 493.094 253.31 493.094 253.31C493.094 253.31 495.955 241.721 498.455 239.292C499.658 238.124 501.276 237.482 502.952 237.506C504.629 237.531 506.227 238.22 507.395 239.422C508.563 240.625 509.206 242.241 509.181 243.917C509.157 245.593 508.467 247.19 507.264 248.358H507.27Z" fill="#6C63FF"/>
<path d="M513.893 277.592C510.776 279.161 498.885 278.08 498.885 278.08C498.885 278.08 505.078 267.88 508.189 266.305C509.686 265.551 511.422 265.421 513.015 265.946C514.608 266.471 515.926 267.607 516.681 269.103C517.436 270.6 517.565 272.335 517.04 273.927C516.515 275.519 515.379 276.837 513.882 277.592H513.893Z" fill="#6C63FF"/>
<path d="M516.411 306.866C513.602 308.941 501.7 309.882 501.7 309.882C501.7 309.882 506.084 298.782 508.887 296.707C509.554 296.213 510.312 295.855 511.118 295.655C511.924 295.454 512.761 295.413 513.582 295.536C514.403 295.658 515.193 295.941 515.904 296.369C516.616 296.796 517.237 297.359 517.731 298.026C518.225 298.693 518.583 299.451 518.784 300.256C518.985 301.062 519.025 301.898 518.903 302.719C518.78 303.54 518.497 304.329 518.069 305.04C517.642 305.752 517.078 306.372 516.411 306.866Z" fill="#6C63FF"/>
<path d="M661.907 381.171L481.86 285.711H444.105L453.874 204.438C454.088 202.659 453.944 200.855 453.452 199.132C452.96 197.409 452.129 195.802 451.007 194.404C449.886 193.006 448.497 191.845 446.921 190.991C445.346 190.136 443.615 189.604 441.831 189.426L440.82 189.466H440.721L303.371 191.553C299.855 191.304 296.366 192.316 293.529 194.407C290.693 196.498 288.694 199.531 287.893 202.962L281.496 249.666L280.572 248.253L280.124 247.573C283.502 245.377 276.839 232.317 271.193 222.582L270.681 221.699C274.263 220.205 278.24 218.793 278.24 218.793L269.431 213.295C269.431 213.295 261.325 201.567 252.696 192.053C258.511 155.659 246.23 113.593 246.085 113.012L245.759 113.099C247.464 110.34 248.362 107.159 248.352 103.916C248.354 101.446 247.829 99.0038 246.815 96.7514C245.8 94.499 244.319 92.4878 242.468 90.8509C242.125 87.7358 241.631 84.5276 240.921 81.151C240.793 80.5698 240.66 79.9246 240.514 79.3086C239.851 76.4027 239.183 73.4967 238.305 70.6489C237.696 68.6186 236.94 66.6354 236.043 64.715C231.455 55.0267 222.018 48.0989 211.679 45.6579C206.359 44.4026 200.904 46.3496 195.939 45.4197C193.438 44.9605 191.2 42.5602 188.763 41.5896C185.676 40.3575 182.332 39.7822 179.064 39.2649C174.994 38.5849 170.767 37.9107 166.714 38.7941C160.027 40.2471 154.927 45.6638 151.177 51.3826C147.426 57.1015 144.513 63.4364 139.879 68.4695C136.78 71.8404 132.965 74.5487 130.203 78.1985C126.133 83.5687 124.72 90.4034 123.412 97.0406C121.795 105.206 120.179 113.488 120.214 121.782C120.214 123.705 120.243 125.635 120.411 127.564C120.836 132.516 121.964 137.398 122.231 142.356C122.231 142.89 122.272 143.425 122.284 143.96C122.225 153.032 119.545 161.976 116.882 170.694C116.033 173.466 115.172 176.262 114.166 178.994C108.817 179.447 103.7 180.516 99.798 182.62C85.5403 190.245 74.568 207.251 74.568 207.251L53.7106 226.43C53.7106 226.43 61.9442 230.272 65.7877 236.856C65.9254 237.089 66.083 237.308 66.2587 237.513L65.9564 238.211L53.7106 266.479C53.7106 266.479 61.3976 271.966 72.8991 270.867C74.7685 270.634 76.6656 270.772 78.4813 271.274C78.4813 271.623 78.4464 271.977 78.4347 272.349C77.7312 288.524 77.359 323.964 85.7322 347.904L66.8111 369.989L29.0154 381.176L27.3699 410.236H663.006L661.907 381.171ZM116.783 272.809C118.404 273.139 119.985 273.641 121.499 274.308V294.51C120.498 287.373 119.109 280.062 117.172 273.982C117.05 273.587 116.94 273.198 116.783 272.809ZM225.919 311.684C225.919 311.614 225.919 311.545 225.919 311.475C225.942 310.769 226.038 310.068 226.204 309.383C226.44 308.319 226.966 307.342 227.722 306.558C229.123 305.157 230.571 303.652 232.019 302.019C232.91 304.319 234.197 306.445 235.822 308.301C237.682 310.376 241.84 312.242 247.678 313.927C240.468 312.809 233.206 312.06 225.919 311.684ZM273.373 308.894L254.371 314.514C245.387 312.503 238.997 310.202 236.63 307.54C234.974 305.632 233.689 303.433 232.839 301.054C239.619 293.197 246.213 282.625 247.724 268.188C247.765 267.81 247.794 267.421 247.829 267.026C249.891 265.855 251.837 264.493 253.644 262.957L253.987 263.759C259.096 275.371 266.323 285.931 275.298 294.899L273.373 308.894ZM245.207 113.947C246.701 119.335 256.836 157.478 251.754 191.018C248.591 187.613 245.399 184.567 242.538 182.562C241.86 182.093 241.151 181.672 240.415 181.301C239.782 175.152 239.491 168.776 239.444 162.459C239.502 154.636 239.968 146.877 240.607 139.496C241.299 131.673 242.113 124.211 242.619 116.871C243.588 115.995 244.456 115.015 245.207 113.947Z" fill="url(#paint0_linear)"/>
<path d="M235.932 123.339H230.972V89.0493H235.932C239.72 89.0493 243.352 90.5531 246.03 93.23C248.709 95.9069 250.213 99.5375 250.213 103.323V109.03C250.218 110.908 249.852 112.768 249.136 114.504C248.42 116.239 247.369 117.817 246.043 119.146C244.716 120.475 243.14 121.53 241.405 122.249C239.67 122.969 237.811 123.339 235.932 123.339Z" fill="#DFE6F5"/>
<path d="M230.269 123.339H231.676C233.612 123.339 235.182 121.77 235.182 119.835V92.5829C235.182 90.6473 233.612 89.0783 231.676 89.0783H230.269C228.332 89.0783 226.762 90.6473 226.762 92.5829V119.835C226.762 121.77 228.332 123.339 230.269 123.339Z" fill="#535461"/>
<g opacity="0.1">
<path opacity="0.1" d="M235.932 123.339H230.972V89.0493H235.932C239.72 89.0493 243.352 90.5531 246.03 93.23C248.709 95.9069 250.213 99.5375 250.213 103.323V109.03C250.218 110.908 249.852 112.768 249.136 114.504C248.42 116.239 247.369 117.817 246.043 119.146C244.716 120.475 243.14 121.53 241.405 122.249C239.67 122.969 237.811 123.339 235.932 123.339Z" fill="black"/>
<path opacity="0.1" d="M230.269 123.339H231.676C233.612 123.339 235.182 121.77 235.182 119.835V92.5829C235.182 90.6474 233.612 89.0783 231.676 89.0783H230.269C228.332 89.0783 226.762 90.6474 226.762 92.5829V119.835C226.762 121.77 228.332 123.339 230.269 123.339Z" fill="black"/>
</g>
<path d="M238.293 107.2H151.601V197.08H238.293V107.2Z" fill="#865A61"/>
<path opacity="0.1" d="M238.293 94.8204H151.601V184.701H238.293V94.8204Z" fill="black"/>
<path d="M235.333 181.743L230.1 219.752L227.635 237.618L226.728 244.179L219.128 258.988L205.172 286.164L178.25 289.396L130.895 222.646C130.895 222.646 106.101 175.286 143.798 179.586C164.935 182.004 169.964 163.092 170.342 146.011C170.437 137.411 169.658 128.824 168.016 120.381L205.707 138.682C204.831 142.762 204.172 146.511 203.73 149.928C201.893 163.912 203.416 172.63 206.603 177.913C215.086 191.983 235.333 181.743 235.333 181.743Z" fill="#FDC2CC"/>
<path opacity="0.1" d="M205.719 138.688C204.843 142.768 204.184 146.517 203.742 149.934C199.831 151.047 195.784 151.61 191.717 151.608C184.229 151.62 176.866 149.696 170.342 146.023C170.437 137.423 169.658 128.835 168.016 120.393L205.719 138.688Z" fill="black"/>
<path d="M191.717 150.527C215.806 150.527 235.333 131.009 235.333 106.932C235.333 82.8556 215.806 63.3376 191.717 63.3376C167.629 63.3376 148.101 82.8556 148.101 106.932C148.101 131.009 167.629 150.527 191.717 150.527Z" fill="#FDC2CC"/>
<path d="M249.876 355.046L70.5616 369.053L99.6352 335.146C130.831 316.095 130.564 289.907 126.418 273.663C125.131 268.457 123.187 263.436 120.632 258.721L182.611 259.011H183.135L188.228 270.583L188.461 271.106L192.252 279.713L205.172 256.57L209.667 249.329L212.179 245.26C212.179 245.26 249.335 236.647 249.87 258.715C249.934 261.249 249.835 263.784 249.574 266.305C247.724 284.066 238.002 295.876 229.949 303.925C220.796 313.067 249.876 355.046 249.876 355.046Z" fill="#EC7580"/>
<path d="M228.46 307.761C227.146 312.992 230.461 321.983 234.856 330.811C213.778 333.077 190.665 331.898 190.665 331.898L166.946 338.36L100.182 357.737C97.2744 353.977 94.9485 349.252 93.0239 343.928L99.641 336.21C120.464 323.494 127.267 307.598 128.261 293.603C128.657 287.251 128.036 280.877 126.424 274.721C125.138 269.519 123.196 264.502 120.644 259.79L182.623 260.081H183.146L188.24 271.652L188.472 272.175L192.264 280.782L205.184 257.64L209.667 250.398L212.179 246.33C212.179 246.33 249.335 237.705 249.876 259.79C249.94 262.324 249.841 264.859 249.579 267.38C247.73 285.141 238.008 296.951 229.955 305C229.213 305.766 228.696 306.721 228.46 307.761Z" fill="#EC7580"/>
<path d="M368.339 335.67C367.263 348.583 336.033 331.363 336.033 331.363C336.033 331.363 326.339 328.132 293.492 307.145C276.815 296.492 263.665 281.146 255.696 263.039C254.44 260.24 253.389 257.353 252.551 254.402L275.182 237.705L281.781 247.788L303.72 281.294L336.027 302.798C336.027 302.798 369.415 322.756 368.339 335.67Z" fill="#FDC2CC"/>
<path d="M655.877 378.189H35.022L97.1756 359.806L252.556 313.846L351.639 284.537H479.261L655.877 378.189Z" fill="#CBCDDA"/>
<path d="M35.022 378.189L33.4056 406.714H656.953L655.877 378.189H35.022Z" fill="#CBCDDA"/>
<path opacity="0.1" d="M35.022 378.189L33.4056 406.714H656.953L655.877 378.189H35.022Z" fill="black"/>
<path d="M197.793 337.849L329.026 324.371L330.642 350.205L270.658 356.15C266.52 356.486 262.355 356.163 258.319 355.192L197.683 339.534C197.49 339.484 197.32 339.367 197.203 339.205C197.086 339.043 197.029 338.845 197.042 338.646C197.055 338.447 197.138 338.258 197.275 338.113C197.412 337.967 197.595 337.874 197.793 337.849Z" fill="#535461"/>
<path opacity="0.2" d="M197.793 337.849L329.026 324.371L330.642 350.205L270.658 356.15C266.52 356.486 262.355 356.163 258.319 355.192L197.683 339.534C197.49 339.484 197.32 339.367 197.203 339.205C197.086 339.043 197.029 338.845 197.042 338.646C197.055 338.447 197.138 338.258 197.275 338.113C197.412 337.967 197.595 337.874 197.793 337.849Z" fill="black"/>
<path d="M197.793 337.308L330.107 323.831L331.724 349.664L271.733 354.523C267.598 354.864 263.436 354.546 259.4 353.582L197.683 339C197.486 338.952 197.312 338.836 197.192 338.673C197.072 338.51 197.013 338.31 197.027 338.108C197.04 337.906 197.124 337.715 197.264 337.568C197.405 337.422 197.592 337.33 197.793 337.308Z" fill="#535461"/>
<path opacity="0.3" d="M229.164 338.25L299.127 331.125L299.981 344.783L268.262 347.357C266.074 347.535 263.872 347.364 261.738 346.852L229.106 339.139C229.003 339.113 228.913 339.052 228.851 338.966C228.789 338.881 228.759 338.776 228.766 338.671C228.773 338.565 228.816 338.465 228.889 338.388C228.962 338.312 229.059 338.263 229.164 338.25Z" fill="white"/>
<path opacity="0.1" d="M281.781 247.8C281.357 248.381 280.618 248.643 279.49 248.48C268.721 246.864 256.336 262.475 256.336 262.475C256.336 262.475 256.115 262.684 255.714 263.056C254.457 260.257 253.406 257.371 252.568 254.42L275.182 237.705L281.781 247.8Z" fill="black"/>
<path opacity="0.1" d="M249.579 267.345C244.515 270.164 237.543 272.187 232.106 266.764C222.715 257.378 206.254 258.628 205.23 258.686C206.911 258.453 208.399 255.001 209.667 250.375L212.179 246.306C212.179 246.306 249.335 237.705 249.876 259.79C249.939 262.312 249.84 264.836 249.579 267.345Z" fill="black"/>
<path opacity="0.1" d="M230.088 219.752L226.716 244.162L219.116 258.97C214.406 257.765 209.536 257.308 204.684 257.616C210.039 256.878 213.499 223.431 213.499 223.431L213.807 223.361L230.088 219.752Z" fill="black"/>
<path d="M279.49 247.405C268.721 245.789 256.336 261.4 256.336 261.4C256.336 261.4 241.799 275.395 232.106 265.706C222.715 256.32 206.254 257.57 205.23 257.628C210.586 256.884 214.046 223.437 214.046 223.437L214.354 223.367L266.029 211.883C266.029 211.883 269.111 216.602 272.588 222.612C278.862 233.439 286.421 248.445 279.49 247.405Z" fill="#EC7580"/>
<path opacity="0.1" d="M266.564 225.878C267.105 226.953 257.947 232.335 253.644 230.719C249.341 229.103 238.566 237.693 237.491 238.792C236.415 239.89 212.185 237.176 212.185 237.176C213.19 232.622 213.915 228.01 214.354 223.367L266.029 211.883C266.029 211.883 269.111 216.602 272.588 222.612C269.373 223.931 266.302 225.349 266.564 225.878Z" fill="black"/>
<path opacity="0.1" d="M235.333 181.743L230.1 219.752L227.635 237.618C220.413 237.077 211.656 236.107 211.656 236.107C211.656 236.107 220.808 197.894 205.731 177.988C205.731 177.988 206.05 177.988 206.626 177.93C215.086 191.983 235.333 181.743 235.333 181.743Z" fill="black"/>
<path d="M206.26 177.976C206.26 177.976 233.723 175.826 244.491 183.358C255.26 190.89 270.879 213.499 270.879 213.499L279.496 218.88C279.496 218.88 266.035 223.722 266.576 224.803C267.117 225.884 257.958 231.26 253.655 229.644C249.353 228.028 238.578 236.618 237.502 237.717C236.426 238.815 212.197 236.101 212.197 236.101C212.197 236.101 221.337 197.888 206.26 177.976Z" fill="#EC7580"/>
<path d="M404.67 326.248C398.436 326.097 251.888 322.296 237.898 306.697C223 290.087 237.461 242.227 249.637 207.669C262.889 170.049 247.091 116.028 246.934 115.412L247.974 115.139C248.137 115.761 264.017 170.096 250.655 208.024C231.716 261.789 227.803 293.83 238.7 305.977C252.388 321.233 403.175 325.156 404.699 325.156L404.67 326.248Z" fill="#DFE6F5"/>
<path d="M303.354 192.146L438.918 190.088C440.666 190.266 442.36 190.791 443.903 191.631C445.445 192.471 446.805 193.61 447.902 194.981C449 196.352 449.813 197.928 450.294 199.616C450.775 201.305 450.915 203.072 450.705 204.816L435.325 332.793C434.957 335.867 433.521 338.715 431.267 340.84C429.013 342.964 426.084 344.23 422.992 344.416L284.433 352.989C282.471 353.106 280.507 352.785 278.685 352.049C276.863 351.313 275.228 350.18 273.899 348.732C272.57 347.285 271.581 345.56 271.003 343.682C270.425 341.804 270.274 339.822 270.559 337.878L288.957 203.38C289.45 200.016 291.221 196.971 293.903 194.879C296.584 192.787 299.969 191.808 303.354 192.146Z" fill="#535461"/>
<path opacity="0.2" d="M303.354 192.146L438.918 190.088C440.666 190.266 442.36 190.791 443.903 191.631C445.445 192.471 446.805 193.61 447.902 194.981C449 196.352 449.813 197.928 450.294 199.616C450.775 201.305 450.915 203.072 450.705 204.816L435.325 332.793C434.957 335.867 433.521 338.715 431.267 340.84C429.013 342.964 426.084 344.23 422.992 344.416L284.433 352.989C282.471 353.106 280.507 352.785 278.685 352.049C276.863 351.313 275.228 350.18 273.899 348.732C272.57 347.285 271.581 345.56 271.003 343.682C270.425 341.804 270.274 339.822 270.559 337.878L288.957 203.38C289.45 200.016 291.221 196.971 293.903 194.879C296.584 192.787 299.969 191.808 303.354 192.146Z" fill="black"/>
<path d="M304.43 192.146L439.994 190.088C441.744 190.264 443.441 190.786 444.986 191.625C446.531 192.463 447.893 193.602 448.993 194.973C450.093 196.345 450.908 197.921 451.39 199.611C451.873 201.301 452.013 203.071 451.804 204.816L436.424 332.793C436.056 335.867 434.62 338.715 432.366 340.84C430.112 342.964 427.183 344.23 424.091 344.416L285.514 352.989C283.552 353.106 281.589 352.785 279.767 352.049C277.945 351.313 276.31 350.18 274.981 348.732C273.652 347.285 272.663 345.56 272.085 343.682C271.507 341.804 271.355 339.822 271.64 337.878L290.038 203.38C290.531 200.017 292.302 196.973 294.982 194.881C297.662 192.789 301.046 191.809 304.43 192.146Z" fill="#535461"/>
<path opacity="0.3" d="M370.758 271.35C374.326 271.35 377.218 268.459 377.218 264.893C377.218 261.327 374.326 258.436 370.758 258.436C367.19 258.436 364.298 261.327 364.298 264.893C364.298 268.459 367.19 271.35 370.758 271.35Z" fill="white"/>
<path opacity="0.1" d="M234.857 330.817C213.778 333.083 190.665 331.903 190.665 331.903L166.946 338.36L100.182 357.737C97.2744 353.977 94.9485 349.252 93.0239 343.928L99.641 336.21C120.464 323.494 127.267 307.598 128.261 293.603C130.04 307.523 130.337 320.059 130.337 320.059L157.259 317.368L196.375 308.069C199.068 307.428 201.828 307.106 204.597 307.11C209.69 307.11 218.756 307.221 228.437 307.744C227.146 312.98 230.461 321.977 234.857 330.817Z" fill="black"/>
<path opacity="0.1" d="M264.413 323.831C252.027 338.36 188.49 335.135 188.49 335.135L164.795 341.592L98.0245 360.963C97.7338 360.585 97.4431 360.201 97.1756 359.8L252.562 313.84C262.482 315.839 268.57 318.955 264.413 323.831Z" fill="black"/>
<path d="M264.413 322.756C252.027 337.285 188.49 334.06 188.49 334.06L164.795 340.511L98.0245 359.888C82.3248 339.546 82.6737 291.069 83.5284 271.46C83.761 266.195 84.0227 263.01 84.0227 263.01C84.0227 263.01 106.636 249.015 116.87 263.01C118.696 265.503 120.225 268.99 121.522 273.035C127.459 291.685 128.185 322.209 128.185 322.209L155.108 319.518L194.223 310.219C196.919 309.579 199.68 309.257 202.451 309.26C218.663 309.307 275.042 310.283 264.413 322.756Z" fill="#FDC2CC"/>
<path opacity="0.1" d="M121.516 273.041C118.079 272.297 113.91 272.46 108.258 274.854C96.9488 279.696 88.3372 278.62 88.3372 278.62C88.3372 278.62 89.0292 273.128 83.5342 271.46C83.7668 266.195 84.0285 263.01 84.0285 263.01C84.0285 263.01 106.642 249.015 116.876 263.01C118.684 265.503 120.225 268.99 121.516 273.041Z" fill="black"/>
<path opacity="0.1" d="M188.461 272.163C188.1 272.239 183.257 273.151 173.924 271.082C164.231 268.932 160.463 273.233 155.079 275.389C149.694 277.545 135.721 278.62 130.314 276.47C129.04 275.959 127.761 275.308 126.406 274.726C125.126 269.524 123.19 264.505 120.644 259.79L182.623 260.081L188.24 271.652L188.461 272.163Z" fill="black"/>
<path d="M188.461 271.088C188.461 271.088 183.617 272.163 173.924 270.013C164.231 267.863 160.463 272.163 155.079 274.32C149.694 276.476 135.692 277.551 130.308 275.395C124.923 273.239 119.539 268.938 108.212 273.779C96.8848 278.62 88.2907 277.545 88.2907 277.545C88.2907 277.545 89.3664 268.932 78.0626 269.99C66.7588 271.047 59.2171 265.683 59.2171 265.683L71.2303 237.949L74.8354 229.621L164.929 223.466H165.359L188.461 271.088Z" fill="#EC7580"/>
<path opacity="0.1" d="M173.924 245.26C167.999 235.572 136.768 244.185 136.768 244.185C136.768 244.185 121.69 248.492 118.457 240.419C115.224 232.346 92.1051 237.705 92.1051 237.705C92.1051 237.705 75.3297 243.993 71.271 237.961L74.8761 229.632L164.929 223.466L173.924 245.26Z" fill="black"/>
<path d="M148.101 181.743C148.101 181.743 118.487 175.82 104.491 183.358C90.4945 190.896 79.7256 207.576 79.7256 207.576L59.2578 226.412C59.2578 226.412 67.3344 230.179 71.1024 236.636C74.8703 243.092 92.1051 236.636 92.1051 236.636C92.1051 236.636 115.259 231.254 118.492 239.326C121.725 247.399 136.803 243.092 136.803 243.092C136.803 243.092 168.034 234.479 173.959 244.168L148.101 181.743Z" fill="#EC7580"/>
<path opacity="0.1" d="M182.239 43.8388C178.227 43.1646 174.098 42.5079 170.121 43.3739C163.562 44.7978 158.562 50.1156 154.881 55.7183C151.2 61.3209 148.339 67.5396 143.798 72.4738C140.757 75.7808 137.018 78.4368 134.308 82.0169C130.319 87.2883 128.93 94.0126 127.645 100.499C125.761 110.018 123.871 119.678 124.702 129.366C125.121 134.225 126.226 139.008 126.488 143.896C127.017 153.712 124.115 163.348 121.254 172.752C119.272 179.249 117.225 185.869 113.306 191.419C110.706 195.098 107.375 198.178 104.2 201.369C103.433 202.02 102.857 202.865 102.531 203.816C101.845 206.594 105.2 208.465 107.764 209.721C115.608 213.632 120.754 221.263 126.854 227.552C132.954 233.84 141.681 239.239 150.072 236.717C152.561 235.967 154.922 234.543 157.515 234.59C159.259 234.619 160.934 235.328 162.591 235.909C166.714 237.356 171.055 238.083 175.424 238.059C176.39 238.142 177.358 237.94 178.209 237.478C179.506 236.601 179.756 234.834 179.884 233.276C180.704 223.501 181.518 213.69 180.966 203.897C179.715 181.719 159.213 156.066 167.01 135.254C170.4 126.175 176.599 118.364 180.029 109.304C183.646 99.7547 196.398 92.0017 198.927 82.1041C199.212 80.9882 199.602 79.7793 200.579 79.1982C201.922 78.3729 203.672 79.0935 204.969 79.9886C212.307 85.0449 214.697 94.5531 217.366 103.05C219.517 109.894 222.182 116.565 225.338 123.008C227.082 126.495 230.827 130.534 234.106 128.419C232.455 143.111 222.919 155.944 220.762 170.566C218.657 184.817 223.756 199.382 221.779 213.644C220.478 222.826 216.317 231.367 209.888 238.054C217.144 239.494 224.605 239.561 231.885 238.251C239.264 236.92 247.16 233.427 249.824 226.418C252.731 218.706 248.236 210.43 245.951 202.502C240.468 183.445 240.892 160.907 242.631 141.153C244.422 120.84 247.108 103.056 242.555 83.1793C241.439 78.3031 240.305 73.3863 238.165 68.8647C233.664 59.3623 224.407 52.5624 214.261 50.1679C209.027 48.9358 203.69 50.8479 198.817 49.9413C196.363 49.4821 194.165 47.1342 191.781 46.181C188.722 44.9315 185.443 44.3735 182.239 43.8388Z" fill="black"/>
<path d="M249.794 225.302C247.131 232.311 239.235 235.804 231.85 237.135C224.57 238.443 217.109 238.376 209.853 236.938C216.281 230.249 220.44 221.71 221.744 212.528C223.727 198.26 218.628 183.695 220.727 169.45C222.884 154.822 232.42 141.989 234.071 127.297C230.792 129.413 227.018 125.391 225.297 121.886C222.142 115.443 219.477 108.772 217.325 101.928C214.656 93.4314 212.266 83.9116 204.928 78.8669C203.631 77.9719 201.881 77.2512 200.538 78.0823C199.555 78.6635 199.172 79.8898 198.887 80.9882C196.363 90.8684 183.606 98.633 179.995 108.182C176.558 117.243 170.36 125.036 166.97 134.132C159.201 154.938 179.704 180.592 180.925 202.77C181.472 212.563 180.657 222.379 179.843 232.149C179.71 233.712 179.46 235.479 178.163 236.357C177.313 236.818 176.347 237.02 175.384 236.938C171.026 236.964 166.697 236.24 162.585 234.799C160.928 234.218 159.265 233.509 157.509 233.48C154.916 233.439 152.555 234.863 150.066 235.607C141.676 238.129 132.942 232.73 126.848 226.442C120.754 220.153 115.591 212.534 107.753 208.646C105.188 207.367 101.833 205.519 102.519 202.735C102.848 201.787 103.424 200.944 104.188 200.294C107.363 197.103 110.701 194.017 113.3 190.344C117.219 184.794 119.26 178.174 121.249 171.676C124.121 162.273 127.023 152.637 126.482 142.821C126.226 137.956 125.121 133.173 124.697 128.291C123.859 118.62 125.755 108.949 127.639 99.4292C128.918 92.9432 130.308 86.2189 134.303 80.9475C137.018 77.3674 140.751 74.7114 143.798 71.4045C148.345 66.4702 151.194 60.2515 154.881 54.6431C158.567 49.0346 163.568 43.7226 170.127 42.2987C174.098 41.4327 178.233 42.0953 182.245 42.7636C185.449 43.3041 188.728 43.8621 191.758 45.0884C194.148 46.0415 196.346 48.3953 198.794 48.8428C203.666 49.7553 209.022 47.8432 214.237 49.0753C224.384 51.464 233.641 58.2639 238.142 67.7662C239.022 69.6471 239.765 71.5895 240.363 73.5781C241.224 76.3678 241.881 79.2214 242.532 82.0692C242.671 82.6504 242.805 83.2781 242.933 83.8767C246.916 102.8 244.346 116.58 242.607 136.265C240.869 155.95 240.444 182.324 245.922 201.358C248.207 209.308 252.725 217.59 249.794 225.302Z" fill="#865A61"/>
<path opacity="0.05" d="M187.682 259.517C187.682 259.517 191.99 266.491 191.99 271.356C191.99 271.356 195.223 259.517 197.916 259.517" fill="black"/>
<path d="M177.448 261.127V296.649C177.456 302.451 175.501 308.086 171.901 312.637C171.285 313.413 170.627 314.155 169.929 314.857C167.528 317.268 164.673 319.181 161.53 320.487C158.387 321.792 155.017 322.464 151.613 322.464C148.209 322.464 144.839 321.792 141.696 320.487C138.552 319.181 135.698 317.268 133.297 314.857C132.599 314.155 131.941 313.413 131.325 312.637C127.725 308.086 125.77 302.451 125.778 296.649V261.127C125.766 255.091 127.88 249.243 131.75 244.609C132.437 243.787 133.177 243.01 133.965 242.285C138.752 237.799 145.067 235.303 151.628 235.303C158.188 235.303 164.503 237.799 169.29 242.285C169.499 242.471 169.703 242.674 169.906 242.866C170.488 243.447 170.993 244.028 171.505 244.609C175.364 249.247 177.468 255.094 177.448 261.127Z" fill="#DFE6F5"/>
<path opacity="0.1" d="M177.448 261.127V296.649C177.456 302.451 175.501 308.086 171.901 312.637C171.285 313.413 170.627 314.155 169.929 314.857C167.528 317.268 164.673 319.181 161.53 320.487C158.387 321.792 155.017 322.464 151.613 322.464C148.209 322.464 144.839 321.792 141.696 320.487C138.552 319.181 135.698 317.268 133.297 314.857C132.599 314.155 131.941 313.413 131.325 312.637C127.725 308.086 125.77 302.451 125.778 296.649V261.127C125.766 255.091 127.88 249.243 131.75 244.609C132.437 243.787 133.177 243.01 133.965 242.285C138.752 237.799 145.067 235.303 151.628 235.303C158.188 235.303 164.503 237.799 169.29 242.285C169.499 242.471 169.703 242.674 169.906 242.866C170.488 243.447 170.993 244.028 171.505 244.609C175.364 249.247 177.468 255.094 177.448 261.127Z" fill="black"/>
<path d="M178.529 261.127V296.649C178.538 302.451 176.583 308.086 172.982 312.637C172.367 313.413 171.709 314.155 171.011 314.857C168.609 317.268 165.755 319.181 162.612 320.487C159.469 321.792 156.098 322.464 152.695 322.464C149.291 322.464 145.92 321.792 142.777 320.487C139.634 319.181 136.78 317.268 134.378 314.857C133.68 314.155 133.022 313.413 132.407 312.637C128.794 308.09 126.826 302.455 126.825 296.649V261.127C126.813 255.091 128.927 249.243 132.797 244.609C133.483 243.787 134.224 243.01 135.012 242.285C139.798 237.799 146.113 235.303 152.674 235.303C159.235 235.303 165.55 237.799 170.336 242.285C170.546 242.471 170.749 242.674 170.953 242.866C171.534 243.447 172.04 244.028 172.552 244.609C176.424 249.242 178.54 255.09 178.529 261.127Z" fill="#DFE6F5"/>
<path opacity="0.1" d="M141.367 244.981C142.26 244.981 142.984 244.258 142.984 243.366C142.984 242.473 142.26 241.75 141.367 241.75C140.475 241.75 139.751 242.473 139.751 243.366C139.751 244.258 140.475 244.981 141.367 244.981Z" fill="black"/>
<path opacity="0.1" d="M141.367 250.363C142.26 250.363 142.984 249.64 142.984 248.747C142.984 247.855 142.26 247.132 141.367 247.132C140.475 247.132 139.751 247.855 139.751 248.747C139.751 249.64 140.475 250.363 141.367 250.363Z" fill="black"/>
<path opacity="0.1" d="M141.367 255.745C142.26 255.745 142.984 255.022 142.984 254.129C142.984 253.237 142.26 252.513 141.367 252.513C140.475 252.513 139.751 253.237 139.751 254.129C139.751 255.022 140.475 255.745 141.367 255.745Z" fill="black"/>
<path opacity="0.1" d="M141.367 261.127C142.26 261.127 142.984 260.403 142.984 259.511C142.984 258.619 142.26 257.895 141.367 257.895C140.475 257.895 139.751 258.619 139.751 259.511C139.751 260.403 140.475 261.127 141.367 261.127Z" fill="black"/>
<path opacity="0.1" d="M141.367 266.508C142.26 266.508 142.984 265.785 142.984 264.893C142.984 264 142.26 263.277 141.367 263.277C140.475 263.277 139.751 264 139.751 264.893C139.751 265.785 140.475 266.508 141.367 266.508Z" fill="black"/>
<path opacity="0.1" d="M141.367 271.89C142.26 271.89 142.984 271.167 142.984 270.275C142.984 269.382 142.26 268.659 141.367 268.659C140.475 268.659 139.751 269.382 139.751 270.275C139.751 271.167 140.475 271.89 141.367 271.89Z" fill="black"/>
<path opacity="0.1" d="M141.367 277.272C142.26 277.272 142.984 276.549 142.984 275.656C142.984 274.764 142.26 274.041 141.367 274.041C140.475 274.041 139.751 274.764 139.751 275.656C139.751 276.549 140.475 277.272 141.367 277.272Z" fill="black"/>
<path opacity="0.1" d="M141.367 282.66C142.26 282.66 142.984 281.936 142.984 281.044C142.984 280.152 142.26 279.428 141.367 279.428C140.475 279.428 139.751 280.152 139.751 281.044C139.751 281.936 140.475 282.66 141.367 282.66Z" fill="black"/>
<path opacity="0.1" d="M141.367 288.041C142.26 288.041 142.984 287.318 142.984 286.426C142.984 285.533 142.26 284.81 141.367 284.81C140.475 284.81 139.751 285.533 139.751 286.426C139.751 287.318 140.475 288.041 141.367 288.041Z" fill="black"/>
<path opacity="0.1" d="M141.367 293.423C142.26 293.423 142.984 292.7 142.984 291.807C142.984 290.915 142.26 290.192 141.367 290.192C140.475 290.192 139.751 290.915 139.751 291.807C139.751 292.7 140.475 293.423 141.367 293.423Z" fill="black"/>
<path opacity="0.1" d="M141.367 298.805C142.26 298.805 142.984 298.082 142.984 297.189C142.984 296.297 142.26 295.574 141.367 295.574C140.475 295.574 139.751 296.297 139.751 297.189C139.751 298.082 140.475 298.805 141.367 298.805Z" fill="black"/>
<path opacity="0.1" d="M141.367 304.187C142.26 304.187 142.984 303.463 142.984 302.571C142.984 301.679 142.26 300.955 141.367 300.955C140.475 300.955 139.751 301.679 139.751 302.571C139.751 303.463 140.475 304.187 141.367 304.187Z" fill="black"/>
<path opacity="0.1" d="M141.367 309.568C142.26 309.568 142.984 308.845 142.984 307.953C142.984 307.06 142.26 306.337 141.367 306.337C140.475 306.337 139.751 307.06 139.751 307.953C139.751 308.845 140.475 309.568 141.367 309.568Z" fill="black"/>
<path opacity="0.1" d="M141.367 314.95C142.26 314.95 142.984 314.227 142.984 313.335C142.984 312.442 142.26 311.719 141.367 311.719C140.475 311.719 139.751 312.442 139.751 313.335C139.751 314.227 140.475 314.95 141.367 314.95Z" fill="black"/>
<path opacity="0.1" d="M135.448 243.366C135.448 243.672 135.36 243.972 135.196 244.23C135.031 244.489 134.797 244.695 134.52 244.826C134.242 244.956 133.934 245.005 133.63 244.967C133.326 244.928 133.039 244.804 132.802 244.609C133.489 243.787 134.229 243.01 135.018 242.285C135.293 242.577 135.447 242.964 135.448 243.366Z" fill="black"/>
<path opacity="0.1" d="M133.832 250.363C134.724 250.363 135.448 249.64 135.448 248.747C135.448 247.855 134.724 247.132 133.832 247.132C132.939 247.132 132.215 247.855 132.215 248.747C132.215 249.64 132.939 250.363 133.832 250.363Z" fill="black"/>
<path opacity="0.1" d="M133.832 255.745C134.724 255.745 135.448 255.022 135.448 254.129C135.448 253.237 134.724 252.513 133.832 252.513C132.939 252.513 132.215 253.237 132.215 254.129C132.215 255.022 132.939 255.745 133.832 255.745Z" fill="black"/>
<path opacity="0.1" d="M133.832 261.127C134.724 261.127 135.448 260.403 135.448 259.511C135.448 258.619 134.724 257.895 133.832 257.895C132.939 257.895 132.215 258.619 132.215 259.511C132.215 260.403 132.939 261.127 133.832 261.127Z" fill="black"/>
<path opacity="0.1" d="M133.832 266.508C134.724 266.508 135.448 265.785 135.448 264.893C135.448 264 134.724 263.277 133.832 263.277C132.939 263.277 132.215 264 132.215 264.893C132.215 265.785 132.939 266.508 133.832 266.508Z" fill="black"/>
<path opacity="0.1" d="M133.832 271.89C134.724 271.89 135.448 271.167 135.448 270.275C135.448 269.382 134.724 268.659 133.832 268.659C132.939 268.659 132.215 269.382 132.215 270.275C132.215 271.167 132.939 271.89 133.832 271.89Z" fill="black"/>
<path opacity="0.1" d="M133.832 277.272C134.724 277.272 135.448 276.549 135.448 275.656C135.448 274.764 134.724 274.041 133.832 274.041C132.939 274.041 132.215 274.764 132.215 275.656C132.215 276.549 132.939 277.272 133.832 277.272Z" fill="black"/>
<path opacity="0.1" d="M133.832 282.66C134.724 282.66 135.448 281.936 135.448 281.044C135.448 280.152 134.724 279.428 133.832 279.428C132.939 279.428 132.215 280.152 132.215 281.044C132.215 281.936 132.939 282.66 133.832 282.66Z" fill="black"/>
<path opacity="0.1" d="M133.832 288.041C134.724 288.041 135.448 287.318 135.448 286.426C135.448 285.533 134.724 284.81 133.832 284.81C132.939 284.81 132.215 285.533 132.215 286.426C132.215 287.318 132.939 288.041 133.832 288.041Z" fill="black"/>
<path opacity="0.1" d="M133.832 293.423C134.724 293.423 135.448 292.7 135.448 291.807C135.448 290.915 134.724 290.192 133.832 290.192C132.939 290.192 132.215 290.915 132.215 291.807C132.215 292.7 132.939 293.423 133.832 293.423Z" fill="black"/>
<path opacity="0.1" d="M133.832 298.805C134.724 298.805 135.448 298.082 135.448 297.189C135.448 296.297 134.724 295.574 133.832 295.574C132.939 295.574 132.215 296.297 132.215 297.189C132.215 298.082 132.939 298.805 133.832 298.805Z" fill="black"/>
<path opacity="0.1" d="M133.832 304.187C134.724 304.187 135.448 303.463 135.448 302.571C135.448 301.679 134.724 300.955 133.832 300.955C132.939 300.955 132.215 301.679 132.215 302.571C132.215 303.463 132.939 304.187 133.832 304.187Z" fill="black"/>
<path opacity="0.1" d="M133.832 309.568C134.724 309.568 135.448 308.845 135.448 307.953C135.448 307.06 134.724 306.337 133.832 306.337C132.939 306.337 132.215 307.06 132.215 307.953C132.215 308.845 132.939 309.568 133.832 309.568Z" fill="black"/>
<path opacity="0.1" d="M135.448 313.335C135.448 313.672 135.343 314.002 135.145 314.276C134.948 314.55 134.67 314.756 134.349 314.863C133.651 314.16 132.993 313.419 132.378 312.643C132.533 312.31 132.798 312.04 133.128 311.879C133.458 311.717 133.833 311.673 134.192 311.753C134.55 311.834 134.87 312.035 135.099 312.323C135.327 312.61 135.451 312.967 135.448 313.335Z" fill="black"/>
<path opacity="0.1" d="M148.909 244.981C149.802 244.981 150.526 244.258 150.526 243.366C150.526 242.473 149.802 241.75 148.909 241.75C148.016 241.75 147.293 242.473 147.293 243.366C147.293 244.258 148.016 244.981 148.909 244.981Z" fill="black"/>
<path opacity="0.1" d="M148.909 250.363C149.802 250.363 150.526 249.64 150.526 248.747C150.526 247.855 149.802 247.132 148.909 247.132C148.016 247.132 147.293 247.855 147.293 248.747C147.293 249.64 148.016 250.363 148.909 250.363Z" fill="black"/>
<path opacity="0.1" d="M148.909 255.745C149.802 255.745 150.526 255.022 150.526 254.129C150.526 253.237 149.802 252.513 148.909 252.513C148.016 252.513 147.293 253.237 147.293 254.129C147.293 255.022 148.016 255.745 148.909 255.745Z" fill="black"/>
<path opacity="0.1" d="M148.909 261.127C149.802 261.127 150.526 260.403 150.526 259.511C150.526 258.619 149.802 257.895 148.909 257.895C148.016 257.895 147.293 258.619 147.293 259.511C147.293 260.403 148.016 261.127 148.909 261.127Z" fill="black"/>
<path opacity="0.1" d="M148.909 266.508C149.802 266.508 150.526 265.785 150.526 264.893C150.526 264 149.802 263.277 148.909 263.277C148.016 263.277 147.293 264 147.293 264.893C147.293 265.785 148.016 266.508 148.909 266.508Z" fill="black"/>
<path opacity="0.1" d="M148.909 271.89C149.802 271.89 150.526 271.167 150.526 270.275C150.526 269.382 149.802 268.659 148.909 268.659C148.016 268.659 147.293 269.382 147.293 270.275C147.293 271.167 148.016 271.89 148.909 271.89Z" fill="black"/>
<path opacity="0.1" d="M148.909 277.272C149.802 277.272 150.526 276.549 150.526 275.656C150.526 274.764 149.802 274.041 148.909 274.041C148.016 274.041 147.293 274.764 147.293 275.656C147.293 276.549 148.016 277.272 148.909 277.272Z" fill="black"/>
<path opacity="0.1" d="M148.909 282.66C149.802 282.66 150.526 281.936 150.526 281.044C150.526 280.152 149.802 279.428 148.909 279.428C148.016 279.428 147.293 280.152 147.293 281.044C147.293 281.936 148.016 282.66 148.909 282.66Z" fill="black"/>
<path opacity="0.1" d="M148.909 288.041C149.802 288.041 150.526 287.318 150.526 286.426C150.526 285.533 149.802 284.81 148.909 284.81C148.016 284.81 147.293 285.533 147.293 286.426C147.293 287.318 148.016 288.041 148.909 288.041Z" fill="black"/>
<path opacity="0.1" d="M148.909 293.423C149.802 293.423 150.526 292.7 150.526 291.807C150.526 290.915 149.802 290.192 148.909 290.192C148.016 290.192 147.293 290.915 147.293 291.807C147.293 292.7 148.016 293.423 148.909 293.423Z" fill="black"/>
<path opacity="0.1" d="M148.909 298.805C149.802 298.805 150.526 298.082 150.526 297.189C150.526 296.297 149.802 295.574 148.909 295.574C148.016 295.574 147.293 296.297 147.293 297.189C147.293 298.082 148.016 298.805 148.909 298.805Z" fill="black"/>
<path opacity="0.1" d="M148.909 304.187C149.802 304.187 150.526 303.463 150.526 302.571C150.526 301.679 149.802 300.955 148.909 300.955C148.016 300.955 147.293 301.679 147.293 302.571C147.293 303.463 148.016 304.187 148.909 304.187Z" fill="black"/>
<path opacity="0.1" d="M148.909 309.568C149.802 309.568 150.526 308.845 150.526 307.953C150.526 307.06 149.802 306.337 148.909 306.337C148.016 306.337 147.293 307.06 147.293 307.953C147.293 308.845 148.016 309.568 148.909 309.568Z" fill="black"/>
<path opacity="0.1" d="M148.909 314.95C149.802 314.95 150.526 314.227 150.526 313.335C150.526 312.442 149.802 311.719 148.909 311.719C148.016 311.719 147.293 312.442 147.293 313.335C147.293 314.227 148.016 314.95 148.909 314.95Z" fill="black"/>
<path opacity="0.1" d="M156.445 244.981C157.338 244.981 158.061 244.258 158.061 243.366C158.061 242.473 157.338 241.75 156.445 241.75C155.552 241.75 154.829 242.473 154.829 243.366C154.829 244.258 155.552 244.981 156.445 244.981Z" fill="black"/>
<path opacity="0.1" d="M156.445 250.363C157.338 250.363 158.061 249.64 158.061 248.747C158.061 247.855 157.338 247.132 156.445 247.132C155.552 247.132 154.829 247.855 154.829 248.747C154.829 249.64 155.552 250.363 156.445 250.363Z" fill="black"/>
<path opacity="0.1" d="M156.445 255.745C157.338 255.745 158.061 255.022 158.061 254.129C158.061 253.237 157.338 252.513 156.445 252.513C155.552 252.513 154.829 253.237 154.829 254.129C154.829 255.022 155.552 255.745 156.445 255.745Z" fill="black"/>
<path opacity="0.1" d="M156.445 261.127C157.338 261.127 158.061 260.403 158.061 259.511C158.061 258.619 157.338 257.895 156.445 257.895C155.552 257.895 154.829 258.619 154.829 259.511C154.829 260.403 155.552 261.127 156.445 261.127Z" fill="black"/>
<path opacity="0.1" d="M156.445 266.508C157.338 266.508 158.061 265.785 158.061 264.893C158.061 264 157.338 263.277 156.445 263.277C155.552 263.277 154.829 264 154.829 264.893C154.829 265.785 155.552 266.508 156.445 266.508Z" fill="black"/>
<path opacity="0.1" d="M156.445 271.89C157.338 271.89 158.061 271.167 158.061 270.275C158.061 269.382 157.338 268.659 156.445 268.659C155.552 268.659 154.829 269.382 154.829 270.275C154.829 271.167 155.552 271.89 156.445 271.89Z" fill="black"/>
<path opacity="0.1" d="M156.445 277.272C157.338 277.272 158.061 276.549 158.061 275.656C158.061 274.764 157.338 274.041 156.445 274.041C155.552 274.041 154.829 274.764 154.829 275.656C154.829 276.549 155.552 277.272 156.445 277.272Z" fill="black"/>
<path opacity="0.1" d="M156.445 282.66C157.338 282.66 158.061 281.936 158.061 281.044C158.061 280.152 157.338 279.428 156.445 279.428C155.552 279.428 154.829 280.152 154.829 281.044C154.829 281.936 155.552 282.66 156.445 282.66Z" fill="black"/>
<path opacity="0.1" d="M156.445 288.041C157.338 288.041 158.061 287.318 158.061 286.426C158.061 285.533 157.338 284.81 156.445 284.81C155.552 284.81 154.829 285.533 154.829 286.426C154.829 287.318 155.552 288.041 156.445 288.041Z" fill="black"/>
<path opacity="0.1" d="M156.445 293.423C157.338 293.423 158.061 292.7 158.061 291.807C158.061 290.915 157.338 290.192 156.445 290.192C155.552 290.192 154.829 290.915 154.829 291.807C154.829 292.7 155.552 293.423 156.445 293.423Z" fill="black"/>
<path opacity="0.1" d="M156.445 298.805C157.338 298.805 158.061 298.082 158.061 297.189C158.061 296.297 157.338 295.574 156.445 295.574C155.552 295.574 154.829 296.297 154.829 297.189C154.829 298.082 155.552 298.805 156.445 298.805Z" fill="black"/>
<path opacity="0.1" d="M156.445 304.187C157.338 304.187 158.061 303.463 158.061 302.571C158.061 301.679 157.338 300.955 156.445 300.955C155.552 300.955 154.829 301.679 154.829 302.571C154.829 303.463 155.552 304.187 156.445 304.187Z" fill="black"/>
<path opacity="0.1" d="M156.445 309.568C157.338 309.568 158.061 308.845 158.061 307.953C158.061 307.06 157.338 306.337 156.445 306.337C155.552 306.337 154.829 307.06 154.829 307.953C154.829 308.845 155.552 309.568 156.445 309.568Z" fill="black"/>
<path opacity="0.1" d="M156.445 314.95C157.338 314.95 158.061 314.227 158.061 313.335C158.061 312.442 157.338 311.719 156.445 311.719C155.552 311.719 154.829 312.442 154.829 313.335C154.829 314.227 155.552 314.95 156.445 314.95Z" fill="black"/>
<path opacity="0.1" d="M163.987 244.981C164.879 244.981 165.603 244.258 165.603 243.366C165.603 242.473 164.879 241.75 163.987 241.75C163.094 241.75 162.37 242.473 162.37 243.366C162.37 244.258 163.094 244.981 163.987 244.981Z" fill="black"/>
<path opacity="0.1" d="M163.987 250.363C164.879 250.363 165.603 249.64 165.603 248.747C165.603 247.855 164.879 247.132 163.987 247.132C163.094 247.132 162.37 247.855 162.37 248.747C162.37 249.64 163.094 250.363 163.987 250.363Z" fill="black"/>
<path opacity="0.1" d="M163.987 255.745C164.879 255.745 165.603 255.022 165.603 254.129C165.603 253.237 164.879 252.513 163.987 252.513C163.094 252.513 162.37 253.237 162.37 254.129C162.37 255.022 163.094 255.745 163.987 255.745Z" fill="black"/>
<path opacity="0.1" d="M163.987 261.127C164.879 261.127 165.603 260.403 165.603 259.511C165.603 258.619 164.879 257.895 163.987 257.895C163.094 257.895 162.37 258.619 162.37 259.511C162.37 260.403 163.094 261.127 163.987 261.127Z" fill="black"/>
<path opacity="0.1" d="M163.987 266.508C164.879 266.508 165.603 265.785 165.603 264.893C165.603 264 164.879 263.277 163.987 263.277C163.094 263.277 162.37 264 162.37 264.893C162.37 265.785 163.094 266.508 163.987 266.508Z" fill="black"/>
<path opacity="0.1" d="M163.987 271.89C164.879 271.89 165.603 271.167 165.603 270.275C165.603 269.382 164.879 268.659 163.987 268.659C163.094 268.659 162.37 269.382 162.37 270.275C162.37 271.167 163.094 271.89 163.987 271.89Z" fill="black"/>
<path opacity="0.1" d="M163.987 277.272C164.879 277.272 165.603 276.549 165.603 275.656C165.603 274.764 164.879 274.041 163.987 274.041C163.094 274.041 162.37 274.764 162.37 275.656C162.37 276.549 163.094 277.272 163.987 277.272Z" fill="black"/>
<path opacity="0.1" d="M163.987 282.66C164.879 282.66 165.603 281.936 165.603 281.044C165.603 280.152 164.879 279.428 163.987 279.428C163.094 279.428 162.37 280.152 162.37 281.044C162.37 281.936 163.094 282.66 163.987 282.66Z" fill="black"/>
<path opacity="0.1" d="M163.987 288.041C164.879 288.041 165.603 287.318 165.603 286.426C165.603 285.533 164.879 284.81 163.987 284.81C163.094 284.81 162.37 285.533 162.37 286.426C162.37 287.318 163.094 288.041 163.987 288.041Z" fill="black"/>
<path opacity="0.1" d="M163.987 293.423C164.879 293.423 165.603 292.7 165.603 291.807C165.603 290.915 164.879 290.192 163.987 290.192C163.094 290.192 162.37 290.915 162.37 291.807C162.37 292.7 163.094 293.423 163.987 293.423Z" fill="black"/>
<path opacity="0.1" d="M163.987 298.805C164.879 298.805 165.603 298.082 165.603 297.189C165.603 296.297 164.879 295.574 163.987 295.574C163.094 295.574 162.37 296.297 162.37 297.189C162.37 298.082 163.094 298.805 163.987 298.805Z" fill="black"/>
<path opacity="0.1" d="M163.987 304.187C164.879 304.187 165.603 303.463 165.603 302.571C165.603 301.679 164.879 300.955 163.987 300.955C163.094 300.955 162.37 301.679 162.37 302.571C162.37 303.463 163.094 304.187 163.987 304.187Z" fill="black"/>
<path opacity="0.1" d="M163.987 309.568C164.879 309.568 165.603 308.845 165.603 307.953C165.603 307.06 164.879 306.337 163.987 306.337C163.094 306.337 162.37 307.06 162.37 307.953C162.37 308.845 163.094 309.568 163.987 309.568Z" fill="black"/>
<path opacity="0.1" d="M163.987 314.95C164.879 314.95 165.603 314.227 165.603 313.335C165.603 312.442 164.879 311.719 163.987 311.719C163.094 311.719 162.37 312.442 162.37 313.335C162.37 314.227 163.094 314.95 163.987 314.95Z" fill="black"/>
<path opacity="0.1" d="M172.558 244.609C172.321 244.804 172.034 244.928 171.73 244.967C171.426 245.005 171.118 244.956 170.84 244.826C170.563 244.695 170.329 244.489 170.164 244.23C170 243.972 169.912 243.672 169.912 243.366C169.91 242.96 170.064 242.569 170.342 242.273C170.552 242.459 170.755 242.662 170.959 242.854C171.517 243.424 172.046 244.005 172.558 244.609Z" fill="black"/>
<path opacity="0.1" d="M171.523 250.363C172.415 250.363 173.139 249.64 173.139 248.747C173.139 247.855 172.415 247.132 171.523 247.132C170.63 247.132 169.906 247.855 169.906 248.747C169.906 249.64 170.63 250.363 171.523 250.363Z" fill="black"/>
<path opacity="0.1" d="M171.523 255.745C172.415 255.745 173.139 255.022 173.139 254.129C173.139 253.237 172.415 252.513 171.523 252.513C170.63 252.513 169.906 253.237 169.906 254.129C169.906 255.022 170.63 255.745 171.523 255.745Z" fill="black"/>
<path opacity="0.1" d="M171.523 261.127C172.415 261.127 173.139 260.403 173.139 259.511C173.139 258.619 172.415 257.895 171.523 257.895C170.63 257.895 169.906 258.619 169.906 259.511C169.906 260.403 170.63 261.127 171.523 261.127Z" fill="black"/>
<path opacity="0.1" d="M171.523 266.508C172.415 266.508 173.139 265.785 173.139 264.893C173.139 264 172.415 263.277 171.523 263.277C170.63 263.277 169.906 264 169.906 264.893C169.906 265.785 170.63 266.508 171.523 266.508Z" fill="black"/>
<path opacity="0.1" d="M171.523 271.89C172.415 271.89 173.139 271.167 173.139 270.275C173.139 269.382 172.415 268.659 171.523 268.659C170.63 268.659 169.906 269.382 169.906 270.275C169.906 271.167 170.63 271.89 171.523 271.89Z" fill="black"/>
<path opacity="0.1" d="M171.523 277.272C172.415 277.272 173.139 276.549 173.139 275.656C173.139 274.764 172.415 274.041 171.523 274.041C170.63 274.041 169.906 274.764 169.906 275.656C169.906 276.549 170.63 277.272 171.523 277.272Z" fill="black"/>
<path opacity="0.1" d="M171.523 282.66C172.415 282.66 173.139 281.936 173.139 281.044C173.139 280.152 172.415 279.428 171.523 279.428C170.63 279.428 169.906 280.152 169.906 281.044C169.906 281.936 170.63 282.66 171.523 282.66Z" fill="black"/>
<path opacity="0.1" d="M171.523 288.041C172.415 288.041 173.139 287.318 173.139 286.426C173.139 285.533 172.415 284.81 171.523 284.81C170.63 284.81 169.906 285.533 169.906 286.426C169.906 287.318 170.63 288.041 171.523 288.041Z" fill="black"/>
<path opacity="0.1" d="M171.523 293.423C172.415 293.423 173.139 292.7 173.139 291.807C173.139 290.915 172.415 290.192 171.523 290.192C170.63 290.192 169.906 290.915 169.906 291.807C169.906 292.7 170.63 293.423 171.523 293.423Z" fill="black"/>
<path opacity="0.1" d="M171.523 298.805C172.415 298.805 173.139 298.082 173.139 297.189C173.139 296.297 172.415 295.574 171.523 295.574C170.63 295.574 169.906 296.297 169.906 297.189C169.906 298.082 170.63 298.805 171.523 298.805Z" fill="black"/>
<path opacity="0.1" d="M171.523 304.187C172.415 304.187 173.139 303.463 173.139 302.571C173.139 301.679 172.415 300.955 171.523 300.955C170.63 300.955 169.906 301.679 169.906 302.571C169.906 303.463 170.63 304.187 171.523 304.187Z" fill="black"/>
<path opacity="0.1" d="M171.523 309.568C172.415 309.568 173.139 308.845 173.139 307.953C173.139 307.06 172.415 306.337 171.523 306.337C170.63 306.337 169.906 307.06 169.906 307.953C169.906 308.845 170.63 309.568 171.523 309.568Z" fill="black"/>
<path opacity="0.1" d="M172.982 312.637C172.367 313.413 171.709 314.155 171.011 314.857C170.757 314.773 170.527 314.627 170.344 314.433C170.16 314.238 170.027 314.001 169.958 313.743C169.888 313.485 169.884 313.213 169.945 312.953C170.007 312.692 170.132 312.451 170.31 312.251C170.487 312.051 170.712 311.898 170.963 311.806C171.215 311.714 171.485 311.686 171.75 311.724C172.015 311.763 172.266 311.866 172.481 312.025C172.696 312.185 172.868 312.395 172.982 312.637Z" fill="black"/>
<path d="M152.229 293.958H150.973C149.239 293.958 147.833 295.363 147.833 297.096V362.939C147.833 364.672 149.239 366.077 150.973 366.077H152.229C153.963 366.077 155.369 364.672 155.369 362.939V297.096C155.369 295.363 153.963 293.958 152.229 293.958Z" fill="#54576B"/>
<path d="M173.407 356.389H129.796C127.564 356.389 125.755 358.197 125.755 360.428V362.038C125.755 364.269 127.564 366.077 129.796 366.077H173.407C175.638 366.077 177.448 364.269 177.448 362.038V360.428C177.448 358.197 175.638 356.389 173.407 356.389Z" fill="#54576B"/>
<path opacity="0.1" d="M152.229 293.958H150.973C149.239 293.958 147.833 295.363 147.833 297.096V362.939C147.833 364.672 149.239 366.077 150.973 366.077H152.229C153.963 366.077 155.369 364.672 155.369 362.939V297.096C155.369 295.363 153.963 293.958 152.229 293.958Z" fill="black"/>
<path opacity="0.1" d="M173.407 356.389H129.796C127.564 356.389 125.755 358.197 125.755 360.428V362.038C125.755 364.269 127.564 366.077 129.796 366.077H173.407C175.638 366.077 177.448 364.269 177.448 362.038V360.428C177.448 358.197 175.638 356.389 173.407 356.389Z" fill="black"/>
<path d="M153.305 293.958H152.049C150.315 293.958 148.909 295.363 148.909 297.096V362.939C148.909 364.672 150.315 366.077 152.049 366.077H153.305C155.039 366.077 156.445 364.672 156.445 362.939V297.096C156.445 295.363 155.039 293.958 153.305 293.958Z" fill="#54576B"/>
<path d="M174.482 356.389H130.872C128.64 356.389 126.831 358.197 126.831 360.428V362.038C126.831 364.269 128.64 366.077 130.872 366.077H174.482C176.714 366.077 178.523 364.269 178.523 362.038V360.428C178.523 358.197 176.714 356.389 174.482 356.389Z" fill="#54576B"/>
<path d="M197.567 300.06C193.525 308.849 187.047 316.294 178.9 321.514C170.752 326.733 161.278 329.507 151.601 329.507C141.924 329.507 132.45 326.733 124.303 321.514C116.156 316.294 109.677 308.849 105.636 300.06C100.281 292.383 95.5998 277.074 95.5998 278.894C95.5998 286.244 97.0483 293.523 99.8626 300.314C102.677 307.105 106.802 313.275 112.002 318.473C117.202 323.671 123.376 327.794 130.17 330.607C136.965 333.42 144.247 334.867 151.601 334.867C158.956 334.867 166.238 333.42 173.032 330.607C179.827 327.794 186 323.671 191.2 318.473C196.401 313.275 200.526 307.105 203.34 300.314C206.154 293.523 207.603 286.244 207.603 278.894C207.603 277.074 202.922 292.383 197.567 300.06Z" fill="#54576B"/>
<path d="M151.601 222.914C142.568 222.916 133.669 225.104 125.665 229.289C117.66 233.475 110.789 239.535 105.636 246.952C102.565 253.585 100.977 260.809 100.984 268.118C100.984 269.916 101.079 271.712 101.269 273.5C102.535 261.038 108.384 249.49 117.682 241.092C126.98 232.694 139.066 228.045 151.598 228.045C164.131 228.045 176.216 232.694 185.515 241.092C194.813 249.49 200.662 261.038 201.928 273.5C202.118 271.712 202.213 269.916 202.213 268.118C202.22 260.809 200.632 253.585 197.561 246.952C192.409 239.536 185.538 233.477 177.535 229.291C169.532 225.105 160.634 222.917 151.601 222.914Z" fill="#54576B"/>
<path opacity="0.1" d="M152.677 303.106C153.865 303.106 154.829 302.143 154.829 300.955C154.829 299.768 153.865 298.805 152.677 298.805C151.489 298.805 150.526 299.768 150.526 300.955C150.526 302.143 151.489 303.106 152.677 303.106Z" fill="black"/>
<path opacity="0.2" d="M253.638 354.238C254.084 354.238 254.446 353.877 254.446 353.431C254.446 352.984 254.084 352.623 253.638 352.623C253.192 352.623 252.83 352.984 252.83 353.431C252.83 353.877 253.192 354.238 253.638 354.238Z" fill="black"/>
<path d="M223.146 369.68C219.931 369.701 216.753 369.004 213.842 367.641C202.992 362.538 197.642 363.183 189.548 364.153C181.963 365.198 174.291 365.477 166.65 364.984C164.519 364.886 162.437 364.312 160.556 363.307C158.675 362.302 157.042 360.889 155.776 359.173C143.775 343.597 151.805 302.588 152.154 300.851C152.19 300.719 152.274 300.606 152.391 300.534C152.507 300.462 152.646 300.436 152.78 300.463C152.914 300.489 153.034 300.566 153.114 300.677C153.194 300.787 153.229 300.924 153.212 301.06C153.131 301.478 144.926 343.324 156.631 358.51C157.803 360.106 159.317 361.42 161.063 362.356C162.808 363.292 164.741 363.827 166.72 363.921C174.287 364.406 181.885 364.128 189.397 363.09C197.677 362.09 203.149 361.428 214.278 366.664C232.031 375.016 252.836 353.773 253.039 353.558C253.141 353.47 253.273 353.423 253.408 353.427C253.543 353.431 253.672 353.485 253.769 353.579C253.866 353.673 253.925 353.8 253.933 353.935C253.941 354.07 253.898 354.203 253.812 354.308C253.655 354.494 238.776 369.68 223.146 369.68Z" fill="#DFE6F5"/>
<path d="M242.927 83.8709C234.037 67.8592 215.988 56.8806 195.247 56.8806C165.708 56.8806 141.67 79.0935 141.67 106.398H137.873C137.873 77.0187 163.603 53.1145 195.218 53.1145C213.522 53.1145 229.85 61.1233 240.357 73.5723C241.218 76.362 241.875 79.2156 242.526 82.0634C242.671 82.6736 242.805 83.2723 242.927 83.8709Z" fill="#535461"/>
<path d="M145.885 90.6649H150.845V124.955H145.885C142.098 124.955 138.466 123.451 135.787 120.774C133.109 118.097 131.605 114.467 131.605 110.681V104.974C131.6 103.096 131.966 101.236 132.682 99.5006C133.397 97.7648 134.448 96.1872 135.775 94.858C137.102 93.5289 138.677 92.4743 140.412 91.7548C142.147 91.0353 144.007 90.6649 145.885 90.6649Z" fill="#DFE6F5"/>
<path d="M151.549 90.694H150.142C148.205 90.694 146.636 92.2631 146.636 94.1986V121.45C146.636 123.386 148.205 124.955 150.142 124.955H151.549C153.485 124.955 155.055 123.386 155.055 121.45V94.1986C155.055 92.2631 153.485 90.694 151.549 90.694Z" fill="#535461"/>
<path d="M466.242 337.035C466.242 337.035 457.008 333.909 452.565 342.039C451.393 344.244 450.797 346.708 450.831 349.205C450.866 351.701 451.53 354.148 452.763 356.319C455.67 361.59 461.694 368.437 473.115 367.827C482.779 367.309 485.994 359.94 486.866 353.082C487.201 350.511 486.869 347.897 485.903 345.49C484.937 343.084 483.369 340.965 481.35 339.338C479.33 337.711 476.926 336.629 474.368 336.196C471.811 335.764 469.185 335.994 466.742 336.867L466.242 337.035Z" fill="#6C63FF"/>
<path opacity="0.1" d="M454.717 357.051C453.484 354.88 452.82 352.433 452.785 349.937C452.751 347.441 453.347 344.976 454.519 342.772C458.962 334.635 468.195 337.768 468.195 337.768L468.666 337.599C472.187 336.326 476.057 336.413 479.517 337.843C477.607 336.707 475.47 336.008 473.257 335.797C471.045 335.586 468.814 335.868 466.724 336.623L466.253 336.791C466.253 336.791 457.019 333.664 452.577 341.795C451.405 344 450.809 346.464 450.843 348.96C450.878 351.457 451.542 353.904 452.775 356.075C454.699 359.562 457.961 363.694 463.241 365.955C459.638 363.823 456.69 360.743 454.717 357.051Z" fill="white"/>
<path opacity="0.2" d="M461.474 340.947C461.474 340.947 464.898 343.638 473.208 340.947H461.474Z" fill="black"/>
<path d="M460.741 321.396C460.741 321.396 466.608 337.279 466.119 341.435L470.771 340.947C470.771 340.947 462.916 327.016 464.898 321.396H460.741Z" fill="#6C63FF"/>
<path opacity="0.2" d="M460.741 321.396C460.741 321.396 466.608 337.279 466.119 341.435L470.771 340.947C470.771 340.947 462.916 327.016 464.898 321.396H460.741Z" fill="black"/>
<path d="M484.692 322.721C484.692 322.721 475.458 318.002 471.318 321.901C467.178 325.801 466.55 335.768 466.55 335.768C466.55 335.768 481.616 337.843 484.692 322.721Z" fill="#6C63FF"/>
<path opacity="0.1" d="M484.692 322.721C484.692 322.721 475.458 318.002 471.318 321.901C467.178 325.801 466.55 335.768 466.55 335.768C466.55 335.768 481.616 337.843 484.692 322.721Z" fill="white"/>
<path d="M466.556 335.768C466.556 335.768 468.98 324.197 484.692 322.721" stroke="#6C63FF" stroke-miterlimit="10"/>
</g>
<defs>
<linearGradient id="paint0_linear" x1="345.185" y1="410.253" x2="345.185" y2="38.3408" gradientUnits="userSpaceOnUse">
<stop stop-color="#808080" stop-opacity="0.25"/>
<stop offset="0.54" stop-color="#808080" stop-opacity="0.12"/>
<stop offset="1" stop-color="#808080" stop-opacity="0.1"/>
</linearGradient>
<clipPath id="clip0">
<rect width="663" height="451" fill="white"/>
</clipPath>
</defs>
</svg>
