<svg width="609" height="530" viewBox="0 0 609 530" fill="none" xmlns="http://www.w3.org/2000/svg">
    <rect width="609" height="530" fill="#30B395"/>
    <path d="M356.931 174.121C368.725 159.187 367.537 140.01 367.5 139.791V81.4582C367.5 79.5243 366.841 77.6696 365.669 76.3022C364.497 74.9347 362.907 74.1665 361.25 74.1665H323.75C316.856 74.1665 311.25 80.7071 311.25 88.7498V139.791C311.25 141.725 311.908 143.58 313.08 144.947C314.253 146.315 315.842 147.083 317.5 147.083H336.737C336.605 150.688 335.682 154.193 334.056 157.262C330.881 163.103 324.9 167.091 316.269 169.104L311.25 170.271V190.833H317.5C334.894 190.833 348.162 185.211 356.931 174.121ZM288.137 174.121C299.937 159.187 298.744 140.01 298.706 139.791V81.4582C298.706 79.5243 298.048 77.6696 296.875 76.3022C295.703 74.9347 294.114 74.1665 292.456 74.1665H254.956C248.062 74.1665 242.456 80.7071 242.456 88.7498V139.791C242.456 141.725 243.115 143.58 244.287 144.947C245.459 146.315 247.048 147.083 248.706 147.083H267.944C267.812 150.688 266.888 154.193 265.262 157.262C262.087 163.103 256.106 167.091 247.475 169.104L242.456 170.271V190.833H248.706C266.1 190.833 279.369 185.211 288.137 174.121Z" fill="#707070" fill-opacity="0.25"/>
    <path d="M109.403 276V253.6H114.907V276H109.403ZM132.872 276H127.88L123.272 259.072H128.168L130.664 269.024L133.704 259.072H137.992L141.032 269.056L143.496 259.072H148.328L143.688 276H138.728L135.784 266.208L132.872 276ZM155.274 276.288C153.482 276.288 152.01 275.797 150.858 274.816C149.706 273.835 149.13 272.576 149.13 271.04C149.13 269.44 149.738 268.192 150.954 267.296C152.191 266.4 153.908 265.952 156.106 265.952C156.767 265.952 157.418 265.995 158.058 266.08C158.698 266.165 159.327 266.283 159.946 266.432V265.6C159.946 264.747 159.668 264.117 159.114 263.712C158.58 263.285 157.78 263.072 156.714 263.072C156.052 263.072 155.306 263.179 154.474 263.392C153.642 263.605 152.682 263.947 151.594 264.416L149.738 260.608C151.103 259.989 152.436 259.531 153.738 259.232C155.06 258.912 156.362 258.752 157.642 258.752C159.988 258.752 161.812 259.317 163.114 260.448C164.415 261.557 165.066 263.125 165.066 265.152V276H159.946V274.976C159.263 275.445 158.538 275.787 157.77 276C157.023 276.192 156.191 276.288 155.274 276.288ZM154.058 270.944C154.058 271.477 154.292 271.893 154.762 272.192C155.231 272.491 155.882 272.64 156.714 272.64C157.332 272.64 157.908 272.576 158.442 272.448C158.996 272.32 159.498 272.117 159.946 271.84V269.664C159.455 269.536 158.954 269.44 158.442 269.376C157.93 269.312 157.407 269.28 156.874 269.28C155.978 269.28 155.284 269.429 154.794 269.728C154.303 270.005 154.058 270.411 154.058 270.944ZM166.835 274.112L169.299 270.624C170.366 271.264 171.336 271.733 172.211 272.032C173.086 272.309 173.95 272.448 174.803 272.448C175.656 272.448 176.328 272.331 176.819 272.096C177.331 271.84 177.587 271.509 177.587 271.104C177.587 270.784 177.448 270.528 177.171 270.336C176.894 270.123 176.456 269.973 175.859 269.888L172.499 269.376C170.835 269.12 169.555 268.565 168.659 267.712C167.763 266.837 167.315 265.707 167.315 264.32C167.315 262.613 167.966 261.269 169.267 260.288C170.568 259.307 172.35 258.816 174.611 258.816C175.827 258.816 177.043 258.997 178.259 259.36C179.496 259.701 180.638 260.203 181.683 260.864L179.219 264.192C178.302 263.659 177.427 263.275 176.595 263.04C175.763 262.784 174.931 262.656 174.099 262.656C173.438 262.656 172.904 262.773 172.499 263.008C172.094 263.221 171.891 263.509 171.891 263.872C171.891 264.213 172.04 264.491 172.339 264.704C172.638 264.896 173.15 265.045 173.875 265.152L177.235 265.664C178.899 265.899 180.179 266.453 181.075 267.328C181.992 268.181 182.451 269.269 182.451 270.592C182.451 271.403 182.259 272.16 181.875 272.864C181.491 273.568 180.958 274.176 180.275 274.688C179.614 275.2 178.814 275.605 177.875 275.904C176.936 276.181 175.923 276.32 174.835 276.32C173.235 276.32 171.742 276.139 170.355 275.776C168.99 275.392 167.816 274.837 166.835 274.112ZM208.982 267.552C208.982 268.768 208.747 269.909 208.278 270.976C207.83 272.021 207.211 272.939 206.422 273.728C205.633 274.496 204.694 275.104 203.606 275.552C202.539 276 201.398 276.224 200.182 276.224C199.393 276.224 198.625 276.128 197.878 275.936C197.131 275.723 196.438 275.424 195.798 275.04V276H190.678V253.6L195.862 252.48V260.256C196.523 259.787 197.227 259.435 197.974 259.2C198.742 258.965 199.531 258.848 200.342 258.848C201.537 258.848 202.657 259.072 203.702 259.52C204.769 259.968 205.686 260.587 206.454 261.376C207.243 262.165 207.862 263.093 208.31 264.16C208.758 265.205 208.982 266.336 208.982 267.552ZM199.446 263.264C198.721 263.264 198.059 263.381 197.462 263.616C196.865 263.829 196.331 264.16 195.862 264.608V270.528C196.31 270.933 196.843 271.253 197.462 271.488C198.081 271.723 198.742 271.84 199.446 271.84C200.705 271.84 201.761 271.435 202.614 270.624C203.467 269.792 203.894 268.768 203.894 267.552C203.894 266.336 203.457 265.323 202.582 264.512C201.729 263.68 200.683 263.264 199.446 263.264ZM210.816 267.552C210.816 266.336 211.051 265.195 211.52 264.128C212.011 263.04 212.662 262.101 213.472 261.312C214.304 260.523 215.275 259.904 216.384 259.456C217.515 258.987 218.72 258.752 220 258.752C221.28 258.752 222.475 258.987 223.584 259.456C224.715 259.904 225.686 260.523 226.496 261.312C227.328 262.101 227.979 263.04 228.448 264.128C228.939 265.195 229.184 266.336 229.184 267.552C229.184 268.768 228.939 269.92 228.448 271.008C227.979 272.075 227.328 273.003 226.496 273.792C225.686 274.581 224.715 275.2 223.584 275.648C222.475 276.096 221.28 276.32 220 276.32C218.72 276.32 217.515 276.096 216.384 275.648C215.275 275.2 214.304 274.581 213.472 273.792C212.662 273.003 212.011 272.075 211.52 271.008C211.051 269.92 210.816 268.768 210.816 267.552ZM220 271.84C221.152 271.84 222.123 271.424 222.912 270.592C223.723 269.76 224.128 268.747 224.128 267.552C224.128 266.336 223.723 265.312 222.912 264.48C222.123 263.648 221.152 263.232 220 263.232C218.848 263.232 217.867 263.648 217.056 264.48C216.267 265.312 215.872 266.336 215.872 267.552C215.872 268.747 216.267 269.76 217.056 270.592C217.867 271.424 218.848 271.84 220 271.84ZM231.004 267.552C231.004 266.336 231.239 265.195 231.708 264.128C232.199 263.04 232.849 262.101 233.66 261.312C234.492 260.523 235.463 259.904 236.572 259.456C237.703 258.987 238.908 258.752 240.188 258.752C241.468 258.752 242.663 258.987 243.772 259.456C244.903 259.904 245.873 260.523 246.684 261.312C247.516 262.101 248.167 263.04 248.636 264.128C249.127 265.195 249.372 266.336 249.372 267.552C249.372 268.768 249.127 269.92 248.636 271.008C248.167 272.075 247.516 273.003 246.684 273.792C245.873 274.581 244.903 275.2 243.772 275.648C242.663 276.096 241.468 276.32 240.188 276.32C238.908 276.32 237.703 276.096 236.572 275.648C235.463 275.2 234.492 274.581 233.66 273.792C232.849 273.003 232.199 272.075 231.708 271.008C231.239 269.92 231.004 268.768 231.004 267.552ZM240.188 271.84C241.34 271.84 242.311 271.424 243.1 270.592C243.911 269.76 244.316 268.747 244.316 267.552C244.316 266.336 243.911 265.312 243.1 264.48C242.311 263.648 241.34 263.232 240.188 263.232C239.036 263.232 238.055 263.648 237.244 264.48C236.455 265.312 236.06 266.336 236.06 267.552C236.06 268.747 236.455 269.76 237.244 270.592C238.055 271.424 239.036 271.84 240.188 271.84ZM251.803 276V253.6L256.987 252.48V265.984L263.739 259.072H269.531L262.011 266.72L270.043 276H263.483L256.987 268.416V276H251.803ZM285.136 273.76C284.069 274.656 282.97 275.307 281.84 275.712C280.73 276.117 279.472 276.32 278.064 276.32C276.784 276.32 275.578 276.096 274.448 275.648C273.317 275.2 272.336 274.581 271.504 273.792C270.693 273.003 270.042 272.075 269.552 271.008C269.082 269.92 268.848 268.768 268.848 267.552C268.848 266.336 269.072 265.195 269.52 264.128C269.989 263.04 270.618 262.101 271.408 261.312C272.197 260.523 273.125 259.904 274.192 259.456C275.28 259.008 276.442 258.784 277.68 258.784C278.917 258.784 280.058 259.019 281.104 259.488C282.149 259.957 283.045 260.597 283.792 261.408C284.56 262.219 285.157 263.2 285.584 264.352C286.01 265.483 286.224 266.709 286.224 268.032V269.312H274.16C274.501 270.101 275.034 270.752 275.76 271.264C276.485 271.755 277.338 272 278.32 272C279.024 272 279.664 271.893 280.24 271.68C280.816 271.445 281.306 271.125 281.712 270.72L285.136 273.76ZM277.584 263.008C276.73 263.008 275.994 263.243 275.376 263.712C274.757 264.181 274.32 264.843 274.064 265.696H281.136C280.858 264.885 280.4 264.235 279.76 263.744C279.141 263.253 278.416 263.008 277.584 263.008ZM301.219 276V274.752C300.558 275.221 299.843 275.584 299.075 275.84C298.307 276.096 297.507 276.224 296.675 276.224C295.48 276.224 294.35 276 293.283 275.552C292.238 275.104 291.32 274.485 290.531 273.696C289.763 272.907 289.155 271.989 288.707 270.944C288.259 269.877 288.035 268.736 288.035 267.52C288.035 266.304 288.259 265.173 288.707 264.128C289.176 263.061 289.806 262.144 290.595 261.376C291.384 260.587 292.312 259.968 293.379 259.52C294.467 259.072 295.619 258.848 296.835 258.848C297.624 258.848 298.382 258.944 299.107 259.136C299.832 259.328 300.515 259.605 301.155 259.968V253.6L306.339 252.48V276H301.219ZM293.123 267.52C293.123 268.736 293.55 269.76 294.403 270.592C295.278 271.403 296.334 271.808 297.571 271.808C298.296 271.808 298.958 271.701 299.555 271.488C300.152 271.253 300.686 270.912 301.155 270.464V264.544C300.707 264.139 300.174 263.819 299.555 263.584C298.936 263.349 298.275 263.232 297.571 263.232C296.312 263.232 295.256 263.648 294.403 264.48C293.55 265.291 293.123 266.304 293.123 267.52ZM321.211 276.288C319.419 276.288 317.947 275.797 316.795 274.816C315.643 273.835 315.067 272.576 315.067 271.04C315.067 269.44 315.675 268.192 316.891 267.296C318.128 266.4 319.846 265.952 322.043 265.952C322.704 265.952 323.355 265.995 323.995 266.08C324.635 266.165 325.264 266.283 325.883 266.432V265.6C325.883 264.747 325.606 264.117 325.051 263.712C324.518 263.285 323.718 263.072 322.651 263.072C321.99 263.072 321.243 263.179 320.411 263.392C319.579 263.605 318.619 263.947 317.531 264.416L315.675 260.608C317.04 259.989 318.374 259.531 319.675 259.232C320.998 258.912 322.299 258.752 323.579 258.752C325.926 258.752 327.75 259.317 329.051 260.448C330.352 261.557 331.003 263.125 331.003 265.152V276H325.883V274.976C325.2 275.445 324.475 275.787 323.707 276C322.96 276.192 322.128 276.288 321.211 276.288ZM319.995 270.944C319.995 271.477 320.23 271.893 320.699 272.192C321.168 272.491 321.819 272.64 322.651 272.64C323.27 272.64 323.846 272.576 324.379 272.448C324.934 272.32 325.435 272.117 325.883 271.84V269.664C325.392 269.536 324.891 269.44 324.379 269.376C323.867 269.312 323.344 269.28 322.811 269.28C321.915 269.28 321.222 269.429 320.731 269.728C320.24 270.005 319.995 270.411 319.995 270.944ZM334.084 276V259.072H339.268V260.224C339.887 259.755 340.58 259.392 341.348 259.136C342.138 258.88 342.959 258.752 343.812 258.752C345.796 258.752 347.418 259.392 348.676 260.672C349.935 261.952 350.564 263.584 350.564 265.568V276H345.38V266.272C345.38 265.355 345.092 264.619 344.516 264.064C343.962 263.488 343.226 263.2 342.308 263.2C341.647 263.2 341.06 263.317 340.548 263.552C340.036 263.787 339.61 264.117 339.268 264.544V276H334.084ZM366.063 276V274.752C365.402 275.221 364.687 275.584 363.919 275.84C363.151 276.096 362.351 276.224 361.519 276.224C360.324 276.224 359.194 276 358.127 275.552C357.082 275.104 356.164 274.485 355.375 273.696C354.607 272.907 353.999 271.989 353.551 270.944C353.103 269.877 352.879 268.736 352.879 267.52C352.879 266.304 353.103 265.173 353.551 264.128C354.02 263.061 354.65 262.144 355.439 261.376C356.228 260.587 357.156 259.968 358.223 259.52C359.311 259.072 360.463 258.848 361.679 258.848C362.468 258.848 363.226 258.944 363.951 259.136C364.676 259.328 365.359 259.605 365.999 259.968V253.6L371.183 252.48V276H366.063ZM357.967 267.52C357.967 268.736 358.394 269.76 359.247 270.592C360.122 271.403 361.178 271.808 362.415 271.808C363.14 271.808 363.802 271.701 364.399 271.488C364.996 271.253 365.53 270.912 365.999 270.464V264.544C365.551 264.139 365.018 263.819 364.399 263.584C363.78 263.349 363.119 263.232 362.415 263.232C361.156 263.232 360.1 263.648 359.247 264.48C358.394 265.291 357.967 266.304 357.967 267.52ZM388.903 276H383.911L379.303 259.072H384.199L386.695 269.024L389.735 259.072H394.023L397.063 269.056L399.527 259.072H404.359L399.719 276H394.759L391.815 266.208L388.903 276ZM421.417 273.76C420.35 274.656 419.252 275.307 418.121 275.712C417.012 276.117 415.753 276.32 414.345 276.32C413.065 276.32 411.86 276.096 410.729 275.648C409.598 275.2 408.617 274.581 407.785 273.792C406.974 273.003 406.324 272.075 405.833 271.008C405.364 269.92 405.129 268.768 405.129 267.552C405.129 266.336 405.353 265.195 405.801 264.128C406.27 263.04 406.9 262.101 407.689 261.312C408.478 260.523 409.406 259.904 410.473 259.456C411.561 259.008 412.724 258.784 413.961 258.784C415.198 258.784 416.34 259.019 417.385 259.488C418.43 259.957 419.326 260.597 420.073 261.408C420.841 262.219 421.438 263.2 421.865 264.352C422.292 265.483 422.505 266.709 422.505 268.032V269.312H410.441C410.782 270.101 411.316 270.752 412.041 271.264C412.766 271.755 413.62 272 414.601 272C415.305 272 415.945 271.893 416.521 271.68C417.097 271.445 417.588 271.125 417.993 270.72L421.417 273.76ZM413.865 263.008C413.012 263.008 412.276 263.243 411.657 263.712C411.038 264.181 410.601 264.843 410.345 265.696H417.417C417.14 264.885 416.681 264.235 416.041 263.744C415.422 263.253 414.697 263.008 413.865 263.008ZM424.928 276V259.072H430.112V260.224C430.731 259.755 431.424 259.392 432.192 259.136C432.981 258.88 433.803 258.752 434.656 258.752C436.64 258.752 438.261 259.392 439.52 260.672C440.779 261.952 441.408 263.584 441.408 265.568V276H436.224V266.272C436.224 265.355 435.936 264.619 435.36 264.064C434.805 263.488 434.069 263.2 433.152 263.2C432.491 263.2 431.904 263.317 431.392 263.552C430.88 263.787 430.453 264.117 430.112 264.544V276H424.928ZM446.266 270.848V263.392H442.842V259.072H446.266V254.72L451.45 253.6V259.072H456.186V263.392H451.45V269.824C451.45 270.571 451.61 271.104 451.93 271.424C452.271 271.723 452.858 271.872 453.69 271.872C454.095 271.872 454.479 271.851 454.842 271.808C455.204 271.744 455.599 271.648 456.026 271.52V275.712C455.556 275.861 454.959 275.979 454.234 276.064C453.508 276.171 452.9 276.224 452.41 276.224C450.383 276.224 448.847 275.776 447.802 274.88C446.778 273.963 446.266 272.619 446.266 270.848ZM463.691 267.552C463.691 266.336 463.926 265.195 464.395 264.128C464.886 263.04 465.537 262.101 466.347 261.312C467.179 260.523 468.15 259.904 469.259 259.456C470.39 258.987 471.595 258.752 472.875 258.752C474.155 258.752 475.35 258.987 476.459 259.456C477.59 259.904 478.561 260.523 479.371 261.312C480.203 262.101 480.854 263.04 481.323 264.128C481.814 265.195 482.059 266.336 482.059 267.552C482.059 268.768 481.814 269.92 481.323 271.008C480.854 272.075 480.203 273.003 479.371 273.792C478.561 274.581 477.59 275.2 476.459 275.648C475.35 276.096 474.155 276.32 472.875 276.32C471.595 276.32 470.39 276.096 469.259 275.648C468.15 275.2 467.179 274.581 466.347 273.792C465.537 273.003 464.886 272.075 464.395 271.008C463.926 269.92 463.691 268.768 463.691 267.552ZM472.875 271.84C474.027 271.84 474.998 271.424 475.787 270.592C476.598 269.76 477.003 268.747 477.003 267.552C477.003 266.336 476.598 265.312 475.787 264.48C474.998 263.648 474.027 263.232 472.875 263.232C471.723 263.232 470.742 263.648 469.931 264.48C469.142 265.312 468.747 266.336 468.747 267.552C468.747 268.747 469.142 269.76 469.931 270.592C470.742 271.424 471.723 271.84 472.875 271.84ZM484.491 276V259.072H489.675V260.224C490.293 259.755 490.987 259.392 491.755 259.136C492.544 258.88 493.365 258.752 494.219 258.752C496.203 258.752 497.824 259.392 499.083 260.672C500.341 261.952 500.971 263.584 500.971 265.568V276H495.787V266.272C495.787 265.355 495.499 264.619 494.923 264.064C494.368 263.488 493.632 263.2 492.715 263.2C492.053 263.2 491.467 263.317 490.955 263.552C490.443 263.787 490.016 264.117 489.675 264.544V276H484.491ZM139.352 318.288C137.56 318.288 136.088 317.797 134.936 316.816C133.784 315.835 133.208 314.576 133.208 313.04C133.208 311.44 133.816 310.192 135.032 309.296C136.269 308.4 137.986 307.952 140.184 307.952C140.845 307.952 141.496 307.995 142.136 308.08C142.776 308.165 143.405 308.283 144.024 308.432V307.6C144.024 306.747 143.746 306.117 143.192 305.712C142.658 305.285 141.858 305.072 140.792 305.072C140.13 305.072 139.384 305.179 138.552 305.392C137.72 305.605 136.76 305.947 135.672 306.416L133.816 302.608C135.181 301.989 136.514 301.531 137.816 301.232C139.138 300.912 140.44 300.752 141.72 300.752C144.066 300.752 145.89 301.317 147.192 302.448C148.493 303.557 149.144 305.125 149.144 307.152V318H144.024V316.976C143.341 317.445 142.616 317.787 141.848 318C141.101 318.192 140.269 318.288 139.352 318.288ZM138.136 312.944C138.136 313.477 138.37 313.893 138.84 314.192C139.309 314.491 139.96 314.64 140.792 314.64C141.41 314.64 141.986 314.576 142.52 314.448C143.074 314.32 143.576 314.117 144.024 313.84V311.664C143.533 311.536 143.032 311.44 142.52 311.376C142.008 311.312 141.485 311.28 140.952 311.28C140.056 311.28 139.362 311.429 138.872 311.728C138.381 312.005 138.136 312.411 138.136 312.944ZM166.315 318.064C165.12 318.064 163.99 317.84 162.923 317.392C161.878 316.944 160.971 316.336 160.203 315.568C159.435 314.779 158.827 313.861 158.379 312.816C157.931 311.749 157.707 310.619 157.707 309.424C157.707 308.229 157.931 307.109 158.379 306.064C158.848 305.019 159.478 304.112 160.267 303.344C161.056 302.576 161.984 301.968 163.051 301.52C164.139 301.072 165.291 300.848 166.507 300.848C167.275 300.848 168.022 300.944 168.747 301.136C169.472 301.328 170.144 301.605 170.763 301.968V301.072H175.883V317.84C175.883 320.123 175.126 321.872 173.611 323.088C172.096 324.325 169.931 324.944 167.115 324.944C165.771 324.944 164.48 324.816 163.243 324.56C162.006 324.304 160.886 323.941 159.883 323.472L161.611 319.44C162.528 319.867 163.435 320.187 164.331 320.4C165.227 320.613 166.123 320.72 167.019 320.72C168.235 320.72 169.152 320.475 169.771 319.984C170.39 319.493 170.699 318.757 170.699 317.776V316.72C170.059 317.147 169.366 317.477 168.619 317.712C167.872 317.947 167.104 318.064 166.315 318.064ZM162.795 309.424C162.795 310.64 163.222 311.664 164.075 312.496C164.928 313.307 165.974 313.712 167.211 313.712C167.915 313.712 168.555 313.605 169.131 313.392C169.728 313.179 170.251 312.869 170.699 312.464V306.48C170.251 306.096 169.728 305.797 169.131 305.584C168.534 305.349 167.904 305.232 167.243 305.232C166.006 305.232 164.95 305.637 164.075 306.448C163.222 307.259 162.795 308.251 162.795 309.424ZM179.069 318V301.072H184.253V302.768C184.807 302.107 185.458 301.595 186.205 301.232C186.951 300.869 187.783 300.688 188.701 300.688C189.191 300.709 189.586 300.752 189.885 300.816C190.183 300.859 190.439 300.955 190.653 301.104V305.616C190.311 305.467 189.927 305.349 189.501 305.264C189.074 305.157 188.637 305.104 188.189 305.104C187.378 305.104 186.621 305.296 185.917 305.68C185.234 306.064 184.679 306.587 184.253 307.248V318H179.069ZM207.776 315.76C206.71 316.656 205.611 317.307 204.48 317.712C203.371 318.117 202.112 318.32 200.704 318.32C199.424 318.32 198.219 318.096 197.088 317.648C195.958 317.2 194.976 316.581 194.144 315.792C193.334 315.003 192.683 314.075 192.192 313.008C191.723 311.92 191.488 310.768 191.488 309.552C191.488 308.336 191.712 307.195 192.16 306.128C192.63 305.04 193.259 304.101 194.048 303.312C194.838 302.523 195.766 301.904 196.832 301.456C197.92 301.008 199.083 300.784 200.32 300.784C201.558 300.784 202.699 301.019 203.744 301.488C204.79 301.957 205.686 302.597 206.432 303.408C207.2 304.219 207.798 305.2 208.224 306.352C208.651 307.483 208.864 308.709 208.864 310.032V311.312H196.8C197.142 312.101 197.675 312.752 198.4 313.264C199.126 313.755 199.979 314 200.96 314C201.664 314 202.304 313.893 202.88 313.68C203.456 313.445 203.947 313.125 204.352 312.72L207.776 315.76ZM200.224 305.008C199.371 305.008 198.635 305.243 198.016 305.712C197.398 306.181 196.96 306.843 196.704 307.696H203.776C203.499 306.885 203.04 306.235 202.4 305.744C201.782 305.253 201.056 305.008 200.224 305.008ZM216.696 318.288C214.904 318.288 213.432 317.797 212.28 316.816C211.128 315.835 210.552 314.576 210.552 313.04C210.552 311.44 211.16 310.192 212.376 309.296C213.613 308.4 215.33 307.952 217.528 307.952C218.189 307.952 218.84 307.995 219.48 308.08C220.12 308.165 220.749 308.283 221.368 308.432V307.6C221.368 306.747 221.09 306.117 220.536 305.712C220.002 305.285 219.202 305.072 218.135 305.072C217.474 305.072 216.728 305.179 215.896 305.392C215.064 305.605 214.104 305.947 213.016 306.416L211.16 302.608C212.525 301.989 213.858 301.531 215.16 301.232C216.482 300.912 217.784 300.752 219.064 300.752C221.41 300.752 223.234 301.317 224.536 302.448C225.837 303.557 226.488 305.125 226.488 307.152V318H221.368V316.976C220.685 317.445 219.96 317.787 219.192 318C218.445 318.192 217.613 318.288 216.696 318.288ZM215.48 312.944C215.48 313.477 215.714 313.893 216.184 314.192C216.653 314.491 217.304 314.64 218.135 314.64C218.754 314.64 219.33 314.576 219.864 314.448C220.418 314.32 220.92 314.117 221.368 313.84V311.664C220.877 311.536 220.376 311.44 219.864 311.376C219.352 311.312 218.829 311.28 218.296 311.28C217.4 311.28 216.706 311.429 216.216 311.728C215.725 312.005 215.48 312.411 215.48 312.944ZM231.344 312.848V305.392H227.92V301.072H231.344V296.72L236.528 295.6V301.072H241.264V305.392H236.528V311.824C236.528 312.571 236.688 313.104 237.008 313.424C237.349 313.723 237.936 313.872 238.768 313.872C239.173 313.872 239.557 313.851 239.92 313.808C240.282 313.744 240.677 313.648 241.104 313.52V317.712C240.634 317.861 240.037 317.979 239.312 318.064C238.586 318.171 237.978 318.224 237.488 318.224C235.461 318.224 233.925 317.776 232.88 316.88C231.856 315.963 231.344 314.619 231.344 312.848ZM249.538 324.752V301.072H254.658V302.32C255.319 301.851 256.034 301.488 256.802 301.232C257.57 300.976 258.37 300.848 259.202 300.848C260.396 300.848 261.516 301.072 262.562 301.52C263.628 301.968 264.546 302.587 265.314 303.376C266.103 304.165 266.722 305.093 267.17 306.16C267.618 307.205 267.842 308.336 267.842 309.552C267.842 310.768 267.607 311.909 267.138 312.976C266.69 314.021 266.071 314.939 265.282 315.728C264.492 316.496 263.554 317.104 262.466 317.552C261.399 318 260.258 318.224 259.042 318.224C258.252 318.224 257.495 318.128 256.77 317.936C256.044 317.744 255.362 317.467 254.722 317.104V324.752H249.538ZM258.306 305.264C257.58 305.264 256.919 305.381 256.322 305.616C255.724 305.829 255.191 306.16 254.722 306.608V312.528C255.17 312.933 255.703 313.253 256.322 313.488C256.94 313.723 257.602 313.84 258.306 313.84C259.564 313.84 260.62 313.435 261.474 312.624C262.327 311.792 262.754 310.768 262.754 309.552C262.754 308.336 262.316 307.323 261.442 306.512C260.588 305.68 259.543 305.264 258.306 305.264ZM269.676 309.552C269.676 308.336 269.91 307.195 270.38 306.128C270.87 305.04 271.521 304.101 272.332 303.312C273.164 302.523 274.134 301.904 275.244 301.456C276.374 300.987 277.58 300.752 278.86 300.752C280.14 300.752 281.334 300.987 282.444 301.456C283.574 301.904 284.545 302.523 285.356 303.312C286.188 304.101 286.838 305.04 287.308 306.128C287.798 307.195 288.044 308.336 288.044 309.552C288.044 310.768 287.798 311.92 287.308 313.008C286.838 314.075 286.188 315.003 285.356 315.792C284.545 316.581 283.574 317.2 282.444 317.648C281.334 318.096 280.14 318.32 278.86 318.32C277.58 318.32 276.374 318.096 275.244 317.648C274.134 317.2 273.164 316.581 272.332 315.792C271.521 315.003 270.87 314.075 270.38 313.008C269.91 311.92 269.676 310.768 269.676 309.552ZM278.86 313.84C280.012 313.84 280.982 313.424 281.772 312.592C282.582 311.76 282.988 310.747 282.988 309.552C282.988 308.336 282.582 307.312 281.772 306.48C280.982 305.648 280.012 305.232 278.86 305.232C277.708 305.232 276.726 305.648 275.916 306.48C275.126 307.312 274.732 308.336 274.732 309.552C274.732 310.747 275.126 311.76 275.916 312.592C276.726 313.424 277.708 313.84 278.86 313.84ZM303.047 318V316.752C302.386 317.221 301.671 317.584 300.903 317.84C300.135 318.096 299.335 318.224 298.503 318.224C297.309 318.224 296.178 318 295.111 317.552C294.066 317.104 293.149 316.485 292.359 315.696C291.591 314.907 290.983 313.989 290.535 312.944C290.087 311.877 289.863 310.736 289.863 309.52C289.863 308.304 290.087 307.173 290.535 306.128C291.005 305.061 291.634 304.144 292.423 303.376C293.213 302.587 294.141 301.968 295.207 301.52C296.295 301.072 297.447 300.848 298.663 300.848C299.453 300.848 300.21 300.944 300.935 301.136C301.661 301.328 302.343 301.605 302.983 301.968V295.6L308.167 294.48V318H303.047ZM294.951 309.52C294.951 310.736 295.378 311.76 296.231 312.592C297.106 313.403 298.162 313.808 299.399 313.808C300.125 313.808 300.786 313.701 301.383 313.488C301.981 313.253 302.514 312.912 302.983 312.464V306.544C302.535 306.139 302.002 305.819 301.383 305.584C300.765 305.349 300.103 305.232 299.399 305.232C298.141 305.232 297.085 305.648 296.231 306.48C295.378 307.291 294.951 308.304 294.951 309.52ZM319.829 313.84C320.533 313.84 321.184 313.691 321.781 313.392C322.379 313.093 322.955 312.635 323.509 312.016L326.581 315.216C325.728 316.197 324.683 316.965 323.445 317.52C322.208 318.053 320.917 318.32 319.573 318.32C318.315 318.32 317.131 318.096 316.021 317.648C314.933 317.2 313.984 316.581 313.173 315.792C312.384 315.003 311.755 314.075 311.285 313.008C310.837 311.941 310.613 310.789 310.613 309.552C310.613 308.315 310.837 307.163 311.285 306.096C311.755 305.008 312.384 304.08 313.173 303.312C313.984 302.523 314.933 301.904 316.021 301.456C317.131 300.987 318.315 300.752 319.573 300.752C320.96 300.752 322.283 301.029 323.541 301.584C324.8 302.139 325.867 302.907 326.741 303.888L323.573 307.184C322.976 306.523 322.368 306.032 321.749 305.712C321.131 305.392 320.448 305.232 319.701 305.232C318.592 305.232 317.653 305.648 316.885 306.48C316.139 307.312 315.765 308.336 315.765 309.552C315.765 310.768 316.149 311.792 316.917 312.624C317.707 313.435 318.677 313.84 319.829 313.84ZM334.039 318.288C332.247 318.288 330.775 317.797 329.623 316.816C328.471 315.835 327.895 314.576 327.895 313.04C327.895 311.44 328.503 310.192 329.719 309.296C330.957 308.4 332.674 307.952 334.871 307.952C335.533 307.952 336.183 307.995 336.823 308.08C337.463 308.165 338.093 308.283 338.711 308.432V307.6C338.711 306.747 338.434 306.117 337.879 305.712C337.346 305.285 336.546 305.072 335.479 305.072C334.818 305.072 334.071 305.179 333.239 305.392C332.407 305.605 331.447 305.947 330.359 306.416L328.503 302.608C329.869 301.989 331.202 301.531 332.503 301.232C333.826 300.912 335.127 300.752 336.407 300.752C338.754 300.752 340.578 301.317 341.879 302.448C343.181 303.557 343.831 305.125 343.831 307.152V318H338.711V316.976C338.029 317.445 337.303 317.787 336.535 318C335.789 318.192 334.957 318.288 334.039 318.288ZM332.823 312.944C332.823 313.477 333.058 313.893 333.527 314.192C333.997 314.491 334.647 314.64 335.479 314.64C336.098 314.64 336.674 314.576 337.207 314.448C337.762 314.32 338.263 314.117 338.711 313.84V311.664C338.221 311.536 337.719 311.44 337.207 311.376C336.695 311.312 336.173 311.28 335.639 311.28C334.743 311.28 334.05 311.429 333.559 311.728C333.069 312.005 332.823 312.411 332.823 312.944ZM345.601 316.112L348.065 312.624C349.131 313.264 350.102 313.733 350.977 314.032C351.851 314.309 352.715 314.448 353.569 314.448C354.422 314.448 355.094 314.331 355.585 314.096C356.097 313.84 356.353 313.509 356.353 313.104C356.353 312.784 356.214 312.528 355.937 312.336C355.659 312.123 355.222 311.973 354.625 311.888L351.265 311.376C349.601 311.12 348.321 310.565 347.424 309.712C346.529 308.837 346.081 307.707 346.081 306.32C346.081 304.613 346.731 303.269 348.033 302.288C349.334 301.307 351.115 300.816 353.377 300.816C354.593 300.816 355.809 300.997 357.025 301.36C358.262 301.701 359.403 302.203 360.449 302.864L357.985 306.192C357.067 305.659 356.193 305.275 355.361 305.04C354.529 304.784 353.697 304.656 352.865 304.656C352.203 304.656 351.67 304.773 351.265 305.008C350.859 305.221 350.657 305.509 350.657 305.872C350.657 306.213 350.806 306.491 351.105 306.704C351.403 306.896 351.915 307.045 352.641 307.152L356.001 307.664C357.665 307.899 358.945 308.453 359.841 309.328C360.758 310.181 361.217 311.269 361.217 312.592C361.217 313.403 361.025 314.16 360.641 314.864C360.257 315.568 359.723 316.176 359.041 316.688C358.379 317.2 357.579 317.605 356.641 317.904C355.702 318.181 354.689 318.32 353.601 318.32C352.001 318.32 350.507 318.139 349.121 317.776C347.755 317.392 346.582 316.837 345.601 316.112ZM365.281 312.848V305.392H361.857V301.072H365.281V296.72L370.465 295.6V301.072H375.201V305.392H370.465V311.824C370.465 312.571 370.625 313.104 370.945 313.424C371.287 313.723 371.873 313.872 372.705 313.872C373.111 313.872 373.495 313.851 373.857 313.808C374.22 313.744 374.615 313.648 375.041 313.52V317.712C374.572 317.861 373.975 317.979 373.249 318.064C372.524 318.171 371.916 318.224 371.425 318.224C369.399 318.224 367.863 317.776 366.817 316.88C365.793 315.963 365.281 314.619 365.281 312.848ZM391.731 318H386.739L382.131 301.072H387.027L389.523 311.024L392.563 301.072H396.851L399.891 311.056L402.355 301.072H407.187L402.547 318H397.587L394.643 308.208L391.731 318ZM411.63 299.504C410.84 299.504 410.168 299.227 409.614 298.672C409.059 298.117 408.782 297.445 408.782 296.656C408.782 295.867 409.059 295.195 409.614 294.64C410.168 294.085 410.84 293.808 411.63 293.808C412.419 293.808 413.091 294.085 413.646 294.64C414.2 295.195 414.478 295.867 414.478 296.656C414.478 297.445 414.2 298.117 413.646 298.672C413.091 299.227 412.419 299.504 411.63 299.504ZM414.222 301.072V318H409.038V301.072H414.222ZM419.812 312.848V305.392H416.389V301.072H419.812V296.72L424.997 295.6V301.072H429.733V305.392H424.997V311.824C424.997 312.571 425.157 313.104 425.477 313.424C425.818 313.723 426.405 313.872 427.237 313.872C427.642 313.872 428.026 313.851 428.389 313.808C428.751 313.744 429.146 313.648 429.573 313.52V317.712C429.103 317.861 428.506 317.979 427.781 318.064C427.055 318.171 426.447 318.224 425.957 318.224C423.93 318.224 422.394 317.776 421.349 316.88C420.325 315.963 419.812 314.619 419.812 312.848ZM431.756 318V295.6L436.94 294.48V302.224C437.559 301.755 438.252 301.392 439.02 301.136C439.81 300.88 440.631 300.752 441.484 300.752C443.468 300.752 445.09 301.392 446.348 302.672C447.607 303.952 448.236 305.584 448.236 307.568V318H443.052V308.272C443.052 307.355 442.764 306.619 442.188 306.064C441.634 305.488 440.898 305.2 439.98 305.2C439.319 305.2 438.732 305.317 438.22 305.552C437.708 305.787 437.282 306.117 436.94 306.544V318H431.756ZM453.911 299.504C453.121 299.504 452.449 299.227 451.895 298.672C451.34 298.117 451.063 297.445 451.063 296.656C451.063 295.867 451.34 295.195 451.895 294.64C452.449 294.085 453.121 293.808 453.911 293.808C454.7 293.808 455.372 294.085 455.927 294.64C456.481 295.195 456.759 295.867 456.759 296.656C456.759 297.445 456.481 298.117 455.927 298.672C455.372 299.227 454.7 299.504 453.911 299.504ZM456.503 301.072V318H451.319V301.072H456.503ZM459.694 318V301.072H464.878V302.224C465.496 301.755 466.19 301.392 466.958 301.136C467.747 300.88 468.568 300.752 469.422 300.752C471.406 300.752 473.027 301.392 474.286 302.672C475.544 303.952 476.174 305.584 476.174 307.568V318H470.99V308.272C470.99 307.355 470.702 306.619 470.126 306.064C469.571 305.488 468.835 305.2 467.918 305.2C467.256 305.2 466.67 305.317 466.158 305.552C465.646 305.787 465.219 306.117 464.878 306.544V318H459.694ZM221.953 354.848V347.392H218.529V343.072H221.953V338.72L227.137 337.6V343.072H231.873V347.392H227.137V353.824C227.137 354.571 227.297 355.104 227.617 355.424C227.958 355.723 228.545 355.872 229.377 355.872C229.782 355.872 230.166 355.851 230.529 355.808C230.892 355.744 231.286 355.648 231.713 355.52V359.712C231.244 359.861 230.646 359.979 229.921 360.064C229.196 360.171 228.588 360.224 228.097 360.224C226.07 360.224 224.534 359.776 223.489 358.88C222.465 357.963 221.953 356.619 221.953 354.848ZM233.897 360V337.6L239.081 336.48V344.224C239.7 343.755 240.393 343.392 241.161 343.136C241.95 342.88 242.772 342.752 243.625 342.752C245.609 342.752 247.23 343.392 248.489 344.672C249.748 345.952 250.377 347.584 250.377 349.568V360H245.193V350.272C245.193 349.355 244.905 348.619 244.329 348.064C243.774 347.488 243.038 347.2 242.121 347.2C241.46 347.2 240.873 347.317 240.361 347.552C239.849 347.787 239.422 348.117 239.081 348.544V360H233.897ZM253.459 360V343.072H258.643V344.768C259.198 344.107 259.849 343.595 260.595 343.232C261.342 342.869 262.174 342.688 263.091 342.688C263.582 342.709 263.977 342.752 264.275 342.816C264.574 342.859 264.83 342.955 265.043 343.104V347.616C264.702 347.467 264.318 347.349 263.891 347.264C263.465 347.157 263.027 347.104 262.579 347.104C261.769 347.104 261.011 347.296 260.307 347.68C259.625 348.064 259.07 348.587 258.643 349.248V360H253.459ZM282.167 357.76C281.1 358.656 280.002 359.307 278.871 359.712C277.762 360.117 276.503 360.32 275.095 360.32C273.815 360.32 272.61 360.096 271.479 359.648C270.348 359.2 269.367 358.581 268.535 357.792C267.724 357.003 267.074 356.075 266.583 355.008C266.114 353.92 265.879 352.768 265.879 351.552C265.879 350.336 266.103 349.195 266.551 348.128C267.02 347.04 267.65 346.101 268.439 345.312C269.228 344.523 270.156 343.904 271.223 343.456C272.311 343.008 273.474 342.784 274.711 342.784C275.948 342.784 277.09 343.019 278.135 343.488C279.18 343.957 280.076 344.597 280.823 345.408C281.591 346.219 282.188 347.2 282.615 348.352C283.042 349.483 283.255 350.709 283.255 352.032V353.312H271.191C271.532 354.101 272.066 354.752 272.791 355.264C273.516 355.755 274.37 356 275.351 356C276.055 356 276.695 355.893 277.271 355.68C277.847 355.445 278.338 355.125 278.743 354.72L282.167 357.76ZM274.615 347.008C273.762 347.008 273.026 347.243 272.407 347.712C271.788 348.181 271.351 348.843 271.095 349.696H278.167C277.89 348.885 277.431 348.235 276.791 347.744C276.172 347.253 275.447 347.008 274.615 347.008ZM301.354 357.76C300.288 358.656 299.189 359.307 298.058 359.712C296.949 360.117 295.69 360.32 294.282 360.32C293.002 360.32 291.797 360.096 290.666 359.648C289.536 359.2 288.554 358.581 287.722 357.792C286.912 357.003 286.261 356.075 285.77 355.008C285.301 353.92 285.066 352.768 285.066 351.552C285.066 350.336 285.29 349.195 285.738 348.128C286.208 347.04 286.837 346.101 287.626 345.312C288.416 344.523 289.344 343.904 290.41 343.456C291.498 343.008 292.661 342.784 293.898 342.784C295.136 342.784 296.277 343.019 297.322 343.488C298.368 343.957 299.264 344.597 300.01 345.408C300.778 346.219 301.376 347.2 301.802 348.352C302.229 349.483 302.442 350.709 302.442 352.032V353.312H290.378C290.72 354.101 291.253 354.752 291.978 355.264C292.704 355.755 293.557 356 294.538 356C295.242 356 295.882 355.893 296.458 355.68C297.034 355.445 297.525 355.125 297.93 354.72L301.354 357.76ZM293.802 347.008C292.949 347.008 292.213 347.243 291.594 347.712C290.976 348.181 290.538 348.843 290.282 349.696H297.354C297.077 348.885 296.618 348.235 295.978 347.744C295.36 347.253 294.634 347.008 293.802 347.008ZM323.532 360V358.752C322.87 359.221 322.156 359.584 321.388 359.84C320.62 360.096 319.82 360.224 318.988 360.224C317.793 360.224 316.662 360 315.596 359.552C314.55 359.104 313.633 358.485 312.844 357.696C312.076 356.907 311.468 355.989 311.02 354.944C310.572 353.877 310.348 352.736 310.348 351.52C310.348 350.304 310.572 349.173 311.02 348.128C311.489 347.061 312.118 346.144 312.908 345.376C313.697 344.587 314.625 343.968 315.692 343.52C316.78 343.072 317.932 342.848 319.148 342.848C319.937 342.848 320.694 342.944 321.42 343.136C322.145 343.328 322.828 343.605 323.468 343.968V337.6L328.652 336.48V360H323.532ZM315.436 351.52C315.436 352.736 315.862 353.76 316.716 354.592C317.59 355.403 318.646 355.808 319.884 355.808C320.609 355.808 321.27 355.701 321.868 355.488C322.465 355.253 322.998 354.912 323.468 354.464V348.544C323.02 348.139 322.486 347.819 321.868 347.584C321.249 347.349 320.588 347.232 319.884 347.232C318.625 347.232 317.569 347.648 316.716 348.48C315.862 349.291 315.436 350.304 315.436 351.52ZM337.274 360.288C335.482 360.288 334.01 359.797 332.858 358.816C331.706 357.835 331.13 356.576 331.13 355.04C331.13 353.44 331.738 352.192 332.954 351.296C334.191 350.4 335.908 349.952 338.106 349.952C338.767 349.952 339.418 349.995 340.058 350.08C340.698 350.165 341.327 350.283 341.946 350.432V349.6C341.946 348.747 341.668 348.117 341.114 347.712C340.58 347.285 339.78 347.072 338.714 347.072C338.052 347.072 337.306 347.179 336.474 347.392C335.642 347.605 334.682 347.947 333.594 348.416L331.738 344.608C333.103 343.989 334.436 343.531 335.738 343.232C337.06 342.912 338.362 342.752 339.642 342.752C341.988 342.752 343.812 343.317 345.114 344.448C346.415 345.557 347.066 347.125 347.066 349.152V360H341.946V358.976C341.263 359.445 340.538 359.787 339.77 360C339.023 360.192 338.191 360.288 337.274 360.288ZM336.058 354.944C336.058 355.477 336.292 355.893 336.762 356.192C337.231 356.491 337.882 356.64 338.714 356.64C339.332 356.64 339.908 356.576 340.442 356.448C340.996 356.32 341.498 356.117 341.946 355.84V353.664C341.455 353.536 340.954 353.44 340.442 353.376C339.93 353.312 339.407 353.28 338.874 353.28C337.978 353.28 337.284 353.429 336.794 353.728C336.303 354.005 336.058 354.411 336.058 354.944ZM354.666 360.256V360.224L348.17 343.072H353.898L357.642 353.728L361.994 343.072H367.594L360.01 360.864C359.072 363.061 357.984 364.619 356.746 365.536C355.509 366.453 353.877 366.912 351.85 366.912C351.445 366.912 351.05 366.891 350.666 366.848C350.282 366.827 349.962 366.784 349.706 366.72V362.304C349.941 362.347 350.176 362.379 350.41 362.4C350.666 362.421 350.965 362.432 351.306 362.432C352.117 362.432 352.81 362.251 353.386 361.888C353.962 361.525 354.389 360.981 354.666 360.256ZM367.804 358.112L370.268 354.624C371.334 355.264 372.305 355.733 373.18 356.032C374.054 356.309 374.918 356.448 375.772 356.448C376.625 356.448 377.297 356.331 377.788 356.096C378.3 355.84 378.556 355.509 378.556 355.104C378.556 354.784 378.417 354.528 378.14 354.336C377.862 354.123 377.425 353.973 376.828 353.888L373.468 353.376C371.804 353.12 370.524 352.565 369.628 351.712C368.732 350.837 368.284 349.707 368.284 348.32C368.284 346.613 368.934 345.269 370.236 344.288C371.537 343.307 373.318 342.816 375.58 342.816C376.796 342.816 378.012 342.997 379.228 343.36C380.465 343.701 381.606 344.203 382.652 344.864L380.188 348.192C379.27 347.659 378.396 347.275 377.564 347.04C376.732 346.784 375.9 346.656 375.068 346.656C374.406 346.656 373.873 346.773 373.468 347.008C373.062 347.221 372.86 347.509 372.86 347.872C372.86 348.213 373.009 348.491 373.308 348.704C373.606 348.896 374.118 349.045 374.844 349.152L378.204 349.664C379.868 349.899 381.148 350.453 382.044 351.328C382.961 352.181 383.42 353.269 383.42 354.592C383.42 355.403 383.228 356.16 382.844 356.864C382.46 357.568 381.926 358.176 381.244 358.688C380.582 359.2 379.782 359.605 378.844 359.904C377.905 360.181 376.892 360.32 375.804 360.32C374.204 360.32 372.71 360.139 371.324 359.776C369.958 359.392 368.785 358.837 367.804 358.112ZM385.941 353.088L385.301 336.16H390.549L389.909 353.088H385.941ZM387.925 360.352C387.114 360.352 386.41 360.064 385.813 359.488C385.237 358.891 384.949 358.187 384.949 357.376C384.949 356.565 385.237 355.872 385.813 355.296C386.41 354.699 387.114 354.4 387.925 354.4C388.736 354.4 389.429 354.699 390.005 355.296C390.602 355.872 390.901 356.565 390.901 357.376C390.901 358.187 390.602 358.891 390.005 359.488C389.429 360.064 388.736 360.352 387.925 360.352Z" fill="white"/>
    </svg>
    