<svg width="611" height="530" viewBox="0 0 611 530" fill="none" xmlns="http://www.w3.org/2000/svg">
    <rect width="611" height="530" fill="#F4C13A" />
    <path d="M356.931 174.121C368.725 159.187 367.537 140.01 367.5 139.791V81.4582C367.5 79.5243 366.841 77.6696 365.669 76.3022C364.497 74.9347 362.907 74.1665 361.25 74.1665H323.75C316.856 74.1665 311.25 80.7071 311.25 88.7498V139.791C311.25 141.725 311.908 143.58 313.08 144.947C314.253 146.315 315.842 147.083 317.5 147.083H336.737C336.605 150.688 335.682 154.193 334.056 157.262C330.881 163.103 324.9 167.091 316.269 169.104L311.25 170.271V190.833H317.5C334.894 190.833 348.162 185.211 356.931 174.121ZM288.137 174.121C299.937 159.187 298.744 140.01 298.706 139.791V81.4582C298.706 79.5243 298.048 77.6696 296.875 76.3022C295.703 74.9347 294.114 74.1665 292.456 74.1665H254.956C248.062 74.1665 242.456 80.7071 242.456 88.7498V139.791C242.456 141.725 243.115 143.58 244.287 144.947C245.459 146.315 247.048 147.083 248.706 147.083H267.944C267.812 150.688 266.888 154.193 265.262 157.262C262.087 163.103 256.106 167.091 247.475 169.104L242.456 170.271V190.833H248.706C266.1 190.833 279.369 185.211 288.137 174.121Z" fill="#707070" fill-opacity="0.25" />
    <path d="M134.809 276V253.6H140.313V276H134.809ZM148.71 274.112L151.174 270.624C152.241 271.264 153.211 271.733 154.086 272.032C154.961 272.309 155.825 272.448 156.678 272.448C157.531 272.448 158.203 272.331 158.694 272.096C159.206 271.84 159.462 271.509 159.462 271.104C159.462 270.784 159.323 270.528 159.046 270.336C158.769 270.123 158.331 269.973 157.734 269.888L154.374 269.376C152.71 269.12 151.43 268.565 150.534 267.712C149.638 266.837 149.19 265.707 149.19 264.32C149.19 262.613 149.841 261.269 151.142 260.288C152.443 259.307 154.225 258.816 156.486 258.816C157.702 258.816 158.918 258.997 160.134 259.36C161.371 259.701 162.513 260.203 163.558 260.864L161.094 264.192C160.177 263.659 159.302 263.275 158.47 263.04C157.638 262.784 156.806 262.656 155.974 262.656C155.313 262.656 154.779 262.773 154.374 263.008C153.969 263.221 153.766 263.509 153.766 263.872C153.766 264.213 153.915 264.491 154.214 264.704C154.513 264.896 155.025 265.045 155.75 265.152L159.11 265.664C160.774 265.899 162.054 266.453 162.95 267.328C163.867 268.181 164.326 269.269 164.326 270.592C164.326 271.403 164.134 272.16 163.75 272.864C163.366 273.568 162.833 274.176 162.15 274.688C161.489 275.2 160.689 275.605 159.75 275.904C158.811 276.181 157.798 276.32 156.71 276.32C155.11 276.32 153.617 276.139 152.23 275.776C150.865 275.392 149.691 274.837 148.71 274.112ZM171.867 276.288C170.075 276.288 168.603 275.797 167.451 274.816C166.299 273.835 165.723 272.576 165.723 271.04C165.723 269.44 166.331 268.192 167.547 267.296C168.785 266.4 170.502 265.952 172.699 265.952C173.361 265.952 174.011 265.995 174.651 266.08C175.291 266.165 175.921 266.283 176.539 266.432V265.6C176.539 264.747 176.262 264.117 175.707 263.712C175.174 263.285 174.374 263.072 173.307 263.072C172.646 263.072 171.899 263.179 171.067 263.392C170.235 263.605 169.275 263.947 168.187 264.416L166.331 260.608C167.697 259.989 169.03 259.531 170.331 259.232C171.654 258.912 172.955 258.752 174.235 258.752C176.582 258.752 178.406 259.317 179.707 260.448C181.009 261.557 181.659 263.125 181.659 265.152V276H176.539V274.976C175.857 275.445 175.131 275.787 174.363 276C173.617 276.192 172.785 276.288 171.867 276.288ZM170.651 270.944C170.651 271.477 170.886 271.893 171.355 272.192C171.825 272.491 172.475 272.64 173.307 272.64C173.926 272.64 174.502 272.576 175.035 272.448C175.59 272.32 176.091 272.117 176.539 271.84V269.664C176.049 269.536 175.547 269.44 175.035 269.376C174.523 269.312 174.001 269.28 173.467 269.28C172.571 269.28 171.878 269.429 171.387 269.728C170.897 270.005 170.651 270.411 170.651 270.944ZM192.684 276H187.692L183.084 259.072H187.98L190.476 269.024L193.516 259.072H197.804L200.844 269.056L203.308 259.072H208.14L203.5 276H198.54L195.596 266.208L192.684 276ZM221.649 276.288C219.857 276.288 218.385 275.797 217.233 274.816C216.081 273.835 215.505 272.576 215.505 271.04C215.505 269.44 216.113 268.192 217.329 267.296C218.566 266.4 220.283 265.952 222.481 265.952C223.142 265.952 223.793 265.995 224.433 266.08C225.073 266.165 225.702 266.283 226.321 266.432V265.6C226.321 264.747 226.043 264.117 225.489 263.712C224.955 263.285 224.155 263.072 223.089 263.072C222.427 263.072 221.681 263.179 220.849 263.392C220.017 263.605 219.057 263.947 217.969 264.416L216.113 260.608C217.478 259.989 218.811 259.531 220.113 259.232C221.435 258.912 222.737 258.752 224.017 258.752C226.363 258.752 228.187 259.317 229.489 260.448C230.79 261.557 231.441 263.125 231.441 265.152V276H226.321V274.976C225.638 275.445 224.913 275.787 224.145 276C223.398 276.192 222.566 276.288 221.649 276.288ZM220.433 270.944C220.433 271.477 220.667 271.893 221.137 272.192C221.606 272.491 222.257 272.64 223.089 272.64C223.707 272.64 224.283 272.576 224.817 272.448C225.371 272.32 225.873 272.117 226.321 271.84V269.664C225.83 269.536 225.329 269.44 224.817 269.376C224.305 269.312 223.782 269.28 223.249 269.28C222.353 269.28 221.659 269.429 221.169 269.728C220.678 270.005 220.433 270.411 220.433 270.944ZM241.156 265.632L241.7 253.6H256.676V257.92H245.892L245.7 262.304C246.34 262.091 246.98 261.941 247.62 261.856C248.281 261.749 248.975 261.696 249.7 261.696C252.175 261.696 254.169 262.336 255.684 263.616C257.199 264.875 257.956 266.539 257.956 268.608C257.956 269.76 257.721 270.816 257.252 271.776C256.804 272.715 256.164 273.525 255.332 274.208C254.5 274.891 253.497 275.424 252.324 275.808C251.172 276.171 249.892 276.352 248.484 276.352C246.863 276.352 245.316 276.096 243.844 275.584C242.393 275.072 241.103 274.325 239.972 273.344L243.076 269.824C244.036 270.613 244.943 271.179 245.796 271.52C246.649 271.84 247.599 272 248.644 272C249.86 272 250.831 271.712 251.556 271.136C252.281 270.56 252.644 269.803 252.644 268.864C252.644 267.947 252.239 267.211 251.428 266.656C250.639 266.08 249.625 265.792 248.388 265.792C247.769 265.792 247.129 265.867 246.468 266.016C245.807 266.165 245.188 266.379 244.612 266.656L241.156 265.632ZM269.162 276.352C267.818 276.352 266.57 276.192 265.418 275.872C264.287 275.531 263.317 275.072 262.506 274.496C261.717 273.92 261.098 273.216 260.65 272.384C260.202 271.552 259.978 270.645 259.978 269.664C259.978 268.576 260.298 267.584 260.938 266.688C261.599 265.771 262.453 265.067 263.498 264.576C262.645 264.043 261.951 263.36 261.418 262.528C260.906 261.675 260.65 260.747 260.65 259.744C260.65 258.827 260.863 257.973 261.29 257.184C261.738 256.373 262.335 255.68 263.082 255.104C263.829 254.528 264.725 254.08 265.77 253.76C266.815 253.419 267.935 253.248 269.13 253.248C270.346 253.248 271.477 253.419 272.522 253.76C273.567 254.08 274.463 254.528 275.21 255.104C275.978 255.68 276.575 256.373 277.002 257.184C277.45 257.973 277.674 258.827 277.674 259.744C277.674 260.747 277.407 261.675 276.874 262.528C276.362 263.36 275.679 264.043 274.826 264.576C275.871 265.067 276.714 265.771 277.354 266.688C278.015 267.584 278.346 268.576 278.346 269.664C278.346 270.645 278.122 271.552 277.674 272.384C277.226 273.216 276.597 273.92 275.786 274.496C274.997 275.072 274.026 275.531 272.874 275.872C271.743 276.192 270.506 276.352 269.162 276.352ZM269.162 262.72C270.143 262.72 270.954 262.464 271.594 261.952C272.255 261.44 272.586 260.821 272.586 260.096C272.586 259.349 272.255 258.731 271.594 258.24C270.954 257.728 270.143 257.472 269.162 257.472C268.181 257.472 267.359 257.728 266.698 258.24C266.058 258.731 265.738 259.349 265.738 260.096C265.738 260.821 266.058 261.44 266.698 261.952C267.359 262.464 268.181 262.72 269.162 262.72ZM269.162 272.128C270.314 272.128 271.263 271.872 272.01 271.36C272.757 270.827 273.13 270.155 273.13 269.344C273.13 268.533 272.757 267.872 272.01 267.36C271.263 266.827 270.314 266.56 269.162 266.56C268.01 266.56 267.061 266.827 266.314 267.36C265.567 267.872 265.194 268.533 265.194 269.344C265.194 270.155 265.567 270.827 266.314 271.36C267.061 271.872 268.01 272.128 269.162 272.128ZM285.279 264.96C283.679 264.96 282.399 264.437 281.439 263.392C280.5 262.325 280.031 260.917 280.031 259.168C280.031 257.44 280.511 256.053 281.471 255.008C282.431 253.941 283.7 253.408 285.279 253.408C286.857 253.408 288.127 253.941 289.087 255.008C290.047 256.053 290.527 257.44 290.527 259.168C290.527 260.917 290.047 262.325 289.087 263.392C288.148 264.437 286.879 264.96 285.279 264.96ZM285.279 262.272C285.983 262.272 286.527 262.005 286.911 261.472C287.316 260.917 287.519 260.149 287.519 259.168C287.519 258.229 287.316 257.483 286.911 256.928C286.505 256.373 285.961 256.096 285.279 256.096C284.596 256.096 284.052 256.373 283.647 256.928C283.263 257.483 283.071 258.229 283.071 259.168C283.071 260.149 283.263 260.917 283.647 261.472C284.031 262.005 284.575 262.272 285.279 262.272ZM287.743 276H283.967L296.671 253.6H300.479L287.743 276ZM299.551 276.16C297.951 276.16 296.671 275.637 295.711 274.592C294.772 273.525 294.303 272.117 294.303 270.368C294.303 268.64 294.783 267.253 295.743 266.208C296.703 265.141 297.972 264.608 299.551 264.608C301.129 264.608 302.399 265.141 303.359 266.208C304.319 267.253 304.799 268.64 304.799 270.368C304.799 272.117 304.319 273.525 303.359 274.592C302.42 275.637 301.151 276.16 299.551 276.16ZM299.551 273.472C300.255 273.472 300.799 273.205 301.183 272.672C301.588 272.117 301.791 271.349 301.791 270.368C301.791 269.429 301.588 268.683 301.183 268.128C300.777 267.573 300.233 267.296 299.551 267.296C298.868 267.296 298.324 267.573 297.919 268.128C297.535 268.683 297.343 269.429 297.343 270.368C297.343 271.349 297.535 272.117 297.919 272.672C298.303 273.205 298.847 273.472 299.551 273.472ZM315.895 257.504C315.106 257.504 314.434 257.227 313.879 256.672C313.324 256.117 313.047 255.445 313.047 254.656C313.047 253.867 313.324 253.195 313.879 252.64C314.434 252.085 315.106 251.808 315.895 251.808C316.684 251.808 317.356 252.085 317.911 252.64C318.466 253.195 318.743 253.867 318.743 254.656C318.743 255.445 318.466 256.117 317.911 256.672C317.356 257.227 316.684 257.504 315.895 257.504ZM318.487 259.072V276H313.303V259.072H318.487ZM321.678 276V259.072H326.862V260.224C327.481 259.755 328.174 259.392 328.942 259.136C329.731 258.88 330.553 258.752 331.406 258.752C333.39 258.752 335.011 259.392 336.27 260.672C337.529 261.952 338.158 263.584 338.158 265.568V276H332.974V266.272C332.974 265.355 332.686 264.619 332.11 264.064C331.555 263.488 330.819 263.2 329.902 263.2C329.241 263.2 328.654 263.317 328.142 263.552C327.63 263.787 327.203 264.117 326.862 264.544V276H321.678ZM349.689 271.84C350.393 271.84 351.043 271.691 351.641 271.392C352.238 271.093 352.814 270.635 353.369 270.016L356.441 273.216C355.587 274.197 354.542 274.965 353.305 275.52C352.067 276.053 350.777 276.32 349.433 276.32C348.174 276.32 346.99 276.096 345.881 275.648C344.793 275.2 343.843 274.581 343.033 273.792C342.243 273.003 341.614 272.075 341.145 271.008C340.697 269.941 340.473 268.789 340.473 267.552C340.473 266.315 340.697 265.163 341.145 264.096C341.614 263.008 342.243 262.08 343.033 261.312C343.843 260.523 344.793 259.904 345.881 259.456C346.99 258.987 348.174 258.752 349.433 258.752C350.819 258.752 352.142 259.029 353.401 259.584C354.659 260.139 355.726 260.907 356.601 261.888L353.433 265.184C352.835 264.523 352.227 264.032 351.609 263.712C350.99 263.392 350.307 263.232 349.561 263.232C348.451 263.232 347.513 263.648 346.745 264.48C345.998 265.312 345.625 266.336 345.625 267.552C345.625 268.768 346.009 269.792 346.777 270.624C347.566 271.435 348.537 271.84 349.689 271.84ZM358.491 276V259.072H363.675V260.768C364.229 260.107 364.88 259.595 365.627 259.232C366.373 258.869 367.205 258.688 368.123 258.688C368.613 258.709 369.008 258.752 369.307 258.816C369.605 258.859 369.861 258.955 370.075 259.104V263.616C369.733 263.467 369.349 263.349 368.923 263.264C368.496 263.157 368.059 263.104 367.611 263.104C366.8 263.104 366.043 263.296 365.339 263.68C364.656 264.064 364.101 264.587 363.675 265.248V276H358.491ZM387.198 273.76C386.131 274.656 385.033 275.307 383.902 275.712C382.793 276.117 381.534 276.32 380.126 276.32C378.846 276.32 377.641 276.096 376.51 275.648C375.379 275.2 374.398 274.581 373.566 273.792C372.755 273.003 372.105 272.075 371.614 271.008C371.145 269.92 370.91 268.768 370.91 267.552C370.91 266.336 371.134 265.195 371.582 264.128C372.051 263.04 372.681 262.101 373.47 261.312C374.259 260.523 375.187 259.904 376.254 259.456C377.342 259.008 378.505 258.784 379.742 258.784C380.979 258.784 382.121 259.019 383.166 259.488C384.211 259.957 385.107 260.597 385.854 261.408C386.622 262.219 387.219 263.2 387.646 264.352C388.073 265.483 388.286 266.709 388.286 268.032V269.312H376.222C376.563 270.101 377.097 270.752 377.822 271.264C378.547 271.755 379.401 272 380.382 272C381.086 272 381.726 271.893 382.302 271.68C382.878 271.445 383.369 271.125 383.774 270.72L387.198 273.76ZM379.646 263.008C378.793 263.008 378.057 263.243 377.438 263.712C376.819 264.181 376.382 264.843 376.126 265.696H383.198C382.921 264.885 382.462 264.235 381.822 263.744C381.203 263.253 380.478 263.008 379.646 263.008ZM396.117 276.288C394.325 276.288 392.853 275.797 391.701 274.816C390.549 273.835 389.973 272.576 389.973 271.04C389.973 269.44 390.581 268.192 391.797 267.296C393.035 266.4 394.752 265.952 396.949 265.952C397.611 265.952 398.261 265.995 398.901 266.08C399.541 266.165 400.171 266.283 400.789 266.432V265.6C400.789 264.747 400.512 264.117 399.957 263.712C399.424 263.285 398.624 263.072 397.557 263.072C396.896 263.072 396.149 263.179 395.317 263.392C394.485 263.605 393.525 263.947 392.437 264.416L390.581 260.608C391.947 259.989 393.28 259.531 394.581 259.232C395.904 258.912 397.205 258.752 398.485 258.752C400.832 258.752 402.656 259.317 403.957 260.448C405.259 261.557 405.909 263.125 405.909 265.152V276H400.789V274.976C400.107 275.445 399.381 275.787 398.613 276C397.867 276.192 397.035 276.288 396.117 276.288ZM394.901 270.944C394.901 271.477 395.136 271.893 395.605 272.192C396.075 272.491 396.725 272.64 397.557 272.64C398.176 272.64 398.752 272.576 399.285 272.448C399.84 272.32 400.341 272.117 400.789 271.84V269.664C400.299 269.536 399.797 269.44 399.285 269.376C398.773 269.312 398.251 269.28 397.717 269.28C396.821 269.28 396.128 269.429 395.637 269.728C395.147 270.005 394.901 270.411 394.901 270.944ZM407.679 274.112L410.143 270.624C411.209 271.264 412.18 271.733 413.055 272.032C413.929 272.309 414.793 272.448 415.647 272.448C416.5 272.448 417.172 272.331 417.663 272.096C418.175 271.84 418.431 271.509 418.431 271.104C418.431 270.784 418.292 270.528 418.015 270.336C417.737 270.123 417.3 269.973 416.703 269.888L413.343 269.376C411.679 269.12 410.399 268.565 409.503 267.712C408.607 266.837 408.159 265.707 408.159 264.32C408.159 262.613 408.809 261.269 410.111 260.288C411.412 259.307 413.193 258.816 415.455 258.816C416.671 258.816 417.887 258.997 419.103 259.36C420.34 259.701 421.481 260.203 422.527 260.864L420.063 264.192C419.145 263.659 418.271 263.275 417.439 263.04C416.607 262.784 415.775 262.656 414.943 262.656C414.281 262.656 413.748 262.773 413.343 263.008C412.937 263.221 412.735 263.509 412.735 263.872C412.735 264.213 412.884 264.491 413.183 264.704C413.481 264.896 413.993 265.045 414.719 265.152L418.079 265.664C419.743 265.899 421.023 266.453 421.919 267.328C422.836 268.181 423.295 269.269 423.295 270.592C423.295 271.403 423.103 272.16 422.719 272.864C422.335 273.568 421.801 274.176 421.119 274.688C420.457 275.2 419.657 275.605 418.719 275.904C417.78 276.181 416.767 276.32 415.679 276.32C414.079 276.32 412.585 276.139 411.199 275.776C409.833 275.392 408.66 274.837 407.679 274.112ZM440.948 273.76C439.881 274.656 438.783 275.307 437.652 275.712C436.543 276.117 435.284 276.32 433.876 276.32C432.596 276.32 431.391 276.096 430.26 275.648C429.129 275.2 428.148 274.581 427.316 273.792C426.505 273.003 425.855 272.075 425.364 271.008C424.895 269.92 424.66 268.768 424.66 267.552C424.66 266.336 424.884 265.195 425.332 264.128C425.801 263.04 426.431 262.101 427.22 261.312C428.009 260.523 428.937 259.904 430.004 259.456C431.092 259.008 432.255 258.784 433.492 258.784C434.729 258.784 435.871 259.019 436.916 259.488C437.961 259.957 438.857 260.597 439.604 261.408C440.372 262.219 440.969 263.2 441.396 264.352C441.823 265.483 442.036 266.709 442.036 268.032V269.312H429.972C430.313 270.101 430.847 270.752 431.572 271.264C432.297 271.755 433.151 272 434.132 272C434.836 272 435.476 271.893 436.052 271.68C436.628 271.445 437.119 271.125 437.524 270.72L440.948 273.76ZM433.396 263.008C432.543 263.008 431.807 263.243 431.188 263.712C430.569 264.181 430.132 264.843 429.876 265.696H436.948C436.671 264.885 436.212 264.235 435.572 263.744C434.953 263.253 434.228 263.008 433.396 263.008ZM453.301 257.504C452.512 257.504 451.84 257.227 451.285 256.672C450.731 256.117 450.453 255.445 450.453 254.656C450.453 253.867 450.731 253.195 451.285 252.64C451.84 252.085 452.512 251.808 453.301 251.808C454.091 251.808 454.763 252.085 455.317 252.64C455.872 253.195 456.149 253.867 456.149 254.656C456.149 255.445 455.872 256.117 455.317 256.672C454.763 257.227 454.091 257.504 453.301 257.504ZM455.893 259.072V276H450.709V259.072H455.893ZM459.084 276V259.072H464.268V260.224C464.887 259.755 465.58 259.392 466.348 259.136C467.138 258.88 467.959 258.752 468.812 258.752C470.796 258.752 472.418 259.392 473.676 260.672C474.935 261.952 475.564 263.584 475.564 265.568V276H470.38V266.272C470.38 265.355 470.092 264.619 469.516 264.064C468.962 263.488 468.226 263.2 467.308 263.2C466.647 263.2 466.06 263.317 465.548 263.552C465.036 263.787 464.61 264.117 464.268 264.544V276H459.084ZM140.076 309.552C140.076 310.768 139.841 311.909 139.372 312.976C138.924 314.021 138.305 314.939 137.516 315.728C136.727 316.496 135.788 317.104 134.7 317.552C133.633 318 132.492 318.224 131.276 318.224C130.487 318.224 129.719 318.128 128.972 317.936C128.225 317.723 127.532 317.424 126.892 317.04V318H121.772V295.6L126.956 294.48V302.256C127.617 301.787 128.321 301.435 129.068 301.2C129.836 300.965 130.625 300.848 131.436 300.848C132.631 300.848 133.751 301.072 134.796 301.52C135.863 301.968 136.78 302.587 137.548 303.376C138.337 304.165 138.956 305.093 139.404 306.16C139.852 307.205 140.076 308.336 140.076 309.552ZM130.54 305.264C129.815 305.264 129.153 305.381 128.556 305.616C127.959 305.829 127.425 306.16 126.956 306.608V312.528C127.404 312.933 127.937 313.253 128.556 313.488C129.175 313.723 129.836 313.84 130.54 313.84C131.799 313.84 132.855 313.435 133.708 312.624C134.561 311.792 134.988 310.768 134.988 309.552C134.988 308.336 134.551 307.323 133.676 306.512C132.823 305.68 131.777 305.264 130.54 305.264ZM141.91 309.552C141.91 308.336 142.145 307.195 142.614 306.128C143.105 305.04 143.755 304.101 144.566 303.312C145.398 302.523 146.369 301.904 147.478 301.456C148.609 300.987 149.814 300.752 151.094 300.752C152.374 300.752 153.569 300.987 154.678 301.456C155.809 301.904 156.779 302.523 157.59 303.312C158.422 304.101 159.073 305.04 159.542 306.128C160.033 307.195 160.278 308.336 160.278 309.552C160.278 310.768 160.033 311.92 159.542 313.008C159.073 314.075 158.422 315.003 157.59 315.792C156.779 316.581 155.809 317.2 154.678 317.648C153.569 318.096 152.374 318.32 151.094 318.32C149.814 318.32 148.609 318.096 147.478 317.648C146.369 317.2 145.398 316.581 144.566 315.792C143.755 315.003 143.105 314.075 142.614 313.008C142.145 311.92 141.91 310.768 141.91 309.552ZM151.094 313.84C152.246 313.84 153.217 313.424 154.006 312.592C154.817 311.76 155.222 310.747 155.222 309.552C155.222 308.336 154.817 307.312 154.006 306.48C153.217 305.648 152.246 305.232 151.094 305.232C149.942 305.232 148.961 305.648 148.15 306.48C147.361 307.312 146.966 308.336 146.966 309.552C146.966 310.747 147.361 311.76 148.15 312.592C148.961 313.424 149.942 313.84 151.094 313.84ZM162.098 309.552C162.098 308.336 162.332 307.195 162.802 306.128C163.292 305.04 163.943 304.101 164.754 303.312C165.586 302.523 166.556 301.904 167.666 301.456C168.796 300.987 170.002 300.752 171.282 300.752C172.562 300.752 173.756 300.987 174.866 301.456C175.996 301.904 176.967 302.523 177.778 303.312C178.61 304.101 179.26 305.04 179.73 306.128C180.22 307.195 180.466 308.336 180.466 309.552C180.466 310.768 180.22 311.92 179.73 313.008C179.26 314.075 178.61 315.003 177.778 315.792C176.967 316.581 175.996 317.2 174.866 317.648C173.756 318.096 172.562 318.32 171.282 318.32C170.002 318.32 168.796 318.096 167.666 317.648C166.556 317.2 165.586 316.581 164.754 315.792C163.943 315.003 163.292 314.075 162.802 313.008C162.332 311.92 162.098 310.768 162.098 309.552ZM171.282 313.84C172.434 313.84 173.404 313.424 174.194 312.592C175.004 311.76 175.41 310.747 175.41 309.552C175.41 308.336 175.004 307.312 174.194 306.48C173.404 305.648 172.434 305.232 171.282 305.232C170.13 305.232 169.148 305.648 168.338 306.48C167.548 307.312 167.154 308.336 167.154 309.552C167.154 310.747 167.548 311.76 168.338 312.592C169.148 313.424 170.13 313.84 171.282 313.84ZM182.897 318V295.6L188.081 294.48V307.984L194.833 301.072H200.625L193.105 308.72L201.137 318H194.577L188.081 310.416V318H182.897ZM204.583 299.504C203.793 299.504 203.121 299.227 202.567 298.672C202.012 298.117 201.735 297.445 201.735 296.656C201.735 295.867 202.012 295.195 202.567 294.64C203.121 294.085 203.793 293.808 204.583 293.808C205.372 293.808 206.044 294.085 206.599 294.64C207.153 295.195 207.431 295.867 207.431 296.656C207.431 297.445 207.153 298.117 206.599 298.672C206.044 299.227 205.372 299.504 204.583 299.504ZM207.175 301.072V318H201.991V301.072H207.175ZM210.366 318V301.072H215.55V302.224C216.168 301.755 216.862 301.392 217.63 301.136C218.419 300.88 219.24 300.752 220.094 300.752C222.078 300.752 223.699 301.392 224.958 302.672C226.216 303.952 226.846 305.584 226.846 307.568V318H221.662V308.272C221.662 307.355 221.374 306.619 220.798 306.064C220.243 305.488 219.507 305.2 218.59 305.2C217.928 305.2 217.342 305.317 216.83 305.552C216.318 305.787 215.891 306.117 215.55 306.544V318H210.366ZM237.768 318.064C236.573 318.064 235.443 317.84 234.376 317.392C233.331 316.944 232.424 316.336 231.656 315.568C230.888 314.779 230.28 313.861 229.832 312.816C229.384 311.749 229.16 310.619 229.16 309.424C229.16 308.229 229.384 307.109 229.832 306.064C230.301 305.019 230.931 304.112 231.72 303.344C232.509 302.576 233.437 301.968 234.504 301.52C235.592 301.072 236.744 300.848 237.96 300.848C238.728 300.848 239.475 300.944 240.2 301.136C240.925 301.328 241.597 301.605 242.216 301.968V301.072H247.336V317.84C247.336 320.123 246.579 321.872 245.064 323.088C243.549 324.325 241.384 324.944 238.568 324.944C237.224 324.944 235.933 324.816 234.696 324.56C233.459 324.304 232.339 323.941 231.336 323.472L233.064 319.44C233.981 319.867 234.888 320.187 235.784 320.4C236.68 320.613 237.576 320.72 238.472 320.72C239.688 320.72 240.605 320.475 241.224 319.984C241.843 319.493 242.152 318.757 242.152 317.776V316.72C241.512 317.147 240.819 317.477 240.072 317.712C239.325 317.947 238.557 318.064 237.768 318.064ZM234.248 309.424C234.248 310.64 234.675 311.664 235.528 312.496C236.381 313.307 237.427 313.712 238.664 313.712C239.368 313.712 240.008 313.605 240.584 313.392C241.181 313.179 241.704 312.869 242.152 312.464V306.48C241.704 306.096 241.181 305.797 240.584 305.584C239.987 305.349 239.357 305.232 238.696 305.232C237.459 305.232 236.403 305.637 235.528 306.448C234.675 307.259 234.248 308.251 234.248 309.424ZM249.21 316.112L251.674 312.624C252.741 313.264 253.711 313.733 254.586 314.032C255.461 314.309 256.325 314.448 257.178 314.448C258.031 314.448 258.703 314.331 259.194 314.096C259.706 313.84 259.962 313.509 259.962 313.104C259.962 312.784 259.823 312.528 259.546 312.336C259.269 312.123 258.831 311.973 258.234 311.888L254.874 311.376C253.21 311.12 251.93 310.565 251.034 309.712C250.138 308.837 249.69 307.707 249.69 306.32C249.69 304.613 250.341 303.269 251.642 302.288C252.943 301.307 254.725 300.816 256.986 300.816C258.202 300.816 259.418 300.997 260.634 301.36C261.871 301.701 263.013 302.203 264.058 302.864L261.594 306.192C260.677 305.659 259.802 305.275 258.97 305.04C258.138 304.784 257.306 304.656 256.474 304.656C255.813 304.656 255.279 304.773 254.874 305.008C254.469 305.221 254.266 305.509 254.266 305.872C254.266 306.213 254.415 306.491 254.714 306.704C255.013 306.896 255.525 307.045 256.25 307.152L259.61 307.664C261.274 307.899 262.554 308.453 263.45 309.328C264.367 310.181 264.826 311.269 264.826 312.592C264.826 313.403 264.634 314.16 264.25 314.864C263.866 315.568 263.333 316.176 262.65 316.688C261.989 317.2 261.189 317.605 260.25 317.904C259.311 318.181 258.298 318.32 257.21 318.32C255.61 318.32 254.117 318.139 252.73 317.776C251.365 317.392 250.191 316.837 249.21 316.112ZM281.309 318H276.317L271.709 301.072H276.605L279.101 311.024L282.141 301.072H286.429L289.469 311.056L291.933 301.072H296.765L292.125 318H287.165L284.221 308.208L281.309 318ZM301.208 299.504C300.418 299.504 299.746 299.227 299.192 298.672C298.637 298.117 298.36 297.445 298.36 296.656C298.36 295.867 298.637 295.195 299.192 294.64C299.746 294.085 300.418 293.808 301.208 293.808C301.997 293.808 302.669 294.085 303.224 294.64C303.778 295.195 304.056 295.867 304.056 296.656C304.056 297.445 303.778 298.117 303.224 298.672C302.669 299.227 301.997 299.504 301.208 299.504ZM303.8 301.072V318H298.616V301.072H303.8ZM309.391 312.848V305.392H305.967V301.072H309.391V296.72L314.575 295.6V301.072H319.311V305.392H314.575V311.824C314.575 312.571 314.735 313.104 315.055 313.424C315.396 313.723 315.983 313.872 316.815 313.872C317.22 313.872 317.604 313.851 317.967 313.808C318.329 313.744 318.724 313.648 319.151 313.52V317.712C318.681 317.861 318.084 317.979 317.359 318.064C316.633 318.171 316.025 318.224 315.535 318.224C313.508 318.224 311.972 317.776 310.927 316.88C309.903 315.963 309.391 314.619 309.391 312.848ZM321.334 318V295.6L326.518 294.48V302.224C327.137 301.755 327.83 301.392 328.598 301.136C329.388 300.88 330.209 300.752 331.062 300.752C333.046 300.752 334.668 301.392 335.926 302.672C337.185 303.952 337.814 305.584 337.814 307.568V318H332.63V308.272C332.63 307.355 332.342 306.619 331.766 306.064C331.212 305.488 330.476 305.2 329.558 305.2C328.897 305.2 328.31 305.317 327.798 305.552C327.286 305.787 326.86 306.117 326.518 306.544V318H321.334ZM347.147 324.752V301.072H352.267V302.32C352.928 301.851 353.643 301.488 354.411 301.232C355.179 300.976 355.979 300.848 356.811 300.848C358.006 300.848 359.126 301.072 360.171 301.52C361.238 301.968 362.155 302.587 362.923 303.376C363.712 304.165 364.331 305.093 364.779 306.16C365.227 307.205 365.451 308.336 365.451 309.552C365.451 310.768 365.216 311.909 364.747 312.976C364.299 314.021 363.68 314.939 362.891 315.728C362.102 316.496 361.163 317.104 360.075 317.552C359.008 318 357.867 318.224 356.651 318.224C355.862 318.224 355.104 318.128 354.379 317.936C353.654 317.744 352.971 317.467 352.331 317.104V324.752H347.147ZM355.915 305.264C355.19 305.264 354.528 305.381 353.931 305.616C353.334 305.829 352.8 306.16 352.331 306.608V312.528C352.779 312.933 353.312 313.253 353.931 313.488C354.55 313.723 355.211 313.84 355.915 313.84C357.174 313.84 358.23 313.435 359.083 312.624C359.936 311.792 360.363 310.768 360.363 309.552C360.363 308.336 359.926 307.323 359.051 306.512C358.198 305.68 357.152 305.264 355.915 305.264ZM367.285 309.552C367.285 308.336 367.52 307.195 367.989 306.128C368.48 305.04 369.13 304.101 369.941 303.312C370.773 302.523 371.744 301.904 372.853 301.456C373.984 300.987 375.189 300.752 376.469 300.752C377.749 300.752 378.944 300.987 380.053 301.456C381.184 301.904 382.154 302.523 382.965 303.312C383.797 304.101 384.448 305.04 384.917 306.128C385.408 307.195 385.653 308.336 385.653 309.552C385.653 310.768 385.408 311.92 384.917 313.008C384.448 314.075 383.797 315.003 382.965 315.792C382.154 316.581 381.184 317.2 380.053 317.648C378.944 318.096 377.749 318.32 376.469 318.32C375.189 318.32 373.984 318.096 372.853 317.648C371.744 317.2 370.773 316.581 369.941 315.792C369.13 315.003 368.48 314.075 367.989 313.008C367.52 311.92 367.285 310.768 367.285 309.552ZM376.469 313.84C377.621 313.84 378.592 313.424 379.381 312.592C380.192 311.76 380.597 310.747 380.597 309.552C380.597 308.336 380.192 307.312 379.381 306.48C378.592 305.648 377.621 305.232 376.469 305.232C375.317 305.232 374.336 305.648 373.525 306.48C372.736 307.312 372.341 308.336 372.341 309.552C372.341 310.747 372.736 311.76 373.525 312.592C374.336 313.424 375.317 313.84 376.469 313.84ZM400.657 318V316.752C399.995 317.221 399.281 317.584 398.513 317.84C397.745 318.096 396.945 318.224 396.113 318.224C394.918 318.224 393.787 318 392.721 317.552C391.675 317.104 390.758 316.485 389.969 315.696C389.201 314.907 388.593 313.989 388.145 312.944C387.697 311.877 387.473 310.736 387.473 309.52C387.473 308.304 387.697 307.173 388.145 306.128C388.614 305.061 389.243 304.144 390.033 303.376C390.822 302.587 391.75 301.968 392.817 301.52C393.905 301.072 395.057 300.848 396.273 300.848C397.062 300.848 397.819 300.944 398.545 301.136C399.27 301.328 399.953 301.605 400.593 301.968V295.6L405.777 294.48V318H400.657ZM392.561 309.52C392.561 310.736 392.987 311.76 393.841 312.592C394.715 313.403 395.771 313.808 397.009 313.808C397.734 313.808 398.395 313.701 398.993 313.488C399.59 313.253 400.123 312.912 400.593 312.464V306.544C400.145 306.139 399.611 305.819 398.993 305.584C398.374 305.349 397.713 305.232 397.009 305.232C395.75 305.232 394.694 305.648 393.841 306.48C392.987 307.291 392.561 308.304 392.561 309.52ZM417.439 313.84C418.143 313.84 418.793 313.691 419.391 313.392C419.988 313.093 420.564 312.635 421.119 312.016L424.191 315.216C423.337 316.197 422.292 316.965 421.055 317.52C419.817 318.053 418.527 318.32 417.183 318.32C415.924 318.32 414.74 318.096 413.631 317.648C412.543 317.2 411.593 316.581 410.783 315.792C409.993 315.003 409.364 314.075 408.895 313.008C408.447 311.941 408.223 310.789 408.223 309.552C408.223 308.315 408.447 307.163 408.895 306.096C409.364 305.008 409.993 304.08 410.783 303.312C411.593 302.523 412.543 301.904 413.631 301.456C414.74 300.987 415.924 300.752 417.183 300.752C418.569 300.752 419.892 301.029 421.151 301.584C422.409 302.139 423.476 302.907 424.351 303.888L421.183 307.184C420.585 306.523 419.977 306.032 419.359 305.712C418.74 305.392 418.057 305.232 417.311 305.232C416.201 305.232 415.263 305.648 414.495 306.48C413.748 307.312 413.375 308.336 413.375 309.552C413.375 310.768 413.759 311.792 414.527 312.624C415.316 313.435 416.287 313.84 417.439 313.84ZM431.649 318.288C429.857 318.288 428.385 317.797 427.233 316.816C426.081 315.835 425.505 314.576 425.505 313.04C425.505 311.44 426.113 310.192 427.329 309.296C428.566 308.4 430.283 307.952 432.481 307.952C433.142 307.952 433.793 307.995 434.433 308.08C435.073 308.165 435.702 308.283 436.321 308.432V307.6C436.321 306.747 436.043 306.117 435.489 305.712C434.955 305.285 434.155 305.072 433.089 305.072C432.427 305.072 431.681 305.179 430.849 305.392C430.017 305.605 429.057 305.947 427.969 306.416L426.113 302.608C427.478 301.989 428.811 301.531 430.113 301.232C431.435 300.912 432.737 300.752 434.017 300.752C436.363 300.752 438.187 301.317 439.489 302.448C440.79 303.557 441.441 305.125 441.441 307.152V318H436.321V316.976C435.638 317.445 434.913 317.787 434.145 318C433.398 318.192 432.566 318.288 431.649 318.288ZM430.433 312.944C430.433 313.477 430.667 313.893 431.137 314.192C431.606 314.491 432.257 314.64 433.089 314.64C433.707 314.64 434.283 314.576 434.817 314.448C435.371 314.32 435.873 314.117 436.321 313.84V311.664C435.83 311.536 435.329 311.44 434.817 311.376C434.305 311.312 433.782 311.28 433.249 311.28C432.353 311.28 431.659 311.429 431.169 311.728C430.678 312.005 430.433 312.411 430.433 312.944ZM443.21 316.112L445.674 312.624C446.741 313.264 447.711 313.733 448.586 314.032C449.461 314.309 450.325 314.448 451.178 314.448C452.031 314.448 452.703 314.331 453.194 314.096C453.706 313.84 453.962 313.509 453.962 313.104C453.962 312.784 453.823 312.528 453.546 312.336C453.269 312.123 452.831 311.973 452.234 311.888L448.874 311.376C447.21 311.12 445.93 310.565 445.034 309.712C444.138 308.837 443.69 307.707 443.69 306.32C443.69 304.613 444.341 303.269 445.642 302.288C446.943 301.307 448.725 300.816 450.986 300.816C452.202 300.816 453.418 300.997 454.634 301.36C455.871 301.701 457.013 302.203 458.058 302.864L455.594 306.192C454.677 305.659 453.802 305.275 452.97 305.04C452.138 304.784 451.306 304.656 450.474 304.656C449.813 304.656 449.279 304.773 448.874 305.008C448.469 305.221 448.266 305.509 448.266 305.872C448.266 306.213 448.415 306.491 448.714 306.704C449.013 306.896 449.525 307.045 450.25 307.152L453.61 307.664C455.274 307.899 456.554 308.453 457.45 309.328C458.367 310.181 458.826 311.269 458.826 312.592C458.826 313.403 458.634 314.16 458.25 314.864C457.866 315.568 457.333 316.176 456.65 316.688C455.989 317.2 455.189 317.605 454.25 317.904C453.311 318.181 452.298 318.32 451.21 318.32C449.61 318.32 448.117 318.139 446.73 317.776C445.365 317.392 444.191 316.837 443.21 316.112ZM462.891 312.848V305.392H459.467V301.072H462.891V296.72L468.075 295.6V301.072H472.811V305.392H468.075V311.824C468.075 312.571 468.235 313.104 468.555 313.424C468.896 313.723 469.483 313.872 470.315 313.872C470.72 313.872 471.104 313.851 471.467 313.808C471.829 313.744 472.224 313.648 472.651 313.52V317.712C472.181 317.861 471.584 317.979 470.859 318.064C470.133 318.171 469.525 318.224 469.035 318.224C467.008 318.224 465.472 317.776 464.427 316.88C463.403 315.963 462.891 314.619 462.891 312.848ZM473.835 316.112L476.299 312.624C477.366 313.264 478.336 313.733 479.211 314.032C480.086 314.309 480.95 314.448 481.803 314.448C482.656 314.448 483.328 314.331 483.819 314.096C484.331 313.84 484.587 313.509 484.587 313.104C484.587 312.784 484.448 312.528 484.171 312.336C483.894 312.123 483.456 311.973 482.859 311.888L479.499 311.376C477.835 311.12 476.555 310.565 475.659 309.712C474.763 308.837 474.315 307.707 474.315 306.32C474.315 304.613 474.966 303.269 476.267 302.288C477.568 301.307 479.35 300.816 481.611 300.816C482.827 300.816 484.043 300.997 485.259 301.36C486.496 301.701 487.638 302.203 488.683 302.864L486.219 306.192C485.302 305.659 484.427 305.275 483.595 305.04C482.763 304.784 481.931 304.656 481.099 304.656C480.438 304.656 479.904 304.773 479.499 305.008C479.094 305.221 478.891 305.509 478.891 305.872C478.891 306.213 479.04 306.491 479.339 306.704C479.638 306.896 480.15 307.045 480.875 307.152L484.235 307.664C485.899 307.899 487.179 308.453 488.075 309.328C488.992 310.181 489.451 311.269 489.451 312.592C489.451 313.403 489.259 314.16 488.875 314.864C488.491 315.568 487.958 316.176 487.275 316.688C486.614 317.2 485.814 317.605 484.875 317.904C483.936 318.181 482.923 318.32 481.835 318.32C480.235 318.32 478.742 318.139 477.355 317.776C475.99 317.392 474.816 316.837 473.835 316.112ZM134.309 360H129.317L124.709 343.072H129.605L132.101 353.024L135.141 343.072H139.429L142.469 353.056L144.933 343.072H149.765L145.125 360H140.165L137.221 350.208L134.309 360ZM151.616 360V337.6L156.8 336.48V344.224C157.418 343.755 158.112 343.392 158.88 343.136C159.669 342.88 160.49 342.752 161.344 342.752C163.328 342.752 164.949 343.392 166.208 344.672C167.466 345.952 168.096 347.584 168.096 349.568V360H162.912V350.272C162.912 349.355 162.624 348.619 162.048 348.064C161.493 347.488 160.757 347.2 159.84 347.2C159.178 347.2 158.592 347.317 158.08 347.552C157.568 347.787 157.141 348.117 156.8 348.544V360H151.616ZM186.698 357.76C185.631 358.656 184.533 359.307 183.402 359.712C182.293 360.117 181.034 360.32 179.626 360.32C178.346 360.32 177.141 360.096 176.01 359.648C174.879 359.2 173.898 358.581 173.066 357.792C172.255 357.003 171.605 356.075 171.114 355.008C170.645 353.92 170.41 352.768 170.41 351.552C170.41 350.336 170.634 349.195 171.082 348.128C171.551 347.04 172.181 346.101 172.97 345.312C173.759 344.523 174.687 343.904 175.754 343.456C176.842 343.008 178.005 342.784 179.242 342.784C180.479 342.784 181.621 343.019 182.666 343.488C183.711 343.957 184.607 344.597 185.354 345.408C186.122 346.219 186.719 347.2 187.146 348.352C187.573 349.483 187.786 350.709 187.786 352.032V353.312H175.722C176.063 354.101 176.597 354.752 177.322 355.264C178.047 355.755 178.901 356 179.882 356C180.586 356 181.226 355.893 181.802 355.68C182.378 355.445 182.869 355.125 183.274 354.72L186.698 357.76ZM179.146 347.008C178.293 347.008 177.557 347.243 176.938 347.712C176.319 348.181 175.882 348.843 175.626 349.696H182.698C182.421 348.885 181.962 348.235 181.322 347.744C180.703 347.253 179.978 347.008 179.146 347.008ZM190.209 360V343.072H195.393V344.224C196.012 343.755 196.705 343.392 197.473 343.136C198.263 342.88 199.084 342.752 199.937 342.752C201.921 342.752 203.543 343.392 204.801 344.672C206.06 345.952 206.689 347.584 206.689 349.568V360H201.505V350.272C201.505 349.355 201.217 348.619 200.641 348.064C200.087 347.488 199.351 347.2 198.433 347.2C197.772 347.2 197.185 347.317 196.673 347.552C196.161 347.787 195.735 348.117 195.393 348.544V360H190.209ZM224.47 355.84C225.174 355.84 225.825 355.691 226.422 355.392C227.019 355.093 227.595 354.635 228.15 354.016L231.222 357.216C230.369 358.197 229.323 358.965 228.086 359.52C226.849 360.053 225.558 360.32 224.214 360.32C222.955 360.32 221.771 360.096 220.662 359.648C219.574 359.2 218.625 358.581 217.814 357.792C217.025 357.003 216.395 356.075 215.926 355.008C215.478 353.941 215.254 352.789 215.254 351.552C215.254 350.315 215.478 349.163 215.926 348.096C216.395 347.008 217.025 346.08 217.814 345.312C218.625 344.523 219.574 343.904 220.662 343.456C221.771 342.987 222.955 342.752 224.214 342.752C225.601 342.752 226.923 343.029 228.182 343.584C229.441 344.139 230.507 344.907 231.382 345.888L228.214 349.184C227.617 348.523 227.009 348.032 226.39 347.712C225.771 347.392 225.089 347.232 224.342 347.232C223.233 347.232 222.294 347.648 221.526 348.48C220.779 349.312 220.406 350.336 220.406 351.552C220.406 352.768 220.79 353.792 221.558 354.624C222.347 355.435 223.318 355.84 224.47 355.84ZM231.879 351.552C231.879 350.336 232.114 349.195 232.583 348.128C233.074 347.04 233.724 346.101 234.535 345.312C235.367 344.523 236.338 343.904 237.447 343.456C238.578 342.987 239.783 342.752 241.063 342.752C242.343 342.752 243.538 342.987 244.647 343.456C245.778 343.904 246.748 344.523 247.559 345.312C248.391 346.101 249.042 347.04 249.511 348.128C250.002 349.195 250.247 350.336 250.247 351.552C250.247 352.768 250.002 353.92 249.511 355.008C249.042 356.075 248.391 357.003 247.559 357.792C246.748 358.581 245.778 359.2 244.647 359.648C243.538 360.096 242.343 360.32 241.063 360.32C239.783 360.32 238.578 360.096 237.447 359.648C236.338 359.2 235.367 358.581 234.535 357.792C233.724 357.003 233.074 356.075 232.583 355.008C232.114 353.92 231.879 352.768 231.879 351.552ZM241.063 355.84C242.215 355.84 243.186 355.424 243.975 354.592C244.786 353.76 245.191 352.747 245.191 351.552C245.191 350.336 244.786 349.312 243.975 348.48C243.186 347.648 242.215 347.232 241.063 347.232C239.911 347.232 238.93 347.648 238.119 348.48C237.33 349.312 236.935 350.336 236.935 351.552C236.935 352.747 237.33 353.76 238.119 354.592C238.93 355.424 239.911 355.84 241.063 355.84ZM252.678 360V343.072H257.862V344.16C258.459 343.691 259.11 343.339 259.814 343.104C260.539 342.869 261.297 342.752 262.086 342.752C263.131 342.752 264.081 342.965 264.934 343.392C265.809 343.797 266.534 344.363 267.11 345.088C267.793 344.341 268.603 343.765 269.542 343.36C270.481 342.955 271.505 342.752 272.614 342.752C274.534 342.752 276.102 343.392 277.318 344.672C278.555 345.952 279.174 347.584 279.174 349.568V360H273.99V350.272C273.99 349.355 273.734 348.619 273.222 348.064C272.731 347.488 272.07 347.2 271.238 347.2C270.662 347.2 270.139 347.317 269.67 347.552C269.201 347.765 268.795 348.075 268.454 348.48C268.475 348.651 268.486 348.832 268.486 349.024C268.507 349.195 268.518 349.376 268.518 349.568V360H263.334V350.272C263.334 349.355 263.078 348.619 262.566 348.064C262.075 347.488 261.414 347.2 260.582 347.2C260.006 347.2 259.483 347.307 259.014 347.52C258.566 347.712 258.182 348.011 257.862 348.416V360H252.678ZM282.241 366.752V343.072H287.361V344.32C288.022 343.851 288.737 343.488 289.505 343.232C290.273 342.976 291.073 342.848 291.905 342.848C293.099 342.848 294.219 343.072 295.265 343.52C296.331 343.968 297.249 344.587 298.017 345.376C298.806 346.165 299.425 347.093 299.873 348.16C300.321 349.205 300.545 350.336 300.545 351.552C300.545 352.768 300.31 353.909 299.841 354.976C299.393 356.021 298.774 356.939 297.985 357.728C297.195 358.496 296.257 359.104 295.169 359.552C294.102 360 292.961 360.224 291.745 360.224C290.955 360.224 290.198 360.128 289.473 359.936C288.747 359.744 288.065 359.467 287.425 359.104V366.752H282.241ZM291.009 347.264C290.283 347.264 289.622 347.381 289.025 347.616C288.427 347.829 287.894 348.16 287.425 348.608V354.528C287.873 354.933 288.406 355.253 289.025 355.488C289.643 355.723 290.305 355.84 291.009 355.84C292.267 355.84 293.323 355.435 294.177 354.624C295.03 353.792 295.457 352.768 295.457 351.552C295.457 350.336 295.019 349.323 294.145 348.512C293.291 347.68 292.246 347.264 291.009 347.264ZM308.555 360.288C306.763 360.288 305.291 359.797 304.139 358.816C302.987 357.835 302.411 356.576 302.411 355.04C302.411 353.44 303.019 352.192 304.235 351.296C305.472 350.4 307.19 349.952 309.387 349.952C310.048 349.952 310.699 349.995 311.339 350.08C311.979 350.165 312.608 350.283 313.227 350.432V349.6C313.227 348.747 312.95 348.117 312.395 347.712C311.862 347.285 311.062 347.072 309.995 347.072C309.334 347.072 308.587 347.179 307.755 347.392C306.923 347.605 305.963 347.947 304.875 348.416L303.019 344.608C304.384 343.989 305.718 343.531 307.019 343.232C308.342 342.912 309.643 342.752 310.923 342.752C313.27 342.752 315.094 343.317 316.395 344.448C317.696 345.557 318.347 347.125 318.347 349.152V360H313.227V358.976C312.544 359.445 311.819 359.787 311.051 360C310.304 360.192 309.472 360.288 308.555 360.288ZM307.339 354.944C307.339 355.477 307.574 355.893 308.043 356.192C308.512 356.491 309.163 356.64 309.995 356.64C310.614 356.64 311.19 356.576 311.723 356.448C312.278 356.32 312.779 356.117 313.227 355.84V353.664C312.736 353.536 312.235 353.44 311.723 353.376C311.211 353.312 310.688 353.28 310.155 353.28C309.259 353.28 308.566 353.429 308.075 353.728C307.584 354.005 307.339 354.411 307.339 354.944ZM321.428 360V343.072H326.612V344.768C327.167 344.107 327.817 343.595 328.564 343.232C329.311 342.869 330.143 342.688 331.06 342.688C331.551 342.709 331.945 342.752 332.244 342.816C332.543 342.859 332.799 342.955 333.012 343.104V347.616C332.671 347.467 332.287 347.349 331.86 347.264C331.433 347.157 330.996 347.104 330.548 347.104C329.737 347.104 328.98 347.296 328.276 347.68C327.593 348.064 327.039 348.587 326.612 349.248V360H321.428ZM337.833 341.504C337.043 341.504 336.371 341.227 335.817 340.672C335.262 340.117 334.985 339.445 334.985 338.656C334.985 337.867 335.262 337.195 335.817 336.64C336.371 336.085 337.043 335.808 337.833 335.808C338.622 335.808 339.294 336.085 339.849 336.64C340.403 337.195 340.681 337.867 340.681 338.656C340.681 339.445 340.403 340.117 339.849 340.672C339.294 341.227 338.622 341.504 337.833 341.504ZM340.425 343.072V360H335.241V343.072H340.425ZM343.616 360V343.072H348.8V344.224C349.418 343.755 350.112 343.392 350.88 343.136C351.669 342.88 352.49 342.752 353.344 342.752C355.328 342.752 356.949 343.392 358.208 344.672C359.466 345.952 360.096 347.584 360.096 349.568V360H354.912V350.272C354.912 349.355 354.624 348.619 354.048 348.064C353.493 347.488 352.757 347.2 351.84 347.2C351.178 347.2 350.592 347.317 350.08 347.552C349.568 347.787 349.141 348.117 348.8 348.544V360H343.616ZM371.018 360.064C369.823 360.064 368.693 359.84 367.626 359.392C366.581 358.944 365.674 358.336 364.906 357.568C364.138 356.779 363.53 355.861 363.082 354.816C362.634 353.749 362.41 352.619 362.41 351.424C362.41 350.229 362.634 349.109 363.082 348.064C363.551 347.019 364.181 346.112 364.97 345.344C365.759 344.576 366.687 343.968 367.754 343.52C368.842 343.072 369.994 342.848 371.21 342.848C371.978 342.848 372.725 342.944 373.45 343.136C374.175 343.328 374.847 343.605 375.466 343.968V343.072H380.586V359.84C380.586 362.123 379.829 363.872 378.314 365.088C376.799 366.325 374.634 366.944 371.818 366.944C370.474 366.944 369.183 366.816 367.946 366.56C366.709 366.304 365.589 365.941 364.586 365.472L366.314 361.44C367.231 361.867 368.138 362.187 369.034 362.4C369.93 362.613 370.826 362.72 371.722 362.72C372.938 362.72 373.855 362.475 374.474 361.984C375.093 361.493 375.402 360.757 375.402 359.776V358.72C374.762 359.147 374.069 359.477 373.322 359.712C372.575 359.947 371.807 360.064 371.018 360.064ZM367.498 351.424C367.498 352.64 367.925 353.664 368.778 354.496C369.631 355.307 370.677 355.712 371.914 355.712C372.618 355.712 373.258 355.605 373.834 355.392C374.431 355.179 374.954 354.869 375.402 354.464V348.48C374.954 348.096 374.431 347.797 373.834 347.584C373.237 347.349 372.607 347.232 371.946 347.232C370.709 347.232 369.653 347.637 368.778 348.448C367.925 349.259 367.498 350.251 367.498 351.424ZM392.422 354.848V347.392H388.998V343.072H392.422V338.72L397.606 337.6V343.072H402.342V347.392H397.606V353.824C397.606 354.571 397.766 355.104 398.086 355.424C398.427 355.723 399.014 355.872 399.846 355.872C400.251 355.872 400.635 355.851 400.998 355.808C401.361 355.744 401.755 355.648 402.182 355.52V359.712C401.713 359.861 401.115 359.979 400.39 360.064C399.665 360.171 399.057 360.224 398.566 360.224C396.539 360.224 395.003 359.776 393.958 358.88C392.934 357.963 392.422 356.619 392.422 354.848ZM403.598 351.552C403.598 350.336 403.832 349.195 404.302 348.128C404.792 347.04 405.443 346.101 406.254 345.312C407.086 344.523 408.056 343.904 409.166 343.456C410.296 342.987 411.502 342.752 412.782 342.752C414.062 342.752 415.256 342.987 416.366 343.456C417.496 343.904 418.467 344.523 419.278 345.312C420.11 346.101 420.76 347.04 421.23 348.128C421.72 349.195 421.966 350.336 421.966 351.552C421.966 352.768 421.72 353.92 421.23 355.008C420.76 356.075 420.11 357.003 419.278 357.792C418.467 358.581 417.496 359.2 416.366 359.648C415.256 360.096 414.062 360.32 412.782 360.32C411.502 360.32 410.296 360.096 409.166 359.648C408.056 359.2 407.086 358.581 406.254 357.792C405.443 357.003 404.792 356.075 404.302 355.008C403.832 353.92 403.598 352.768 403.598 351.552ZM412.782 355.84C413.934 355.84 414.904 355.424 415.694 354.592C416.504 353.76 416.91 352.747 416.91 351.552C416.91 350.336 416.504 349.312 415.694 348.48C414.904 347.648 413.934 347.232 412.782 347.232C411.63 347.232 410.648 347.648 409.838 348.48C409.048 349.312 408.654 350.336 408.654 351.552C408.654 352.747 409.048 353.76 409.838 354.592C410.648 355.424 411.63 355.84 412.782 355.84ZM430.903 360V337.6H439.991C441.634 337.6 443.18 337.899 444.631 338.496C446.082 339.072 447.33 339.861 448.375 340.864C449.442 341.867 450.284 343.061 450.903 344.448C451.522 345.813 451.831 347.285 451.831 348.864C451.831 350.4 451.522 351.851 450.903 353.216C450.284 354.581 449.442 355.765 448.375 356.768C447.33 357.771 446.082 358.56 444.631 359.136C443.18 359.712 441.634 360 439.991 360H430.903ZM439.863 342.464H436.407V355.136H439.863C440.738 355.136 441.559 354.976 442.327 354.656C443.095 354.336 443.756 353.899 444.311 353.344C444.887 352.768 445.335 352.096 445.655 351.328C445.975 350.56 446.135 349.739 446.135 348.864C446.135 347.968 445.975 347.136 445.655 346.368C445.335 345.579 444.887 344.896 444.311 344.32C443.756 343.744 443.095 343.296 442.327 342.976C441.559 342.635 440.738 342.464 439.863 342.464ZM454.747 360V337.6H460.251V360H454.747ZM471.069 360V351.648L461.789 337.6H468.125L473.981 346.784L479.869 337.6H485.853L476.573 351.648V360H471.069ZM216.504 393.552C216.504 392.336 216.739 391.195 217.208 390.128C217.699 389.04 218.349 388.101 219.16 387.312C219.992 386.523 220.963 385.904 222.072 385.456C223.203 384.987 224.408 384.752 225.688 384.752C226.968 384.752 228.163 384.987 229.272 385.456C230.403 385.904 231.373 386.523 232.184 387.312C233.016 388.101 233.667 389.04 234.136 390.128C234.627 391.195 234.872 392.336 234.872 393.552C234.872 394.768 234.627 395.92 234.136 397.008C233.667 398.075 233.016 399.003 232.184 399.792C231.373 400.581 230.403 401.2 229.272 401.648C228.163 402.096 226.968 402.32 225.688 402.32C224.408 402.32 223.203 402.096 222.072 401.648C220.963 401.2 219.992 400.581 219.16 399.792C218.349 399.003 217.699 398.075 217.208 397.008C216.739 395.92 216.504 394.768 216.504 393.552ZM225.688 397.84C226.84 397.84 227.811 397.424 228.6 396.592C229.411 395.76 229.816 394.747 229.816 393.552C229.816 392.336 229.411 391.312 228.6 390.48C227.811 389.648 226.84 389.232 225.688 389.232C224.536 389.232 223.555 389.648 222.744 390.48C221.955 391.312 221.56 392.336 221.56 393.552C221.56 394.747 221.955 395.76 222.744 396.592C223.555 397.424 224.536 397.84 225.688 397.84ZM237.303 402V385.072H242.487V386.768C243.042 386.107 243.692 385.595 244.439 385.232C245.186 384.869 246.018 384.688 246.935 384.688C247.426 384.709 247.82 384.752 248.119 384.816C248.418 384.859 248.674 384.955 248.887 385.104V389.616C248.546 389.467 248.162 389.349 247.735 389.264C247.308 389.157 246.871 389.104 246.423 389.104C245.612 389.104 244.855 389.296 244.151 389.68C243.468 390.064 242.914 390.587 242.487 391.248V402H237.303ZM262.774 402.288C260.982 402.288 259.51 401.797 258.358 400.816C257.206 399.835 256.63 398.576 256.63 397.04C256.63 395.44 257.238 394.192 258.454 393.296C259.691 392.4 261.408 391.952 263.606 391.952C264.267 391.952 264.918 391.995 265.558 392.08C266.198 392.165 266.827 392.283 267.446 392.432V391.6C267.446 390.747 267.168 390.117 266.614 389.712C266.08 389.285 265.28 389.072 264.214 389.072C263.552 389.072 262.806 389.179 261.974 389.392C261.142 389.605 260.182 389.947 259.094 390.416L257.238 386.608C258.603 385.989 259.936 385.531 261.238 385.232C262.56 384.912 263.862 384.752 265.142 384.752C267.488 384.752 269.312 385.317 270.614 386.448C271.915 387.557 272.566 389.125 272.566 391.152V402H267.446V400.976C266.763 401.445 266.038 401.787 265.27 402C264.523 402.192 263.691 402.288 262.774 402.288ZM261.558 396.944C261.558 397.477 261.792 397.893 262.262 398.192C262.731 398.491 263.382 398.64 264.214 398.64C264.832 398.64 265.408 398.576 265.942 398.448C266.496 398.32 266.998 398.117 267.446 397.84V395.664C266.955 395.536 266.454 395.44 265.942 395.376C265.43 395.312 264.907 395.28 264.374 395.28C263.478 395.28 262.784 395.429 262.294 395.728C261.803 396.005 261.558 396.411 261.558 396.944ZM283.487 402.064C282.292 402.064 281.162 401.84 280.095 401.392C279.05 400.944 278.143 400.336 277.375 399.568C276.607 398.779 275.999 397.861 275.551 396.816C275.103 395.749 274.879 394.619 274.879 393.424C274.879 392.229 275.103 391.109 275.551 390.064C276.02 389.019 276.65 388.112 277.439 387.344C278.228 386.576 279.156 385.968 280.223 385.52C281.311 385.072 282.463 384.848 283.679 384.848C284.447 384.848 285.194 384.944 285.919 385.136C286.644 385.328 287.316 385.605 287.935 385.968V385.072H293.055V401.84C293.055 404.123 292.298 405.872 290.783 407.088C289.268 408.325 287.103 408.944 284.287 408.944C282.943 408.944 281.652 408.816 280.415 408.56C279.178 408.304 278.058 407.941 277.055 407.472L278.783 403.44C279.7 403.867 280.607 404.187 281.503 404.4C282.399 404.613 283.295 404.72 284.191 404.72C285.407 404.72 286.324 404.475 286.943 403.984C287.562 403.493 287.871 402.757 287.871 401.776V400.72C287.231 401.147 286.538 401.477 285.791 401.712C285.044 401.947 284.276 402.064 283.487 402.064ZM279.967 393.424C279.967 394.64 280.394 395.664 281.247 396.496C282.1 397.307 283.146 397.712 284.383 397.712C285.087 397.712 285.727 397.605 286.303 397.392C286.9 397.179 287.423 396.869 287.871 396.464V390.48C287.423 390.096 286.9 389.797 286.303 389.584C285.706 389.349 285.076 389.232 284.415 389.232C283.178 389.232 282.122 389.637 281.247 390.448C280.394 391.259 279.967 392.251 279.967 393.424ZM311.761 399.76C310.694 400.656 309.595 401.307 308.465 401.712C307.355 402.117 306.097 402.32 304.689 402.32C303.409 402.32 302.203 402.096 301.073 401.648C299.942 401.2 298.961 400.581 298.129 399.792C297.318 399.003 296.667 398.075 296.177 397.008C295.707 395.92 295.473 394.768 295.473 393.552C295.473 392.336 295.697 391.195 296.145 390.128C296.614 389.04 297.243 388.101 298.033 387.312C298.822 386.523 299.75 385.904 300.817 385.456C301.905 385.008 303.067 384.784 304.305 384.784C305.542 384.784 306.683 385.019 307.729 385.488C308.774 385.957 309.67 386.597 310.417 387.408C311.185 388.219 311.782 389.2 312.209 390.352C312.635 391.483 312.849 392.709 312.849 394.032V395.312H300.785C301.126 396.101 301.659 396.752 302.385 397.264C303.11 397.755 303.963 398 304.945 398C305.649 398 306.289 397.893 306.865 397.68C307.441 397.445 307.931 397.125 308.337 396.72L311.761 399.76ZM304.209 389.008C303.355 389.008 302.619 389.243 302.001 389.712C301.382 390.181 300.945 390.843 300.689 391.696H307.761C307.483 390.885 307.025 390.235 306.385 389.744C305.766 389.253 305.041 389.008 304.209 389.008ZM315.272 402V385.072H320.456V386.224C321.075 385.755 321.768 385.392 322.536 385.136C323.325 384.88 324.147 384.752 325 384.752C326.984 384.752 328.605 385.392 329.864 386.672C331.123 387.952 331.752 389.584 331.752 391.568V402H326.568V392.272C326.568 391.355 326.28 390.619 325.704 390.064C325.149 389.488 324.413 389.2 323.496 389.2C322.835 389.2 322.248 389.317 321.736 389.552C321.224 389.787 320.797 390.117 320.456 390.544V402H315.272ZM343.282 397.84C343.986 397.84 344.637 397.691 345.234 397.392C345.832 397.093 346.408 396.635 346.962 396.016L350.034 399.216C349.181 400.197 348.136 400.965 346.898 401.52C345.661 402.053 344.37 402.32 343.026 402.32C341.768 402.32 340.584 402.096 339.474 401.648C338.386 401.2 337.437 400.581 336.626 399.792C335.837 399.003 335.208 398.075 334.738 397.008C334.29 395.941 334.066 394.789 334.066 393.552C334.066 392.315 334.29 391.163 334.738 390.096C335.208 389.008 335.837 388.08 336.626 387.312C337.437 386.523 338.386 385.904 339.474 385.456C340.584 384.987 341.768 384.752 343.026 384.752C344.413 384.752 345.736 385.029 346.994 385.584C348.253 386.139 349.32 386.907 350.194 387.888L347.026 391.184C346.429 390.523 345.821 390.032 345.202 389.712C344.584 389.392 343.901 389.232 343.154 389.232C342.045 389.232 341.106 389.648 340.338 390.48C339.592 391.312 339.218 392.336 339.218 393.552C339.218 394.768 339.602 395.792 340.37 396.624C341.16 397.435 342.13 397.84 343.282 397.84ZM354.676 383.504C353.887 383.504 353.215 383.227 352.66 382.672C352.106 382.117 351.828 381.445 351.828 380.656C351.828 379.867 352.106 379.195 352.66 378.64C353.215 378.085 353.887 377.808 354.676 377.808C355.466 377.808 356.138 378.085 356.692 378.64C357.247 379.195 357.524 379.867 357.524 380.656C357.524 381.445 357.247 382.117 356.692 382.672C356.138 383.227 355.466 383.504 354.676 383.504ZM357.268 385.072V402H352.084V385.072H357.268ZM375.979 399.76C374.913 400.656 373.814 401.307 372.683 401.712C371.574 402.117 370.315 402.32 368.907 402.32C367.627 402.32 366.422 402.096 365.291 401.648C364.161 401.2 363.179 400.581 362.347 399.792C361.537 399.003 360.886 398.075 360.395 397.008C359.926 395.92 359.691 394.768 359.691 393.552C359.691 392.336 359.915 391.195 360.363 390.128C360.833 389.04 361.462 388.101 362.251 387.312C363.041 386.523 363.969 385.904 365.035 385.456C366.123 385.008 367.286 384.784 368.523 384.784C369.761 384.784 370.902 385.019 371.947 385.488C372.993 385.957 373.889 386.597 374.635 387.408C375.403 388.219 376.001 389.2 376.427 390.352C376.854 391.483 377.067 392.709 377.067 394.032V395.312H365.003C365.345 396.101 365.878 396.752 366.603 397.264C367.329 397.755 368.182 398 369.163 398C369.867 398 370.507 397.893 371.083 397.68C371.659 397.445 372.15 397.125 372.555 396.72L375.979 399.76ZM368.427 389.008C367.574 389.008 366.838 389.243 366.219 389.712C365.601 390.181 365.163 390.843 364.907 391.696H371.979C371.702 390.885 371.243 390.235 370.603 389.744C369.985 389.253 369.259 389.008 368.427 389.008ZM378.335 400.112L380.799 396.624C381.866 397.264 382.836 397.733 383.711 398.032C384.586 398.309 385.45 398.448 386.303 398.448C387.156 398.448 387.828 398.331 388.319 398.096C388.831 397.84 389.087 397.509 389.087 397.104C389.087 396.784 388.948 396.528 388.671 396.336C388.394 396.123 387.956 395.973 387.359 395.888L383.999 395.376C382.335 395.12 381.055 394.565 380.159 393.712C379.263 392.837 378.815 391.707 378.815 390.32C378.815 388.613 379.466 387.269 380.767 386.288C382.068 385.307 383.85 384.816 386.111 384.816C387.327 384.816 388.543 384.997 389.759 385.36C390.996 385.701 392.138 386.203 393.183 386.864L390.719 390.192C389.802 389.659 388.927 389.275 388.095 389.04C387.263 388.784 386.431 388.656 385.599 388.656C384.938 388.656 384.404 388.773 383.999 389.008C383.594 389.221 383.391 389.509 383.391 389.872C383.391 390.213 383.54 390.491 383.839 390.704C384.138 390.896 384.65 391.045 385.375 391.152L388.735 391.664C390.399 391.899 391.679 392.453 392.575 393.328C393.492 394.181 393.951 395.269 393.951 396.592C393.951 397.403 393.759 398.16 393.375 398.864C392.991 399.568 392.458 400.176 391.775 400.688C391.114 401.2 390.314 401.605 389.375 401.904C388.436 402.181 387.423 402.32 386.335 402.32C384.735 402.32 383.242 402.139 381.855 401.776C380.49 401.392 379.316 400.837 378.335 400.112Z" fill="white" />
</svg>
    